<?xml version="1.0" encoding="utf-8"?>
<!-- Generator: Adobe Illustrator 25.1.0, SVG Export Plug-In . SVG Version: 6.00 Build 0)  -->
<svg version="1.1" id="Layer_1" xmlns="http://www.w3.org/2000/svg" xmlns:xlink="http://www.w3.org/1999/xlink" x="0px" y="0px"
	 viewBox="0 0 1400 1445.9" style="enable-background:new 0 0 1400 1445.9;" xml:space="preserve">
<style type="text/css">
	.st0{fill:#1CBFE5;}
	.st1{fill:#E41A3E;}
	.st2{fill:#082947;}
	.st3{fill:#FFFFFF;}
	.st4{fill:#3874EB;}
	.st5{fill:#75E6F9;}
	.st6{fill:#8DEFFF;}
	.st7{fill:#699BFF;}
	.st8{fill:#E0E7FB;}
	.st9{fill:#124368;}
	.st10{fill:#65DBEF;}
</style>
<rect x="716" y="641.9" class="st0" width="36.1" height="334.3"/>
<g>
	<path class="st1" d="M1038.1,1348.8V963.3c0-4.1-3.3-7.4-7.4-7.4H437.5c-4.1,0-7.4,3.3-7.4,7.4v385.5H1038.1z"/>
	<g>
		<g>
			<path class="st2" d="M1094.1,1382.2c0,4.1-3.3,7.4-7.4,7.4H381.5c-4.1,0-7.4-3.3-7.4-7.4v-26c0-4.1,3.3-7.4,7.4-7.4h705.3
				c4.1,0,7.4,3.3,7.4,7.4L1094.1,1382.2L1094.1,1382.2z"/>
		</g>
	</g>
	<rect x="462.9" y="987" class="st3" width="542.5" height="330.7"/>
	<rect x="462.9" y="987" class="st2" width="542.5" height="35.8"/>
	<g>
		<g>
			<rect x="486.1" y="1041.1" class="st2" width="34.6" height="14.1"/>
			<rect x="528.8" y="1041.1" class="st2" width="175.4" height="14.1"/>
		</g>
		<g>
			<rect x="593.1" y="1250.3" class="st4" width="118.1" height="14.1"/>
			<rect x="486.1" y="1250.3" class="st4" width="98.9" height="14.1"/>
		</g>
		<g>
			<rect x="526.7" y="1215.5" class="st4" width="72.6" height="14.1"/>
			<rect x="607.4" y="1215.5" class="st4" width="137.5" height="14.1"/>
			<rect x="486.1" y="1215.5" class="st4" width="32.4" height="14.1"/>
		</g>
		<g>
			<rect x="526.7" y="1285.2" class="st4" width="72.6" height="14.1"/>
			<rect x="607.4" y="1285.2" class="st4" width="137.5" height="14.1"/>
			<rect x="486.1" y="1285.2" class="st4" width="32.4" height="14.1"/>
		</g>
		<g>
			<rect x="719.3" y="1076" class="st2" width="29.2" height="14.1"/>
			<rect x="573.7" y="1076" class="st2" width="137.5" height="14.1"/>
			<rect x="486.1" y="1076" class="st2" width="79.5" height="14.1"/>
		</g>
		<g>
			<rect x="719.3" y="1145.7" class="st2" width="29.2" height="14.1"/>
			<rect x="573.7" y="1145.7" class="st2" width="137.5" height="14.1"/>
			<rect x="486.1" y="1145.7" class="st2" width="79.5" height="14.1"/>
		</g>
		<g>
			<rect x="516.8" y="1110.9" class="st4" width="39.3" height="14.1"/>
			<rect x="564.3" y="1110.9" class="st4" width="147" height="14.1"/>
			<rect x="486.1" y="1110.9" class="st4" width="22.6" height="14.1"/>
		</g>
		<g>
			<rect x="656.9" y="1180.6" class="st4" width="25.6" height="14.1"/>
			<rect x="486.1" y="1180.6" class="st4" width="162.7" height="14.1"/>
		</g>
	</g>
	<path class="st3" d="M990,1004.9c0-4.4-3.6-8-8-8s-8,3.6-8,8s3.6,8,8,8S990,1009.3,990,1004.9z"/>
	<path class="st4" d="M946.7,1004.9c0-4.4-3.6-8-8-8s-8,3.6-8,8s3.6,8,8,8S946.7,1009.3,946.7,1004.9z"/>
	<path class="st5" d="M903.5,1004.9c0-4.4-3.6-8-8-8s-8,3.6-8,8s3.6,8,8,8C899.8,1012.9,903.5,1009.3,903.5,1004.9z"/>
</g>
<g>
	<path class="st2" d="M792.7,820c0-32.3-26.2-58.6-58.6-58.6c-32.3,0-58.6,26.2-58.6,58.6c0,32.3,26.2,58.6,58.6,58.6
		C766.4,878.6,792.7,852.3,792.7,820z"/>
	<path class="st0" d="M716.1,837.4l6.3,6.3c3-3,7.1-4.9,11.7-4.9c4.6,0,8.7,1.9,11.7,4.9l6.3-6.3c-4.6-4.6-11-7.5-18-7.5
		S720.7,832.7,716.1,837.4z M727.8,849.1l6.3,6.3l6.3-6.3c-1.6-1.6-3.8-2.6-6.3-2.6C731.6,846.4,729.4,847.4,727.8,849.1z
		 M703.6,824.8l6.3,6.3c6.2-6.2,14.8-10,24.2-10c9.5,0,18,3.8,24.2,10l6.3-6.3c-7.8-7.8-18.6-12.7-30.5-12.7
		C722.2,812.2,711.4,817,703.6,824.8z M734.1,795.8c-16.4,0-31.3,6.7-42.1,17.5l6.3,6.3c9.2-9.2,21.8-14.8,35.8-14.8
		s26.6,5.7,35.8,14.8l6.3-6.3C765.4,802.5,750.5,795.8,734.1,795.8z"/>
</g>
<g>
	<path class="st1" d="M1073.3,653.1c89.2-21.8,155.4-104.4,154.9-202.7c-0.5-110.3-85-199.2-190.8-205.2
		C1019.4,126,919,34.8,798,35.4c-111,0.5-203.9,78.1-231.7,183.1c-8.8-1.1-17.4-2.7-26.4-2.7c-113.2,0.6-204.5,90.5-213.8,204.2
		c-10.9-3.3-22.3-5.6-34.4-5.5c-66.6,0.3-120.3,56.1-120,124.5c0.2,51.6,31.1,95.8,74.9,114.2L1073.3,653.1L1073.3,653.1z"/>
	<g>
		<g>
			<g>
				<path class="st2" d="M1024.9,356c-3.1,2.3-3,7.4,0.4,11.3l35.3,40.9c3.3,3.9,8.3,4.7,10.9,1.7l31.9-46.7
					c2.6-2.9,2.7-7.7,0.1-10.6L1084,330c-2.5-3-7.2-3.4-10.3-1.1L1024.9,356z"/>
				<path class="st2" d="M946.4,524c3.2-2.3,3-7.4-0.4-11.3l-35.4-40.9c-3.4-3.9-8.3-4.7-10.9-1.8l-31.9,46.7
					c-2.6,2.9-2.8,7.7-0.2,10.6l19.5,22.6c2.6,3,7.2,3.4,10.3,1.1L946.4,524z"/>
			</g>
			<g>
				<path class="st2" d="M1071.2,409.1c-3.8-0.7-7.2,3.1-7.5,8.3l-3.1,54.6c-0.3,5.2,2.6,9.3,6.5,9.1l54.7-9.9
					c3.9-0.1,7.2-3.4,7.5-7.3l1.7-30.2c0.3-4-2.7-7.7-6.5-8.2L1071.2,409.1z"/>
				<path class="st2" d="M900.1,470.9c3.8,0.6,7.2-3.1,7.5-8.3l3.2-54.6c0.3-5.2-2.7-9.3-6.5-9.2l-54.7,9.9
					c-3.9,0.1-7.2,3.4-7.5,7.4l-1.7,30.2c-0.2,4,2.7,7.7,6.5,8.2L900.1,470.9z"/>
			</g>
			<g>
				<path class="st2" d="M1067.4,480.3c-2.3-3.2-7.2-3-11,0.4l-39.8,36.3c-3.8,3.5-4.6,8.5-1.7,11.2l45.5,32.8
					c2.8,2.8,7.5,2.8,10.3,0.2l22-20.1c2.9-2.6,3.4-7.4,1-10.6L1067.4,480.3z"/>
				<path class="st2" d="M903.9,399.7c2.3,3.3,7.2,3.1,11-0.4l39.8-36.3c3.8-3.5,4.5-8.5,1.7-11.2L910.9,319
					c-2.8-2.8-7.5-2.8-10.4-0.2l-22,20.1c-2.9,2.6-3.3,7.4-1,10.5L903.9,399.7z"/>
			</g>
			<g>
				<path class="st2" d="M1015.8,527.9c0.6-4-3-7.4-8.1-7.7l-53.1-3.2c-5.1-0.3-9.1,2.7-8.9,6.7l9.6,56.2c0.1,4,3.3,7.4,7.2,7.6
					l29.3,1.8c3.8,0.2,7.4-2.8,8-6.7L1015.8,527.9z"/>
				<path class="st2" d="M955.6,352.1c-0.7,3.9,3,7.4,8.1,7.7l53.1,3.2c5.1,0.3,9.1-2.7,8.9-6.7l-9.6-56.2c-0.1-4-3.3-7.4-7.2-7.7
					l-29.3-1.8c-3.8-0.2-7.4,2.8-8,6.7L955.6,352.1z"/>
			</g>
			<path class="st2" d="M902.3,343.6c51.8-47.3,131.1-42.5,177.1,10.8c46,53.2,41.3,134.7-10.5,182
				c-51.8,47.3-131.1,42.4-177.1-10.8C845.8,472.4,850.5,390.9,902.3,343.6z"/>
			<path class="st3" d="M936.2,382.8c30.8-28.1,77.8-25.2,105.1,6.4s24.5,79.9-6.2,108c-30.7,28.1-77.8,25.2-105.1-6.4
				S905.5,410.8,936.2,382.8z"/>
			<path class="st4" d="M960.3,410.6c15.8-14.4,39.9-12.9,53.9,3.3c14,16.2,12.6,41-3.2,55.4s-39.9,12.9-53.9-3.3
				C943.1,449.8,944.5,425,960.3,410.6z"/>
			<g>
				<g>
					<path class="st4" d="M1039.5,352.9c-0.4,0-0.8-0.1-1.1-0.3c-7.8-5-16.2-8.8-25-11.4c-1.1-0.3-1.8-1.5-1.4-2.7
						c0.3-1.1,1.5-1.8,2.6-1.5c9.1,2.7,17.9,6.7,26,11.9c1,0.6,1.3,2,0.7,3C1040.9,352.6,1040.2,352.9,1039.5,352.9z"/>
				</g>
				<g>
					<path class="st4" d="M915.2,518.2c-0.5,0-1-0.2-1.5-0.6c-26.4-25.8-37.7-63.1-30.2-99.7c4.8-23.6,16.9-44.2,34.8-59.8
						c0.9-0.8,2.2-0.7,3,0.3c0.7,0.9,0.6,2.3-0.3,3c-17.2,14.9-28.7,34.7-33.4,57.3c-7.2,35.1,3.6,70.9,28.9,95.7
						c0.8,0.8,0.9,2.2,0.1,3.1C916.3,518,915.8,518.2,915.2,518.2z"/>
				</g>
				<g>
					<path class="st4" d="M957.4,543c-0.2,0-0.4,0-0.6-0.1c-9.1-2.7-17.9-6.7-26.1-11.9c-1-0.6-1.3-2-0.7-3s1.9-1.3,2.9-0.7
						c7.8,5,16.2,8.8,25,11.4c1.1,0.3,1.8,1.5,1.4,2.7C959.1,542.4,958.3,543,957.4,543z"/>
				</g>
				<g>
					<path class="st4" d="M1051.5,522.4c-0.6,0-1.2-0.3-1.6-0.8c-0.7-0.9-0.6-2.3,0.3-3c17.2-14.9,28.8-34.7,33.4-57.3
						c7.2-35.1-3.6-70.9-29-95.7c-0.8-0.8-0.9-2.2-0.1-3.1s2.1-0.9,3-0.1c26.4,25.8,37.7,63.1,30.2,99.7
						c-4.8,23.6-16.9,44.2-34.8,59.8C1052.5,522.2,1052,522.4,1051.5,522.4z"/>
				</g>
			</g>
		</g>
		<g>
			<g>
				<path class="st3" d="M802.2,473.5c-2.9,0.9-4.1,4.8-2.6,8.6l15.9,40.4c1.5,3.9,5,5.8,7.7,4.3l36.1-26.3c2.7-1.4,4-5,2.9-7.9
					l-8.8-22.3c-1.1-2.9-4.5-4.5-7.4-3.6L802.2,473.5z"/>
				<path class="st3" d="M699.7,578.2c3-0.9,4.1-4.8,2.6-8.6l-16-40.4c-1.5-3.9-5-5.8-7.7-4.3l-36.1,26.3c-2.7,1.4-4,5-2.9,7.9
					l8.8,22.3c1.2,2.9,4.5,4.6,7.5,3.6L699.7,578.2z"/>
			</g>
			<g>
				<path class="st3" d="M823.2,526.1c-2.7-1.5-6.2,0.3-7.8,4.2l-16.5,40.1c-1.6,3.8-0.5,7.7,2.5,8.6l43.6,7.6
					c2.9,1,6.3-0.6,7.5-3.5l9.1-22.2c1.2-2.9,0-6.5-2.8-7.9L823.2,526.1z"/>
				<path class="st3" d="M678.7,525.7c2.7,1.5,6.2-0.3,7.8-4.2l16.6-40.1c1.5-3.8,0.4-7.7-2.5-8.7l-43.6-7.6c-2.9-1-6.3,0.6-7.5,3.5
					l-9.1,22.2c-1.2,2.9,0,6.5,2.8,8L678.7,525.7z"/>
			</g>
			<g>
				<path class="st3" d="M801.9,578.5c-0.9-3-4.6-4.3-8.4-2.7l-39.3,16.4c-3.7,1.6-5.7,5.1-4.2,7.9l25.7,37.1c1.4,2.8,4.9,4.2,7.7,3
					l21.7-9c2.8-1.2,4.5-4.6,3.5-7.6L801.9,578.5z"/>
				<path class="st3" d="M700,473.2c0.9,3.1,4.6,4.3,8.4,2.7l39.3-16.4c3.8-1.6,5.6-5.2,4.2-7.9l-25.6-37.1c-1.4-2.8-4.9-4.2-7.7-3
					l-21.7,9.1c-2.8,1.2-4.4,4.6-3.5,7.6L700,473.2z"/>
			</g>
			<g>
				<path class="st3" d="M750.7,600.2c1.5-2.8-0.3-6.4-4.1-8l-39-17c-3.7-1.6-7.5-0.5-8.4,2.6l-7.4,44.8c-1,3,0.6,6.5,3.4,7.7
					l21.6,9.4c2.8,1.2,6.3,0,7.7-2.9L750.7,600.2z"/>
				<path class="st3" d="M751.1,451.6c-1.5,2.8,0.3,6.4,4.1,8l39,17c3.7,1.6,7.5,0.5,8.4-2.6l7.4-44.8c1-3-0.5-6.5-3.4-7.7
					l-21.6-9.4c-2.8-1.2-6.3,0.1-7.7,2.8L751.1,451.6z"/>
			</g>
			<path class="st3" d="M713.8,431.8c50.6-21,108.1,4,128.6,55.9c20.5,51.9-3.9,111.1-54.4,132.2s-108.1-4-128.6-55.9
				C638.9,512.1,663.3,452.9,713.8,431.8z"/>
			<path class="st2" d="M802.4,508.1c-9.6-29.2-40.4-45-68.9-35.1c-28.4,9.8-43.8,41.5-34.2,70.7s40.4,45,68.8,35.1
				C796.7,569,812,537.3,802.4,508.1z"/>
			<g>
				<g>
					<path class="st4" d="M805.8,474.4c-0.6,0-1.1-0.2-1.5-0.7c-4.7-5-9.9-9.4-15.7-12.9c-1-0.6-1.3-1.9-0.7-3
						c0.6-1,1.9-1.4,2.9-0.8c6.1,3.7,11.7,8.3,16.6,13.6c0.8,0.9,0.8,2.2-0.1,3.1C806.9,474.2,806.3,474.4,805.8,474.4z"/>
				</g>
				<g>
					<path class="st4" d="M686.6,569c-0.7,0-1.4-0.4-1.8-1c-14.3-23.8-15.6-52.9-3.4-77.9c7.8-16.1,20.3-28.7,36.1-36.4
						c1-0.5,2.3-0.1,2.8,1s0.1,2.4-1,2.9c-14.9,7.3-26.8,19.2-34.2,34.4c-11.5,23.6-10.3,51.2,3.3,73.7c0.6,1,0.3,2.3-0.7,3
						C687.3,568.9,686.9,569,686.6,569z"/>
				</g>
				<g>
					<path class="st4" d="M712.2,594.9c-0.4,0-0.7-0.1-1.1-0.3c-6.1-3.7-11.7-8.3-16.6-13.6c-0.8-0.9-0.8-2.2,0.1-3.1
						c0.8-0.8,2.2-0.8,3,0.1c4.7,5,9.9,9.4,15.7,12.9c1,0.6,1.3,1.9,0.7,3C713.6,594.5,712.9,594.9,712.2,594.9z"/>
				</g>
				<g>
					<path class="st4" d="M783.5,598.2c-0.8,0-1.5-0.5-1.9-1.2c-0.5-1.1-0.1-2.4,1-2.9c14.9-7.3,26.8-19.2,34.2-34.4
						c11.5-23.6,10.3-51.2-3.3-73.7c-0.6-1-0.3-2.3,0.7-3c1-0.6,2.3-0.3,2.9,0.7c14.3,23.8,15.6,52.9,3.4,77.9
						c-7.8,16.1-20.3,28.7-36.1,36.4C784.1,598.2,783.8,598.2,783.5,598.2z"/>
				</g>
			</g>
		</g>
		<g>
			<g>
				<path class="st6" d="M667.3,384.5c-1.7-0.2-3.3,1.5-3.3,3.9l-0.7,25.1c-0.1,2.4,1.3,4.3,3.1,4.1l25-5.3c1.8-0.1,3.3-1.7,3.3-3.5
					l0.4-13.9c0.1-1.8-1.3-3.5-3.1-3.7L667.3,384.5z"/>
				<path class="st6" d="M589.5,415.3c1.8,0.3,3.3-1.5,3.3-3.9l0.7-25.1c0.1-2.4-1.3-4.3-3.1-4.1l-25,5.3c-1.8,0.1-3.3,1.7-3.3,3.5
					l-0.4,13.9c-0.1,1.8,1.4,3.5,3.1,3.7L589.5,415.3z"/>
			</g>
			<g>
				<path class="st6" d="M666.5,417.3c-1.1-1.5-3.3-1.3-5.1,0.3l-17.8,17.2c-1.7,1.6-2,4-0.6,5.2l21.3,14.4c1.3,1.2,3.5,1.2,4.7,0
					l9.8-9.5c1.3-1.2,1.5-3.4,0.3-4.8L666.5,417.3z"/>
				<path class="st6" d="M590.2,382.5c1.1,1.4,3.4,1.3,5-0.3L613,365c1.7-1.7,2-4,0.6-5.2l-21.2-14.4c-1.3-1.2-3.5-1.2-4.8,0
					l-9.8,9.5c-1.3,1.3-1.4,3.4-0.3,4.9L590.2,382.5z"/>
			</g>
			<g>
				<path class="st6" d="M643.4,439.9c0.2-1.8-1.5-3.4-3.8-3.4l-24.4-0.8c-2.3-0.1-4.1,1.4-4,3.2l5.2,25.7c0.1,1.8,1.6,3.4,3.4,3.4
					l13.5,0.4c1.8,0.1,3.4-1.4,3.6-3.2L643.4,439.9z"/>
				<path class="st6" d="M613.4,359.9c-0.2,1.8,1.5,3.4,3.8,3.4l24.4,0.8c2.3,0.1,4.1-1.4,4-3.2l-5.1-25.7c-0.1-1.8-1.6-3.4-3.4-3.4
					l-13.5-0.4c-1.8-0.1-3.4,1.4-3.6,3.2L613.4,359.9z"/>
			</g>
			<g>
				<path class="st6" d="M611.4,439.1c1.4-1.1,1.3-3.5-0.3-5.2l-16.8-18.3c-1.6-1.8-3.9-2.1-5-0.7l-14,21.9
					c-1.2,1.4-1.2,3.6,0.1,4.9l9.3,10.1c1.2,1.3,3.3,1.5,4.7,0.3L611.4,439.1z"/>
				<path class="st6" d="M645.3,360.7c-1.4,1.1-1.3,3.4,0.3,5.2l16.8,18.3c1.6,1.7,3.9,2.1,5,0.7l14-21.9c1.2-1.4,1.2-3.6-0.1-4.9
					L672,348c-1.2-1.3-3.3-1.5-4.7-0.3L645.3,360.7z"/>
			</g>
			<path class="st6" d="M630.1,341.4c31.5,1,56.2,27.9,55.3,60.2s-27.2,57.7-58.6,56.8c-31.4-1-56.2-27.9-55.3-60.2
				S598.6,340.4,630.1,341.4z"/>
			<path class="st2" d="M655.9,402.5c1.4-15.6-9.8-29.5-25.1-30.9c-15.2-1.4-28.7,10.1-30.1,25.8c-1.4,15.6,9.8,29.5,25.1,30.9
				S654.6,418.1,655.9,402.5z"/>
			<path class="st3" d="M641.2,401.1c0.6-7.3-4.6-13.8-11.7-14.4c-7.1-0.7-13.4,4.7-14,12s4.6,13.8,11.7,14.4
				C634.3,413.8,640.6,408.4,641.2,401.1z"/>
			<g>
				<g>
					<path class="st3" d="M594.1,377.5c-0.4,0-0.8-0.1-1.2-0.4c-1-0.7-1.2-2-0.5-3c2.3-3.4,5-6.4,8.2-9.1c0.9-0.8,2.2-0.6,3,0.3
						c0.7,0.9,0.6,2.3-0.3,3c-2.8,2.4-5.3,5.1-7.4,8.2C595.4,377.2,594.7,377.5,594.1,377.5z"/>
				</g>
				<g>
					<path class="st3" d="M628.3,445.1c-7.7,0-15.5-2.1-22.4-6.4c-8.5-5.2-14.9-12.9-18.5-22.4c-0.4-1.1,0.1-2.4,1.2-2.8
						c1.1-0.4,2.3,0.1,2.7,1.2c3.2,8.6,9,15.5,16.7,20.2c11.9,7.3,26.4,7.7,38.7,1.1c1-0.6,2.3-0.1,2.8,0.9c0.5,1.1,0.1,2.4-0.9,2.9
						C642.3,443.4,635.3,445.1,628.3,445.1z"/>
				</g>
				<g>
					<path class="st3" d="M654.9,435.3c-0.6,0-1.2-0.3-1.6-0.8c-0.7-0.9-0.6-2.3,0.3-3c2.8-2.4,5.3-5.1,7.4-8.2c0.7-1,2-1.2,2.9-0.5
						c1,0.7,1.2,2,0.5,3c-2.3,3.4-5,6.4-8.2,9.1C655.9,435.1,655.4,435.3,654.9,435.3z"/>
				</g>
				<g>
					<path class="st3" d="M667.3,386.4c-0.8,0-1.6-0.5-2-1.4c-3.2-8.6-9-15.6-16.7-20.2c-11.9-7.3-26.4-7.7-38.7-1.1
						c-1,0.6-2.3,0.1-2.8-0.9c-0.5-1.1-0.1-2.4,0.9-2.9c13.6-7.3,29.6-6.9,42.8,1.2c8.5,5.2,14.9,12.9,18.5,22.4
						c0.4,1.1-0.1,2.4-1.2,2.8C667.8,386.4,667.6,386.4,667.3,386.4z"/>
				</g>
			</g>
		</g>
		<g>
			<g>
				<path class="st7" d="M222.8,447.2c-2.5,0.4-3.9,3.5-3,6.9l9.1,35.1c0.9,3.4,3.5,5.3,5.9,4.4l32.5-17.9c2.4-0.9,3.8-3.7,3.2-6.3
					l-5-19.4c-0.6-2.5-3.3-4.2-5.8-3.8L222.8,447.2z"/>
				<path class="st7" d="M127.5,522.9c2.6-0.4,3.9-3.5,3-6.8l-9.1-35.1c-0.9-3.4-3.6-5.3-5.9-4.4L83,494.5c-2.4,0.9-3.8,3.7-3.2,6.3
					l5,19.4c0.7,2.5,3.3,4.3,5.8,3.8L127.5,522.9z"/>
			</g>
			<g>
				<path class="st7" d="M234.9,492.9c-2.1-1.6-5.2-0.4-6.8,2.6l-17.7,31.4c-1.7,3-1.2,6.3,1.2,7.4l35.3,10.9
					c2.3,1.1,5.3,0.2,6.6-2.1l9.8-17.4c1.3-2.3,0.6-5.4-1.5-6.9L234.9,492.9z"/>
				<path class="st7" d="M115.4,477.2c2.1,1.5,5.2,0.4,6.8-2.6l17.7-31.4c1.7-3,1.1-6.4-1.2-7.4l-35.3-10.9
					c-2.3-1.1-5.3-0.2-6.6,2.1l-9.7,17.3c-1.3,2.3-0.6,5.4,1.5,6.9L115.4,477.2z"/>
			</g>
			<g>
				<path class="st7" d="M212,534c-0.4-2.6-3.4-4-6.6-3.1l-34.1,9.3c-3.2,0.9-5.2,3.6-4.3,6.1l17.5,33.4c0.9,2.5,3.6,4,6.1,3.3
					l18.8-5.2c2.5-0.7,4.2-3.3,3.7-5.9L212,534z"/>
				<path class="st7" d="M138.3,436.1c0.4,2.6,3.4,4,6.6,3.1l34.1-9.3c3.3-0.9,5.2-3.7,4.3-6.1l-17.4-33.4c-0.9-2.5-3.6-4-6.1-3.3
					l-18.8,5.2c-2.5,0.7-4.1,3.4-3.7,5.9L138.3,436.1z"/>
			</g>
			<g>
				<path class="st7" d="M167.5,546.4c1.5-2.2,0.4-5.3-2.6-7.1l-30.6-18.2c-2.9-1.7-6.2-1.2-7.2,1.2l-10.6,36.3
					c-1.1,2.4-0.2,5.4,2,6.7l16.9,10c2.2,1.3,5.2,0.6,6.7-1.5L167.5,546.4z"/>
				<path class="st7" d="M182.8,423.6c-1.5,2.1-0.4,5.3,2.6,7l30.6,18.2c2.9,1.7,6.2,1.2,7.2-1.2l10.6-36.3c1.1-2.4,0.2-5.4-2-6.7
					l-16.9-10c-2.2-1.3-5.2-0.6-6.7,1.5L182.8,423.6z"/>
			</g>
			<path class="st7" d="M153.9,403.3c43.9-12,89,14.8,100.7,59.9s-14.4,91.4-58.3,103.5c-43.9,12-89-14.8-100.7-59.9
				C83.9,461.7,110,415.4,153.9,403.3z"/>
			<path class="st2" d="M218.7,476c-4.9-24.7-28.3-40.7-52.4-35.7c-24,5-39.6,29.1-34.7,53.8c4.9,24.7,28.3,40.7,52.4,35.7
				C208,524.8,223.6,500.7,218.7,476z"/>
			<path class="st3" d="M202.9,479.2c-3.1-15.8-18.1-25.9-33.4-22.7c-15.3,3.2-25.2,18.6-22.1,34.3c3.1,15.8,18,25.9,33.4,22.7
				C196.1,510.3,206,495,202.9,479.2z"/>
			<g>
				<g>
					<path class="st3" d="M175.2,552.5c-1.9,0-3.8-0.1-5.7-0.3c-1.2-0.1-2-1.2-1.9-2.3c0.1-1.2,1.1-2.1,2.3-2
						c5.6,0.5,11.3,0.2,16.8-0.9c1.1-0.2,2.2,0.5,2.5,1.7c0.2,1.2-0.5,2.3-1.7,2.5C183.4,552.1,179.3,552.5,175.2,552.5z"/>
				</g>
				<g>
					<path class="st3" d="M233.7,512.7c-0.3,0-0.6-0.1-0.8-0.2c-1.1-0.5-1.6-1.7-1.1-2.8c5.4-13.1,6.4-27.2,2.8-41
						c-5.5-21.3-21.1-37.8-41.7-44.2c-1.1-0.3-1.7-1.6-1.4-2.7s1.5-1.8,2.6-1.4c22,6.8,38.6,24.5,44.6,47.2
						c3.8,14.7,2.8,29.8-3,43.8C235.3,512.2,234.5,512.7,233.7,512.7z"/>
				</g>
				<g>
					<path class="st3" d="M163.3,423c-1,0-1.9-0.7-2.1-1.8c-0.2-1.2,0.5-2.3,1.7-2.5c5.9-1.2,11.9-1.5,17.9-0.9
						c1.2,0.1,2,1.2,1.9,2.3c-0.1,1.2-1.1,2.1-2.3,2c-5.6-0.5-11.3-0.2-16.8,0.9C163.5,423,163.4,423,163.3,423z"/>
				</g>
				<g>
					<path class="st3" d="M156.8,549.7c-0.2,0-0.4,0-0.6-0.1c-22-6.8-38.7-24.5-44.6-47.2c-3.8-14.7-2.8-29.8,3-43.8
						c0.5-1.1,1.7-1.6,2.8-1.1c1.1,0.5,1.6,1.7,1.1,2.8c-5.4,13.1-6.4,27.2-2.8,41c5.5,21.3,21.1,37.8,41.7,44.2
						c1.1,0.3,1.7,1.6,1.4,2.7C158.6,549.1,157.8,549.7,156.8,549.7z"/>
				</g>
			</g>
		</g>
		<g>
			<g>
				<path class="st8" d="M579.2,511.2c-2.2-1.2-5.1,0.4-6.3,3.6l-12.7,33.4c-1.2,3.2-0.2,6.4,2.3,7.1l36.1,5.2
					c2.4,0.7,5.2-0.7,6.1-3.1l7-18.5c0.9-2.4-0.2-5.3-2.5-6.5L579.2,511.2z"/>
				<path class="st8" d="M460.2,514.4c2.3,1.2,5.1-0.4,6.3-3.6l12.7-33.5c1.2-3.2,0.2-6.4-2.2-7l-36.1-5.2c-2.4-0.7-5.2,0.6-6.1,3.1
					l-7,18.5c-0.9,2.4,0.2,5.4,2.5,6.5L460.2,514.4z"/>
			</g>
			<g>
				<path class="st8" d="M562.8,555c-0.8-2.5-3.9-3.4-7-2l-32,14.4c-3.1,1.4-4.5,4.4-3.3,6.6l22,29.9c1.2,2.3,4.1,3.3,6.4,2.3
					l17.7-8c2.3-1,3.6-3.9,2.7-6.4L562.8,555z"/>
				<path class="st8" d="M476.5,470.7c0.8,2.5,3.9,3.4,7,2l32-14.4c3-1.4,4.5-4.4,3.2-6.7l-22-29.9c-1.2-2.3-4.1-3.3-6.4-2.3
					l-17.7,8c-2.3,1-3.5,3.9-2.7,6.4L476.5,470.7z"/>
			</g>
			<g>
				<path class="st8" d="M521.2,574c1.2-2.3-0.4-5.2-3.5-6.5l-32.6-13.1c-3.1-1.2-6.2-0.2-6.9,2.3l-5,37.1c-0.7,2.5,0.6,5.3,3,6.3
					l18,7.2c2.4,0.9,5.2-0.2,6.3-2.5L521.2,574z"/>
				<path class="st8" d="M518.2,451.6c-1.2,2.3,0.4,5.2,3.5,6.5l32.5,13c3.1,1.2,6.2,0.2,6.9-2.3l5.1-37.1c0.7-2.5-0.6-5.3-3-6.3
					l-18-7.2c-2.3-0.9-5.2,0.2-6.3,2.5L518.2,451.6z"/>
			</g>
			<g>
				<path class="st8" d="M478.7,557.2c2.4-0.8,3.3-4,2-7.2l-14-32.9c-1.3-3.2-4.2-4.7-6.5-3.4L431,536.4c-2.2,1.2-3.2,4.2-2.2,6.6
					l7.8,18.1c1,2.4,3.8,3.6,6.2,2.8L478.7,557.2z"/>
				<path class="st8" d="M560.7,468.5c-2.4,0.8-3.3,4-2,7.2l14,32.9c1.3,3.1,4.2,4.7,6.5,3.4l29.1-22.6c2.2-1.2,3.2-4.2,2.2-6.6
					l-7.8-18.2c-1-2.4-3.8-3.6-6.2-2.8L560.7,468.5z"/>
			</g>
			<path class="st8" d="M549.2,434.9c41.9,16.8,62.6,65.2,46.2,108.3c-16.3,43-63.5,64.3-105.4,47.5s-62.6-65.3-46.3-108.3
				C460.2,439.4,507.4,418.1,549.2,434.9z"/>
			<path class="st2" d="M555.6,529.8c9.1-20.4,0.5-44.5-19.3-53.9s-43.3-0.5-52.5,19.9c-9.2,20.4-0.5,44.5,19.3,53.9
				C522.9,559.1,546.4,550.2,555.6,529.8z"/>
			<path class="st3" d="M536.4,520.8c4.3-9.5,0.2-20.8-9-25.2c-9.3-4.4-20.2-0.2-24.5,9.3s-0.2,20.8,9,25.2
				C521.2,534.4,532.2,530.3,536.4,520.8z"/>
			<g>
				<g>
					<path class="st3" d="M469.3,478.9c-0.4,0-0.8-0.1-1.2-0.4c-1-0.7-1.2-2-0.5-3c3.3-4.9,7.3-9.3,11.8-13.1c0.9-0.8,2.2-0.6,3,0.3
						c0.7,0.9,0.6,2.3-0.3,3c-4.2,3.6-7.9,7.7-11,12.2C470.6,478.5,469.9,478.9,469.3,478.9z"/>
				</g>
				<g>
					<path class="st3" d="M519.6,578.2c-11.2,0-22.4-3.1-32.4-9.2c-12.3-7.5-21.5-18.7-26.7-32.4c-0.4-1.1,0.1-2.4,1.2-2.8
						c1.1-0.4,2.3,0.1,2.7,1.2c4.8,12.8,13.5,23.2,24.9,30.2c17.8,10.9,39.4,11.5,57.8,1.6c1-0.6,2.3-0.1,2.8,0.9
						c0.5,1.1,0.1,2.4-0.9,2.9C539.8,575.7,529.7,578.2,519.6,578.2z"/>
				</g>
				<g>
					<path class="st3" d="M558.7,563.8c-0.6,0-1.2-0.3-1.6-0.8c-0.7-0.9-0.6-2.3,0.3-3c4.2-3.6,7.9-7.7,11-12.2c0.7-1,2-1.2,2.9-0.5
						c1,0.7,1.2,2,0.5,3c-3.3,4.9-7.3,9.3-11.8,13.1C559.6,563.6,559.1,563.8,558.7,563.8z"/>
				</g>
				<g>
					<path class="st3" d="M576.9,492c-0.8,0-1.6-0.5-2-1.4c-4.9-12.8-13.5-23.2-24.9-30.2c-17.8-10.9-39.4-11.5-57.8-1.6
						c-1,0.6-2.3,0.1-2.8-0.9c-0.5-1.1-0.1-2.4,0.9-2.9c19.7-10.6,42.8-9.9,61.9,1.7c12.3,7.5,21.5,18.7,26.7,32.4
						c0.4,1.1-0.1,2.4-1.2,2.8C577.4,491.9,577.2,492,576.9,492z"/>
				</g>
			</g>
		</g>
		<g>
			<g>
				<path class="st7" d="M1277.8,560.9c-2.5-1.8-6.2-0.3-8.2,3.3l-20.5,38.2c-2,3.6-1.3,7.7,1.6,8.9l42.7,12.3
					c2.8,1.3,6.3,0.1,7.8-2.7l11.3-21.1c1.5-2.8,0.6-6.5-2-8.2L1277.8,560.9z"/>
				<path class="st7" d="M1133.7,544.9c2.5,1.9,6.2,0.3,8.2-3.3l20.5-38.2c2-3.7,1.2-7.7-1.6-8.9l-42.8-12.3
					c-2.8-1.3-6.3-0.1-7.8,2.7l-11.4,21.1c-1.5,2.8-0.6,6.5,2,8.3L1133.7,544.9z"/>
			</g>
			<g>
				<path class="st7" d="M1251.2,610.9c-0.5-3.1-4.2-4.7-8.1-3.6l-40.8,12.1c-3.9,1.2-6.1,4.5-5,7.5l21.8,39.7
					c1.1,3,4.4,4.7,7.4,3.8l22.6-6.7c3-0.8,4.9-4.1,4.3-7.2L1251.2,610.9z"/>
				<path class="st7" d="M1160.3,494.9c0.5,3.1,4.2,4.8,8.1,3.6l40.9-12c3.9-1.2,6.1-4.5,5-7.5l-21.8-39.7c-1.1-3-4.4-4.7-7.4-3.8
					l-22.6,6.7c-3,0.9-4.9,4.1-4.3,7.3L1160.3,494.9z"/>
			</g>
			<g>
				<path class="st7" d="M1198,626.9c1.8-2.6,0.3-6.4-3.2-8.4l-37.2-21.1c-3.5-2-7.5-1.3-8.7,1.7L1137,643c-1.3,2.9-0.1,6.5,2.6,8.1
					l20.5,11.7c2.7,1.5,6.3,0.7,8-2L1198,626.9z"/>
				<path class="st7" d="M1213.5,478.9c-1.8,2.6-0.3,6.4,3.2,8.4l37.2,21.1c3.6,2,7.5,1.2,8.7-1.7l11.9-43.9
					c1.3-2.9,0.1-6.5-2.6-8.1l-20.6-11.7c-2.7-1.5-6.3-0.6-8,2L1213.5,478.9z"/>
			</g>
			<g>
				<path class="st7" d="M1149.3,599.6c3.1-0.6,4.6-4.3,3.5-8.3l-11.8-42c-1.1-4-4.4-6.3-7.3-5.1l-38.6,22.4
					c-2.9,1.1-4.6,4.5-3.7,7.6l6.5,23.2c0.8,3,4,5,7,4.4L1149.3,599.6z"/>
				<path class="st7" d="M1262.2,506.2c-3.1,0.5-4.6,4.3-3.5,8.3l11.8,41.9c1.1,4,4.4,6.3,7.3,5.1l38.6-22.4
					c2.9-1.1,4.6-4.5,3.7-7.6l-6.5-23.2c-0.8-3-4-5-7-4.4L1262.2,506.2z"/>
			</g>
			<path class="st7" d="M1253.6,463.9c47.9,27.2,65.2,89.1,38.8,138.2c-26.4,49.2-86.7,67-134.5,39.8s-65.2-89.1-38.8-138.3
				C1145.5,454.5,1205.7,436.7,1253.6,463.9z"/>
			<path class="st2" d="M1246.3,579.4c14.2-23.1,7.6-53.6-14.8-68.2c-22.4-14.6-52.2-7.8-66.4,15.3c-14.2,23-7.6,53.6,14.8,68.2
				C1202.4,609.3,1232.1,602.5,1246.3,579.4z"/>
			<path class="st3" d="M1224.7,565.3c6.6-10.8,3.5-25-6.9-31.9c-10.5-6.8-24.3-3.6-31,7.1c-6.6,10.8-3.6,25,6.9,31.8
				C1204.2,579.2,1218,576,1224.7,565.3z"/>
			<g>
				<g>
					<path class="st2" d="M1279.7,556.1C1279.7,556.1,1279.6,556.1,1279.7,556.1c-1.2,0-2.1-1-2.1-2.2c0.1-6.8-0.7-13.5-2.4-20
						c-0.3-1.2,0.4-2.3,1.5-2.6s2.3,0.4,2.6,1.5c1.8,6.9,2.7,14,2.6,21.2C1281.7,555.1,1280.8,556.1,1279.7,556.1z"/>
				</g>
				<g>
					<path class="st2" d="M1133.5,538.6c-0.2,0-0.3,0-0.5-0.1c-1.1-0.3-1.8-1.4-1.6-2.6c5.8-26.7,24.2-47.9,49.3-56.9
						c16.2-5.8,33.3-5.8,49.4-0.1c1.1,0.4,1.7,1.6,1.3,2.7c-0.4,1.1-1.6,1.7-2.7,1.3c-15.3-5.4-31.4-5.3-46.7,0.1
						c-23.7,8.4-41.1,28.5-46.6,53.7C1135.4,537.9,1134.5,538.6,1133.5,538.6z"/>
				</g>
				<g>
					<path class="st2" d="M1134.3,574.7c-0.9,0-1.8-0.6-2-1.6c-1.8-6.9-2.7-14-2.6-21.2c0-1.2,1-2.1,2.1-2.1l0,0
						c1.2,0,2.1,1,2.1,2.2c-0.1,6.8,0.7,13.5,2.4,20c0.3,1.2-0.4,2.3-1.5,2.6C1134.6,574.7,1134.5,574.7,1134.3,574.7z"/>
				</g>
				<g>
					<path class="st2" d="M1205.8,631.1c-8.3,0-16.5-1.4-24.5-4.2c-1.1-0.4-1.7-1.6-1.3-2.7c0.4-1.1,1.6-1.7,2.7-1.3
						c15.3,5.4,31.4,5.3,46.7-0.1c23.7-8.5,41.1-28.5,46.6-53.7c0.3-1.2,1.4-1.9,2.5-1.6c1.1,0.3,1.8,1.4,1.6,2.6
						c-5.8,26.7-24.2,47.9-49.3,56.9C1222.5,629.7,1214.1,631.1,1205.8,631.1z"/>
				</g>
			</g>
		</g>
		<g>
			<g>
				<path class="st2" d="M372.6,521.2c-2.3,1.6-2.4,5.3,0,8.2l24.3,30.8c2.3,3,5.8,3.7,7.8,1.6l24.6-32.8c2-2,2.2-5.5,0.4-7.7
					l-13.4-17c-1.8-2.2-5.1-2.7-7.4-1.1L372.6,521.2z"/>
				<path class="st2" d="M310.5,640.5c2.4-1.6,2.4-5.3,0.1-8.2l-24.4-30.9c-2.3-2.9-5.9-3.7-7.8-1.6l-24.6,32.8
					c-2,2-2.2,5.5-0.5,7.7l13.4,17c1.8,2.2,5.1,2.7,7.4,1.1L310.5,640.5z"/>
			</g>
			<g>
				<path class="st2" d="M404.5,561.2c-2.7-0.6-5.3,2-5.7,5.8l-4,39.5c-0.4,3.8,1.6,6.9,4.4,6.8l40-5.3c2.8,0.1,5.3-2.2,5.6-5.1
					l2.2-21.8c0.3-2.9-1.7-5.6-4.5-6.2L404.5,561.2z"/>
				<path class="st2" d="M278.5,600.4c2.7,0.6,5.3-2,5.7-5.8l4-39.5c0.4-3.8-1.6-6.9-4.5-6.9l-40,5.4c-2.8-0.1-5.3,2.2-5.6,5.1
					l-2.2,21.8c-0.3,2.9,1.7,5.6,4.5,6.2L278.5,600.4z"/>
			</g>
			<g>
				<path class="st2" d="M399.5,612.7c-1.5-2.4-5.1-2.4-8-0.1l-30,25c-2.8,2.4-3.6,6-1.6,8.1l32,25.3c2,2.1,5.3,2.3,7.5,0.5
					l16.6-13.8c2.2-1.8,2.7-5.2,1.1-7.6L399.5,612.7z"/>
				<path class="st2" d="M283.4,548.9c1.5,2.4,5.1,2.5,8,0.1l30-25c2.9-2.4,3.6-6,1.6-8.1l-31.9-25.3c-1.9-2.1-5.3-2.3-7.5-0.5
					l-16.5,13.8c-2.2,1.8-2.6,5.2-1.1,7.6L283.4,548.9z"/>
			</g>
			<g>
				<path class="st2" d="M360.6,645.6c0.6-2.9-2-5.5-5.6-5.9l-38.4-4.1c-3.7-0.4-6.7,1.6-6.7,4.6l5.2,41.1c0,2.9,2.2,5.5,5,5.8
					l21.2,2.3c2.8,0.3,5.5-1.8,6-4.6L360.6,645.6z"/>
				<path class="st2" d="M322.5,516c-0.6,2.8,1.9,5.5,5.6,5.9l38.4,4.1c3.7,0.4,6.7-1.6,6.7-4.6l-5.2-41.1c0-2.9-2.2-5.5-5-5.8
					l-21.2-2.3c-2.8-0.3-5.5,1.8-6,4.6L322.5,516z"/>
			</g>
			<path class="st2" d="M284.1,508.1c39.1-32.6,96.4-26.5,128.1,13.7c31.7,40.1,25.7,99.1-13.3,131.7
				c-39.1,32.6-96.4,26.4-128.1-13.7S245,540.7,284.1,508.1z"/>
			<path class="st3" d="M307.4,537.7c23.2-19.3,57.2-15.7,76,8.1s15.3,58.8-7.9,78.1c-23.2,19.3-57.2,15.7-76-8.1
				S284.3,557,307.4,537.7z"/>
			<path class="st4" d="M324,558.7c11.9-9.9,29.4-8.1,39,4.2c9.7,12.2,7.8,30.2-4,40.1c-11.9,9.9-29.4,8.1-39-4.2
				C310.3,586.5,312.1,568.6,324,558.7z"/>
			<g>
				<g>
					<path class="st3" d="M274.4,557.4c-0.2,0-0.5,0-0.7-0.1c-1.1-0.4-1.6-1.7-1.2-2.8c2.3-6.5,5.5-12.6,9.5-18.2
						c0.7-1,2-1.2,2.9-0.5s1.1,2.1,0.5,3c-3.8,5.3-6.8,11.1-9,17.2C276.1,556.9,275.3,557.4,274.4,557.4z"/>
				</g>
				<g>
					<path class="st3" d="M341.7,656.5c-6.9,0-13.8-1-20.7-3c-15.9-4.7-29.4-14.5-39.1-28.3c-0.7-1-0.5-2.3,0.5-3
						c0.9-0.7,2.3-0.5,2.9,0.5c9.1,13,21.9,22.2,36.9,26.7c23.3,6.9,47.9,1.1,66-15.7c0.9-0.8,2.2-0.7,3,0.2s0.7,2.3-0.1,3.1
						C377.1,649.7,359.6,656.5,341.7,656.5z"/>
				</g>
				<g>
					<path class="st3" d="M399.4,626.2c-0.4,0-0.9-0.1-1.2-0.4c-0.9-0.7-1.1-2.1-0.5-3c3.8-5.3,6.8-11.1,9-17.2
						c0.4-1.1,1.6-1.7,2.7-1.3s1.6,1.7,1.2,2.8c-2.3,6.5-5.5,12.6-9.5,18.2C400.6,625.9,400,626.2,399.4,626.2z"/>
				</g>
				<g>
					<path class="st3" d="M399.5,539.9c-0.7,0-1.3-0.3-1.7-0.9c-9.2-13-21.9-22.2-36.9-26.7c-23.3-6.9-47.9-1.1-65.9,15.7
						c-0.9,0.8-2.2,0.7-3-0.2s-0.7-2.3,0.1-3.1c19.1-17.8,45.2-24,69.9-16.6c15.9,4.7,29.4,14.5,39.1,28.3c0.7,1,0.5,2.3-0.5,3
						C400.3,539.7,399.9,539.9,399.5,539.9z"/>
				</g>
			</g>
		</g>
	</g>
	<g>
		<rect x="550" y="78.4" class="st2" width="496.8" height="122"/>
		<rect x="563.1" y="91.9" class="st9" width="363.9" height="95.1"/>
		<rect x="940.3" y="91.9" class="st1" width="94.2" height="95.1"/>
		<g>
			<path class="st3" d="M1016.5,166.5l-10.5-13.7c4.3-5,7-11.6,7-18.8c0-15.7-12.5-28.5-27.8-28.5s-27.8,12.8-27.8,28.5
				s12.5,28.5,27.8,28.5c5.3,0,10.1-1.6,14.3-4.2l10.4,13.5c0.8,1.1,2,1.6,3.3,1.6c0.9,0,1.8-0.3,2.6-0.9
				C1017.6,171,1017.9,168.3,1016.5,166.5z M965.8,134c0-11,8.7-19.9,19.4-19.9s19.4,8.9,19.4,19.9s-8.7,19.9-19.4,19.9
				S965.8,145,965.8,134z"/>
		</g>
		<g>
			<rect x="584.7" y="162.2" class="st4" width="14.4" height="13.7"/>
			<rect x="622.9" y="162.2" class="st4" width="14.4" height="13.7"/>
			<rect x="661.2" y="162.2" class="st4" width="14.4" height="13.7"/>
			<rect x="699.5" y="162.2" class="st4" width="14.4" height="13.7"/>
			<rect x="737.8" y="162.2" class="st4" width="14.4" height="13.7"/>
			<rect x="776.1" y="162.2" class="st4" width="14.4" height="13.7"/>
			<rect x="814.4" y="162.2" class="st4" width="14.4" height="13.7"/>
			<rect x="852.7" y="162.2" class="st4" width="14.4" height="13.7"/>
			<rect x="891" y="162.2" class="st4" width="14.4" height="13.7"/>
		</g>
	</g>
</g>
<g>
	<rect x="839.6" y="786" class="st10" width="14.7" height="67.8"/>
	<rect x="889.2" y="742.7" class="st10" width="14.7" height="111.1"/>
	<rect x="914" y="766.7" class="st0" width="14.7" height="87.2"/>
	<rect x="1062.8" y="766.7" class="st0" width="14.7" height="87.2"/>
	<rect x="963.6" y="827.9" class="st0" width="14.7" height="26"/>
	<rect x="1087.6" y="814.3" class="st10" width="14.7" height="39.5"/>
	<rect x="988.4" y="818.7" class="st10" width="14.7" height="35.2"/>
	<rect x="1013.2" y="798.3" class="st0" width="14.7" height="55.6"/>
	<rect x="864.4" y="713.1" class="st0" width="14.7" height="140.8"/>
	<rect x="938.8" y="783.5" class="st10" width="14.7" height="70.4"/>
	<rect x="1112.4" y="783.5" class="st0" width="14.7" height="70.4"/>
	<rect x="1038" y="783.5" class="st10" width="14.7" height="70.4"/>
</g>
<g>
	<path class="st0" d="M607.3,842.3c0,6.4-5.2,11.5-11.5,11.5H379.6c-6.4,0-11.5-5.2-11.5-11.5v-44.6c0-6.4,5.2-11.5,11.5-11.5h216.2
		c6.4,0,11.5,5.2,11.5,11.5V842.3z"/>
	<g>
		<g>
			<path class="st2" d="M564.3,839.7c-12.4,0-22.5-10.1-22.5-22.5s10.1-22.5,22.5-22.5s22.5,10.1,22.5,22.5S576.7,839.7,564.3,839.7
				z M564.3,801.1c-8.9,0-16.1,7.2-16.1,16.1c0,8.9,7.2,16.1,16.1,16.1c8.9,0,16.1-7.2,16.1-16.1S573.2,801.1,564.3,801.1z"/>
		</g>
		<g>
			<path class="st2" d="M589.2,845.3c-0.8,0-1.6-0.3-2.3-0.9l-11.2-11.2c-1.2-1.2-1.2-3.3,0-4.5s3.3-1.2,4.5,0l11.2,11.2
				c1.2,1.2,1.2,3.3,0,4.5C590.8,845,590,845.3,589.2,845.3z"/>
		</g>
	</g>
	<g>
		<path class="st3" d="M399.2,837.2c0-2.5-2.1-4.6-4.6-4.6s-4.6,2.1-4.6,4.6s2.1,4.6,4.6,4.6S399.2,839.7,399.2,837.2z"/>
		<path class="st3" d="M429.5,837.2c0-2.5-2.1-4.6-4.6-4.6s-4.6,2.1-4.6,4.6s2,4.6,4.6,4.6S429.5,839.7,429.5,837.2z"/>
		<path class="st3" d="M459.9,837.2c0-2.5-2.1-4.6-4.6-4.6s-4.6,2.1-4.6,4.6s2,4.6,4.6,4.6C457.8,841.8,459.9,839.7,459.9,837.2z"/>
		<path class="st3" d="M490.2,837.2c0-2.5-2.1-4.6-4.6-4.6s-4.6,2.1-4.6,4.6s2.1,4.6,4.6,4.6S490.2,839.7,490.2,837.2z"/>
		<path class="st3" d="M520.5,837.2c0-2.5-2.1-4.6-4.6-4.6s-4.6,2.1-4.6,4.6s2.1,4.6,4.6,4.6C518.5,841.8,520.5,839.7,520.5,837.2z"
			/>
	</g>
</g>
</svg>
