<?xml version="1.0" encoding="utf-8"?>
<!-- Generator: Adobe Illustrator 25.1.0, SVG Export Plug-In . SVG Version: 6.00 Build 0)  -->
<svg version="1.1" id="Layer_1" xmlns="http://www.w3.org/2000/svg" xmlns:xlink="http://www.w3.org/1999/xlink" x="0px" y="0px"
	 viewBox="0 0 1400 1445.9" style="enable-background:new 0 0 1400 1445.9;" xml:space="preserve">
<style type="text/css">
	.st0{fill:#01C795;}
	.st1{fill:#019570;}
	.st2{fill:#E41A3E;}
	.st3{fill:#FFFFFF;}
	.st4{fill:#082947;}
	.st5{fill:#D3D3D3;}
	.st6{fill:#A8A8A8;}
	.st7{fill:#BFBFBF;}
	.st8{fill:#CECECE;}
	.st9{opacity:0.5;fill:#FFFFFF;enable-background:new    ;}
	.st10{opacity:0.2;fill:#FFFFFF;enable-background:new    ;}
</style>
<g>
	<g>
		<path class="st0" d="M1272.6,455c41.8-35.5,51.5-82.5,51.5-82.5s-68.3,34.9-104,29.7c-35.7-5.2-49-41.5,10.6-35
			c59.7,6.5,98,0.3,105.3-35.6s1.4-58,1.4-58s-23.7,42.4-61.3,49.1c-37.6,6.7-71.6-8.4-26.7-21.8s63,3.2,78.1-31.9s6-49.4,6-49.4
			s-22.3,19.2-46.4,32.2c-24.2,13-41.7,5.3-24.3-10.9c17.5-16.2,56.9-26.5,55.2-38.9c-1.7-12.4-30.1-25.6-34.8-55.5
			c-4.7-29.8,7-42.1,7-42.1s-30.8,17.5-64,18s-55.1-3.7-54.9,30.5c0.3,34.2,1.7,50.7-10.7,68.9c-12.4,18.2-30.7,22.8-28.5-15.8
			c2.3-38.6,19.2-67.9,19.2-67.9s-36,1.3-79.1,30.2s-56,52.3-39.9,84.4s65,74.6,47.2,94.8c-17.9,20.1-50.5-23.8-62.8-50.6
			c-12.3-26.8-15.2-47.9-15.2-47.9s-42.2,24.2-29.2,92.1c12.9,68,56.8,87.5,113.6,78.7c0,0-2.2,57.5,45.9,74.6
			C1179.9,511.7,1230.9,490.5,1272.6,455z M1195.8,170.9c-4-28.2,11.6-27.4,18.1-26.6l-0.5,0.1c12.5,2.3,14.2,14.1,9.4,30.9
			C1217.9,192.1,1199.7,199.1,1195.8,170.9z M1076.3,240c-8.6-19.4,4.3-28.2,10.1-31.7c0,0,12.5,1.9,15.7,19.9
			C1105.2,246.1,1084.9,259.3,1076.3,240z M1253.2,189c10.4-14.7,15.2-8.1,22.9-5.8c10.6,3.3,10.9,13.6-4.1,20.4
			C1256.9,210.4,1242.8,203.7,1253.2,189z M1117.5,257.8c18.8-5.8,30.7,30.8,9.5,37.9C1105.9,302.8,1097.9,263.8,1117.5,257.8z
			 M1210,283.5c-13.8-3.1-18.7-12,1.5-18.8c0,0,14-4.9,18.1-0.6C1233.7,268.5,1223.8,286.6,1210,283.5z M1001.6,355.4
			c11.5-13.5,41,9.1,33.1,21.2C1026.8,388.7,991.2,367.6,1001.6,355.4z M1099.5,366.7c-15.7-12.5,5.7-33.6,20.6-26.7
			C1132.6,345.8,1115.2,379.2,1099.5,366.7z M1224.1,426.9c13.5,11.2,27.7,3.4,30.8,14.7c3.1,11.3-31.1,13.4-48.1,8.4
			s-31.8-21.2-24.3-31.2C1192.9,405.1,1210.6,415.7,1224.1,426.9z M1125.4,451.5c-14.4-25.1,18.8-38.3,25.3-0.8
			c2.4,13.9,29.6,12.7,26,22.4C1173.1,482.8,1139.8,476.6,1125.4,451.5z"/>
		<path class="st1" d="M1193.7,264.7c4-8.4,7.7-16.8,11.4-24.9c3.7-8.1,7.4-15.9,11.2-23.3c7.5-14.8,14.9-28.1,21.6-39.1
			c6.7-11,12.7-19.8,17.1-25.7s7.1-9,7.1-9s-2.9,3-7.5,8.7c-4.6,5.8-11,14.3-18.1,25.1s-15,23.9-23.1,38.5c-4,7.3-8,15-12.1,23
			c-4,8-8,16.2-12.2,24.4c-8.4,16.5-17.4,33.2-26.8,49.2s-19.1,31.3-28.7,45c-9.6,13.8-19.1,25.9-27.6,36s-16,18.1-21.5,23.7
			c-1.4,1.5-2.8,2.9-4.2,4.3c1.9-0.2,3.7-0.5,5.6-0.8c0,0-0.1,3.5,0.4,9c1.8-1.8,3.6-3.6,5.4-5.5c5.6-5.8,13.2-14.1,21.7-24.6
			s17.8-23.2,27.2-37.4c9.4-14.2,18.8-30,27.7-46.4C1177.4,298.6,1185.9,281.5,1193.7,264.7z"/>
	</g>
	<path class="st2" d="M1070,641.8c88.4-21,154-100.6,153.5-195.4c-0.5-106.4-84.2-192.1-189.1-197.8
		c-17.8-115.1-117.3-203-237.2-202.4c-110,0.5-202.1,75.3-229.6,176.6c-8.7-1-17.2-2.6-26.2-2.6c-112.2,0.5-202.7,87.2-211.9,196.8
		c-10.8-3.2-22.1-5.4-34.1-5.3c-66,0.3-119.3,54.1-118.9,120.1c0.2,49.8,30.9,92.3,74.2,110.1L1070,641.8L1070,641.8z"/>
	<g>
		<path class="st3" d="M1019.8,573.6c0,10.7-8.7,19.4-19.4,19.4H320c-10.7,0-19.4-8.7-19.4-19.4v-74.9c0-10.7,8.7-19.4,19.4-19.4
			h680.4c10.7,0,19.4,8.7,19.4,19.4L1019.8,573.6L1019.8,573.6z"/>
		<g>
			<g>
				<path class="st4" d="M947.7,569.3c-20.8,0-37.8-16.9-37.8-37.8c0-20.8,16.9-37.8,37.8-37.8c20.8,0,37.8,16.9,37.8,37.8
					C985.4,552.3,968.5,569.3,947.7,569.3z M947.7,504.4c-14.9,0-27.1,12.1-27.1,27s12.1,27,27.1,27c14.9,0,27-12.1,27-27
					C974.7,516.6,962.6,504.4,947.7,504.4z"/>
			</g>
			<g>
				<path class="st4" d="M989.4,578.5c-1.4,0-2.7-0.5-3.8-1.6l-18.8-18.8c-2.1-2.1-2.1-5.5,0-7.6s5.5-2.1,7.6,0l18.8,18.8
					c2.1,2.1,2.1,5.5,0,7.6C992.1,578,990.7,578.5,989.4,578.5z"/>
			</g>
		</g>
		<path class="st2" d="M354.6,564.1c0-4.7-3.8-8.5-8.5-8.5s-8.5,3.8-8.5,8.5s3.8,8.5,8.5,8.5C350.8,572.7,354.6,568.9,354.6,564.1z"
			/>
		<path class="st2" d="M413.3,564.1c0-4.7-3.8-8.5-8.5-8.5s-8.5,3.8-8.5,8.5s3.8,8.5,8.5,8.5C409.5,572.7,413.3,568.9,413.3,564.1z"
			/>
		<path class="st2" d="M472,564.1c0-4.7-3.8-8.5-8.5-8.5s-8.5,3.8-8.5,8.5s3.8,8.5,8.5,8.5C468.2,572.7,472,568.9,472,564.1z"/>
		<path class="st2" d="M530.7,564.1c0-4.7-3.8-8.5-8.5-8.5s-8.5,3.8-8.5,8.5s3.8,8.5,8.5,8.5C526.9,572.7,530.7,568.9,530.7,564.1z"
			/>
		<path class="st2" d="M648.1,564.1c0-4.7-3.8-8.5-8.5-8.5s-8.5,3.8-8.5,8.5s3.8,8.5,8.5,8.5C644.3,572.7,648.1,568.9,648.1,564.1z"
			/>
		<path class="st2" d="M706.8,564.1c0-4.7-3.8-8.5-8.5-8.5s-8.5,3.8-8.5,8.5s3.8,8.5,8.5,8.5C703,572.7,706.8,568.9,706.8,564.1z"/>
		<path class="st2" d="M765.5,564.1c0-4.7-3.8-8.5-8.5-8.5s-8.5,3.8-8.5,8.5s3.8,8.5,8.5,8.5C761.7,572.7,765.5,568.9,765.5,564.1z"
			/>
		<path class="st2" d="M824.2,564.1c0-4.7-3.8-8.5-8.5-8.5s-8.5,3.8-8.5,8.5s3.8,8.5,8.5,8.5C820.3,572.7,824.2,568.9,824.2,564.1z"
			/>
		<path class="st2" d="M882.8,564.1c0-4.7-3.8-8.5-8.5-8.5s-8.5,3.8-8.5,8.5s3.8,8.5,8.5,8.5C879,572.7,882.8,568.9,882.8,564.1z"/>
		<path class="st2" d="M589.4,564.1c0-4.7-3.8-8.5-8.5-8.5s-8.5,3.8-8.5,8.5s3.8,8.5,8.5,8.5C585.6,572.7,589.4,568.9,589.4,564.1z"
			/>
	</g>
	<g>
		<path class="st2" d="M991.4,873.6c0,9.7-7.9,17.6-17.6,17.6H346.6c-9.7,0-17.6-7.9-17.6-17.6V689.8c0-9.7,7.9-17.6,17.6-17.6
			h627.3c9.7,0,17.6,7.9,17.6,17.6L991.4,873.6L991.4,873.6z"/>
		<g>
			<path class="st3" d="M528.9,698H369.8c-7.6,0-13.8,6.2-13.8,13.8v139.9c0,2.8,0.9,5.4,2.3,7.6c1,1.5,2.3,2.9,3.9,3.9
				c2.2,1.5,4.8,2.3,7.6,2.3h159.1c2.8,0,5.4-0.8,7.6-2.3c1.5-1,2.9-2.3,3.9-3.9c1.4-2.2,2.3-4.8,2.3-7.6V711.8
				C542.7,704.2,536.5,698,528.9,698z"/>
			<g>
				<path class="st4" d="M449.4,722.6c-9.9,0-18,8.1-18,18s8.1,18,18,18c10,0,18-8.1,18-18C467.4,730.7,459.3,722.6,449.4,722.6z"/>
				<path class="st4" d="M528.9,698H369.8c-7.6,0-13.8,6.2-13.8,13.8v139.9c0,2.8,0.9,5.4,2.3,7.6c1,1.5,2.3,2.9,3.9,3.9
					c2.2,1.5,4.8,2.3,7.6,2.3h159.1c2.8,0,5.4-0.8,7.6-2.3c1.5-1,2.9-2.3,3.9-3.9c1.4-2.2,2.3-4.8,2.3-7.6V711.8
					C542.7,704.2,536.5,698,528.9,698z M503.6,747.2c-24.2-1.8-21,59-47.6,59.9s-23.7-35.2-48.5-34s-28.4,39-42.2,58.3
					c-1.3,1.8-2.9,3.5-4.6,5.1V711.8c0-5.1,4.1-9.2,9.2-9.2H529c5.1,0,9.2,4.1,9.2,9.2v87C523.3,781.7,529.3,749.1,503.6,747.2z"/>
			</g>
		</g>
		<g>
			<g>
				<path class="st4" d="M692.7,713.6c0,1.9,1.6,3.5,3.5,3.5H799c1.9,0,3.5-1.6,3.5-3.5v-11.5c0-1.9-1.6-3.5-3.5-3.5H696.1
					c-1.9,0-3.5,1.6-3.5,3.5v11.5H692.7z"/>
				<path class="st4" d="M816.6,713.6c0,1.9,1.6,3.5,3.5,3.5H919c1.9,0,3.5-1.6,3.5-3.5v-11.5c0-1.9-1.6-3.5-3.5-3.5h-98.9
					c-1.9,0-3.5,1.6-3.5,3.5V713.6z"/>
				<path class="st4" d="M678.5,702.1c0-1.9-1.6-3.5-3.5-3.5h-98.8c-1.9,0-3.5,1.6-3.5,3.5v11.5c0,1.9,1.6,3.5,3.5,3.5H675
					c1.9,0,3.5-1.6,3.5-3.5V702.1z"/>
			</g>
			<g>
				<path class="st5" d="M651.4,750.7c0,1.9,1.6,3.5,3.5,3.5H759c1.9,0,3.5-1.6,3.5-3.5v-11.5c0-1.9-1.6-3.5-3.5-3.5H654.8
					c-1.9,0-3.5,1.6-3.5,3.5v11.5H651.4z"/>
				<path class="st5" d="M776.5,750.7c0,1.9,1.6,3.5,3.5,3.5h59.6c1.9,0,3.5-1.6,3.5-3.5v-11.5c0-1.9-1.6-3.5-3.5-3.5H780
					c-1.9,0-3.5,1.6-3.5,3.5V750.7z"/>
				<path class="st5" d="M637.2,739.2c0-1.9-1.6-3.5-3.5-3.5h-57.6c-1.9,0-3.5,1.6-3.5,3.5v11.5c0,1.9,1.6,3.5,3.5,3.5h57.6
					c1.9,0,3.5-1.6,3.5-3.5V739.2z"/>
			</g>
			<g>
				<path class="st6" d="M708.5,787.8c0,1.9,1.6,3.5,3.5,3.5h149.2c1.9,0,3.5-1.6,3.5-3.5v-11.5c0-1.9-1.6-3.5-3.5-3.5H711.9
					c-1.9,0-3.5,1.6-3.5,3.5L708.5,787.8L708.5,787.8z"/>
				<path class="st6" d="M878.7,787.8c0,1.9,1.6,3.5,3.5,3.5H919c1.9,0,3.5-1.6,3.5-3.5v-11.5c0-1.9-1.6-3.5-3.5-3.5h-36.8
					c-1.9,0-3.5,1.6-3.5,3.5V787.8z"/>
				<path class="st6" d="M694.3,776.3c0-1.9-1.6-3.5-3.5-3.5H576.2c-1.9,0-3.5,1.6-3.5,3.5v11.5c0,1.9,1.6,3.5,3.5,3.5h114.7
					c1.9,0,3.5-1.6,3.5-3.5v-11.5H694.3z"/>
			</g>
			<g>
				<path class="st7" d="M685.6,824.9c0,1.9,1.6,3.5,3.5,3.5h102.3c1.9,0,3.5-1.6,3.5-3.5v-11.5c0-1.9-1.6-3.5-3.5-3.5H689
					c-1.9,0-3.5,1.6-3.5,3.5L685.6,824.9L685.6,824.9z"/>
				<path class="st7" d="M809,824.9c0,1.9,1.6,3.5,3.5,3.5h76c1.9,0,3.5-1.6,3.5-3.5v-11.5c0-1.9-1.6-3.5-3.5-3.5h-76
					c-1.9,0-3.5,1.6-3.5,3.5V824.9z"/>
				<path class="st7" d="M671.4,813.4c0-1.9-1.6-3.5-3.5-3.5h-91.8c-1.9,0-3.5,1.6-3.5,3.5v11.5c0,1.9,1.6,3.5,3.5,3.5H668
					c1.9,0,3.5-1.6,3.5-3.5L671.4,813.4L671.4,813.4z"/>
			</g>
			<g>
				<path class="st8" d="M726.1,862c0,1.9,1.6,3.5,3.5,3.5H822c1.9,0,3.5-1.6,3.5-3.5v-11.5c0-1.9-1.6-3.5-3.5-3.5h-92.4
					c-1.9,0-3.5,1.6-3.5,3.5V862z"/>
				<path class="st8" d="M839.5,862c0,1.9,1.6,3.5,3.5,3.5h83.2c1.9,0,3.5-1.6,3.5-3.5v-11.5c0-1.9-1.6-3.5-3.5-3.5H843
					c-1.9,0-3.5,1.6-3.5,3.5V862z"/>
				<path class="st8" d="M711.9,850.5c0-1.9-1.6-3.5-3.5-3.5H576.2c-1.9,0-3.5,1.6-3.5,3.5V862c0,1.9,1.6,3.5,3.5,3.5h132.3
					c1.9,0,3.5-1.6,3.5-3.5L711.9,850.5L711.9,850.5z"/>
			</g>
		</g>
	</g>
	<g>
		<path class="st2" d="M991.4,1123.1c0,9.7-7.9,17.6-17.6,17.6H346.6c-9.7,0-17.6-7.9-17.6-17.6V939.3c0-9.7,7.9-17.6,17.6-17.6
			h627.3c9.7,0,17.6,7.9,17.6,17.6L991.4,1123.1L991.4,1123.1z"/>
		<g>
			<path class="st3" d="M528.9,947.4H369.8c-7.6,0-13.8,6.2-13.8,13.8v139.9c0,2.8,0.9,5.4,2.3,7.6c1,1.5,2.3,2.9,3.9,3.9
				c2.2,1.5,4.8,2.3,7.6,2.3h159.1c2.8,0,5.4-0.8,7.6-2.3c1.5-1,2.9-2.3,3.9-3.9c1.4-2.2,2.3-4.8,2.3-7.6V961.2
				C542.7,953.6,536.5,947.4,528.9,947.4z"/>
			<g>
				<path class="st4" d="M449.4,972.1c-9.9,0-18,8.1-18,18s8.1,18,18,18c10,0,18-8.1,18-18C467.4,980.1,459.3,972.1,449.4,972.1z"/>
				<path class="st4" d="M528.9,947.4H369.8c-7.6,0-13.8,6.2-13.8,13.8v139.9c0,2.8,0.9,5.4,2.3,7.6c1,1.5,2.3,2.9,3.9,3.9
					c2.2,1.5,4.8,2.3,7.6,2.3h159.1c2.8,0,5.4-0.8,7.6-2.3c1.5-1,2.9-2.3,3.9-3.9c1.4-2.2,2.3-4.8,2.3-7.6V961.2
					C542.7,953.6,536.5,947.4,528.9,947.4z M503.6,996.7c-24.2-1.8-21,59-47.6,59.9s-23.7-35.2-48.5-34s-28.4,39-42.2,58.3
					c-1.3,1.8-2.9,3.5-4.6,5.1V961.2c0-5.1,4.1-9.2,9.2-9.2H529c5.1,0,9.2,4.1,9.2,9.2v87C523.3,1031.2,529.3,998.5,503.6,996.7z"/>
			</g>
		</g>
		<g>
			<g>
				<path class="st4" d="M692.7,963c0,1.9,1.6,3.5,3.5,3.5H799c1.9,0,3.5-1.6,3.5-3.5v-11.5c0-1.9-1.6-3.5-3.5-3.5H696.1
					c-1.9,0-3.5,1.6-3.5,3.5V963H692.7z"/>
				<path class="st4" d="M816.6,963c0,1.9,1.6,3.5,3.5,3.5H919c1.9,0,3.5-1.6,3.5-3.5v-11.5c0-1.9-1.6-3.5-3.5-3.5h-98.9
					c-1.9,0-3.5,1.6-3.5,3.5V963z"/>
				<path class="st4" d="M678.5,951.5c0-1.9-1.6-3.5-3.5-3.5h-98.8c-1.9,0-3.5,1.6-3.5,3.5V963c0,1.9,1.6,3.5,3.5,3.5H675
					c1.9,0,3.5-1.6,3.5-3.5V951.5z"/>
			</g>
			<g>
				<path class="st5" d="M651.4,1000.1c0,1.9,1.6,3.5,3.5,3.5H759c1.9,0,3.5-1.6,3.5-3.5v-11.5c0-1.9-1.6-3.5-3.5-3.5H654.8
					c-1.9,0-3.5,1.6-3.5,3.5v11.5H651.4z"/>
				<path class="st5" d="M776.5,1000.1c0,1.9,1.6,3.5,3.5,3.5h59.6c1.9,0,3.5-1.6,3.5-3.5v-11.5c0-1.9-1.6-3.5-3.5-3.5H780
					c-1.9,0-3.5,1.6-3.5,3.5V1000.1z"/>
				<path class="st5" d="M637.2,988.6c0-1.9-1.6-3.5-3.5-3.5h-57.6c-1.9,0-3.5,1.6-3.5,3.5v11.5c0,1.9,1.6,3.5,3.5,3.5h57.6
					c1.9,0,3.5-1.6,3.5-3.5V988.6z"/>
			</g>
			<g>
				<path class="st6" d="M708.5,1037.3c0,1.9,1.6,3.5,3.5,3.5h149.2c1.9,0,3.5-1.6,3.5-3.5v-11.5c0-1.9-1.6-3.5-3.5-3.5H711.9
					c-1.9,0-3.5,1.6-3.5,3.5L708.5,1037.3L708.5,1037.3z"/>
				<path class="st6" d="M878.7,1037.3c0,1.9,1.6,3.5,3.5,3.5H919c1.9,0,3.5-1.6,3.5-3.5v-11.5c0-1.9-1.6-3.5-3.5-3.5h-36.8
					c-1.9,0-3.5,1.6-3.5,3.5V1037.3z"/>
				<path class="st6" d="M694.3,1025.7c0-1.9-1.6-3.5-3.5-3.5H576.2c-1.9,0-3.5,1.6-3.5,3.5v11.5c0,1.9,1.6,3.5,3.5,3.5h114.7
					c1.9,0,3.5-1.6,3.5-3.5v-11.5H694.3z"/>
			</g>
			<g>
				<path class="st7" d="M685.6,1074.4c0,1.9,1.6,3.5,3.5,3.5h102.3c1.9,0,3.5-1.6,3.5-3.5v-11.5c0-1.9-1.6-3.5-3.5-3.5H689
					c-1.9,0-3.5,1.6-3.5,3.5L685.6,1074.4L685.6,1074.4z"/>
				<path class="st7" d="M809,1074.4c0,1.9,1.6,3.5,3.5,3.5h76c1.9,0,3.5-1.6,3.5-3.5v-11.5c0-1.9-1.6-3.5-3.5-3.5h-76
					c-1.9,0-3.5,1.6-3.5,3.5V1074.4z"/>
				<path class="st7" d="M671.4,1062.8c0-1.9-1.6-3.5-3.5-3.5h-91.8c-1.9,0-3.5,1.6-3.5,3.5v11.5c0,1.9,1.6,3.5,3.5,3.5H668
					c1.9,0,3.5-1.6,3.5-3.5L671.4,1062.8L671.4,1062.8z"/>
			</g>
			<g>
				<path class="st8" d="M726.1,1111.5c0,1.9,1.6,3.5,3.5,3.5H822c1.9,0,3.5-1.6,3.5-3.5V1100c0-1.9-1.6-3.5-3.5-3.5h-92.4
					c-1.9,0-3.5,1.6-3.5,3.5V1111.5z"/>
				<path class="st8" d="M839.5,1111.5c0,1.9,1.6,3.5,3.5,3.5h83.2c1.9,0,3.5-1.6,3.5-3.5V1100c0-1.9-1.6-3.5-3.5-3.5H843
					c-1.9,0-3.5,1.6-3.5,3.5V1111.5z"/>
				<path class="st8" d="M711.9,1099.9c0-1.9-1.6-3.5-3.5-3.5H576.2c-1.9,0-3.5,1.6-3.5,3.5v11.5c0,1.9,1.6,3.5,3.5,3.5h132.3
					c1.9,0,3.5-1.6,3.5-3.5L711.9,1099.9L711.9,1099.9z"/>
			</g>
		</g>
	</g>
	<g>
		<path class="st2" d="M991.4,1372.5c0,9.7-7.9,17.6-17.6,17.6H346.6c-9.7,0-17.6-7.9-17.6-17.6v-183.8c0-9.7,7.9-17.6,17.6-17.6
			h627.3c9.7,0,17.6,7.9,17.6,17.6L991.4,1372.5L991.4,1372.5z"/>
		<g>
			<path class="st3" d="M528.9,1196.9H369.8c-7.6,0-13.8,6.2-13.8,13.8v139.9c0,2.8,0.9,5.4,2.3,7.6c1,1.5,2.3,2.9,3.9,3.9
				c2.2,1.5,4.8,2.3,7.6,2.3h159.1c2.8,0,5.4-0.8,7.6-2.3c1.5-1,2.9-2.3,3.9-3.9c1.4-2.2,2.3-4.8,2.3-7.6v-139.9
				C542.7,1203.1,536.5,1196.9,528.9,1196.9z"/>
			<g>
				<path class="st4" d="M449.4,1221.5c-9.9,0-18,8.1-18,18s8.1,18,18,18c10,0,18-8.1,18-18S459.3,1221.5,449.4,1221.5z"/>
				<path class="st4" d="M528.9,1196.9H369.8c-7.6,0-13.8,6.2-13.8,13.8v139.9c0,2.8,0.9,5.4,2.3,7.6c1,1.5,2.3,2.9,3.9,3.9
					c2.2,1.5,4.8,2.3,7.6,2.3h159.1c2.8,0,5.4-0.8,7.6-2.3c1.5-1,2.9-2.3,3.9-3.9c1.4-2.2,2.3-4.8,2.3-7.6v-139.9
					C542.7,1203.1,536.5,1196.9,528.9,1196.9z M503.6,1246.1c-24.2-1.8-21,59-47.6,59.9s-23.7-35.2-48.5-34s-28.4,39-42.2,58.3
					c-1.3,1.8-2.9,3.5-4.6,5.1v-124.8c0-5.1,4.1-9.2,9.2-9.2H529c5.1,0,9.2,4.1,9.2,9.2v87C523.3,1280.6,529.3,1248,503.6,1246.1z"
					/>
			</g>
		</g>
		<g>
			<g>
				<path class="st4" d="M692.7,1212.5c0,1.9,1.6,3.5,3.5,3.5H799c1.9,0,3.5-1.6,3.5-3.5V1201c0-1.9-1.6-3.5-3.5-3.5H696.1
					c-1.9,0-3.5,1.6-3.5,3.5v11.5H692.7z"/>
				<path class="st4" d="M816.6,1212.5c0,1.9,1.6,3.5,3.5,3.5H919c1.9,0,3.5-1.6,3.5-3.5V1201c0-1.9-1.6-3.5-3.5-3.5h-98.9
					c-1.9,0-3.5,1.6-3.5,3.5V1212.5z"/>
				<path class="st4" d="M678.5,1200.9c0-1.9-1.6-3.5-3.5-3.5h-98.8c-1.9,0-3.5,1.6-3.5,3.5v11.5c0,1.9,1.6,3.5,3.5,3.5H675
					c1.9,0,3.5-1.6,3.5-3.5V1200.9z"/>
			</g>
			<g>
				<path class="st5" d="M651.4,1249.6c0,1.9,1.6,3.5,3.5,3.5H759c1.9,0,3.5-1.6,3.5-3.5v-11.5c0-1.9-1.6-3.5-3.5-3.5H654.8
					c-1.9,0-3.5,1.6-3.5,3.5v11.5H651.4z"/>
				<path class="st5" d="M776.5,1249.6c0,1.9,1.6,3.5,3.5,3.5h59.6c1.9,0,3.5-1.6,3.5-3.5v-11.5c0-1.9-1.6-3.5-3.5-3.5H780
					c-1.9,0-3.5,1.6-3.5,3.5V1249.6z"/>
				<path class="st5" d="M637.2,1238.1c0-1.9-1.6-3.5-3.5-3.5h-57.6c-1.9,0-3.5,1.6-3.5,3.5v11.5c0,1.9,1.6,3.5,3.5,3.5h57.6
					c1.9,0,3.5-1.6,3.5-3.5V1238.1z"/>
			</g>
			<g>
				<path class="st6" d="M708.5,1286.7c0,1.9,1.6,3.5,3.5,3.5h149.2c1.9,0,3.5-1.6,3.5-3.5v-11.5c0-1.9-1.6-3.5-3.5-3.5H711.9
					c-1.9,0-3.5,1.6-3.5,3.5L708.5,1286.7L708.5,1286.7z"/>
				<path class="st6" d="M878.7,1286.7c0,1.9,1.6,3.5,3.5,3.5H919c1.9,0,3.5-1.6,3.5-3.5v-11.5c0-1.9-1.6-3.5-3.5-3.5h-36.8
					c-1.9,0-3.5,1.6-3.5,3.5V1286.7z"/>
				<path class="st6" d="M694.3,1275.2c0-1.9-1.6-3.5-3.5-3.5H576.2c-1.9,0-3.5,1.6-3.5,3.5v11.5c0,1.9,1.6,3.5,3.5,3.5h114.7
					c1.9,0,3.5-1.6,3.5-3.5v-11.5H694.3z"/>
			</g>
			<g>
				<path class="st7" d="M685.6,1323.8c0,1.9,1.6,3.5,3.5,3.5h102.3c1.9,0,3.5-1.6,3.5-3.5v-11.5c0-1.9-1.6-3.5-3.5-3.5H689
					c-1.9,0-3.5,1.6-3.5,3.5L685.6,1323.8L685.6,1323.8z"/>
				<path class="st7" d="M809,1323.8c0,1.9,1.6,3.5,3.5,3.5h76c1.9,0,3.5-1.6,3.5-3.5v-11.5c0-1.9-1.6-3.5-3.5-3.5h-76
					c-1.9,0-3.5,1.6-3.5,3.5V1323.8z"/>
				<path class="st7" d="M671.4,1312.3c0-1.9-1.6-3.5-3.5-3.5h-91.8c-1.9,0-3.5,1.6-3.5,3.5v11.5c0,1.9,1.6,3.5,3.5,3.5H668
					c1.9,0,3.5-1.6,3.5-3.5L671.4,1312.3L671.4,1312.3z"/>
			</g>
			<g>
				<path class="st8" d="M726.1,1360.9c0,1.9,1.6,3.5,3.5,3.5H822c1.9,0,3.5-1.6,3.5-3.5v-11.5c0-1.9-1.6-3.5-3.5-3.5h-92.4
					c-1.9,0-3.5,1.6-3.5,3.5V1360.9z"/>
				<path class="st8" d="M839.5,1360.9c0,1.9,1.6,3.5,3.5,3.5h83.2c1.9,0,3.5-1.6,3.5-3.5v-11.5c0-1.9-1.6-3.5-3.5-3.5H843
					c-1.9,0-3.5,1.6-3.5,3.5V1360.9z"/>
				<path class="st8" d="M711.9,1349.4c0-1.9-1.6-3.5-3.5-3.5H576.2c-1.9,0-3.5,1.6-3.5,3.5v11.5c0,1.9,1.6,3.5,3.5,3.5h132.3
					c1.9,0,3.5-1.6,3.5-3.5L711.9,1349.4L711.9,1349.4z"/>
			</g>
		</g>
	</g>
	<path class="st3" d="M864.9,413.9c0,7-5.7,12.7-12.6,12.7l-383.5,0.8c-7,0-12.6-5.7-12.7-12.6L455.5,102c0-7,5.7-12.7,12.6-12.7
		l383.5-0.8c7,0,12.6,5.7,12.7,12.6L864.9,413.9z"/>
	<path class="st4" d="M864.3,101.1c0-7-5.7-12.6-12.7-12.6l-383.5,0.8c-7,0-12.6,5.7-12.6,12.7l0.1,32.8h408.8L864.3,101.1z"/>
	<path class="st3" d="M839.9,111.6c0-4.6-3.8-8.4-8.4-8.4c-4.6,0-8.4,3.8-8.4,8.4s3.8,8.4,8.4,8.4
		C836.2,120,839.9,116.2,839.9,111.6z"/>
	<path class="st9" d="M793.6,111.6c0-4.6-3.8-8.4-8.4-8.4c-4.6,0-8.4,3.8-8.4,8.4s3.8,8.4,8.4,8.4S793.6,116.2,793.6,111.6z"/>
	<path class="st10" d="M747.3,111.6c0-4.6-3.8-8.4-8.4-8.4c-4.6,0-8.4,3.8-8.4,8.4s3.8,8.4,8.4,8.4S747.3,116.2,747.3,111.6z"/>
	<g>
		<g>
			<path class="st4" d="M720.7,296.4H599.8v-66.3c0-32.3,26.3-58.6,58.6-58.5h3.9c32.3,0,58.5,26.3,58.5,58.6L720.7,296.4z
				 M617.5,278.6h85.3v-48.5c0-22.5-18.3-40.8-40.7-40.8h-3.9c-22.5,0-40.8,18.3-40.8,40.8L617.5,278.6z"/>
		</g>
		<path class="st2" d="M734.9,382.3c0,4.1-3.3,7.5-7.5,7.5H592.9c-4.1,0-7.5-3.4-7.5-7.5v-113c0-4.1,3.3-7.5,7.5-7.5h134.5
			c4.1,0,7.5,3.4,7.5,7.5V382.3z"/>
		<g>
			<path class="st4" d="M680,312.7c0-10.8-8.8-19.6-19.7-19.6s-19.8,8.8-19.8,19.6c0,7.2,3.9,13.4,9.7,16.8v20.2
				c0,4.9,4,8.8,8.9,8.8h2.2c4.9,0,9-4,9-8.8v-20.2C676,326,680,319.8,680,312.7z"/>
		</g>
	</g>
</g>
</svg>
