<?xml version="1.0" encoding="utf-8"?>
<!-- Generator: Adobe Illustrator 25.1.0, SVG Export Plug-In . SVG Version: 6.00 Build 0)  -->
<svg version="1.1" id="Layer_1" xmlns="http://www.w3.org/2000/svg" xmlns:xlink="http://www.w3.org/1999/xlink" x="0px" y="0px"
	 viewBox="0 0 358 298" style="enable-background:new 0 0 358 298;" xml:space="preserve">
<style type="text/css">
	.st0{fill:#FFA970;}
	.st1{fill:#E41A3E;}
	.st2{fill:none;stroke:#C0CFF6;stroke-width:0.25;stroke-miterlimit:10;}
	.st3{fill:#05122E;}
	.st4{fill:none;stroke:#081B45;stroke-width:0.5;stroke-miterlimit:10;}
	.st5{fill:#061536;}
	.st6{fill:#EB4765;}
	.st7{fill:none;stroke:#FFFFFF;stroke-width:0.25;stroke-miterlimit:10;}
	.st8{fill:#292949;}
	.st9{fill:#FAB08B;}
	.st10{fill:#FFFFFF;}
	.st11{fill:#F28C9F;}
</style>
<path class="st0" d="M106.4,75.4c1.2-0.4,2.3-0.7,3.6-0.8c0.7,0,1.4,0,1.9,0.4c0.5,0.4,0.6,1.3,0,1.7c0.3,0.2,0.3,0.9,0,1.1
	c0.2,0,0.4,0.3,0.5,0.6c0,0.2-0.1,0.5-0.2,0.7c0.2,0.3,0.1,0.8-0.1,1.1c-0.2,0.3-0.5,0.5-0.8,0.7c-1.6,0.9-3.3,1.5-5,1.7
	c-0.7,0.1-4.9,0.9-5.6,0.6c-0.6-0.2-1.6-2.4-1.4-3.7c0.1-0.5,4.1-3.5,4.3-3.9c0.2-0.4,1.6-1.5,2.7-1.9
	C106.3,73.7,106.4,75.4,106.4,75.4z"/>
<path class="st1" d="M33.2,57.1l25.1,26.6l43.4-7l2.1,6.7l-50.5,20.1L18,75.7C18,75.7,33.2,57.1,33.2,57.1z"/>
<path class="st2" d="M58.3,83.8l-2.4,7.5 M96.8,77.9L100,85"/>
<path class="st1" d="M110,126c-2.3-22.6-5.2-49.6-7.5-72.2c7.1-1,14.2-1.6,21.3-2.7c0,4.7,3,10,7.3,11.9c4.3,1.8,9.7,0.9,13.1-2.3
	c3.4-3.2,4.7-8.5,3.1-12.9c7.2-1,15.4-2.5,22-2.5l3.3,29c3.2-1.9,7.7-3.2,11.2-2c3.5,1.2,6.5,3.9,7.9,7.4c1.8,4.3,1,9.7-2.3,13
	c-3.3,3.3-9,4-12.8,1.3c0.3,8.2,0.2,17.2,0.5,25.4c-7,0.3-14.7,0.6-21.6,0.9c0.7,6-5.1,13.1-11.1,13.5c-6.1,0.4-11.9-5-12-11
	C125.8,124.1,118,125.4,110,126L110,126z"/>
<path class="st3" d="M3.8,152.4L0,297.1l18.9,0.1l-8.7-10.3l33-132.9L3.8,152.4L3.8,152.4z"/>
<path class="st4" d="M10.1,286.9l-9.9,3 M4,288.8L21.5,154"/>
<path class="st5" d="M8.1,154.3l44.8,142.8h18l-9.6-9.8L43.2,154L8.1,154.3L8.1,154.3z"/>
<path class="st4" d="M61.3,287.3l-9.8,2.4 M25.2,154.2l30.2,134.8 M33.4,154.2c0,0,6.5,20.5-3.3,21.8"/>
<path class="st6" d="M27.4,50.4c-9.5,4.8-16.6,20.1-18.7,29c-5.9,24.5-8.8,49.6-8.7,74.8c15.6,7.8,33.7,6.6,50.2,1.3
	c-9.3-41.1,7.2-92.8-5.1-102.6C38.5,47.6,32.4,47.9,27.4,50.4L27.4,50.4z"/>
<path class="st0" d="M106.3,90.4c1.3-0.3,2.3-0.5,3.6-0.5c0.7,0,1.4,0.1,1.9,0.5c0.5,0.5,0.6,1.4,0,1.7c0.3,0.2,0.3,1-0.1,1.2
	c0.3,0,0.4,0.3,0.4,0.6c0,0.2-0.1,0.5-0.2,0.7c0.2,0.3,0.1,0.8-0.2,1.1c-0.2,0.3-0.6,0.5-0.9,0.6c-1.6,0.8-3.4,1.3-5.2,1.4
	c-0.8,0.1-5,0.6-5.7,0.3c-0.6-0.2-1.5-2.5-1.3-3.8c0.1-0.5,4.3-3.2,4.6-3.7c0.3-0.4,1.7-1.4,2.8-1.8L106.3,90.4L106.3,90.4z"/>
<path class="st6" d="M33.2,71.9l25.1,26.6l42.4-6.8l3.1,6.5l-50.5,20.1L18,90.5C18,90.5,33.2,71.9,33.2,71.9z"/>
<path class="st7" d="M58.3,98.5l-3.1,5.9 M96.8,92.6l2.7,7.4"/>
<path class="st8" d="M64.5,4.5c3.3,14.7-12.6,18.9-19.8,18.4c0.7,4.1-2.4,21.3-13.2,17.5c-9.1-3.1-12.1-29.6-6.2-33.6
	c1.3-0.9,4.4-1.2,7,0.5c0,0,0.1,0.1,0.1,0.1c0,0.1-0.1,0.1-0.1,0.1C45.6-2.3,63.1-1.7,64.5,4.5L64.5,4.5z"/>
<path class="st9" d="M44.3,16.9c0,0,7.9,3.5,14.7-2.4l3.3,15.7l-3.5,0.9l1,12.1l-14.9,0.4l0.7,9.7c-6.9,7-17.5-2.6-17.5-2.6l6.3-20
	c0,0-4.5-5.8-1.6-9.2c2.9-3.4,5.4,0.9,6.8,3.6c-0.3,4.4,2.1,4.8,3.1,4C43.7,28.4,44.4,18.6,44.3,16.9L44.3,16.9z"/>
<path class="st7" d="M33.2,71.9l16,16.9 M15.2,150.6c11.2-9.3,20.7-20.5,28-33 M32.6,146.5c4-4.5,6.8-9.9,8-15.8"/>
<path class="st10" d="M28.1,45.3l17.5,8.1l-5,5.6l-16.7-6L28.1,45.3z"/>
<path class="st6" d="M45.6,53.4l-2.4,2.7c0,0,4.6,2.9,6.4,7.6C49.6,63.7,49.8,57.4,45.6,53.4z"/>
<path class="st7" d="M17.2,84l30.3,29.8"/>
<path class="st3" d="M354.2,152l3.8,144.7l-18.9,0.1l8.7-10.3l-33-132.9L354.2,152L354.2,152z"/>
<path class="st4" d="M347.9,286.5l9.9,3 M354,288.4l-17.4-134.8"/>
<path class="st5" d="M349.9,153.9l-44.8,142.8h-18l9.6-9.8l18.1-133.3L349.9,153.9L349.9,153.9z"/>
<path class="st4" d="M296.7,286.9l9.8,2.4 M332.8,153.8l-30.2,134.8 M324.6,153.8c0,0-6.5,20.5,3.3,21.8"/>
<path class="st0" d="M251.7,80.5c-1.1-0.2-2-0.4-3.1-0.4c-0.6,0-1.2,0.1-1.6,0.5c-0.4,0.4-0.4,1.2,0.1,1.4c-0.3,0.2-0.2,0.8,0.1,1
	c-0.2,0-0.3,0.3-0.4,0.5c0,0.2,0.1,0.4,0.2,0.6c-0.2,0.3,0,0.6,0.2,0.9c0.2,0.2,0.5,0.4,0.8,0.5c1.4,0.6,2.8,1,4.4,1.1
	c0.6,0,4.2,0.4,4.7,0.2c0.5-0.2,1.2-2.1,1-3.2c-0.1-0.4-3.7-2.6-3.9-3s-1.4-1.1-2.4-1.5C251.8,79,251.7,80.5,251.7,80.5z"/>
<path class="st1" d="M322,55.4L299.1,84l-43.8-3.6l-1.6,6.9l51.9,16l33-30.6L322,55.4L322,55.4z"/>
<path class="st2" d="M299.1,84l3,7.3 M260.2,81.2l-2.6,7.4"/>
<path class="st1" d="M330.3,50.4c9.5,4.8,16.6,20.1,18.7,29c5.9,24.5,8.8,49.6,8.7,74.8c-15.6,7.8-33.7,6.6-50.2,1.3
	c9.3-41.1-7.2-92.8,5.1-102.6C319.2,47.6,325.3,47.9,330.3,50.4L330.3,50.4z"/>
<path class="st8" d="M334.2,20.2c-0.1,8.3-0.7,20.5-11.5,20.4c-5.7,0-7.1-13.9-6.3-18c-0.1,0.5-31-2.7-22.8-17.9
	c3.6-6.8,12.7-5.1,18.5-2.5c3.4,1.5,6.6,3.7,9.7,5.8c0-1.6,4-3,6.2-2.7C334.2,6.1,334.3,15.3,334.2,20.2L334.2,20.2z"/>
<path class="st9" d="M312.5,52.9l0.7-9.5L298.3,43l1-12.1l-3.5-0.9l3.3-15.7c6.8,5.9,16.9,2.7,16.9,2.7l2.5,8
	c1.5-2.7,3.9-6.9,6.8-3.6c2.9,3.4-1.6,9.2-1.6,9.2l6.3,20C330,50.6,319.4,59.9,312.5,52.9L312.5,52.9z"/>
<path class="st8" d="M299.5,31c1.8-0.9,4-0.7,5.6,0.4c0.9,0.6,1.7,1.5,2.6,2.1c2.5,1.5,5.9,0.4,7.6-1.9c1.7-2.3,1.1-11.6,0.7-14.5
	h4.6c0.3,3.2,0,12,0,15.2c0,2.9-0.2,6-1.7,8.5c-2.3,3.8-7.1,5.3-11.5,5.9c-2.9,0.4-6.2,0.4-8.5-1.4c-2.1-1.6-3.1-4.3-2.8-6.9
	C296.3,35.8,297.1,32.2,299.5,31L299.5,31z"/>
<path class="st11" d="M179.2,97.5c0.2,5.7,1,15.8,1.3,21.6c9.4-0.4,18-0.4,27.3-0.8c-0.4-4.9,4.1-9.8,9.7-10.4
	c5.6-0.6,11.1,4.1,12,8.9c4.8,0,14.9-0.1,19.7,0c0.3-7.3,0.7-15.3,1-22.6c4.2,1.1,9.1-0.3,11.8-3.3c2.7-3,3.1-7.5,1-10.9
	c-2.2-3.3-7-5.5-11.3-4.9c-0.2-10.1-0.4-20-0.7-30c-7.3-0.6-15.3-1.1-22.6-1.7c1.3-4.7-0.8-10-5.2-13c-4.4-2.9-10.8-3.2-15.5-0.8
	c-4.8,2.5-7.5,8.4-6.8,13.2c-9.2,0.3-20.2,2.1-29.4,2.4c1.4,7.4,2,15.8,3.2,23.5c0,0,18.3-6.3,20.2,12.8
	C196.7,101.1,179.2,97.5,179.2,97.5z"/>
<path class="st0" d="M250.1,97.2c-1.3-0.3-2.5-0.5-3.8-0.5c-0.7,0-1.4,0.1-1.9,0.6c-0.5,0.5-0.5,1.4,0.1,1.7c-0.3,0.2-0.3,1,0.1,1.1
	c-0.3,0-0.4,0.3-0.4,0.6c0,0.2,0.1,0.5,0.2,0.7c-0.2,0.3,0,0.8,0.2,1.1c0.2,0.3,0.6,0.5,0.9,0.6c1.7,0.8,3.4,1.2,5.3,1.3
	c0.8,0,5,0.5,5.7,0.2c0.6-0.3,1.5-2.5,1.2-3.8c-0.1-0.5-4.4-3.1-4.7-3.6c-0.3-0.4-1.6-1.3-2.8-1.7L250.1,97.2L250.1,97.2z"/>
<path class="st1" d="M321.7,73.1l-22.9,28.5L256,98.2l-2.6,6.7l51.9,16l33-30.6L321.7,73.1L321.7,73.1z"/>
<path class="st7" d="M298.8,101.7l3.6,5.6 M259.9,98.9l-2.1,7.6 M325,71.5l-15.9,18.3 M342.9,150.1c-11.2-9.3-20.7-20.5-28-33
	 M325.6,146.1c-4-4.5-6.8-9.9-8-15.8"/>
<path class="st10" d="M330,44.8l-17.5,8.1l5,5.6l16.7-6L330,44.8L330,44.8z"/>
<path class="st1" d="M312.5,52.9l2.4,2.7c0,0-4.6,2.9-6.4,7.6C308.6,63.3,308.4,57,312.5,52.9z"/>
<path class="st7" d="M342.5,85.1l-31.8,31.3"/>
</svg>
