<?xml version="1.0" encoding="utf-8"?>
<!-- Generator: Adobe Illustrator 25.1.0, SVG Export Plug-In . SVG Version: 6.00 Build 0)  -->
<svg version="1.1" id="Layer_1" xmlns="http://www.w3.org/2000/svg" xmlns:xlink="http://www.w3.org/1999/xlink" x="0px" y="0px"
	 viewBox="0 0 1024 768" style="enable-background:new 0 0 1024 768;" xml:space="preserve">
<style type="text/css">
	.st0{fill:#E7F3FE;}
	.st1{fill:#303C60;}
	.st2{fill:#F09959;}
	.st3{fill:#6791C9;}
	.st4{fill:#75A1DE;}
	.st5{opacity:0.5;fill:#6791C9;}
	.st6{fill:#E38540;}
	.st7{fill:#F5CE5C;}
	.st8{fill:#4381DB;}
	.st9{fill:#2E5B9A;}
	.st10{fill:#9CBEED;}
	.st11{fill:#FFFFFF;}
	.st12{fill:#DBE5EB;}
	.st13{fill:#F37168;}
	.st14{fill:#F2E5DE;}
	.st15{fill:#7BCEE8;}
	.st16{fill:#9EC8FF;}
	.st17{fill:#9CD499;}
	.st18{fill:#74B570;}
	.st19{fill:#A2DFF2;}
</style>
<g>
	<path class="st0" d="M38.8,705.6c0,0-264.5-155.7-83.7-322.6S377.8,45.5,540,111.5S687.6,261,865.7,381.8
		c178.1,120.8,136.9,216.7,105,265.3c-31.9,48.6-37.2,61-37.2,61L38.8,705.6z"/>
	<path class="st1" d="M240.9,263.7c39.2-32.7,67.9-13.2,89.4,8.6c17.1,17.4,19.5,21.2,33.6,39.2c2.1,2.7,3.7,5.6,3.8,9
		c0.4,19.9,11.3,104-0.8,133c-14.1,33.8-187.7,49.3-187.7,49.3L240.9,263.7z"/>
	<g>
		<path class="st1" d="M352.1,472.8c-0.9,0-1.7-0.7-1.8-1.6c0-0.9,0.7-1.7,1.7-1.8c5.2-0.2,9.3-2.4,12.8-6.6
			c19.5-23.6,8.5-102.5-1-145.4c-0.2-0.9,0.4-1.8,1.4-2c1-0.2,1.9,0.4,2.1,1.3c2.1,9.4,9,42.6,11.2,77.2
			c2.2,35.6-1.4,59.4-10.9,70.9C363.5,469.8,358.3,472.5,352.1,472.8C352.1,472.8,352.1,472.8,352.1,472.8z"/>
	</g>
	<path class="st1" d="M255.6,254c-75.3,39-29.4,170.9-124.9,217.9C104.2,484.9,23,551,76.2,638.2c34.8,57,138.9,44.7,173.2-5.7
		C283.7,582,255.6,254,255.6,254z"/>
	<g>
		<path class="st1" d="M55.2,553.8c-0.1,0-0.2,0-0.2,0c-1-0.1-1.7-1-1.5-1.9c0.1-0.5,1.7-11.6,9.2-26.3
			c6.9-13.6,20.4-32.8,45.1-47.5c44.2-26.3,73.5-51.2,108.2-173.5c0.3-0.9,1.2-1.4,2.2-1.2c1,0.2,1.5,1.2,1.3,2
			c-16.8,59.1-33.4,99.1-52.3,125.8c-17.6,24.8-35.6,36.7-57.4,49.7c-45.9,27.4-52.6,71-52.6,71.4C56.9,553.2,56.1,553.8,55.2,553.8
			z"/>
	</g>
	<g>
		<path class="st1" d="M56.9,519.7c-0.3,0-0.7-0.1-1-0.3c-0.8-0.5-1.1-1.5-0.6-2.3c10.9-16.2,24.8-29.5,41.3-39.5
			c62-37.6,72.3-59.2,123.6-183c0.4-0.9,1.4-1.3,2.3-1c0.9,0.3,1.4,1.3,1,2.2c-25.6,61.9-40.9,98.2-57.7,123.9
			c-18,27.6-38.3,43.2-67.3,60.7c-16.1,9.7-29.6,22.7-40.2,38.4C58,519.4,57.5,519.7,56.9,519.7z"/>
	</g>
	<path class="st2" d="M253,336.3C227,386.7,231,432.5,231,432.5s3,17.7,15,21.5c12,3.7,28.9-7.5,27.9-22.4c-1-14.9,4-51.4,10-64.4
		C289.9,354,253,336.3,253,336.3z"/>
	<path class="st3" d="M116,686.7c1.6,13.8-2,12.6,11,14.9c13.1,2.3,36.3-6.1,36.3-6.1L137.2,650L116,686.7z"/>
	<path class="st2" d="M234.2,405.4c-7.3,22.4-62.4,5.2-81.7,10.3c-19.3,5.2-35.8,80.8-38.6,148.8c-2.8,67.9,0.9,122.1,8.3,130.7
		c7.3,8.6,128.5,12,139.5,8.6c11-3.4-91.8-46.4-91.8-46.4s-6.4-79.1,1.8-119.6c8.3-40.4,82.6-93.7,82.6-93.7L234.2,405.4z"/>
	<path class="st2" d="M259.9,412.3c19.3,27.5,69.8,24.1,87.2,46.4c17.4,22.4,54.2,145.4,54.2,145.4l38.6-124.7
		c0,0,31.3-4.9,21.1,15.5c-18.1,36.3-24.8,153.4-44.4,170c-21.8,18.5-43.5,3.4-55.7-28.9c-11.8-31.3-41.3-98.9-62.4-124.7
		c-21.1-25.8-44.1-67.1-44.1-67.1L259.9,412.3z"/>
	<path class="st4" d="M176.3,415.7c38.6,42.1,113.8,40.4,130.4,35.3c16.5-5.2,16.5-5.2,16.5-5.2s12.9-4.3,23.9,7.7
		c11,12,37.6,87.7,42.2,104.9c4.6,17.2,11.9,45.6,11.9,45.6s-19.7,22.1-19.7,44.5c0,22.4,8.4,22.6,8.4,22.6s-24.5-5.1-30-18.9
		c-5.5-13.8-55.1-138.5-55.1-138.5l-136.8,2.6l1.8,141.1c0,0-11.9-10.3-28.5,0c-16.5,10.3-22,34.4-19.3,37.8
		c2.8,3.4-5.5,3.4-5.5,0.9c0-2.6-15.6-65.4-4.6-168.6c11-103.2,32.1-114.4,44.1-115.3C168.1,411.4,176.3,415.7,176.3,415.7z"/>
	<g>
		<path class="st3" d="M384.3,669.4c0.3,0.1,0.4,0.1,0.4,0.1S384.6,669.4,384.3,669.4z"/>
		<path class="st3" d="M389.6,607.2c-8,2.3-21.4,28.7-21.4,28.7s-30.6-62.5-39.8-149.1l-10.9,58.7c15.1,37.9,38.7,97.5,42.5,106.7
			c5,12.6,25.4,17.8,28.1,18.4c-0.8-0.2-2.4-1.2-3.8-5c-0.8-0.7-5.4-2.7-6.3-3.4c-7.3-6.3-4.3-21.2,0.6-37.8
			C383.5,607.8,397.6,604.9,389.6,607.2z"/>
	</g>
	<path class="st3" d="M174.6,516.2l-15.2-65c-16.5,21.8-18.4,96.3-11.6,147.4c5.5,41.9,13.8,52.7,19.5,57.1c1.7,0.9,2.6,1.7,2.6,1.7
		l-1.8-141.1L174.6,516.2z"/>
	<path class="st4" d="M130.7,450.7c28.2,71.1,14.1,85.4,51.1,168.9c20.7,46.6,60.6,81.7,60.6,81.7s32.1,7.7,72.5,5.2
		c40.4-2.6,70-5.2,70-5.2s-42.4-24.1-44.3-40.4c-1.8-16.3-9.8-81.2,0.6-127c8.1-35.8-25.4-71.6-25.4-71.6l-56-2.6L130.7,450.7z"/>
	<path class="st5" d="M180.3,559.6c-4.9-16.6,20.8,5.2,63,9.2c42.2,4,89.4-2.3,66.1,4.6c-23.3,6.9-86.9-3.4-75.3,18.3
		c13.7,25.6,29.8,50.5,53.2,65.4c15.3,9.7,52,18.9,16.5,13.8c-35.5-5.2-73.4-44.2-90-69.4C197.4,576.2,181.4,563.3,180.3,559.6z"/>
	<path class="st6" d="M273.8,425c0.4-17.2,4.8-46.5,10.1-57.9c4.3-9.4-13.4-21.1-23.8-27.1l-8.8-0.4c-1.3,2.7-2.6,5.5-3.8,8.1
		c-9.3,57.1,18.5,80.7,31.7,85.4c5.7,2,12.1,2.3,17.6,1.8C288.7,432.3,280.7,429.2,273.8,425z"/>
	<g>
		<path class="st7" d="M257,450.4c-3.2,0-6.5-0.4-9.8-1.1c-7.7-1.7-25.9-8.4-30.2-32.3c-0.1-0.5,0.3-1,0.8-1.1
			c0.5-0.1,1.1,0.3,1.2,0.8c4.1,22.8,21.4,29.1,28.7,30.8c11.3,2.6,23.3,0.2,27.9-5.6c3.7-4.6,1.5-14.4,1.5-14.5
			c-0.1-0.5,0.2-1,0.8-1.1c0.5-0.1,1.1,0.2,1.2,0.7c0.1,0.4,2.4,10.8-1.8,16.1C273.4,447.7,265.7,450.4,257,450.4z"/>
	</g>
	<path class="st2" d="M343.4,358.7c-6.2,30.8-20.6,55.7-44.9,51c-24.3-4.7-49.9-37.2-43.2-67.9c6.7-30.7,31.9-51.8,56.3-47.1
		C335.8,299.3,351.7,317.7,343.4,358.7z"/>
	<path class="st2" d="M430,510.9c0,0-45,113.3-47.1,125c-2.1,11.8,2.1,19.2,3.4,19.2c1.2,0,39.5-61.4,39.5-61.4L430,510.9z"/>
	<path class="st2" d="M431.8,505.9c3.7-11.5-2-26-2-26l16.3,1.9L431.8,505.9z"/>
	<g>
		<path class="st8" d="M449.8,486.3h-45.5c-2.8,0-4.7-2.5-4-5L429,391c0.5-1.6,2.1-2.8,4-2.8h45.5c2.8,0,4.7,2.5,4,5l-28.7,90.3
			C453.2,485.2,451.6,486.3,449.8,486.3z"/>
		<path class="st9" d="M455.5,486.3h-45.5c-2.8,0-4.8-2.5-4-5l28.8-90.3c0.5-1.6,2.1-2.8,4-2.8h45.5c2.8,0,4.8,2.5,4,5l-28.8,90.3
			C458.9,485.2,457.3,486.3,455.5,486.3z"/>
		<path class="st10" d="M422.5,420.9c-4.9,16.4-8.1,29.8-7.3,30.1c0.8,0.2,5.4-12.9,10.3-29.3c4.9-16.4,8.1-29.8,7.3-30.1
			C432,391.4,427.4,404.5,422.5,420.9z"/>
	</g>
	<path class="st2" d="M453.5,513.2c1.3-14.9,15.1-28.9,20.4-33.3c1.6-1.4,2.5-3.3,2.5-5.3c-0.1-7.4-0.4-24.9-2.1-27
		c-2.1-2.6-7.3-36.2-9.7-34.9c-2.4,1.3,0.7,30.6,0.7,30.6s-5.9-2.6-9-3.9c-3.1-1.3-16,12.1-16,12.1s-6,14.3,10.5,8.2
		c19.6-7.3,4.9,13-8.2,26c-10.8,10.7-1.6,13.1-1.6,13.1l8.7-0.3L453.5,513.2z"/>
	<g>
		<path class="st7" d="M448.5,524.9c-1.4,0-3.1-0.2-4.7-0.7c-4.2-1.2-11.6-5.2-13.6-18.1c-0.1-0.5,0.3-1,0.9-1.1
			c0.6-0.1,1.1,0.3,1.1,0.8c1.7,11,7.4,15,11.8,16.4c3.7,1.2,6.7,0.6,7.4,0.2c0-0.3,0.3-0.6,0.6-0.8c0.5-0.2,1.1,0,1.3,0.5
			c0.2,0.5,0.1,1-0.3,1.4C452.4,524.4,450.7,524.9,448.5,524.9z"/>
	</g>
	<g>
		<path class="st7" d="M446.8,521.2c-1.4,0-2.8-0.1-4.1-0.3c-7.9-1.1-13.1-4.8-14.5-10.3c-0.1-0.5,0.2-1,0.8-1.1
			c0.5-0.1,1.1,0.2,1.2,0.7c1.3,5.2,6.3,7.4,10.3,8.4c5.6,1.3,10.9,0.5,11.5-0.2c0.3-0.5,0.9-0.6,1.4-0.3c0.5,0.3,0.7,0.9,0.4,1.3
			C453.1,520.6,450.1,521.2,446.8,521.2z"/>
	</g>
	<g>
		<path class="st11" d="M315.4,374.7c-0.5,0-1,0-1.5-0.1c-7.7-1.1-12.4-10.4-10.6-21.3c0.8-5,2.9-9.6,6-12.8c3.2-3.4,7.1-5,10.9-4.5
			c7.7,1.1,12.4,10.4,10.6,21.3C329.2,367.4,322.6,374.7,315.4,374.7z M318.8,339.3c-2.3,0-4.7,1.2-6.8,3.5
			c-2.6,2.8-4.4,6.7-5.1,11.1c-1.4,8.7,2.1,16.6,7.6,17.4c5.5,0.8,11.4-5.8,12.8-14.5c1.4-8.7-2.1-16.6-7.6-17.4
			C319.4,339.4,319.1,339.3,318.8,339.3z"/>
	</g>
	<g>
		<path class="st11" d="M340.9,374.8c-0.2,0-0.5,0-0.7-0.1c-5.1-0.7-7.8-8.8-6.2-18.3c1.6-9.5,6.7-16.4,11.8-15.7
			c2.6,0.4,4.7,2.6,5.8,6.3c1,3.3,1.2,7.6,0.5,12C350.5,368.1,345.7,374.8,340.9,374.8z M345,343.3c-3,0-7,5.4-8.4,13.6
			c-1.4,8.5,1,15,4,15.4c3,0.4,7.3-5,8.7-13.6c0.7-4,0.5-7.9-0.4-10.9c-0.8-2.6-2.1-4.3-3.6-4.5C345.2,343.3,345.1,343.3,345,343.3z
			"/>
	</g>
	<g>
		<path class="st11" d="M307,346.2c-0.2,0-0.3,0-0.5-0.1l-60-16.1c-1-0.3-1.5-1.2-1.2-2.1c0.3-0.9,1.3-1.4,2.2-1.2l60,16.1
			c1,0.3,1.5,1.2,1.2,2.1C308.5,345.8,307.8,346.2,307,346.2z"/>
	</g>
	<path class="st1" d="M349.8,311.3c-92.8,51.2-97.9,16.8-97.9,16.8l5.5-48.9l55.1,2.9L349.8,311.3z"/>
	<path class="st2" d="M259.1,339.5c2.2,8.7-0.8,16.7-6.6,18s-12.2-4.7-14.4-13.4c-2.2-8.7,0.8-16.7,6.6-18
		C250.5,324.8,256.9,330.8,259.1,339.5z"/>
	<path class="st7" d="M252.7,350.9c0,1.9-1.6,3.4-3.7,3.4c-2,0-3.7-1.5-3.7-3.4c0-1.9,1.6-3.4,3.7-3.4
		C251.1,347.4,252.7,349,252.7,350.9z"/>
	<path class="st9" d="M968.9,716.8H40.3c-4.7,0-8.5-3.6-8.5-8c0-4.4,3.8-8,8.5-8h928.6c4.7,0,8.5,3.6,8.5,8
		C977.4,713.3,973.6,716.8,968.9,716.8z"/>
	<path class="st12" d="M260.4,699.4c0,0-35,0.4-35.4,3.3c-0.4,2.9,1.3,4.2,13.7,6.2c12.4,2.1,152,2.9,153.3,2.1
		c1.3-0.8,42.1-10,42.1-10l-97.9-1.7H260.4z"/>
	<path class="st2" d="M279.4,677.5c0,0,25.1-10.3,32.4-5.7c7.3,4.6,28.6,25.6,28.6,25.6L279.4,677.5z"/>
	<path class="st9" d="M339.1,699.3c-0.5,0.6-1.2,0.8-1.6,0.5l-51.6-36c-2.8-1.9-4.1-4.9-2.8-6.5c1.3-1.6,4.7-1,7.3,1.1l48.8,39.3
		C339.6,698,339.5,698.7,339.1,699.3z"/>
	<path class="st2" d="M203.5,673.1c0,0,41.6,15.5,46.5,15.5c4.9,0,32.2-17.2,41.4-14.9c9.2,2.3,54.1,23.5,52.8,25.2
		c-1.2,1.7-14.1,5.7-52,4.6c-37.9-1.1-99.8-6.3-99.8-6.3L203.5,673.1z"/>
	<path class="st13" d="M724.7,701.6h-170c-2.4,0-4.4-2-4.4-4.4v-24.7c0-2.4,2-4.4,4.4-4.4h170c6.1,0,11.2,5,11.2,11.2v11.3
		C735.8,696.5,730.8,701.6,724.7,701.6z"/>
	<path class="st14" d="M711.3,673.6H550.2c-1.1,1.8-1.8,3.8-1.8,6v10.3c0,2.2,0.7,4.2,1.8,6h161.1c5.7,0,10.4-4.4,10.4-9.7v-2.8
		C721.7,678,717,673.6,711.3,673.6z"/>
	<path class="st15" d="M719.7,667.9H589.3c-1.5,0-2.7-1.2-2.7-2.7v-15c0-1.5,1.2-2.7,2.7-2.7h130.4c3.7,0,6.8,3,6.8,6.8v6.8
		C726.4,664.9,723.4,667.9,719.7,667.9z"/>
	<path class="st14" d="M707.9,651H586.6c-0.8,1.1-1.3,2.3-1.3,3.6v6.2c0,1.3,0.5,2.6,1.3,3.6h121.3c4.3,0,7.8-2.7,7.8-5.9v-1.7
		C715.8,653.7,712.2,651,707.9,651z"/>
	<g>
		<path class="st16" d="M740.8,236.3H603.2c-4.4,0-6.7-3.4-5.1-7.5l20.8-53.6c1.6-4.1,6.5-7.5,10.9-7.5h137.6c4.4,0,6.7,3.4,5.1,7.5
			l-20.8,53.6C750,232.9,745.1,236.3,740.8,236.3z"/>
		<path class="st11" d="M736.1,230.7H612.2c-3.8,0-5.8-2.9-4.4-6.5l17.2-44.3c1.4-3.6,5.6-6.5,9.4-6.5h123.9c3.8,0,5.8,2.9,4.4,6.5
			l-17.2,44.3C744.1,227.8,739.9,230.7,736.1,230.7z"/>
		<path class="st16" d="M657.8,233.2c-11.4,28.2-29,36.9-29,36.9s12.5-16.2,10.7-24.1c-1.8-7.9-8.5-11.2-8.5-11.2L657.8,233.2z"/>
		<path class="st16" d="M746.1,189.2h-79.9c-1.3,0-2-1-1.5-2.2l0-0.1c0.5-1.2,1.9-2.2,3.2-2.2h79.9c1.3,0,2,1,1.5,2.2l0,0.1
			C748.8,188.2,747.4,189.2,746.1,189.2z"/>
		<path class="st16" d="M742.3,198.7h-79.9c-1.3,0-2-1-1.5-2.2l0-0.1c0.5-1.2,1.9-2.2,3.2-2.2h79.9c1.3,0,2,1,1.5,2.2l0,0.1
			C745.1,197.7,743.7,198.7,742.3,198.7z"/>
		<path class="st16" d="M738.1,209.5h-79.9c-1.3,0-2-1-1.5-2.2l0-0.1c0.5-1.2,1.9-2.2,3.2-2.2h79.9c1.3,0,2,1,1.5,2.2l0,0.1
			C740.9,208.5,739.5,209.5,738.1,209.5z"/>
		<path class="st16" d="M653.7,196.9c-3.2,8.1-11.5,14.7-18.6,14.7c-7.1,0-10.3-6.6-7.1-14.7c3.2-8.1,11.5-14.7,18.6-14.7
			C653.7,182.1,656.9,188.7,653.7,196.9z"/>
	</g>
	<g>
		<path class="st16" d="M662.6,375.6h-6.8c-1.4,0-2.2-1.1-1.7-2.4l2-5.3c0.5-1.3,2.1-2.4,3.6-2.4h6.8c1.4,0,2.2,1.1,1.7,2.4l-2,5.3
			C665.6,374.5,664,375.6,662.6,375.6z"/>
		<path class="st16" d="M684.4,375.6h-6.8c-1.4,0-2.2-1.1-1.7-2.4l2-5.3c0.5-1.3,2.1-2.4,3.6-2.4h6.8c1.4,0,2.2,1.1,1.7,2.4l-2,5.3
			C687.5,374.5,685.9,375.6,684.4,375.6z"/>
		<path class="st16" d="M706.3,375.6h-6.8c-1.4,0-2.2-1.1-1.7-2.4l2-5.3c0.5-1.3,2.1-2.4,3.6-2.4h6.8c1.4,0,2.2,1.1,1.7,2.4l-2,5.3
			C709.3,374.5,707.8,375.6,706.3,375.6z"/>
	</g>
	<g>
		<path class="st16" d="M575.9,335.1H438.3c-4.4,0-6.7-3.4-5.1-7.5l20.8-53.6c1.6-4.1,6.5-7.5,10.9-7.5h137.6c4.4,0,6.7,3.4,5.1,7.5
			l-20.8,53.6C585.2,331.7,580.3,335.1,575.9,335.1z"/>
		<path class="st11" d="M571.2,329.5H447.3c-3.8,0-5.8-2.9-4.4-6.5l17.2-44.3c1.4-3.6,5.6-6.5,9.4-6.5h123.9c3.8,0,5.8,2.9,4.4,6.5
			L580.6,323C579.2,326.6,575,329.5,571.2,329.5z"/>
		<path class="st16" d="M445.3,332c-10.5,28.2,0.3,36.9,0.3,36.9s0.1-16.2,8-24.1c7.9-7.9,17.2-11.2,17.2-11.2L445.3,332z"/>
		<path class="st16" d="M537.6,291.7h-67.4c-1.2,0-1.8-0.9-1.4-2.1l0.2-0.5c0.4-1.1,1.8-2.1,3-2.1h67.4c1.2,0,1.8,0.9,1.4,2.1
			l-0.2,0.5C540.1,290.8,538.8,291.7,537.6,291.7z"/>
		<path class="st16" d="M533.9,301.3h-67.4c-1.2,0-1.8-0.9-1.4-2.1l0.2-0.5c0.4-1.1,1.8-2.1,3-2.1h67.4c1.2,0,1.8,0.9,1.4,2.1
			l-0.2,0.5C536.4,300.3,535.1,301.3,533.9,301.3z"/>
		<path class="st16" d="M529.7,312h-67.4c-1.2,0-1.8-0.9-1.4-2.1l0.2-0.5c0.4-1.1,1.8-2.1,3-2.1h67.4c1.2,0,1.8,0.9,1.4,2.1
			l-0.2,0.5C532.2,311.1,530.9,312,529.7,312z"/>
		<path class="st16" d="M701.2,395.7H568.4c-2.4,0-3.6-0.9-2.7-2.1l0.3-0.5c0.9-1.1,3.5-2.1,5.9-2.1h132.8c2.4,0,3.6,0.9,2.7,2.1
			l-0.3,0.5C706.2,394.8,703.6,395.7,701.2,395.7z"/>
		<path class="st16" d="M693.9,411.5H561.1c-2.4,0-3.6-0.9-2.7-2.1l0.3-0.5c0.9-1.1,3.5-2.1,5.9-2.1h132.8c2.4,0,3.6,0.9,2.7,2.1
			l-0.3,0.5C698.9,410.5,696.3,411.5,693.9,411.5z"/>
		<path class="st16" d="M561,315.8h-9.7c-4.4,0-6.7-3.4-5.1-7.5l7.3-18.7c1.6-4.1,6.5-7.5,10.9-7.5h9.7c4.4,0,6.7,3.4,5.1,7.5
			l-7.3,18.7C570.3,312.4,565.4,315.8,561,315.8z"/>
	</g>
	<g>
		<path class="st17" d="M901.1,676.8c17.7-91,13.8-123.5-33.6-197.8c-47.4-74.3-51.9-212.4-69.8-171.9
			c-17.9,40.5-15.5,142.3,40.5,191.7c56,49.4,63.5,71.5,66.9,91.6c3.3,20.1-8,81.9-8,81.9L901.1,676.8z"/>
		<path class="st18" d="M909.9,618.2c0-0.3,0.1-0.7,0.1-1c-1-7.5-6.7-45.8-14.4-61c-8.6-16.8-46.5-46.1-57.2-82.8
			c-10.6-36.7-27.5-65.2-38.6-88.4c-14.6-30.6-6.6-71.4,5.5-84.6c-0.3-0.2-0.6-0.3-0.9-0.4l-4,2.3c-0.9,1.2-1.8,2.8-2.7,4.9
			c-17.9,40.5-15.5,142.3,40.5,191.7c56,49.4,63.5,71.5,66.9,91.6c0.9,5.4,0.7,13.9,0,23.3L909.9,618.2z"/>
		<path class="st17" d="M876.9,660.8c13.2-106.9,8.8-143.9-16.7-229.4c-25.5-85.5,140.4-280.4,135.2-246.7
			c-5.3,33.7-22.8,117.6-68.5,170.2c-45.6,52.6-49.2,95.4-40.4,140.6c8.8,45.2-1.8,150.5-1.8,150.5l-5.3,18.9L876.9,660.8z"/>
		<g>
			<path class="st18" d="M883,616.3C882.9,616.3,882.9,616.3,883,616.3c-0.7,0-1.1-0.5-1.1-1.1c0-0.3,1.3-33.3,0.7-60.3
				c-0.7-27.1-8.5-73.5-13.3-89.4c-4.3-14.5-9.8-63.2,16.7-113.4c13.2-25,23.7-40.9,38.3-62.8c14.4-21.7,32.3-48.6,60.8-96.1
				c0.3-0.5,1-0.7,1.5-0.4c0.5,0.3,0.7,0.9,0.4,1.4c-28.5,47.5-46.4,74.5-60.8,96.1c-14.5,21.9-25,37.6-38.2,62.6
				c-26.2,49.7-20.8,97.7-16.5,112c4.8,16,12.7,62.7,13.3,89.9c0.7,27.1-0.7,60.1-0.7,60.5C884,615.9,883.5,616.3,883,616.3z"/>
		</g>
		<path class="st17" d="M881.3,699.2c7.9-71.5,9.2-36.3-23.6-133.5c-37.6-111.3,96.4-210,118.4-169.7
			c21.9,40.3,47.4,166.9,37.7,162.8c-9.7-4.1-73.7-121.7-75.5-116.8c-1.8,4.9-86.9,46.1-83.4,88c3.5,41.9,36,108.6,36,108.6
			l-0.9,61.4L881.3,699.2z"/>
		<g>
			<path class="st18" d="M890.1,699.2c0,0-0.1,0-0.1,0l-8.8-0.8c-0.3,0-0.6-0.2-0.7-0.4c-0.2-0.2-0.3-0.5-0.2-0.8
				c0.9-8.3,1.8-15.2,2.4-20.8c3.7-30.4,3.7-30.4-6.4-56.4c-4.5-11.8-10.8-27.9-19.6-54c-6.6-19.5-8.3-39.8-5.1-60.1
				c2.8-18,9.4-35.7,19.6-52.7c17.4-29.1,44.7-54.1,69.7-63.7c17.3-6.7,30.5-4.5,36.2,5.9c9.3,17.1,20.5,52.1,29.8,93.7
				c5.4,24,13.3,65.8,8.8,70.2c-0.6,0.6-1.5,0.7-2.3,0.4c-5.3-2.2-22.7-31.1-46.8-71.6c-12.1-20.3-24.5-41.2-27.9-44.9
				c-1.4,1.4-4.8,3.6-11.9,8.1c-23.9,15.2-73.5,46.7-70.8,78.5c3.5,41.3,35.6,107.5,35.9,108.2c0.1,0.1,0.1,0.3,0.1,0.4l-0.9,59.6
				c0,0.3-0.1,0.6-0.4,0.8C890.6,699.1,890.3,699.2,890.1,699.2z M882.5,696.4l6.5,0.6l0.9-58.2c-2-4.2-32.6-68.2-36-108.7
				c-2.8-33,47.6-65,71.8-80.4c5.7-3.7,11.2-7.1,11.7-8.1c0.2-0.5,0.6-0.8,1.1-0.8c2.1-0.2,6.3,6.3,30.1,46.3
				c17.1,28.7,40.4,68,45.6,70.6c0.4-0.6,1.6-4-0.7-21.4c-1.7-12.6-4.8-29.1-8.7-46.5c-9.3-41.5-20.4-76.5-29.7-93.5
				c-5.1-9.4-17.3-11.2-33.4-5c-43.8,16.8-110.8,91.3-82.9,173.9c8.8,26.1,15,42.1,19.6,53.9c10.2,26.5,10.2,26.5,6.5,57.3
				C884.1,682.2,883.4,688.6,882.5,696.4z"/>
		</g>
		<path class="st15" d="M908.9,702.1H869c-2.7,0-5.2-1.5-5.4-3.3l-13.4-94.3c-0.6-4.3,2.5-8,6.8-8h63.8c4.4,0,7.5,3.7,6.8,8
			l-13.4,94.3C914.1,700.7,911.6,702.1,908.9,702.1z"/>
		<path class="st19" d="M904.1,698.9h-5.7c-2.8,0-5-1.5-5-3.4l2-81.4c0.1-4.1,3.6-7.5,7.9-7.5h8.7c4.2,0,7.3,3.4,6.8,7.5l-9.2,81.4
			C909.4,697.4,906.9,698.9,904.1,698.9z"/>
		<g>
			<path class="st18" d="M861.7,566.9l0.7-1.1c-2.6-8.7-4.7-17.4-6.1-25.5C857.7,555.6,861.7,566.9,861.7,566.9z"/>
			<path class="st18" d="M861.7,498c-2.6,6.1-4.2,12.4-5,18.6c11.8-36.2,77.2-68.8,81.5-74.3l0.8-1.4
				C914.3,434.5,875,466.9,861.7,498z"/>
		</g>
		<g>
			<path class="st18" d="M1013.9,556.6c-0.5,0-0.9-0.3-1.1-0.8l-11.9-45.3c-9.3-35.5-20.9-79.8-33.8-99.4
				c-2.1-3.2-11.5-7.6-24.7-6.8c-17.9,1.2-52.4,12.8-82.3,77c-0.2,0.5-0.9,0.8-1.5,0.5c-0.6-0.2-0.8-0.8-0.6-1.4
				c30.4-65.2,65.8-77,84.2-78.2c14.3-0.9,24.3,4,26.8,7.7c13.2,20,24.3,62.5,34.1,100l11.9,45.3c0.1,0.6-0.2,1.1-0.8,1.2
				C1014.1,556.5,1014,556.6,1013.9,556.6z"/>
		</g>
		<g>
			<path class="st18" d="M979,497.4c0,0-0.1,0-0.1,0c-0.6-0.1-1-0.6-1-1.1c0-0.4,4.5-37.6-6-76.8c-0.1-0.6,0.2-1.1,0.8-1.3
				c0.6-0.1,1.2,0.2,1.3,0.8c10.6,39.6,6.1,77.2,6,77.6C980,497,979.5,497.4,979,497.4z"/>
		</g>
		<g>
			<path class="st18" d="M966.7,474.4c0,0-0.1,0-0.1,0c-0.6-0.1-1-0.6-1-1.1c0-0.3,4.3-34.5,1.3-62.7c-0.1-0.6,0.4-1.1,1-1.1
				c0.6-0.1,1.1,0.4,1.2,0.9c3,28.4-1.3,62.8-1.3,63.1C967.7,474,967.3,474.4,966.7,474.4z"/>
		</g>
		<g>
			<path class="st18" d="M924.8,291.3c-0.4,0-0.8-0.2-1-0.6c-0.3-0.5,0-1.1,0.5-1.4c0.3-0.1,31.8-14.6,50-46.3
				c0.3-0.5,1-0.7,1.5-0.4c0.5,0.3,0.7,0.9,0.4,1.4c-18.6,32.3-50.7,47-51,47.1C925.1,291.3,925,291.3,924.8,291.3z"/>
		</g>
		<g>
			<path class="st18" d="M901.6,328.6c-0.5,0-1-0.3-1.1-0.8c-0.1-0.6,0.3-1.1,0.9-1.2c0.3,0,26.1-5.2,56.7-28.4
				c0.5-0.4,1.2-0.3,1.5,0.2c0.4,0.4,0.3,1.1-0.2,1.5c-31.1,23.5-57.4,28.8-57.6,28.9C901.7,328.6,901.6,328.6,901.6,328.6z"/>
		</g>
		<g>
			<path class="st18" d="M882.3,364.8c-0.5,0-0.7,0-0.8,0c-0.6,0-1.1-0.5-1-1.1c0-0.6,0.6-1,1.2-1c0.2,0,18,0.9,46.4-19.1
				c0.5-0.3,1.2-0.2,1.5,0.2c0.4,0.5,0.3,1.1-0.2,1.4C903.3,363.6,886.2,364.8,882.3,364.8z"/>
		</g>
	</g>
</g>
</svg>
