<?xml version="1.0" encoding="utf-8"?>
<!-- Generator: Adobe Illustrator 25.1.0, SVG Export Plug-In . SVG Version: 6.00 Build 0)  -->
<svg version="1.1" id="Layer_1" xmlns="http://www.w3.org/2000/svg" xmlns:xlink="http://www.w3.org/1999/xlink" x="0px" y="0px"
	 viewBox="0 0 1024 975" style="enable-background:new 0 0 1024 975;" xml:space="preserve">
<style type="text/css">
	.st0{fill:#141414;}
	.st1{fill:url(#SVGID_1_);}
	.st2{fill:url(#SVGID_2_);}
	.st3{opacity:0.41;}
	.st4{fill:url(#SVGID_3_);}
	.st5{fill:#0070E0;}
	.st6{fill:#00A5FF;}
	.st7{fill:#FFFFFF;}
	.st8{enable-background:new    ;}
	.st9{fill:#3B4C61;}
	.st10{fill:#2DD7A2;}
	.st11{fill:#EAEEEE;}
	.st12{fill:url(#SVGID_4_);}
	.st13{fill:url(#SVGID_5_);}
	.st14{fill:url(#SVGID_6_);}
	.st15{fill:#2D8566;}
	.st16{fill:#36B87B;}
	.st17{fill:url(#SVGID_7_);}
	.st18{fill:url(#SVGID_8_);}
	.st19{fill:url(#SVGID_9_);}
	.st20{fill:url(#SVGID_10_);}
	.st21{fill:#1F88F0;}
	.st22{fill:#EFF4FF;}
	.st23{fill:url(#SVGID_11_);}
	.st24{fill:url(#SVGID_12_);}
	.st25{fill:url(#SVGID_13_);}
	.st26{fill:url(#SVGID_14_);}
	.st27{fill:url(#SVGID_15_);}
	.st28{fill:url(#SVGID_16_);}
	.st29{fill:url(#SVGID_17_);}
	.st30{fill:url(#SVGID_18_);}
	.st31{fill:url(#SVGID_19_);}
	.st32{fill:url(#SVGID_20_);}
	.st33{fill:url(#SVGID_21_);}
	.st34{fill:#89939A;}
	.st35{fill:none;stroke:#2DD7A2;stroke-width:0.3257;stroke-miterlimit:10;}
	.st36{fill:url(#SVGID_22_);}
	.st37{fill:url(#SVGID_23_);stroke:#2DD7A2;stroke-width:0.2591;stroke-miterlimit:10;}
	.st38{fill:url(#SVGID_24_);}
	.st39{fill:url(#SVGID_25_);stroke:#2DD7A2;stroke-width:0.1693;stroke-miterlimit:10;}
	.st40{fill:url(#SVGID_26_);}
	.st41{fill:url(#SVGID_27_);}
	.st42{fill:url(#SVGID_28_);}
</style>
<g>
	<path class="st0" d="M966,628.3c5.6,3.2,5.6,8.4,0.1,11.7l-76.9,44.7c-5.5,3.2-14.6,3.2-20.1,0L791.6,640
		c-5.6-3.2-5.6-8.4-0.1-11.7l76.9-44.7c5.5-3.2,14.6-3.2,20.1,0L966,628.3z"/>
	<path class="st0" d="M722.3,685.6c3.1,1.8,3.2,4.8,0,6.6l-43.4,25.2c-3.1,1.8-8.2,1.8-11.4,0l-43.7-25.2c-3.2-1.8-3.2-4.8,0-6.6
		l43.4-25.2c3.1-1.8,8.2-1.8,11.4,0L722.3,685.6z"/>
	<g>
		<g>
			
				<image style="overflow:visible;opacity:0.17;" width="860" height="517" xlink:href="A67D5873.png"  transform="matrix(1 0 0 1 20.4338 239.4338)">
			</image>
			<g>
				<linearGradient id="SVGID_1_" gradientUnits="userSpaceOnUse" x1="581.5177" y1="206.2846" x2="276.6028" y2="813.8395">
					<stop  offset="0" style="stop-color:#1C2938"/>
					<stop  offset="0.9958" style="stop-color:#121A24"/>
				</linearGradient>
				<path class="st1" d="M835.8,395.3c17.4,10,17.4,26.3,0.2,36.3L344.8,717.1c-17.2,10-45.3,10-62.7,0l-237.3-137
					c-17.3-10-17.4-26.3-0.2-36.3l491.1-285.4c17.2-10,45.4-10,62.7,0L835.8,395.3z"/>
			</g>
		</g>
		<g>
			
				<image style="overflow:visible;opacity:0.17;" width="860" height="516" xlink:href="A67D5871.png"  transform="matrix(1 0 0 1 20.4338 304.4338)">
			</image>
			<g>
				<linearGradient id="SVGID_2_" gradientUnits="userSpaceOnUse" x1="581.5177" y1="271.0103" x2="276.6027" y2="878.5654">
					<stop  offset="0" style="stop-color:#1C2938"/>
					<stop  offset="0.9958" style="stop-color:#121A24"/>
				</linearGradient>
				<path class="st2" d="M835.8,460c17.4,10,17.4,26.3,0.2,36.3L344.8,781.8c-17.2,10-45.3,10-62.7,0l-237.3-137
					c-17.3-10-17.4-26.3-0.2-36.3l491.1-285.4c17.2-10,45.4-10,62.7,0L835.8,460z"/>
			</g>
		</g>
		<g class="st3">
			<path class="st0" d="M822.5,374.8c10,5.8,10.1,15.2,0.1,21l-97.8,56.8c-10,5.8-26.2,5.8-36.3,0L449.2,314.5
				c-10-5.8-10.1-15.2-0.1-21l97.8-56.8c10-5.8,26.2-5.8,36.2,0L822.5,374.8z"/>
		</g>
		<g>
			<linearGradient id="SVGID_3_" gradientUnits="userSpaceOnUse" x1="19.7945" y1="561.1505" x2="860.579" y2="414.2793">
				<stop  offset="0" style="stop-color:#121A24;stop-opacity:0"/>
				<stop  offset="4.343152e-02" style="stop-color:#14252C;stop-opacity:4.343152e-02"/>
				<stop  offset="0.2969" style="stop-color:#1D6455;stop-opacity:0.2969"/>
				<stop  offset="0.5284" style="stop-color:#249676;stop-opacity:0.5284"/>
				<stop  offset="0.73" style="stop-color:#29B98E;stop-opacity:0.73"/>
				<stop  offset="0.894" style="stop-color:#2CCF9D;stop-opacity:0.894"/>
				<stop  offset="1" style="stop-color:#2DD7A2"/>
			</linearGradient>
			<path class="st4" d="M313.5,725.7c-11.6,0-23.1-2.5-32-7.6L44.3,581c-8.8-5.1-13.6-11.9-13.6-19.2c0-7.3,4.8-14,13.4-19.1
				l491.1-285.4c17.6-10.2,46.2-10.2,63.9,0l237.3,137c8.8,5.1,13.6,11.9,13.6,19.2c0,7.3-4.8,14.1-13.4,19.1L345.4,718
				C336.6,723.1,325.1,725.7,313.5,725.7z M567.1,251.9c-11.2,0-22.3,2.5-30.8,7.4L45.2,544.7c-7.9,4.6-12.3,10.7-12.3,17.1
				c0,6.5,4.4,12.6,12.5,17.2l237.3,137c17,9.8,44.7,9.8,61.6,0l491.1-285.4c8-4.6,12.3-10.7,12.3-17.1c0-6.5-4.4-12.6-12.5-17.2
				l-237.3-137C589.4,254.4,578.2,251.9,567.1,251.9z"/>
		</g>
	</g>
	<g>
		<g>
			<path class="st5" d="M217.4,747.4c-13.6,7.9-35.7,7.9-49.4,0L11.4,656.9c-6.9-4-10.3-9.2-10.3-14.4l0,10.6
				c0,5.2,3.4,10.4,10.3,14.4L168,758c13.7,7.9,35.8,7.9,49.4,0c6.8-3.9,10.2-9.1,10.2-14.2l0-10.6
				C227.6,738.3,224.2,743.4,217.4,747.4z"/>
			<g>
				<path class="st6" d="M217.3,718.7c13.7,7.9,13.7,20.7,0.1,28.6c-13.6,7.9-35.7,7.9-49.4,0L11.4,656.9
					c-13.7-7.9-13.8-20.7-0.2-28.6c13.6-7.9,35.7-7.9,49.4,0L217.3,718.7z"/>
			</g>
		</g>
		<g>
			<g>
				<g>
					<path class="st7" d="M97.2,666.9c1.3,0.8,2.4,1.7,3.1,2.8l-2.5,0.6c-0.7-1-1.6-1.8-2.5-2.3c-0.7-0.4-1.4-0.6-2.1-0.7
						c-0.7,0-1.3,0.1-1.8,0.4c-0.4,0.2-0.6,0.4-0.7,0.7c-0.1,0.2-0.1,0.5,0,0.8c0.1,0.3,0.5,0.9,1,1.6c0.6,0.8,0.9,1.5,1.1,2
						c0.1,0.5,0,0.9-0.2,1.3c-0.2,0.4-0.7,0.8-1.3,1.1c-1.2,0.7-2.6,1-4.2,0.9c-1.6-0.1-3.2-0.6-4.7-1.5c-1.6-0.9-2.6-1.8-3.1-2.6
						l2.1-1.2c0.3,0.5,0.8,1.1,1.3,1.6c0.5,0.5,1.1,0.9,1.7,1.3c0.9,0.5,1.7,0.8,2.5,0.8c0.8,0.1,1.4-0.1,2-0.4
						c0.5-0.3,0.7-0.7,0.7-1.1c0-0.4-0.4-1.1-1.2-2.1c-0.8-1-1.1-1.9-0.9-2.5c0.1-0.7,0.7-1.3,1.6-1.8c1.1-0.7,2.5-0.9,3.9-0.9
						C94.4,665.7,95.8,666.1,97.2,666.9z"/>
				</g>
				<g>
					<polygon class="st7" points="89.9,678.8 100.2,672.8 102.5,674.1 92.1,680.1 					"/>
				</g>
				<g>
					<path class="st7" d="M102.9,672.5c-0.4-0.2-0.6-0.5-0.6-0.7c0-0.3,0.2-0.5,0.6-0.7c0.4-0.2,0.8-0.3,1.2-0.3
						c0.4,0,0.8,0.1,1.2,0.4c0.4,0.2,0.6,0.5,0.6,0.7c0,0.3-0.2,0.5-0.6,0.7c-0.4,0.2-0.8,0.3-1.2,0.3
						C103.7,672.9,103.3,672.8,102.9,672.5z"/>
				</g>
				<g>
					<path class="st7" d="M122,685.1c2.5,1.4,2.5,2.9,0,4.4l-6.8,3.9l-2.2-1.3l6.4-3.7c0.8-0.5,1.2-0.9,1.3-1.3
						c0.1-0.4-0.2-0.8-1-1.2c-0.9-0.5-1.9-0.8-2.9-0.7c-1,0.1-2.1,0.5-3.4,1.2l-5.2,3l-2.2-1.3l10.4-6l1.7,1l-1,1l0.1,0.1
						c0.8-0.1,1.6-0.1,2.5,0.1C120.5,684.4,121.3,684.7,122,685.1z"/>
				</g>
				<g>
					<path class="st7" d="M114.5,681l-1.2,0.7l-2.1-0.8c-0.1,0.2-0.2,0.5-0.4,0.7c-0.2,0.3-0.5,0.5-0.8,0.7
						c-1.1,0.6-2.3,0.9-3.6,0.8c-1.4-0.1-2.7-0.5-4-1.2c-0.3-0.2-0.6-0.4-0.8-0.6c-0.8-0.1-1.4,0-1.7,0.2c-0.2,0.1-0.3,0.3-0.2,0.5
						c0.1,0.2,0.5,0.5,1.1,0.8l1.8,1.1c1.1,0.7,1.8,1.3,1.9,1.9c0.1,0.6-0.3,1.2-1.2,1.7c-1.2,0.7-2.6,0.9-4.2,0.7
						c-1.6-0.2-3.3-0.8-5.2-1.9c-1.4-0.8-2.3-1.6-2.5-2.3c-0.3-0.7,0.1-1.4,1-1.9c0.6-0.4,1.4-0.6,2.2-0.6c0.8,0,1.7,0.1,2.6,0.5
						c-0.2-0.2-0.2-0.5-0.1-0.8c0.1-0.3,0.3-0.5,0.6-0.7c0.4-0.2,0.8-0.4,1.3-0.4c0.5,0,1.1,0,1.8,0.1c-0.3-0.4-0.4-0.9-0.2-1.4
						c0.2-0.5,0.6-1,1.3-1.4c1.1-0.7,2.4-1,3.7-0.9c1.3,0.1,2.7,0.5,4,1.2c0.3,0.2,0.6,0.4,0.9,0.6c0.3,0.2,0.5,0.4,0.6,0.5
						L114.5,681z M98,683.5c-0.6-0.4-1.3-0.6-2-0.6c-0.7,0-1.3,0.1-1.8,0.4c-0.5,0.3-0.6,0.6-0.5,1c0.2,0.4,0.6,0.8,1.4,1.3
						c1.2,0.7,2.3,1.1,3.2,1.3c0.9,0.1,1.7,0,2.3-0.3c0.5-0.3,0.6-0.5,0.5-0.8c-0.1-0.3-0.6-0.7-1.5-1.2L98,683.5 M103.8,681.1
						c1.3,0.7,2.6,0.7,4-0.1c0.7-0.4,1-0.8,1.1-1.2c0.1-0.4-0.2-0.8-0.9-1.2c-0.6-0.4-1.3-0.5-2-0.5c-0.7,0-1.4,0.2-2.1,0.6
						c-0.7,0.4-1,0.8-1,1.2C102.8,680.3,103.1,680.7,103.8,681.1"/>
				</g>
				<g class="st8">
					<g>
						<path class="st7" d="M148.1,696.5l-8.9,5.2c-1,0.6-2.1,1-3.3,1.2c-1.2,0.2-2.4,0.2-3.7-0.1c-1.2-0.2-2.4-0.7-3.6-1.4
							c-1.7-1-2.6-2-2.6-3.1c-0.1-1.1,0.7-2.1,2.3-3l8.8-5.1l2.3,1.3l-8.7,5c-1.1,0.7-1.7,1.3-1.7,1.9c0,0.6,0.5,1.2,1.6,1.9
							c2.1,1.2,4.3,1.2,6.5-0.1l8.7-5L148.1,696.5z"/>
					</g>
					<g>
						<path class="st7" d="M155.2,705.9c-0.2,1-1.2,1.9-2.9,2.9c-1.7,1-3.4,1.5-5.1,1.7c-1.7,0.1-3.2-0.2-4.5-0.9
							c-1.3-0.8-1.9-1.6-1.7-2.6l-0.1-0.1c-0.8,0.6-1.3,0.9-1.5,1l-4.2,2.5l-2.2-1.3l15-8.7l1.8,1c-0.1,0.1-0.5,0.5-1.1,1l0.1,0.1
							c1.7-0.2,3.3,0.1,4.7,0.9C154.9,704.1,155.4,705,155.2,705.9z M146.8,708.7c1-0.1,2.1-0.5,3.3-1.2c1.2-0.7,1.8-1.3,2-1.9
							c0.2-0.6-0.1-1.1-0.9-1.6c-0.9-0.5-1.8-0.7-2.7-0.7c-0.9,0.1-2,0.4-3.1,1.1l-0.3,0.2c-1.3,0.7-2,1.4-2.1,1.9
							c-0.2,0.6,0.2,1.1,1.1,1.6C144.9,708.7,145.8,708.9,146.8,708.7"/>
					</g>
				</g>
			</g>
		</g>
	</g>
	<g>
		<path class="st9" d="M327.6,645.7c13.7,7.9,13.8,20.7,0.1,28.6c-13.6,7.9-35.7,7.9-49.4,0l-156.6-90.4
			c-13.7-7.9-13.8-20.7-0.2-28.6c13.6-7.9,35.7-7.9,49.4,0L327.6,645.7z"/>
	</g>
	<g>
		<g>
			<path class="st10" d="M234.7,610.1c2.1,1.2,2.1,3.2,0,4.4l-11,6.4c-2.1,1.2-5.5,1.2-7.6,0l-15.6-9c-2.1-1.2-2.1-3.2,0-4.4l11-6.4
				c2.1-1.2,5.5-1.2,7.6,0l1.3,0.8l4.6-0.5c0.4,0,0.7,0,1,0.2l7.7,4.5c0.3,0.2,0.4,0.4,0.3,0.6l-0.8,2.7L234.7,610.1z M212.1,614.2
				c3.1,1.8,8.1,1.8,11.2,0c3.1-1.8,3.1-4.7,0-6.5c-3.1-1.8-8.1-1.8-11.2,0C209,609.5,209,612.4,212.1,614.2"/>
		</g>
	</g>
	<g>
		<path class="st10" d="M174.1,574.1c0.4,0.2,0.6,0.5,0.8,0.8l4,8.6c0.6,1.3-1.4,2.5-3.7,2.2l-14.8-2.3c-0.5-0.1-1-0.2-1.4-0.5
			c-1.1-0.6-1.3-1.8,0-2.5l3-1.7l-13.2-2.1c-0.5-0.1-1-0.2-1.4-0.5c-1.1-0.6-1.3-1.8,0-2.5l10.8-6.3c1.2-0.7,3.2-0.6,4.3,0
			c0.4,0.2,0.6,0.5,0.8,0.8l3.6,7.6l3-1.7C171.1,573.4,173,573.5,174.1,574.1z"/>
	</g>
	<g>
		<g>
			<path class="st11" d="M302,652.8c0.9,0.5,1,1.4,0,2l-7.5,4.4c-1,0.6-2.6,0.5-3.4,0c-0.4-0.2-0.6-0.5-0.7-0.9l-0.6-4.7
				c-0.1-0.9,1.1-1.6,2.6-1.5l8.1,0.3C301.1,652.4,301.6,652.5,302,652.8z"/>
		</g>
		<g>
			<path class="st11" d="M285.7,640.6c2.5,1.4,4.9,3,7.2,4.6c1.1,0.7,1.3,1.7,0.5,2.3c-3.2,2.6-7,4.8-11.4,6.7c-1,0.4-2.7,0.3-4-0.3
				c-2.8-1.3-5.4-2.7-7.9-4.1c-2.5-1.4-4.9-3-7.2-4.6c-1.1-0.7-1.3-1.7-0.5-2.3c3.2-2.6,7-4.8,11.4-6.7c1-0.4,2.7-0.3,3.9,0.3
				C280.6,637.8,283.2,639.2,285.7,640.6z"/>
		</g>
	</g>
	<g>
		<linearGradient id="SVGID_4_" gradientUnits="userSpaceOnUse" x1="441.6829" y1="307.2885" x2="830.0374" y2="307.2885">
			<stop  offset="0" style="stop-color:#2DD840"/>
			<stop  offset="1" style="stop-color:#2DD7A2"/>
		</linearGradient>
		<path class="st12" d="M822.5,337.4c10,5.8,10.1,15.2,0.1,21l-97.8,56.8c-10,5.8-26.2,5.8-36.3,0L449.2,277.1
			c-10-5.8-10.1-15.2-0.1-21l97.8-56.8c10-5.8,26.2-5.8,36.2,0L822.5,337.4z"/>
	</g>
	<g>
		<g>
			
				<image style="overflow:visible;opacity:0.21;" width="230" height="147" xlink:href="A67D5877.png"  transform="matrix(1 0 0 1 479 155)">
			</image>
			<g>
				<g>
					<path class="st11" d="M679.9,212.3c8.7,5,8.8,13.2,0.1,18.2L603,275.3c-8.7,5-22.8,5-31.5,0l-77.6-44.8
						c-8.7-5-8.8-13.2-0.1-18.2l77.1-44.8c8.7-5,22.8-5,31.5,0L679.9,212.3z"/>
				</g>
			</g>
		</g>
		<g>
			<linearGradient id="SVGID_5_" gradientUnits="userSpaceOnUse" x1="576.0001" y1="173.6609" x2="599.6498" y2="286.9308">
				<stop  offset="0" style="stop-color:#2B3F57"/>
				<stop  offset="0.9958" style="stop-color:#121A24"/>
			</linearGradient>
			<path class="st13" d="M622.3,197.5c20.5,11.8,20.6,31,0.2,42.8c-20.4,11.8-53.4,11.8-73.9,0c-20.5-11.8-20.6-31-0.2-42.8
				S601.8,185.7,622.3,197.5z"/>
		</g>
		<g>
			<linearGradient id="SVGID_6_" gradientUnits="userSpaceOnUse" x1="559.9651" y1="215.4395" x2="603.503" y2="215.4395">
				<stop  offset="0" style="stop-color:#2DD840"/>
				<stop  offset="1" style="stop-color:#2DD7A2"/>
			</linearGradient>
			<path class="st14" d="M593.2,203.9c0.7,0.4,1.3,0.9,1.6,1.6l4.3,9.1l4.3,9.1c1.2,2.6-2.9,5-7.4,4.3l-15.7-2.4l-15.7-2.4
				c-1.1-0.2-2-0.5-2.7-0.9c-2.2-1.3-2.5-3.5,0-5l11.5-6.7l11.4-6.7C587.1,202.4,591,202.6,593.2,203.9z"/>
		</g>
	</g>
	<g>
		<g>
			<g>
				<path class="st11" d="M665.2,299.9l-9.1,1.4l-4.3,2.5l-1.3-0.8l4.2-2.5l2.6-5.2l1.5,0.9l-1.3,2.4c-0.4,0.7-0.7,1.2-1.1,1.8l0,0
					c0.9-0.2,1.9-0.4,3.1-0.6l4.2-0.8L665.2,299.9z"/>
			</g>
			<g>
				<path class="st11" d="M698.2,320.8c-0.5-0.3-0.4-0.7,0-0.9c0.5-0.3,1.2-0.3,1.6,0c0.5,0.3,0.5,0.7,0,0.9
					C699.4,321,698.7,321.1,698.2,320.8z"/>
			</g>
			<g>
				<path class="st11" d="M700.8,329.8c-0.6,0.4-1.4,0.8-1.8,1.1l-1.2-0.7l1.2-0.8l0,0c-1.2,0.2-2.7,0.1-3.9-0.6
					c-1.7-1-1.6-2.6,0.6-3.9c2.4-1.4,5.3-1.4,7.1-0.4c1.1,0.6,1.3,1.4,1.1,1.9l0,0l4.3-2.5l1.3,0.8L700.8,329.8z M700.6,328.4
					l1.2-0.7c0.2-0.1,0.4-0.2,0.5-0.4c0.6-0.6,0.6-1.4-0.4-2c-1.4-0.8-3.4-0.6-4.9,0.4c-1.5,0.8-1.9,2-0.5,2.8
					c0.9,0.5,2.3,0.6,3.5,0.2C700.2,328.6,700.4,328.5,700.6,328.4"/>
			</g>
			<g>
				<polygon class="st11" points="689.2,325.3 696.4,321.1 697.7,321.9 690.5,326 				"/>
			</g>
			<g>
				<path class="st11" d="M698.1,318.9l-13.6,3.7l-1.4-0.8l6.7-7.7l1.4,0.8l-3.4,3.8c-0.9,1-1.8,2-2.7,2.8c1.5-0.5,3.2-1,4.9-1.5
					l6.7-1.9L698.1,318.9z"/>
			</g>
			<g>
				<path class="st11" d="M683.3,313.4c0.1,0.1,0.2,0.2,0.3,0.2l-1.2,0.7c-0.1-0.1-0.2-0.2-0.4-0.3c-0.9-0.5-2.3-0.5-3.4,0
					c-0.2,0.1-0.5,0.2-0.7,0.3l-3.8,2.2l-1.3-0.8l4.9-2.9c0.8-0.5,1.6-0.9,2.2-1.3l1.1,0.7l-1.4,0.8l0.1,0
					C681.1,312.8,682.5,312.9,683.3,313.4z"/>
			</g>
			<g>
				<path class="st11" d="M677.8,310.4l-5.2,3c-0.7,0.4-1.4,0.8-1.9,1.2l-1.2-0.7l1.1-0.7l0,0c-0.9,0.1-2.4,0.1-3.7-0.6
					c-1.1-0.7-1.9-1.8,0.6-3.3l4.2-2.4l1.3,0.8l-4,2.3c-1.4,0.8-1.9,1.6-0.7,2.3c0.9,0.5,2.1,0.5,2.9,0.3c0.3-0.1,0.5-0.2,0.8-0.3
					l4.4-2.6L677.8,310.4z"/>
			</g>
			<g>
				<path class="st11" d="M666.8,303.8c2.1,1.2,2,2.9-0.2,4.2c-2.7,1.5-5.7,1.2-7.4,0.1c-2-1.1-2-2.8,0.2-4.2
					C661.8,302.6,664.8,302.7,666.8,303.8z M660.2,307.6c1.3,0.7,3.4,0.6,5-0.4c1.2-0.7,2.1-2,0.6-2.9c-1.6-0.9-3.7-0.5-5,0.3
					C659.2,305.6,658.9,306.8,660.2,307.6"/>
			</g>
			<g>
				<path class="st11" d="M719,334c2.1,1.2,2,2.9-0.2,4.2c-2.7,1.5-5.7,1.2-7.4,0.1c-2-1.1-2-2.8,0.2-4.2
					C714,332.7,717,332.8,719,334z M712.4,337.8c1.3,0.7,3.4,0.6,5-0.4c1.2-0.7,2.1-2,0.6-2.9c-1.6-0.9-3.7-0.5-5,0.3
					C711.4,335.8,711.1,337,712.4,337.8"/>
			</g>
			<g>
				<path class="st11" d="M710.9,333.3c-0.3,0.2-0.5,0.3-0.7,0.3l-5.1-2.9c-1.7,1-1.3,2.1,0,2.9c0.9,0.5,1.7,0.8,2.4,0.9l-0.7,0.7
					c-0.7-0.1-1.7-0.5-2.9-1.1c-2.2-1.3-2.1-2.9,0.1-4.2c2.2-1.3,5.2-1.5,7.3-0.3C713.7,330.9,712.3,332.5,710.9,333.3z M710,332.3
					c0.9-0.5,1.8-1.4,0.3-2.3c-1.3-0.8-3.1-0.4-4.1,0.1L710,332.3"/>
			</g>
			<g>
				<path class="st11" d="M749.2,355.4c-0.3,0.2-0.5,0.3-0.7,0.3l-5.1-2.9c-1.7,1-1.3,2.1,0,2.9c0.9,0.5,1.7,0.8,2.4,0.9l-0.7,0.7
					c-0.7-0.1-1.7-0.5-2.9-1.1c-2.2-1.3-2.1-2.9,0.1-4.2c2.2-1.3,5.2-1.5,7.3-0.3C752,353,750.5,354.6,749.2,355.4z M748.3,354.4
					c0.9-0.5,1.8-1.4,0.3-2.3c-1.3-0.8-3.1-0.4-4.1,0.1L748.3,354.4"/>
			</g>
			<g>
				<polygon class="st11" points="747.7,346.9 737.2,353 735.9,352.2 746.4,346.1 				"/>
			</g>
			<g>
				<path class="st11" d="M741.7,344.9l-2.1,1.2l1.9,1.1l-1,0.6l-1.9-1.1l-3.9,2.3c-0.9,0.5-1.1,1-0.4,1.4c0.3,0.2,0.6,0.3,0.8,0.4
					l-0.9,0.6c-0.4-0.1-0.8-0.3-1.3-0.6c-0.6-0.4-0.9-0.8-0.9-1.1c0-0.4,0.5-0.9,1.4-1.4l3.9-2.3l-1.1-0.6l1-0.6l1.1,0.6l1.7-1
					L741.7,344.9z"/>
			</g>
			<g>
				<polygon class="st11" points="736.3,340.9 735.2,341.6 732.2,339.8 723.3,345 721.9,344.2 730.9,339 727.8,337.2 728.9,336.6 
									"/>
			</g>
			<g>
				<path class="st11" d="M736.5,342.8c-0.5-0.3-0.4-0.7,0-0.9c0.5-0.3,1.2-0.3,1.6,0c0.5,0.3,0.5,0.7,0,0.9
					C737.7,343.1,737,343.1,736.5,342.8z"/>
			</g>
			<g>
				<polygon class="st11" points="727.4,347.4 734.6,343.2 735.9,343.9 728.7,348.1 				"/>
			</g>
			<g>
				<path class="st11" d="M642.5,311.7c-0.3,0.9-1.4,1.8-3.2,2.9c-1.8,1.1-3.5,1.7-5,1.9c-1.5,0.2-2.8-0.1-4-0.8
					c-1.1-0.7-1.6-1.4-1.2-2.3c0.3-0.9,1.4-1.8,3.2-2.9c1.8-1.1,3.5-1.7,5-1.9c1.5-0.2,2.8,0.1,4,0.7
					C642.4,310.1,642.8,310.9,642.5,311.7z M634.2,315.5c1.1-0.2,2.4-0.8,3.9-1.6c1.5-0.9,2.5-1.6,2.8-2.3c0.3-0.6,0.1-1.2-0.7-1.6
					c-0.8-0.5-1.7-0.6-2.8-0.4c-1.1,0.2-2.4,0.7-3.9,1.6c-1.5,0.9-2.5,1.7-2.8,2.3c-0.3,0.6-0.1,1.2,0.7,1.6
					C632.2,315.6,633.1,315.7,634.2,315.5"/>
			</g>
			<g class="st8">
				<g>
					<path class="st11" d="M647,323.2c0.3,0.2,0.4,0.3,0.4,0.5c0,0.2-0.2,0.4-0.5,0.6c-0.3,0.2-0.6,0.3-1,0.3
						c-0.3,0-0.6-0.1-0.9-0.2c-0.2-0.1-0.4-0.3-0.4-0.5c0-0.2,0.2-0.4,0.5-0.6c0.3-0.2,0.6-0.3,1-0.3C646.4,323,646.7,323,647,323.2
						z"/>
				</g>
				<g>
					<path class="st11" d="M662.1,321.5c1,0.6,1.6,1.2,1.7,1.8c0.1,0.6-0.3,1.1-1.1,1.6c-0.7,0.4-1.4,0.6-2.2,0.6
						c-0.8,0-1.6-0.1-2.5-0.4l-0.1,0c0.8,0.6,1.1,1.1,1.1,1.6c0,0.5-0.4,0.9-1.1,1.4c-1,0.6-2.1,0.8-3.4,0.7
						c-1.3-0.1-2.5-0.5-3.8-1.3c-0.6-0.3-1-0.7-1.4-1c-0.4-0.3-0.7-0.7-0.9-1.1l1.1-0.7c0.2,0.4,0.6,0.8,1,1.2
						c0.4,0.4,0.8,0.7,1.3,1c1.8,1.1,3.5,1.2,4.9,0.3c1.3-0.7,0.9-1.7-1.1-2.9l-1.1-0.6l1-0.6l1.1,0.6c0.8,0.5,1.7,0.8,2.5,0.8
						c0.8,0.1,1.6-0.1,2.3-0.5c0.5-0.3,0.7-0.6,0.7-1c-0.1-0.4-0.4-0.7-1-1.1c-0.5-0.3-1-0.5-1.5-0.7c-0.5-0.2-1.2-0.3-2.1-0.4
						l0.2-0.8c0.8,0.1,1.5,0.2,2.3,0.4C660.8,320.8,661.5,321.1,662.1,321.5z"/>
				</g>
			</g>
			<g>
				<path class="st11" d="M650.6,315l-10.6,6.2l-1.2-0.7l7.6-4.4c0.6-0.4,1.2-0.7,1.8-1c-0.2,0-0.4,0-0.7,0c-0.2,0-1.3-0.1-3.2-0.2
					l0.2-0.9l5,0.4L650.6,315z"/>
			</g>
			<g>
				<path class="st11" d="M672.1,328.8c-0.3,0.9-1.4,1.8-3.2,2.9c-1.8,1.1-3.5,1.7-5,1.9c-1.5,0.2-2.8-0.1-4-0.8
					c-1.1-0.7-1.6-1.4-1.2-2.3c0.3-0.9,1.4-1.8,3.2-2.9c1.8-1.1,3.5-1.7,5-1.9c1.5-0.2,2.8,0.1,4,0.7
					C672,327.2,672.4,328,672.1,328.8z M663.8,332.6c1.1-0.2,2.4-0.8,3.9-1.6c1.5-0.9,2.5-1.6,2.8-2.3c0.3-0.6,0.1-1.2-0.7-1.6
					c-0.8-0.5-1.7-0.6-2.8-0.4c-1.1,0.2-2.4,0.7-3.9,1.6c-1.5,0.9-2.5,1.7-2.8,2.3c-0.3,0.6-0.1,1.2,0.7,1.6
					C661.8,332.7,662.7,332.8,663.8,332.6"/>
			</g>
			<g>
				<path class="st11" d="M625.2,320.8c1.1,0.6,1.9,1.3,2.3,2l-1.6,0.3c-0.4-0.7-1.1-1.3-1.9-1.7c-1.2-0.7-2.5-1-3.9-0.9
					c-1.5,0.1-2.9,0.5-4.2,1.3c-1.4,0.8-2.1,1.6-2.2,2.4c-0.1,0.8,0.4,1.6,1.7,2.3c0.7,0.4,1.7,0.8,2.9,1.2l-1.1,0.6
					c-1-0.3-2.1-0.7-3.2-1.3c-1.6-0.9-2.3-1.9-2.2-2.9c0.1-1,1-2.1,2.8-3.1c1.1-0.6,2.3-1.1,3.5-1.3c1.2-0.2,2.5-0.3,3.7-0.1
					C623,319.8,624.1,320.2,625.2,320.8z"/>
			</g>
			<g>
				<path class="st11" d="M638.5,329.6l-1.8,1.1l2.3,1.3l-0.9,0.5l-2.3-1.3l-4.7,2.7c-0.5,0.3-0.7,0.6-0.8,0.8
					c0,0.3,0.2,0.5,0.6,0.8c0.2,0.1,0.4,0.2,0.7,0.3c0.2,0.1,0.4,0.2,0.6,0.2l-0.9,0.5c-0.2,0-0.4-0.1-0.7-0.2
					c-0.3-0.1-0.5-0.2-0.8-0.4c-1.5-0.9-1.5-1.8,0.1-2.8l4.7-2.8l-1.1-0.7l0.6-0.3l1.6,0.4l2.2-0.7L638.5,329.6z"/>
			</g>
			<g>
				<path class="st11" d="M631.7,328.4c0,0.5-0.4,1-1.3,1.6l-5.4,3.2l-0.9-0.5l0.9-0.8l-0.1,0c-0.9,0.1-1.6,0-2.2-0.1
					c-0.6-0.1-1.2-0.4-1.8-0.7c-0.8-0.5-1.2-0.9-1.3-1.4c0-0.5,0.3-1,1.1-1.4c1.6-0.9,3.7-0.7,6.4,0.8l1.4,0.8l0.5-0.3
					c0.6-0.4,1-0.7,1-1c0-0.3-0.3-0.7-0.9-1c-0.7-0.4-1.6-0.7-2.9-1l0.5-0.7c0.6,0.1,1.2,0.3,1.8,0.5c0.6,0.2,1.1,0.4,1.6,0.7
					C631.1,327.3,631.6,327.9,631.7,328.4z M626.9,330.6l0.7-0.4l-1.3-0.7c-1-0.5-1.8-0.9-2.5-0.9c-0.7-0.1-1.3,0-1.9,0.3
					c-0.4,0.3-0.6,0.5-0.6,0.8c0,0.3,0.3,0.6,0.8,0.8c0.8,0.4,1.6,0.7,2.4,0.7C625.3,331.2,626.1,331,626.9,330.6"/>
			</g>
			<g>
				<path class="st11" d="M643.5,338.6l-0.8,0.4l-5.5-3.2c-0.9,0.6-1.4,1.1-1.4,1.6c0,0.5,0.4,1,1.2,1.5c0.9,0.5,1.9,0.9,3.1,1.2
					l-1.1,0.6c-0.6-0.1-1.2-0.3-1.6-0.5c-0.5-0.2-1-0.4-1.5-0.7c-1.2-0.7-1.8-1.4-1.7-2.2s0.7-1.6,2-2.3c1.3-0.7,2.6-1.2,4-1.2
					c1.4-0.1,2.6,0.2,3.7,0.8c1,0.6,1.5,1.2,1.4,1.9C645.2,337.3,644.6,338,643.5,338.6z M638.2,335.3l4.2,2.4
					c0.8-0.4,1.2-0.9,1.2-1.3c0.1-0.4-0.2-0.8-0.9-1.2c-0.6-0.4-1.4-0.5-2.2-0.5C639.9,334.7,639.1,334.9,638.2,335.3"/>
			</g>
			<g>
				<path class="st11" d="M655.6,341.6l-0.8,0.4l-1.7-0.8c0,0.2-0.1,0.4-0.3,0.6s-0.4,0.4-0.8,0.6c-0.8,0.5-1.7,0.7-2.7,0.6
					c-1,0-2-0.3-2.9-0.9c-0.2-0.1-0.4-0.3-0.6-0.4c-0.8-0.1-1.4-0.1-1.8,0.2c-0.2,0.1-0.3,0.3-0.2,0.4c0.1,0.2,0.3,0.4,0.8,0.6
					l1.4,0.8c0.9,0.5,1.3,1,1.5,1.5c0.1,0.5-0.2,0.9-0.9,1.3c-0.9,0.5-1.9,0.7-3.1,0.6c-1.2-0.1-2.4-0.6-3.8-1.4
					c-1-0.6-1.7-1.2-1.8-1.7c-0.2-0.6,0.1-1,0.8-1.4c0.5-0.3,1.1-0.4,1.7-0.5c0.7,0,1.3,0.1,2,0.3c-0.1-0.2-0.1-0.4-0.1-0.5
					c0-0.2,0.2-0.4,0.5-0.5c0.3-0.2,0.6-0.3,1-0.3c0.4,0,0.8,0,1.4,0.1c-0.2-0.3-0.3-0.7-0.1-1.1s0.5-0.7,1-1
					c0.9-0.5,1.8-0.7,2.8-0.7c1,0,2,0.3,2.9,0.9c0.4,0.2,0.7,0.5,1,0.7L655.6,341.6z M643.2,343.4c-0.5-0.3-1.1-0.5-1.7-0.5
					c-0.6,0-1.1,0.1-1.6,0.4c-0.4,0.2-0.6,0.5-0.4,0.9s0.6,0.7,1.2,1.1c1,0.6,1.9,0.9,2.7,1c0.8,0.1,1.4,0,2-0.3
					c0.4-0.3,0.6-0.5,0.5-0.8c-0.1-0.3-0.5-0.6-1.3-1L643.2,343.4 M647.4,341.8c1.2,0.7,2.3,0.7,3.5,0c1.2-0.7,1.2-1.4,0-2.1
					c-0.6-0.3-1.2-0.5-1.8-0.5c-0.6,0-1.2,0.2-1.8,0.5c-0.6,0.3-0.8,0.7-0.8,1C646.5,341.1,646.8,341.5,647.4,341.8"/>
			</g>
			<g class="st8">
				<g>
					<path class="st11" d="M662.2,346.5c-0.1,0.8-0.7,1.6-2,2.3c-1.3,0.8-2.6,1.2-4,1.2c-1.4,0-2.7-0.3-3.8-0.9
						c-0.7-0.4-1.2-0.9-1.4-1.4c-0.2-0.5-0.2-1,0.1-1.6c0.3-0.5,0.9-1.1,1.7-1.5c1.3-0.8,2.6-1.2,4-1.2c1.4,0,2.6,0.3,3.8,0.9
						C661.7,345,662.2,345.7,662.2,346.5z M655.9,349.1c0.9-0.1,1.9-0.4,2.9-1c1-0.6,1.6-1.2,1.7-1.7c0.1-0.5-0.2-1-1-1.5
						c-0.8-0.5-1.7-0.7-2.6-0.6c-0.9,0.1-1.9,0.4-2.9,1c-1,0.6-1.6,1.2-1.7,1.7c-0.1,0.5,0.2,1,1,1.5
						C654.1,349,655,349.2,655.9,349.1"/>
				</g>
				<g>
					<path class="st11" d="M670,349.8c0.4,0.2,0.6,0.4,0.9,0.6l-1.3,0.6c-0.3-0.2-0.5-0.4-0.8-0.6c-0.7-0.4-1.5-0.5-2.4-0.5
						c-1,0-1.9,0.3-2.6,0.7l-4.3,2.5l-1.2-0.7l7.9-4.6l1,0.6l-1.3,0.9l0.1,0c0.8-0.1,1.6-0.2,2.3-0.1
						C668.9,349.3,669.5,349.5,670,349.8z"/>
				</g>
				<g>
					<path class="st11" d="M678.6,354.9l-12.5,3.3c-1.2,0.3-2.3,0.5-3.1,0.4c-0.8,0-1.6-0.3-2.2-0.6c-0.4-0.2-0.7-0.4-1-0.7l1-0.6
						c0.2,0.2,0.5,0.4,0.8,0.6c0.8,0.5,1.9,0.6,3.2,0.2l1.6-0.4l4.8-6.5l1.3,0.7l-2.8,3.6c-0.7,0.8-1.2,1.4-1.5,1.7l0.1,0
						c0.3-0.1,0.9-0.3,1.7-0.5c0.8-0.2,3.3-0.9,7.5-2.1L678.6,354.9z"/>
				</g>
			</g>
		</g>
	</g>
	<g>
		<g>
			<path class="st11" d="M810.2,344.3c0.6,0.4,0.6,0.9,0,1.3c-0.6,0.4-1.6,0.4-2.3,0l-11.2-6.5c-0.6-0.4-0.6-0.9,0-1.3
				c0.6-0.4,1.6-0.4,2.2,0L810.2,344.3z"/>
		</g>
		<g>
			<path class="st11" d="M801.1,349.6c0.6,0.4,0.6,0.9,0,1.3c-0.6,0.4-1.6,0.4-2.3,0l-11.2-6.5c-0.6-0.4-0.6-0.9,0-1.3
				c0.6-0.4,1.6-0.4,2.2,0L801.1,349.6z"/>
		</g>
		<g>
			<path class="st11" d="M805.7,346.9c0.6,0.4,0.6,0.9,0,1.3c-0.6,0.4-1.6,0.4-2.2,0l-11.2-6.5c-0.6-0.4-0.6-0.9,0-1.3
				c0.6-0.4,1.6-0.4,2.3,0L805.7,346.9z"/>
		</g>
	</g>
	<g>
		<g>
			<polygon class="st11" points="714.7,395.3 701.8,402.8 699.8,398.4 692.7,397.5 705.5,390.1 			"/>
		</g>
		<g>
			<path class="st11" d="M690.3,380.3c1.2,0.7,1.2,1.9,0,2.6c-1.2,0.7-3.3,0.7-4.5,0c-0.7-0.4-1-0.9-0.9-1.4l-6.4-1
				c-0.1,0.2-0.3,0.3-0.6,0.4c-0.2,0.1-0.5,0.2-0.7,0.3l1.8,3.7c0.9,0,1.7,0.2,2.4,0.5c1.2,0.7,1.3,1.9,0,2.6
				c-1.2,0.7-3.3,0.7-4.5,0c-1.2-0.7-1.2-1.9,0-2.6l0.6-0.3l-1.8-3.7c-0.8,0-1.6-0.2-2.2-0.5c-1.2-0.7-1.2-1.9,0-2.6
				c1.2-0.7,3.3-0.7,4.5,0c0.6,0.4,0.9,0.8,0.9,1.3l6.4,1l0.5-0.4C687,379.6,689.1,379.6,690.3,380.3z"/>
		</g>
		<g>
			<path class="st15" d="M666.9,368c1.2,0.7,1.8,1.6,1.7,2.5c-0.1,0.9-0.8,1.8-2,2.5c-1.3,0.7-2.9,1.1-5.1,1.3c-2,0.1-4.4,0-7.2-0.1
				c-1,0-2-0.1-3.2-0.1c-0.3,0-0.6-0.1-0.8-0.2s-0.3-0.3-0.4-0.5c-0.1-0.7-0.2-1.3-0.2-1.8c-0.2-1.6-0.4-3-0.3-4.2
				c0.2-1.3,0.9-2.2,2.2-3c1.2-0.7,2.8-1.1,4.4-1.2c1.6,0,3.2,0.3,4.3,1c0.9,0.5,1.4,1.1,1.6,1.8c0.1,0.4,0.1,0.7,0,1.1
				c0.7-0.1,1.3-0.1,1.9,0C665,367.2,666.1,367.5,666.9,368z"/>
		</g>
	</g>
	<g>
		<g>
			<g class="st8">
				<g>
					<polygon class="st16" points="308.5,266.5 308.3,348.9 233.5,392.3 233.8,309.9 					"/>
				</g>
				<g>
					<polygon class="st15" points="233.8,309.9 233.5,392.3 158.3,348.9 158.5,266.5 					"/>
				</g>
				<g>
					<linearGradient id="SVGID_7_" gradientUnits="userSpaceOnUse" x1="240.3845" y1="343.5319" x2="227.9372" y2="204.1228">
						<stop  offset="0" style="stop-color:#2DD840"/>
						<stop  offset="1" style="stop-color:#2DD7A2"/>
					</linearGradient>
					<polygon class="st17" points="308.5,266.5 233.8,309.9 158.5,266.5 233.3,223.1 					"/>
				</g>
			</g>
		</g>
		<g>
			<g>
				<linearGradient id="SVGID_8_" gradientUnits="userSpaceOnUse" x1="178.2466" y1="321.7267" x2="183.689" y2="321.7267">
					<stop  offset="0" style="stop-color:#2DD840"/>
					<stop  offset="1" style="stop-color:#2DD7A2"/>
				</linearGradient>
				<path class="st18" d="M181,310.8c1.5,0.9,2.7,3,2.7,4.7l0,15.7c0,1.7-1.2,2.4-2.7,1.5c-1.5-0.9-2.7-3-2.7-4.7l0-15.7
					C178.3,310.6,179.5,309.9,181,310.8z"/>
			</g>
			<g>
				<linearGradient id="SVGID_9_" gradientUnits="userSpaceOnUse" x1="190.9551" y1="329.0716" x2="196.3979" y2="329.0716">
					<stop  offset="0" style="stop-color:#2DD840"/>
					<stop  offset="1" style="stop-color:#2DD7A2"/>
				</linearGradient>
				<path class="st19" d="M193.7,318.1c1.5,0.9,2.7,3,2.7,4.7l0,15.7c0,1.7-1.2,2.4-2.7,1.6c-1.5-0.9-2.7-3-2.7-4.7l0-15.7
					C191,317.9,192.2,317.2,193.7,318.1z"/>
			</g>
			<g>
				<linearGradient id="SVGID_10_" gradientUnits="userSpaceOnUse" x1="203.664" y1="336.4101" x2="209.1227" y2="336.4101">
					<stop  offset="0" style="stop-color:#2DD840"/>
					<stop  offset="1" style="stop-color:#2DD7A2"/>
				</linearGradient>
				<path class="st20" d="M206.4,325.4c1.5,0.9,2.7,3,2.7,4.7l0,15.7c0,1.7-1.2,2.4-2.7,1.5c-1.5-0.9-2.7-3-2.7-4.7l0-15.7
					C203.7,325.3,204.9,324.6,206.4,325.4z"/>
			</g>
		</g>
	</g>
	<g>
		<g>
			<g class="st8">
				<g>
					<polygon class="st21" points="348.2,198 348.1,233.9 315.4,252.9 315.5,216.9 					"/>
				</g>
				<g>
					<polygon class="st5" points="315.5,216.9 315.4,252.9 282.6,233.9 282.7,198 					"/>
				</g>
				<g>
					<polygon class="st6" points="348.2,198 315.5,216.9 282.7,198 315.3,179 					"/>
				</g>
			</g>
		</g>
		<g>
			<g>
				<path class="st22" d="M292.5,217.3c0.7,0.4,1.2,1.3,1.2,2l0,6.9c0,0.7-0.5,1.1-1.2,0.7c-0.7-0.4-1.2-1.3-1.2-2l0-6.9
					C291.3,217.2,291.9,216.9,292.5,217.3z"/>
			</g>
			<g>
				<path class="st22" d="M298.1,220.5c0.7,0.4,1.2,1.3,1.2,2l0,6.9c0,0.7-0.5,1.1-1.2,0.7c-0.7-0.4-1.2-1.3-1.2-2l0-6.9
					C296.9,220.4,297.4,220.1,298.1,220.5z"/>
			</g>
			<g>
				<path class="st22" d="M303.6,223.7c0.7,0.4,1.2,1.3,1.2,2l0,6.9c0,0.7-0.5,1.1-1.2,0.7c-0.7-0.4-1.2-1.3-1.2-2l0-6.9
					C302.4,223.6,303,223.3,303.6,223.7z"/>
			</g>
		</g>
	</g>
	<g>
		<g>
			<g class="st8">
				<g>
					<polygon class="st16" points="168.7,223.7 168.6,243 151.1,253.2 151.2,233.9 					"/>
				</g>
				<g>
					<polygon class="st15" points="151.2,233.9 151.1,253.2 133.5,243 133.5,223.7 					"/>
				</g>
				<g>
					<linearGradient id="SVGID_11_" gradientUnits="userSpaceOnUse" x1="152.7115" y1="241.7849" x2="149.7945" y2="209.1154">
						<stop  offset="0" style="stop-color:#2DD840"/>
						<stop  offset="1" style="stop-color:#2DD7A2"/>
					</linearGradient>
					<polygon class="st23" points="168.7,223.7 151.2,233.9 133.5,223.7 151,213.6 					"/>
				</g>
			</g>
		</g>
		<g>
			<g>
				<linearGradient id="SVGID_12_" gradientUnits="userSpaceOnUse" x1="138.1499" y1="236.6749" x2="139.4255" y2="236.6749">
					<stop  offset="0" style="stop-color:#2DD840"/>
					<stop  offset="1" style="stop-color:#2DD7A2"/>
				</linearGradient>
				<path class="st24" d="M138.8,234.1c0.3,0.2,0.6,0.7,0.6,1.1l0,3.7c0,0.4-0.3,0.6-0.6,0.4c-0.3-0.2-0.6-0.7-0.6-1.1l0-3.7
					C138.2,234.1,138.4,233.9,138.8,234.1z"/>
			</g>
			<g>
				<linearGradient id="SVGID_13_" gradientUnits="userSpaceOnUse" x1="141.1282" y1="238.3962" x2="142.4038" y2="238.3962">
					<stop  offset="0" style="stop-color:#2DD840"/>
					<stop  offset="1" style="stop-color:#2DD7A2"/>
				</linearGradient>
				<path class="st25" d="M141.8,235.8c0.3,0.2,0.6,0.7,0.6,1.1l0,3.7c0,0.4-0.3,0.6-0.6,0.4c-0.3-0.2-0.6-0.7-0.6-1.1l0-3.7
					C141.1,235.8,141.4,235.6,141.8,235.8z"/>
			</g>
			<g>
				<linearGradient id="SVGID_14_" gradientUnits="userSpaceOnUse" x1="144.1065" y1="240.1161" x2="145.3857" y2="240.1161">
					<stop  offset="0" style="stop-color:#2DD840"/>
					<stop  offset="1" style="stop-color:#2DD7A2"/>
				</linearGradient>
				<path class="st26" d="M144.8,237.5c0.3,0.2,0.6,0.7,0.6,1.1l0,3.7c0,0.4-0.3,0.6-0.6,0.4c-0.3-0.2-0.6-0.7-0.6-1.1l0-3.7
					C144.1,237.5,144.4,237.3,144.8,237.5z"/>
			</g>
		</g>
	</g>
	<g>
		<g>
			<g class="st8">
				<g>
					<polygon class="st16" points="333,339.9 332.9,359.2 315.4,369.4 315.5,350.1 					"/>
				</g>
				<g>
					<polygon class="st15" points="315.5,350.1 315.4,369.4 297.8,359.2 297.8,339.9 					"/>
				</g>
				<g>
					<linearGradient id="SVGID_15_" gradientUnits="userSpaceOnUse" x1="317.0154" y1="357.9593" x2="314.0985" y2="325.2899">
						<stop  offset="0" style="stop-color:#2DD840"/>
						<stop  offset="1" style="stop-color:#2DD7A2"/>
					</linearGradient>
					<polygon class="st27" points="333,339.9 315.5,350.1 297.8,339.9 315.3,329.7 					"/>
				</g>
			</g>
		</g>
		<g>
			<g>
				<linearGradient id="SVGID_16_" gradientUnits="userSpaceOnUse" x1="302.4538" y1="352.8494" x2="303.7291" y2="352.8494">
					<stop  offset="0" style="stop-color:#2DD840"/>
					<stop  offset="1" style="stop-color:#2DD7A2"/>
				</linearGradient>
				<path class="st28" d="M303.1,350.3c0.3,0.2,0.6,0.7,0.6,1.1l0,3.7c0,0.4-0.3,0.6-0.6,0.4s-0.6-0.7-0.6-1.1l0-3.7
					C302.5,350.2,302.7,350.1,303.1,350.3z"/>
			</g>
			<g>
				<linearGradient id="SVGID_17_" gradientUnits="userSpaceOnUse" x1="305.4318" y1="354.5707" x2="306.7074" y2="354.5707">
					<stop  offset="0" style="stop-color:#2DD840"/>
					<stop  offset="1" style="stop-color:#2DD7A2"/>
				</linearGradient>
				<path class="st29" d="M306.1,352c0.3,0.2,0.6,0.7,0.6,1.1l0,3.7c0,0.4-0.3,0.6-0.6,0.4s-0.6-0.7-0.6-1.1l0-3.7
					C305.4,352,305.7,351.8,306.1,352z"/>
			</g>
			<g>
				<linearGradient id="SVGID_18_" gradientUnits="userSpaceOnUse" x1="308.4101" y1="356.2902" x2="309.6893" y2="356.2902">
					<stop  offset="0" style="stop-color:#2DD840"/>
					<stop  offset="1" style="stop-color:#2DD7A2"/>
				</linearGradient>
				<path class="st30" d="M309.1,353.7c0.3,0.2,0.6,0.7,0.6,1.1l0,3.7c0,0.4-0.3,0.6-0.6,0.4c-0.3-0.2-0.6-0.7-0.6-1.1l0-3.7
					C308.4,353.7,308.7,353.5,309.1,353.7z"/>
			</g>
		</g>
	</g>
	<g>
		<g>
			<path class="st9" d="M662.3,462.8c7.9,4.5,7.9,11.9,0.1,16.4l-76.5,44.5c-7.8,4.5-20.5,4.5-28.4,0l-187.1-108
				c-7.9-4.5-7.9-11.9-0.1-16.4l76.5-44.5c7.8-4.5,20.5-4.5,28.3,0L662.3,462.8z"/>
		</g>
		<g>
			<g>
				<g>
					<path class="st11" d="M512.1,432.5c0.1,0.1,0.2,0.2,0.3,0.2l-1.2,0.7c-0.1-0.1-0.2-0.2-0.4-0.3c-0.9-0.5-2.3-0.5-3.4,0
						c-0.2,0.1-0.4,0.2-0.7,0.3l-3.8,2.2l-1.3-0.8l4.9-2.9c0.8-0.5,1.6-0.9,2.2-1.3l1.1,0.7l-1.4,0.8l0.1,0
						C509.9,431.9,511.3,432,512.1,432.5z"/>
				</g>
				<g>
					<path class="st11" d="M515.5,433.3c-0.5-0.3-0.4-0.7,0-0.9c0.5-0.3,1.2-0.3,1.6,0c0.5,0.3,0.4,0.7,0,0.9
						C516.7,433.5,516,433.6,515.5,433.3z"/>
				</g>
				<g>
					<polygon class="st11" points="506.5,437.8 513.7,433.6 515,434.4 507.8,438.5 					"/>
				</g>
				<g>
					<path class="st11" d="M503.9,431.7c-0.3,0.2-0.5,0.3-0.7,0.3l-5.1-2.9c-1.7,1-1.3,2.1,0,2.9c0.9,0.5,1.7,0.8,2.4,0.9l-0.7,0.7
						c-0.7-0.1-1.7-0.5-2.9-1.1c-2.2-1.3-2.1-2.9,0.1-4.2c2.2-1.3,5.2-1.5,7.3-0.3C506.7,429.4,505.2,431,503.9,431.7z M503,430.8
						c0.9-0.5,1.8-1.4,0.3-2.3c-1.3-0.8-3.1-0.4-4.1,0.1L503,430.8"/>
				</g>
				<g>
					<path class="st11" d="M503.1,424.2l-13.6,3.7l-1.4-0.8l6.7-7.7l1.4,0.8l-3.4,3.8c-0.9,1-1.8,2-2.7,2.8l0,0
						c1.4-0.5,3.1-1,4.9-1.5l6.7-1.9L503.1,424.2z"/>
				</g>
				<g>
					<path class="st11" d="M533.4,451.2c-0.6,0.4-1.4,0.8-1.8,1.1l-1.2-0.7l1.2-0.8c-1.2,0.2-2.7,0.1-3.9-0.6
						c-1.7-1-1.6-2.6,0.6-3.9c2.4-1.4,5.3-1.4,7.1-0.4c1.1,0.6,1.3,1.4,1.1,1.9l4.3-2.5l1.3,0.8L533.4,451.2z M533.2,449.7l1.2-0.7
						c0.2-0.1,0.4-0.2,0.5-0.4c0.6-0.6,0.6-1.4-0.4-2c-1.4-0.8-3.4-0.6-4.9,0.4c-1.5,0.8-1.9,2-0.5,2.8c0.9,0.5,2.3,0.6,3.5,0.2
						C532.8,450,533,449.9,533.2,449.7"/>
				</g>
				<g>
					<path class="st11" d="M527.6,445.4c-0.3,0.2-0.5,0.3-0.7,0.3l-5.1-2.9c-1.7,1-1.3,2.1,0,2.9c0.9,0.5,1.7,0.8,2.4,0.9l-0.7,0.7
						c-0.7-0.1-1.7-0.5-2.9-1.1c-2.2-1.3-2.1-2.9,0.1-4.2c2.2-1.3,5.2-1.5,7.3-0.3C530.4,443.1,528.9,444.6,527.6,445.4z
						 M526.7,444.5c0.9-0.5,1.8-1.4,0.3-2.3c-1.3-0.8-3.1-0.4-4.1,0.1L526.7,444.5"/>
				</g>
				<g>
					<path class="st11" d="M524,435.5c0.7,0.4,1.3,1,1.4,1.3l-1.4,0.4c-0.1-0.3-0.5-0.8-1.1-1.1c-1.4-0.8-2.8-0.5-3.9,0.2l-0.4,0.2
						l4.2,2.4l-7.2,4.2l-1.3-0.7l6.2-3.6l-2.9-1.7l-6.2,3.6l-1.3-0.7l6.2-3.6l-1-0.6l1-0.6l1,0.6l0.4-0.2
						C519.6,434.4,521.9,434.3,524,435.5z"/>
				</g>
				<g>
					<path class="st11" d="M555.4,457.5c0.1,0.1,0.2,0.2,0.3,0.2l-1.2,0.7c-0.1-0.1-0.2-0.2-0.4-0.3c-0.9-0.5-2.3-0.5-3.4,0
						c-0.2,0.1-0.5,0.2-0.7,0.3l-3.8,2.2l-1.3-0.7l4.9-2.9c0.8-0.5,1.6-0.9,2.2-1.3l1.2,0.7l-1.4,0.8l0.1,0
						C553.1,456.9,554.5,457,555.4,457.5z"/>
				</g>
				<g>
					<path class="st11" d="M551.5,453.1c0.1,0.6-0.3,1.2-1.2,1.7c-0.9,0.5-1.9,0.8-2.9,0.8c-1.4,0-2.9-0.4-4.2-1.1
						c-0.4-0.2-0.7-0.4-1-0.7l-4,2.3l-1.3-0.8l9.9-5.7c0.7,0.3,1.6,0.7,2.7,1.3C550.8,451.7,551.4,452.4,551.5,453.1z M544.3,453.9
						c1.6,0.9,3.3,1,4.7,0.2c1.3-0.8,1-1.7-0.4-2.5c-0.6-0.3-1-0.6-1.3-0.6l-3.9,2.3C543.5,453.4,543.8,453.6,544.3,453.9"/>
				</g>
				<g>
					<path class="st11" d="M571.9,463.2c0.7,0.4,1.3,1,1.4,1.3l-1.4,0.4c-0.1-0.3-0.5-0.8-1.1-1.1c-1.4-0.8-2.8-0.5-3.9,0.2
						l-0.4,0.2l4.2,2.4l-7.2,4.2l-1.3-0.8l6.2-3.6l-2.9-1.7l-6.2,3.6l-1.3-0.8l6.2-3.6l-1-0.6l1-0.6l1,0.6l0.4-0.2
						C567.6,462.1,569.9,462,571.9,463.2z"/>
				</g>
				<g>
					<path class="st11" d="M560.1,460.3c2.1,1.2,2,2.9-0.2,4.2c-2.7,1.5-5.7,1.2-7.4,0.1c-2-1.1-2-2.8,0.2-4.2
						C555.1,459,558.1,459.1,560.1,460.3z M553.6,464c1.3,0.7,3.4,0.6,5-0.4c1.2-0.7,2.1-2,0.6-2.9c-1.6-0.9-3.7-0.5-5,0.3
						C552.5,462.1,552.3,463.3,553.6,464"/>
				</g>
				<g>
					<path class="st11" d="M579.1,475.1c-0.3,0.2-0.5,0.3-0.7,0.3l-5.1-2.9c-1.7,1-1.3,2.1,0,2.9c0.9,0.5,1.7,0.8,2.4,0.9L575,477
						c-0.7-0.1-1.7-0.5-2.9-1.1c-2.2-1.3-2.1-2.9,0.1-4.2c2.2-1.3,5.2-1.5,7.3-0.3C581.9,472.8,580.4,474.4,579.1,475.1z
						 M578.2,474.2c0.9-0.5,1.8-1.4,0.3-2.3c-1.3-0.8-3.1-0.4-4.1,0.1L578.2,474.2"/>
				</g>
				<g>
					<polygon class="st11" points="577.6,466.6 567.1,472.8 565.8,472 576.3,465.9 					"/>
				</g>
				<g>
					<path class="st11" d="M486.8,442.1c0,0.5-0.4,1-1.3,1.6l-5.4,3.2l-0.9-0.5l0.9-0.8l-0.1,0c-0.9,0.1-1.6,0-2.2-0.1
						c-0.6-0.1-1.2-0.4-1.8-0.7c-0.8-0.5-1.2-0.9-1.3-1.4c0-0.5,0.3-1,1.1-1.4c1.6-0.9,3.7-0.7,6.4,0.8l1.4,0.8l0.5-0.3
						c0.6-0.4,1-0.7,1-1c0-0.3-0.3-0.7-0.9-1c-0.7-0.4-1.6-0.7-2.9-1l0.5-0.7c0.6,0.1,1.2,0.3,1.8,0.5c0.6,0.2,1.1,0.4,1.6,0.7
						C486.3,441,486.8,441.6,486.8,442.1z M482,444.3l0.7-0.4l-1.3-0.7c-1-0.5-1.8-0.9-2.5-0.9c-0.7-0.1-1.3,0-1.9,0.3
						c-0.4,0.3-0.6,0.5-0.6,0.8c0,0.3,0.3,0.6,0.8,0.8c0.8,0.4,1.6,0.7,2.4,0.7C480.5,444.9,481.3,444.7,482,444.3"/>
				</g>
				<g>
					<path class="st11" d="M474.6,438.1l-1.9,4.4l-1.5-0.8l1.8-4.1l-2.2-1.3l-4.4,2.6l-1.2-0.7l10.6-6.2l2.9,1.7
						c1.3,0.8,2,1.5,2.2,2.1s-0.3,1.3-1.3,1.8C478.1,438.5,476.5,438.7,474.6,438.1z M473.6,436.7c0.9,0.5,1.7,0.8,2.4,0.8
						c0.8,0,1.5-0.1,2.2-0.5c0.7-0.4,1-0.8,0.9-1.2c-0.1-0.4-0.6-0.9-1.5-1.4l-1.6-0.9l-4.1,2.4L473.6,436.7"/>
				</g>
				<g>
					<path class="st11" d="M518.4,458.1c-0.3,0.9-1.4,1.8-3.2,2.9c-1.8,1.1-3.5,1.7-5,1.9c-1.5,0.2-2.8-0.1-4-0.8
						c-1.1-0.7-1.6-1.4-1.2-2.3c0.3-0.9,1.4-1.8,3.2-2.9c1.8-1.1,3.5-1.7,5-1.9c1.5-0.2,2.8,0.1,4,0.8
						C518.4,456.5,518.8,457.2,518.4,458.1z M510.1,461.9c1.1-0.2,2.4-0.8,3.9-1.6c1.5-0.9,2.5-1.6,2.8-2.3c0.3-0.6,0.1-1.2-0.7-1.6
						c-0.8-0.5-1.7-0.6-2.8-0.4c-1.1,0.2-2.4,0.7-3.9,1.6c-1.5,0.9-2.5,1.7-2.8,2.3c-0.3,0.6-0.1,1.2,0.7,1.6
						C508.1,462,509.1,462.1,510.1,461.9"/>
				</g>
				<g>
					<path class="st11" d="M504.2,447.7l-6,3.5c-0.3,0.2-0.7,0.4-1.3,0.7l0.1,0c0.5,0,1.2-0.1,2.1-0.1l5.3-0.1l1.4,0.8l-6.6,0.1
						l-1.1,4.7l-1.5-0.8l0.9-3.8l-1.7-0.1l-3,1.7l-1.2-0.7L503,447L504.2,447.7z"/>
				</g>
				<g>
					<path class="st11" d="M494.4,445.7c1,0.6,1.5,1.1,1.5,1.7c0,0.6-0.5,1.1-1.5,1.7l-5.2,3l-1.2-0.7l5.1-3c0.6-0.4,1-0.7,1-1.1
						c0-0.4-0.3-0.7-0.9-1.1c-0.8-0.5-1.7-0.7-2.5-0.7c-0.8,0-1.8,0.4-2.8,1l-4.2,2.4l-1.2-0.7l7.9-4.6l1,0.6l-0.9,0.7l0.1,0
						c0.6-0.1,1.3-0.1,1.9,0.1C493.3,445.2,493.9,445.4,494.4,445.7z"/>
				</g>
				<g>
					<path class="st11" d="M526.5,461.4l-10.6,6.2l-1.2-0.7l7.6-4.4c0.6-0.4,1.2-0.7,1.8-1c-0.2,0-0.4,0-0.7,0
						c-0.2,0-1.3-0.1-3.2-0.2l0.2-0.9l5,0.4L526.5,461.4z"/>
				</g>
			</g>
		</g>
		<g>
			<g>
				<linearGradient id="SVGID_19_" gradientUnits="userSpaceOnUse" x1="416.6201" y1="401.1095" x2="483.9362" y2="401.1095">
					<stop  offset="0" style="stop-color:#2DD840"/>
					<stop  offset="1" style="stop-color:#2DD7A2"/>
				</linearGradient>
				<path class="st31" d="M474.2,387.5c13.1,7.7,12.9,20-0.3,27.6c-10.5,6-26,7.1-38.5,3.5c3.3,1,6.9,1.6,10.5,1.8
					c7.9-4.6,7.9-12,0-16.7c-8.1-4.7-21-4.7-29-0.2c0,0,0,0.3,0.1,0.7c0.6,2.1,1.9,4.2,3.7,6.2c-7.1-7.5-5.2-17,5.8-23.3
					c13.1-7.5,34.3-7.4,47.3,0.1C474.1,387.4,474.2,387.4,474.2,387.5z M448.8,402.7c4.9,2.8,12.7,2.8,17.6,0
					c4.9-2.8,5-7.4,0.1-10.2c0,0-0.1,0-0.1-0.1c-4.9-2.8-12.7-2.8-17.6-0.1C443.9,395.2,443.9,399.8,448.8,402.7
					C448.7,402.6,448.8,402.7,448.8,402.7"/>
			</g>
			<g>
				<path class="st9" d="M445.9,403.7c0,0,0.1,0.1,0.1,0.1c7.9,4.6,7.8,12.1,0,16.7c-4.6-0.4-9.2-1.3-13.3-2.7
					c-0.1,0-0.2-0.1-0.3-0.1c0,0-0.1,0-0.1,0c-0.1,0-0.1,0-0.2-0.1c-0.1,0-0.1,0-0.2-0.1c0,0-0.1,0-0.1,0c-1.8-0.7-3.6-1.5-5.2-2.5
					c-0.1-0.1-0.2-0.1-0.3-0.2c-0.1-0.1-0.2-0.1-0.3-0.2c-2-1.2-3.7-2.5-5-3.9c0,0-0.1-0.1-0.1-0.1c0,0,0-0.1-0.1-0.1
					c-1.8-1.9-3.1-4-3.7-6.2c-0.1-0.5-0.1-0.7-0.1-0.7C425,399,437.9,399.1,445.9,403.7z"/>
			</g>
		</g>
		<g>
			<g>
				<g>
					<path class="st6" d="M641.8,462.3c6.1,3.5,6.1,9.2,0.1,12.7c-6.1,3.5-15.9,3.5-22,0c-6.1-3.5-6.1-9.2-0.1-12.7
						C625.9,458.8,635.7,458.8,641.8,462.3z"/>
				</g>
			</g>
			<g>
				<polygon class="st22" points="638.4,467.9 638.9,470.1 624,471.2 622.7,466.6 626.5,466.2 627.2,468.7 				"/>
			</g>
		</g>
	</g>
	<g>
		<path class="st6" d="M848.2,266c6,3.5,10.9,12,10.9,18.9l-0.1,22c0,7-4.9,9.8-11,6.3l-102.8-59.3l-4.9,8.4l-4.9-14.1l-11.5-6.7
			c-6-3.5-10.9-11.9-10.9-18.9l0.1-22c0-6.9,4.9-9.8,11-6.3L848.2,266z"/>
	</g>
	<g>
		<g>
			<path class="st5" d="M319.3,540.9c2.9,1.7,3,4.4,0.1,6.1l-44.5,25.8c-2.9,1.7-7.6,1.7-10.6,0s-2.9-4.4,0-6.1l44.5-25.8
				C311.7,539.2,316.4,539.2,319.3,540.9z"/>
		</g>
		<g class="st8">
			<g>
				<linearGradient id="SVGID_20_" gradientUnits="userSpaceOnUse" x1="319.8506" y1="570.8419" x2="445.9044" y2="570.8419">
					<stop  offset="0" style="stop-color:#2DD840"/>
					<stop  offset="1" style="stop-color:#2DD7A2"/>
				</linearGradient>
				<path class="st32" d="M443.7,535.5c2.9,1.7,2.9,4.4,0,6.1l-111.1,64.6c-2.9,1.7-7.6,1.7-10.6,0c-2.9-1.7-2.9-4.4,0-6.1
					l111.1-64.6C436,533.8,440.8,533.8,443.7,535.5z"/>
			</g>
			<g>
				<linearGradient id="SVGID_21_" gradientUnits="userSpaceOnUse" x1="348.6948" y1="580.0167" x2="500.486" y2="580.0167">
					<stop  offset="0" style="stop-color:#2DD840"/>
					<stop  offset="1" style="stop-color:#2DD7A2"/>
				</linearGradient>
				<path class="st33" d="M498.3,537.2c2.9,1.7,3,4.4,0.1,6.1l-136.9,79.5c-2.9,1.7-7.6,1.7-10.6,0c-2.9-1.7-2.9-4.4,0-6.1
					l136.9-79.5C490.6,535.5,495.4,535.5,498.3,537.2z"/>
			</g>
		</g>
		<g>
			<path class="st5" d="M396.7,529.4c2.9,1.7,3,4.4,0.1,6.1l-93,54c-2.9,1.7-7.6,1.7-10.6,0s-2.9-4.4,0-6.1l93-54
				C389.1,527.7,393.8,527.7,396.7,529.4z"/>
		</g>
		<g>
			<path class="st9" d="M346,492c2.9,1.7,2.9,4.4,0.1,6.1l-100,58.1c-2.9,1.7-7.6,1.7-10.6,0s-2.9-4.4,0-6.1l100-58.1
				C338.4,490.3,343.1,490.3,346,492z"/>
		</g>
		<g>
			<path class="st9" d="M275.1,499.8c2.9,1.7,3,4.4,0.1,6.1l-57.9,33.6c-2.9,1.7-7.6,1.7-10.6,0c-2.9-1.7-2.9-4.4,0-6.1l57.9-33.6
				C267.4,498.1,272.2,498.1,275.1,499.8z"/>
		</g>
	</g>
	<g>
		<g>
			<g>
				<path class="st34" d="M342.9,436.4l-6.3,4.1l-0.9-0.5l2.8-1.8c0.9-0.6,2-1.3,2.8-1.7l0,0c-1,0.3-2.1,0.6-3.4,1l-4.4,1.2
					l-0.7-0.4l2.1-2.5c0.6-0.7,1.2-1.4,1.8-2c-0.9,0.5-2,1.1-3.1,1.6l-3.1,1.6l-0.8-0.5l7.2-3.6l1.1,0.6l-2.1,2.5
					c-0.5,0.6-1,1.2-1.6,1.7l0,0c0.8-0.3,1.8-0.6,3-0.9l4.4-1.2L342.9,436.4z"/>
			</g>
			<g class="st8">
				<g>
					<path class="st34" d="M377.8,457.8c-0.3-0.2-0.3-0.4,0-0.6c0.3-0.2,0.8-0.2,1.1,0c0.3,0.2,0.3,0.5,0,0.6
						C378.6,458,378.2,458,377.8,457.8z"/>
				</g>
				<g>
					<polygon class="st34" points="374.6,454.7 368.7,458.2 371.6,459.9 370.8,460.3 367.1,458.1 373.8,454.2 					"/>
				</g>
				<g>
					<polygon class="st34" points="371.8,460.8 376.6,458 377.5,458.5 372.6,461.3 					"/>
				</g>
				<g>
					<path class="st34" d="M380.5,460.2c0.5,0.3,0.8,0.6,0.9,0.9l-0.9,0.2c-0.1-0.2-0.3-0.5-0.7-0.7c-0.5-0.3-1.1-0.3-1.5-0.1
						c-0.4,0.2-0.3,0.5,0.1,1c0.5,0.7,0.5,1.2-0.2,1.6c-0.9,0.5-2.1,0.5-3.3-0.2c-0.5-0.3-0.9-0.7-1-1l0.9-0.3
						c0.1,0.2,0.4,0.6,0.8,0.9c0.6,0.4,1.3,0.4,1.7,0.1c0.4-0.2,0.4-0.5,0-1c-0.6-0.7-0.5-1.2,0.1-1.5
						C378.2,459.6,379.5,459.6,380.5,460.2z"/>
				</g>
			</g>
			<g class="st8">
				<g>
					<path class="st34" d="M360.2,446l-3,1.7l0,0c0.4-0.1,0.8-0.1,1.2,0c0.4,0.1,0.8,0.2,1.1,0.4c0.7,0.4,1.3,1.2-0.4,2.2l-2.9,1.7
						l-0.9-0.5l2.8-1.6c0.8-0.4,1.1-1,0.3-1.5c-0.6-0.3-1.4-0.4-2.1-0.2c-0.2,0-0.3,0.1-0.5,0.2l-2.9,1.7l-0.9-0.5l7.1-4.1
						L360.2,446z"/>
				</g>
				<g>
					<polygon class="st34" points="365.8,449.2 358.7,453.3 357.8,452.8 364.9,448.7 					"/>
				</g>
				<g>
					<path class="st34" d="M368.9,453.6l-4.8,1.2c-2.3,0.6-3.6,0.8-4.7,0.8c-0.8,0-1.4-0.2-1.6-0.3l0.5-0.6c0.3,0.1,0.7,0.2,1.2,0.2
						c0.4,0,1.1,0,1.7-0.1c0.1,0,0.2-0.1,0.3-0.1c0,0,0.1-0.1,0.2-0.2l2.6-3.6l1,0.6l-1.8,2.3c-0.2,0.3-0.5,0.5-0.7,0.8l0,0
						c0.4-0.1,0.9-0.3,1.3-0.4l3.8-1.1L368.9,453.6z"/>
				</g>
			</g>
			<g>
				<path class="st34" d="M350.8,443c0.7,0.4,1.3,1.2-0.3,2.2l-2.9,1.7l-0.9-0.5l2.8-1.6c0.8-0.4,1.1-1,0.3-1.5
					c-0.6-0.3-1.4-0.4-2.1-0.2c-0.1,0-0.3,0.1-0.5,0.2l-2.9,1.7l-0.9-0.5l3.5-2c0.5-0.3,0.9-0.5,1.3-0.8l0.8,0.4l-0.7,0.5l0,0
					C349,442.5,350,442.5,350.8,443z"/>
			</g>
			<g>
				<path class="st34" d="M344.9,439.6c1.4,0.8,1.3,1.9-0.1,2.8c-1.8,1-3.8,0.8-5,0.1c-1.3-0.8-1.4-1.9,0.2-2.8
					C341.6,438.8,343.6,438.8,344.9,439.6z M340.5,442.1c0.8,0.5,2.3,0.4,3.3-0.2c0.8-0.5,1.4-1.3,0.4-1.9c-1-0.6-2.5-0.3-3.4,0.2
					C339.8,440.8,339.6,441.6,340.5,442.1"/>
			</g>
			<g>
				<path class="st34" d="M356.2,444.7l-1.4,0.8l1.3,0.7l-0.7,0.4l-1.3-0.7l-2.6,1.5c-0.6,0.3-0.8,0.6-0.3,0.9
					c0.2,0.1,0.4,0.2,0.6,0.3l-0.6,0.4c-0.2-0.1-0.6-0.2-0.9-0.4c-0.4-0.2-0.6-0.5-0.6-0.8c0-0.3,0.3-0.6,0.9-0.9l2.6-1.5l-0.7-0.4
					l0.7-0.4l0.7,0.4l1.2-0.7L356.2,444.7z"/>
			</g>
			<g>
				<path class="st34" d="M388,467.1c-0.2,0.1-0.3,0.2-0.4,0.2l-3.4-2c-1.2,0.7-0.9,1.4,0,1.9c0.6,0.4,1.1,0.5,1.6,0.6l-0.5,0.5
					c-0.5-0.1-1.1-0.3-1.9-0.8c-1.5-0.9-1.4-1.9,0-2.8c1.5-0.8,3.5-1,4.9-0.2C389.8,465.5,388.8,466.6,388,467.1z M384.8,465
					l2.6,1.5c0.6-0.3,1.2-1,0.2-1.5C386.6,464.4,385.4,464.7,384.8,465"/>
			</g>
			<g>
				<path class="st34" d="M385.3,461.5l-1.4,0.8l1.3,0.7l-0.7,0.4l-1.3-0.7l-2.6,1.5c-0.6,0.3-0.8,0.6-0.3,0.9
					c0.2,0.1,0.4,0.2,0.6,0.3l-0.6,0.4c-0.2-0.1-0.6-0.2-0.9-0.4c-0.4-0.2-0.6-0.5-0.6-0.8c0-0.3,0.4-0.6,0.9-0.9l2.6-1.5l-0.8-0.4
					l0.7-0.4l0.8,0.4l1.2-0.7L385.3,461.5z"/>
			</g>
			<g>
				<path class="st34" d="M404,473.7c0.1,0.1,0.2,0.1,0.2,0.2l-0.8,0.5c-0.1-0.1-0.2-0.1-0.3-0.2c-0.6-0.4-1.5-0.3-2.3,0
					c-0.1,0.1-0.3,0.1-0.4,0.2l-2.6,1.5l-0.9-0.5l3.3-1.9c0.6-0.3,1-0.6,1.5-0.9l0.8,0.4l-0.9,0.6l0,0
					C402.5,473.3,403.4,473.4,404,473.7z"/>
			</g>
			<g>
				<path class="st34" d="M398.5,473.2c-0.2,0.1-0.3,0.2-0.4,0.2l-3.4-2c-1.2,0.7-0.9,1.4,0,1.9c0.6,0.4,1.1,0.5,1.6,0.6l-0.5,0.4
					c-0.4-0.1-1.1-0.3-1.9-0.8c-1.5-0.9-1.4-1.9,0-2.8c1.5-0.8,3.5-1,4.9-0.2C400.4,471.6,399.4,472.7,398.5,473.2z M395.3,471.1
					l2.6,1.5c0.6-0.3,1.2-1,0.2-1.5C397.2,470.5,396,470.8,395.3,471.1"/>
			</g>
			<g>
				<path class="st34" d="M393.7,467.8c0.7,0.4,1.3,1.2-0.3,2.2l-2.9,1.7l-0.9-0.5l2.8-1.6c0.8-0.4,1.1-1,0.3-1.5
					c-0.6-0.3-1.4-0.4-2.1-0.2c-0.1,0-0.3,0.1-0.5,0.2l-2.9,1.7l-0.9-0.5l3.5-2c0.5-0.3,0.9-0.5,1.3-0.8l0.8,0.4l-0.7,0.5l0,0
					C391.9,467.3,392.9,467.3,393.7,467.8z"/>
			</g>
			<g>
				<path class="st11" d="M326.9,446.6c0.7,0.4,1.1,0.8,1.1,1.2c0.1,0.4-0.2,0.8-0.7,1.1c-0.5,0.3-1,0.4-1.5,0.4
					c-0.5,0-1.1-0.1-1.7-0.3l0,0c0.5,0.4,0.7,0.7,0.7,1.1c0,0.3-0.3,0.6-0.7,0.9c-0.7,0.4-1.4,0.6-2.3,0.5c-0.8-0.1-1.7-0.3-2.6-0.8
					c-0.4-0.2-0.7-0.4-1-0.6c-0.3-0.2-0.5-0.4-0.6-0.7l0.8-0.4c0.2,0.3,0.4,0.5,0.6,0.8c0.3,0.3,0.6,0.5,0.9,0.6
					c1.2,0.7,2.3,0.8,3.3,0.2c0.9-0.5,0.6-1.1-0.7-1.9l-0.7-0.4l0.7-0.4l0.7,0.4c0.6,0.3,1.1,0.5,1.7,0.5c0.6,0,1.1-0.1,1.5-0.3
					c0.3-0.2,0.5-0.4,0.5-0.7c0-0.3-0.3-0.5-0.7-0.7c-0.3-0.2-0.7-0.3-1-0.4c-0.4-0.1-0.8-0.2-1.4-0.3l0.1-0.6c0.5,0,1,0.1,1.6,0.3
					C326,446.1,326.5,446.3,326.9,446.6z"/>
			</g>
			<g>
				<path class="st11" d="M321.8,443.7l-7.1,4.1l-0.8-0.5l5.1-2.9c0.4-0.2,0.8-0.5,1.2-0.7c-0.1,0-0.3,0-0.4,0c-0.2,0-0.9,0-2.1-0.1
					l0.1-0.6l3.3,0.2L321.8,443.7z"/>
			</g>
			<g>
				<path class="st11" d="M341,454.7c0.7,0.4,1,0.8,1.1,1.2c0,0.4-0.2,0.8-0.8,1.1c-0.4,0.3-1,0.4-1.7,0.6c-0.7,0.1-1.7,0.2-3.1,0.1
					l-3.1,0l0,0l3.7,2.1l-0.7,0.4l-4.7-2.7l0.7-0.4l3.8,0c1.2,0,1.9,0,2.4-0.1c0.4,0,0.8-0.1,1.1-0.2c0.3-0.1,0.6-0.2,0.9-0.4
					c0.4-0.2,0.6-0.5,0.6-0.7c0-0.3-0.2-0.5-0.6-0.8c-0.3-0.2-0.6-0.3-1-0.4c-0.4-0.1-0.8-0.2-1.4-0.2l0.1-0.6
					C339.2,454,340.2,454.3,341,454.7z"/>
			</g>
			<g>
				<path class="st11" d="M333.3,452c-0.3,0.4-0.7,0.8-1.4,1.1c-2.8,1.6-5.3,1.8-7.4,0.5c-0.4-0.2-0.6-0.4-0.8-0.6l0.7-0.4
					c0.2,0.2,0.4,0.4,0.8,0.6c0.8,0.4,1.6,0.7,2.5,0.6c0.9,0,1.8-0.4,2.9-0.9l-0.1,0c-0.4,0.1-0.9,0-1.3-0.1
					c-0.4-0.1-0.8-0.2-1.2-0.5c-0.6-0.4-1-0.8-0.9-1.2c0-0.4,0.3-0.8,1-1.2c0.7-0.4,1.5-0.6,2.4-0.7c0.8,0,1.6,0.2,2.3,0.6
					c0.5,0.3,0.8,0.6,0.9,0.9C333.7,451.2,333.6,451.6,333.3,452z M330.8,452.5c0.4,0,0.6-0.1,0.9-0.3c0.3-0.2,0.6-0.4,0.7-0.7
					c0.2-0.2,0.2-0.5,0.1-0.7c-0.1-0.2-0.3-0.4-0.6-0.6c-0.5-0.3-1-0.4-1.5-0.4c-0.6,0-1.1,0.2-1.6,0.5c-0.5,0.3-0.7,0.6-0.7,0.8
					c0,0.3,0.2,0.6,0.7,0.9c0.3,0.2,0.6,0.3,1,0.4S330.5,452.6,330.8,452.5"/>
			</g>
			<g>
				<path class="st11" d="M330.9,455.8c0.2,0.1,0.3,0.2,0.3,0.4c0,0.1-0.1,0.3-0.3,0.4c-0.2,0.1-0.4,0.2-0.6,0.2
					c-0.2,0-0.4,0-0.6-0.2c-0.2-0.1-0.2-0.2-0.3-0.3c0-0.1,0.1-0.3,0.3-0.4c0.2-0.1,0.4-0.2,0.6-0.2
					C330.5,455.7,330.7,455.7,330.9,455.8z"/>
			</g>
			<g>
				<path class="st11" d="M343.6,461.8l1.1,0.6l-0.7,0.4l-1.1-0.6l-1.6,0.9l-0.8-0.4l1.6-0.9l-3.5-2l0.7-0.4l8.2-0.8l0.9,0.5
					L343.6,461.8z M345.2,460c0.5-0.3,1-0.6,1.6-0.9l0,0c-0.5,0.1-0.9,0.2-1.2,0.2l-5.4,0.5l2.7,1.5L345.2,460"/>
			</g>
			<g>
				<path class="st11" d="M351,464.4c0,0.4-0.4,0.8-1,1.2c-0.7,0.4-1.5,0.6-2.3,0.7c-0.8,0-1.6-0.2-2.3-0.6
					c-0.7-0.4-1.1-0.9-0.9-1.5c0.1-0.6,0.7-1.1,1.7-1.7c1.4-0.8,2.7-1.3,3.9-1.3c1.2-0.1,2.4,0.2,3.5,0.8c0.4,0.2,0.6,0.4,0.8,0.6
					l-0.7,0.4c-0.2-0.2-0.4-0.4-0.7-0.6c-0.8-0.4-1.6-0.6-2.5-0.6c-0.9,0-1.8,0.3-2.9,0.9l0.1,0c0.9-0.1,1.8,0.1,2.5,0.5
					C350.7,463.5,351.1,463.9,351,464.4z M347.6,465.7c0.5,0,1.1-0.2,1.6-0.5c0.5-0.3,0.7-0.6,0.8-0.8c0-0.3-0.2-0.6-0.7-0.8
					c-0.3-0.2-0.6-0.3-1-0.4c-0.4-0.1-0.7-0.1-1.1,0s-0.6,0.1-0.9,0.3c-0.3,0.2-0.6,0.4-0.7,0.7c-0.2,0.2-0.2,0.5-0.1,0.7
					c0.1,0.2,0.3,0.4,0.6,0.6C346.5,465.6,347,465.7,347.6,465.7"/>
			</g>
		</g>
	</g>
	<g>
		<path class="st35" d="M427.4,667.1l105.2,64.2c8,4.9,18,4.8,25.9-0.3l95.1-60.8c7.8-5,17.8-5.1,25.8-0.3l40.2,24.3
			c7.8,4.7,17.6,4.7,25.4-0.1l117.6-72.3"/>
		<g>
			<g>
				<linearGradient id="SVGID_22_" gradientUnits="userSpaceOnUse" x1="878.7579" y1="526.2287" x2="878.7579" y2="707.6661">
					<stop  offset="0" style="stop-color:#2D4159"/>
					<stop  offset="0.9958" style="stop-color:#121A24"/>
				</linearGradient>
				<path class="st36" d="M966.1,604.3L889.2,649c-5.5,3.2-14.6,3.2-20.1,0l-77.4-44.7c-2.8-1.6-4.2-3.8-4.2-5.9l-0.1,11.1
					c0,2.1,1.4,4.3,4.2,5.9l77.4,44.7c5.6,3.2,14.6,3.2,20.1,0l76.9-44.7c2.8-1.6,4.1-3.7,4.1-5.8l0.1-11.1
					C970.2,600.6,968.8,602.7,966.1,604.3z"/>
				<linearGradient id="SVGID_23_" gradientUnits="userSpaceOnUse" x1="853.4771" y1="532.2986" x2="925.5066" y2="720.238">
					<stop  offset="0" style="stop-color:#1C2938"/>
					<stop  offset="0.9958" style="stop-color:#121A24"/>
				</linearGradient>
				<path class="st37" d="M966,592.6c5.6,3.2,5.6,8.4,0.1,11.7L889.2,649c-5.5,3.2-14.6,3.2-20.1,0l-77.4-44.7
					c-5.6-3.2-5.6-8.4-0.1-11.7l76.9-44.7c5.5-3.2,14.6-3.2,20.1,0L966,592.6z"/>
			</g>
			<g>
				<path class="st6" d="M901.9,586.6c5,2.9,5,7.5,0.1,10.4c-3.8,2.2-9.4,2.7-14.1,1.5c2.8,3.5,1.6,8.4-3.3,12.9
					c4.4-1.1,8.8-1.3,12.1-0.4c-1.4-1.8-0.8-4,1.7-5.5c3.4-1.9,8.8-1.9,12.2,0c3.4,1.9,3.4,5.1,0,7c-2.6,1.5-6.4,1.8-9.6,1
					c2.5,3.1,0.2,7.9-6.1,11.5c-0.2,0.1-0.3,0.2-0.5,0.3l-16.3-9.4l-1.9-1.1l-23-13.3l-1.9-1.1l-16.3-9.4c0.2-0.1,0.3-0.2,0.5-0.3
					c6.3-3.7,14.5-5,19.9-3.6c-1.4-1.8-0.8-4,1.7-5.5c3.4-1.9,8.8-1.9,12.1,0c3.4,1.9,3.4,5.1,0,7c-2.6,1.5-6.4,1.8-9.6,1
					c1.6,1.9,1.3,4.5-0.7,7c7.8-2.8,16.2-3.6,22.2-2c-2.1-2.7-1.2-6,2.5-8.2C889,583.7,897,583.7,901.9,586.6z"/>
			</g>
		</g>
		<g>
			<g>
				<linearGradient id="SVGID_24_" gradientUnits="userSpaceOnUse" x1="668.4535" y1="614.742" x2="668.4535" y2="733.3284">
					<stop  offset="0" style="stop-color:#2D4159"/>
					<stop  offset="0.9958" style="stop-color:#121A24"/>
				</linearGradient>
				<path class="st38" d="M725.5,665.7L675.3,695c-3.6,2.1-9.5,2.1-13.2,0l-50.6-29.2c-1.8-1.1-2.8-2.5-2.7-3.8l-0.1,7.3
					c0,1.4,0.9,2.8,2.7,3.8l50.6,29.2c3.6,2.1,9.5,2.1,13.2,0l50.3-29.2c1.8-1,2.7-2.4,2.7-3.8l0.1-7.3
					C728.2,663.3,727.3,664.7,725.5,665.7z"/>
				<linearGradient id="SVGID_25_" gradientUnits="userSpaceOnUse" x1="651.9301" y1="618.7092" x2="699.0081" y2="741.5452">
					<stop  offset="0" style="stop-color:#1C2938"/>
					<stop  offset="0.9958" style="stop-color:#121A24"/>
				</linearGradient>
				<path class="st39" d="M725.5,658.1c3.6,2.1,3.7,5.5,0,7.6L675.3,695c-3.6,2.1-9.5,2.1-13.2,0l-50.6-29.2c-3.6-2.1-3.7-5.5,0-7.6
					l50.3-29.2c3.6-2.1,9.5-2.1,13.2,0L725.5,658.1z"/>
			</g>
			<g>
				<linearGradient id="SVGID_26_" gradientUnits="userSpaceOnUse" x1="660.4863" y1="689.908" x2="672.7789" y2="623.269">
					<stop  offset="0" style="stop-color:#2DD840"/>
					<stop  offset="1" style="stop-color:#2DD7A2"/>
				</linearGradient>
				<path class="st40" d="M683.6,654.2c3.2,1.9,3.3,4.9,0,6.8c-2.5,1.4-6.2,1.8-9.2,1c1.8,2.3,1,5.5-2.2,8.4
					c2.9-0.7,5.7-0.8,7.9-0.3c-0.9-1.2-0.6-2.6,1.1-3.6c2.2-1.3,5.7-1.3,7.9,0c2.2,1.3,2.2,3.3,0,4.6c-1.7,1-4.2,1.2-6.2,0.7
					c1.7,2.1,0.1,5.2-4,7.5c-0.1,0.1-0.2,0.1-0.3,0.2l-10.7-6.1l-1.2-0.7l-15-8.7l-1.2-0.7l-10.7-6.1c0.1-0.1,0.2-0.1,0.3-0.2
					c4.1-2.4,9.5-3.3,13-2.3c-0.9-1.2-0.6-2.6,1.1-3.6c2.2-1.3,5.7-1.3,7.9,0c2.2,1.3,2.2,3.3,0,4.6c-1.7,1-4.2,1.2-6.2,0.7
					c1,1.3,0.8,2.9-0.4,4.6c5.1-1.8,10.6-2.3,14.5-1.3c-1.4-1.8-0.8-3.9,1.7-5.3C675.1,652.3,680.4,652.3,683.6,654.2z"/>
			</g>
		</g>
	</g>
	<g>
		<g>
			<path class="st11" d="M438.2,663.1c4.6,2.7,4.7,7,0.1,9.7c-4.6,2.7-12.1,2.7-16.7,0s-4.7-7-0.1-9.7
				C426.1,660.4,433.6,660.4,438.2,663.1z"/>
		</g>
	</g>
	<g>
		<g>
			<path class="st11" d="M795.5,663c2.9,1.7,2.9,4.4,0,6.1c-2.9,1.7-7.6,1.7-10.6,0c-2.9-1.7-2.9-4.4,0-6.1
				C787.8,661.3,792.5,661.3,795.5,663z"/>
		</g>
	</g>
	<g>
		<linearGradient id="SVGID_27_" gradientUnits="userSpaceOnUse" x1="899.866" y1="515.3255" x2="1025.0443" y2="515.3255">
			<stop  offset="0" style="stop-color:#2DD840"/>
			<stop  offset="1" style="stop-color:#2DD7A2"/>
		</linearGradient>
		<path class="st41" d="M1009.6,516.3c-1.3-10.7-8.8-22.6-17.8-27.8c-3.4-2-6.6-2.8-9.5-2.4c-4.3-10.8-12-20.4-20.6-25.4
			c-6.7-3.8-12.7-4.2-17.1-1.7L917,475.1c3.2-1.8,7.2-2.2,11.7-0.7c-0.4,0.2-0.8,0.3-1.2,0.6L899.9,491c2.7-1.6,6.2-1.7,10-0.2
			l24.2-14c8.6,5,16.3,14.6,20.6,25.4c2.8-0.4,6.1,0.4,9.5,2.4c9,5.2,16.5,17.1,17.8,27.8c8.6,6.5,15.4,19.1,15.4,29.4
			c0,5.6-2,9.6-5.3,11.5l27.7-16.1c3.2-1.9,5.3-5.8,5.3-11.5C1025.1,535.3,1018.3,522.8,1009.6,516.3z"/>
		<g>
			<path class="st15" d="M934.1,476.8c8.6,5,16.3,14.6,20.6,25.4c2.8-0.4,6.1,0.4,9.5,2.4c9,5.2,16.5,17.1,17.8,27.8
				c8.6,6.5,15.4,19.1,15.4,29.4c0,11.4-8.4,16-18.3,10.2l-66.2-38.2c-10-5.8-18.2-19.9-18.2-31.3c0-10.3,6.8-14.9,15.3-11.7
				C909.9,475.3,920.8,469.1,934.1,476.8z"/>
		</g>
	</g>
	<g>
		
			<linearGradient id="SVGID_28_" gradientUnits="userSpaceOnUse" x1="860.773" y1="415.9849" x2="938.1776" y2="415.9849" gradientTransform="matrix(-1 0 0 1 1057.7144 0)">
			<stop  offset="0" style="stop-color:#2DD840"/>
			<stop  offset="1" style="stop-color:#2DD7A2"/>
		</linearGradient>
		<path class="st42" d="M129.1,416.6c0.8-6.6,5.4-14,11-17.2c2.1-1.2,4.1-1.7,5.9-1.5c2.6-6.7,7.4-12.6,12.7-15.7
			c4.1-2.4,7.8-2.6,10.6-1l17.1,10c-2-1.1-4.5-1.3-7.3-0.4c0.2,0.1,0.5,0.2,0.7,0.3l17.1,10c-1.7-1-3.8-1.1-6.2-0.1l-14.9-8.7
			c-5.3,3.1-10.1,9-12.7,15.7c-1.8-0.2-3.8,0.3-5.9,1.5c-5.6,3.2-10.2,10.6-11,17.2c-5.3,4-9.5,11.8-9.5,18.2c0,3.5,1.3,5.9,3.3,7.1
			l-17.1-10c-2-1.2-3.3-3.6-3.3-7.1C119.5,428.4,123.7,420.6,129.1,416.6z"/>
		<g>
			<path class="st15" d="M175.8,392.1c-5.3,3.1-10.1,9-12.7,15.7c-1.8-0.2-3.8,0.3-5.9,1.5c-5.6,3.2-10.2,10.6-11,17.2
				c-5.3,4-9.5,11.8-9.5,18.2c0,7.1,5.2,9.9,11.3,6.3l40.9-23.6c6.2-3.6,11.3-12.3,11.3-19.4c0-6.3-4.2-9.2-9.5-7.2
				C190.7,391.2,184,387.4,175.8,392.1z"/>
		</g>
	</g>
</g>
</svg>
