<?xml version="1.0" encoding="utf-8"?>
<!-- Generator: Adobe Illustrator 25.1.0, SVG Export Plug-In . SVG Version: 6.00 Build 0)  -->
<svg version="1.1" id="Layer_1" xmlns="http://www.w3.org/2000/svg" xmlns:xlink="http://www.w3.org/1999/xlink" x="0px" y="0px"
	 viewBox="0 0 443 269" style="enable-background:new 0 0 443 269;" xml:space="preserve">
<style type="text/css">
	.st0{fill:#F28C9F;}
	.st1{fill:#EAD1C5;}
	.st2{fill:#E41A3E;}
	.st3{fill:#1A3151;}
	.st4{fill:#E7EBF2;}
	.st5{fill:#D1D6D6;}
	.st6{fill:#FFFFFF;}
	.st7{fill:#292949;}
	.st8{fill:#323F56;}
	.st9{fill:#EB4765;}
	.st10{fill:#ED5E79;}
	.st11{fill:#730D1F;}
	.st12{fill:#B81432;}
</style>
<path class="st0" d="M17.1,79.9L17,82l61.8,2.8l0.1-2.1L17.1,79.9L17.1,79.9z"/>
<path class="st0" d="M34.7,23.4l-1.7,1.2L78,84.4l1.7-1.2L34.7,23.4L34.7,23.4z"/>
<path class="st1" d="M260.4,124.5l0.2-4.6l2.1-0.1l0.5,3.3l1-0.5l-0.7,3.9l-2.1,0.5L260.4,124.5L260.4,124.5z"/>
<path class="st2" d="M286.5,143.2l-14.8-1.3l-7.3-17.5l-4,1.3l3.8,24.2l23.2,4.3L286.5,143.2L286.5,143.2z"/>
<path class="st1" d="M74.3,115.5l-0.7-4.7l-1.9,0.1l-0.2,3.3l-1.1-0.5l1.1,4l2.2,0.1L74.3,115.5L74.3,115.5z"/>
<path class="st2" d="M45.2,138.4l21.3-4.3l3.8-18.6l4.1,1l-1.2,25.9l-21.3,7.1L45.2,138.4L45.2,138.4z"/>
<path class="st3" d="M134,256.2c-0.5-0.5-1-0.7-1.6-0.7c-0.6,0.1-1.1,0.5-1.3,1c-0.1,0.4-0.2,0.7-0.2,1.1c-0.1,2.1-0.1,6.8,2.6,7.5
	c1.1,0.2,2.1-0.5,2.3-1.6C136.2,262.1,135.6,257.9,134,256.2L134,256.2z"/>
<path class="st1" d="M134.9,225.8l-0.1,12.3c0.1,5.5-0.7,10.9-0.5,16.4c0,1.2,0.4,2.6,0,3.9c-0.4,1.2-1.3,1.5-2.3,0.9
	c-1.3-0.9-1.1-2.8-1.3-4.1c-0.6-3.9-1.3-7.8-2.1-11.6c-0.4-1.9,0.4-4.5,0.2-6.4l-1.9-10.3L134.9,225.8L134.9,225.8z"/>
<path class="st4" d="M120.8,205.8l5.4,23.8l1.2,22.5l8.5-0.2l2.3-62.9l-16.5,0.2L120.8,205.8L120.8,205.8z"/>
<path class="st3" d="M146.1,255.8c-0.5-0.5-1-0.7-1.6-0.6c-0.6,0.1-1.1,0.6-1.3,1.1c-0.1,0.4-0.1,0.7-0.1,1.2
	c-0.1,2.1,0.1,6.8,2.8,7.4c1.1,0.2,2.1-0.6,2.3-1.7C148.6,261.5,147.7,257.4,146.1,255.8L146.1,255.8z"/>
<path class="st1" d="M141.6,227.5l0.7,12.3c0,3.4,0.5,6.8,0.9,10.2c0.4,3.2-0.2,6.4,1.5,9.4c0.5,0.9,1.6,1.5,2.3,0.4
	c0.6-0.9,0.2-2.2,0.4-3.2l1.5-11.7c0.2-1.9-0.6-4.5-0.5-6.4l1.5-10.5L141.6,227.5L141.6,227.5z"/>
<path class="st4" d="M152.5,204.4l0.7,23.1l-3.6,23.5l-8.6,0.2l0.4-25.3l-4.6-21l-1.6-13.7l13.7-1.6L152.5,204.4z"/>
<path class="st2" d="M141.6,142.1l-14.8-0.4l-8.6,15.9l3.2,15l0.5,17.9l21.2,0.4l6.9-1.2l-1.9-19.1l1.1-25.4L141.6,142.1
	L141.6,142.1z"/>
<path class="st1" d="M121.8,183.4l-0.6,2.6l3.4,2.8l2.7-1.2l0.7-2.9l-2.1-0.9v-0.6l-0.5-0.7L121.8,183.4L121.8,183.4z"/>
<path class="st2" d="M126.8,142.3l-18,19.8l-2.8,8l14.8,15.4l4.5-2.9l-9.5-13l9-6.7L126.8,142.3z"/>
<path class="st1" d="M141,151.8l7.7,15.3l8.4,1.7l15.9-13.5l-3.5-4.1l-14.2,8l-7.5-14.1L141,151.8z M140.7,129.7
	c-2.2-6.4-10.8-4-12.5,1.7c-1.1,3.8,1.7,8.6,5.7,9.7v0.4c0,0.6,0.1,1.2,0.1,1.8c0,0.2,3.4-0.5,3.8-0.5c0.1,0,0.2-0.1,0.4-0.1
	c0.1-0.2-0.1-0.9-0.1-1.1s0-0.6-0.1-0.9c1.9-1,3.2-2.9,3.5-5C141.8,133.7,141.4,131.6,140.7,129.7z"/>
<path class="st3" d="M135.1,123.8c-0.5,0.5-0.6,1.1-0.7,1.7c-0.1,0.4-0.1,0.7-0.1,1.1c0.4,1.5,1.8,1.3,2.9,1.8
	c1.3,0.6,2.6,1.7,3.4,2.9c1.2,1.9,0.7,4.5,0.1,6.6c-0.1,0.7-0.5,1.8,0,2.6c0.6,0.7,1.9,0.6,2.7,0.2c0.6-0.4,1.2-1,1.9-1.1
	s1.8,0.2,2.2-0.5c0.1-0.2,0.1-0.5,0.2-0.6c0.4-0.6,1.5,0.1,2.1-0.4c0.4-0.2,0.4-0.9,0.2-1.2c-0.1-0.5-0.4-0.9-0.2-1.3
	c0.1-0.4,0.4-0.7,0.5-1c0.4-0.7,0.3-1.6-0.2-2.2c-1-1.1-2.7-0.9-3.8-1.9c-0.5-0.5-0.7-1.3-1-2.1c-0.2-0.7-0.5-1.5-1-1.9
	c-0.7-0.6-1.7-0.5-2.3-1.2c-0.4-0.4-0.6-1-1.1-1.3c-0.6-0.5-1.7-0.9-2.4-1.1C137.3,122.8,135.9,123,135.1,123.8z"/>
<path class="st3" d="M129.7,134.2c0,2.2,1,4.5,0,6.3c-1,1.9-3.4,2.2-5.6,2.3c-0.4,0-4.7,0.4-4.9,0.4c-0.4-1.5-0.7-3-1.5-4.3
	c-0.7-1.3-2.1-2.4-3.5-2.4c0.5-0.1,0.6-0.6,0.6-1.1c0-0.5-0.2-0.9-0.4-1.2c-0.4-1.1,0-2.3,0.7-3c1.6-1.5,4.4-0.9,5.7-2.6
	c0.9-1.1,0.7-2.6,1.2-3.9c0.9-2.4,3.5-3,5.6-4.1c2.2-1.2,4.1-1.8,6.6-1.5c3,0.5,5.4,3.6,4.1,6.6c-1.5,3.8-7.5,3.4-8.6,7.2
	C129.7,133.3,129.7,133.8,129.7,134.2L129.7,134.2z"/>
<path class="st5" d="M131,141.9l4.6,6.4l2.1-0.2l3.6-6.6L131,141.9L131,141.9z"/>
<path class="st6" d="M314.3,22.4l-0.3,2l74.3,9.9l0.3-2L314.3,22.4z"/>
<path class="st0" d="M67.1,90.3l-1.4,1.5l77.9,73.1l1.4-1.5C144.9,163.4,67.1,90.3,67.1,90.3z M315.5,27.4l-1.2,1.7l96.1,65.2
	l1.2-1.7L315.5,27.4z"/>
<path class="st2" d="M32.7,177.8c0.7-3.6,1.3-7.2,1.3-9c0.1-5.6,0.9-24,0.9-24l3.4-7.1h0.6h-0.1c0.1-0.6,0-1.1,0-1.6
	c-6.1,0.4-12.2,3.5-14,9.4c-0.1,0.5-0.2,1-0.2,1.5c-0.2,3,0.7,5.2-0.2,8.3c-0.7,2.7-1.5,5.4-1.9,8c-0.7,3.9-1.5,7.8-1.9,11.7
	c-0.6,4.2-1,8.5-1.1,12.8c0,0.5-0.1,1.8-0.1,3.4c-0.1,3.3,0,7.7,1.3,7.9c0.2,0,0.5-0.1,0.7-0.2c1.8-0.9,3.2-1.9,4.7-3l0.1-17.1
	L32.7,177.8L32.7,177.8z M64.6,195.5c-0.4-3.6-0.7-7.3-1.2-10.9c-0.9-7.3-2.1-14.5-4.1-21.5c-0.7-2.7-1.7-5.4-2.6-8
	c-1.1-3.2-2.2-6.4-3.3-9.6c-1.3-4-3.7-6.8-7.8-8.3c-0.7-0.2-1.5-0.5-2.3-0.6v0.2c0,0.4-0.1,0.9-0.4,1.1h2.7c0,0,7.5,26.3,7.8,30.8
	c0.1,1.7,0.5,5.5,0.9,9.5l4.1,0.6l0.1,15.2c0.2,0.1,0.5,0.1,0.7,0.2c1.3,0.4,2.3,1.3,3.4,2.1C64.1,197.3,64.8,197.8,64.6,195.5z"/>
<path class="st7" d="M46.2,192.1c-0.3,0-0.7,0-1,0.1l-3.3,28l3.6,40.7v-0.6h5.9l7.5-45.5l-0.3-20.6c-3.6-1-7.5-2.3-11.2-2.3
	C47.1,192.1,46.7,192.1,46.2,192.1z"/>
<path class="st2" d="M54.1,178.2c0.4,4.3,0.9,8.7,1.3,13c0,0-3.3,0.1-8,0.5h1.1c3.3,0,6.8,1.3,10,2.3l-0.4-15.2L54.1,178.2z"/>
<path class="st2" d="M46.7,260.8v2.2l5.6,2.8l2.8-2.8l-2.8-2.8h-0.4l-0.1,0.6H46.7z"/>
<path class="st3" d="M46.7,260.8h5.1l0.1-0.6h-5.2V260.8z"/>
<path class="st7" d="M40.2,193h-0.4c-3.6,0.7-6,1-7.6,1.1c-1.5,0.4-2.9,0.8-4.3,1.3c-0.7,0.2-1.3,0.6-1.9,1v3.5l7,60.5h5.8v0.6
	l6.3-40.6v-0.2l-0.1-1.7L40.2,193z"/>
<path class="st2" d="M31.7,193.6c-2.3,0.1-2.6-0.2-2.6-0.2s2.1-8.3,3.5-15.4l-6.6,1L26,196.1c0.6-0.4,1.1-0.7,1.7-1
	C29.1,194.4,30.4,194,31.7,193.6L31.7,193.6z"/>
<path class="st7" d="M39.2,192.7l4.3,25.5l0.1,1.7l2.9-27.9C44.3,192.1,41.7,192.4,39.2,192.7L39.2,192.7z"/>
<path class="st2" d="M32.5,260.2h-0.4l-2.8,2.8l2.8,2.8l5.6-2.8v-2.2h-5.1L32.5,260.2z"/>
<path class="st3" d="M32.5,260.2l0.1,0.6h5.1v-0.6C37.7,260.2,32.5,260.2,32.5,260.2z"/>
<path class="st6" d="M54.1,178.2c-0.4-4-0.7-7.8-0.9-9.5c-0.2-4.5-7.8-30.8-7.8-30.8h-2.7c0,0,0,0.1-0.1,0.1
	c-0.1,0.1-0.1,0.1-0.2,0.1c-0.2,0.1-0.5,0-0.7,0c-0.8-0.1-1.7-0.2-2.7-0.4h-0.6l-3.4,7.1c0,0-0.7,18.4-0.9,24c0,1.8-0.6,5.2-1.3,9
	c-1.5,7.2-3.5,15.4-3.5,15.4s0.2,0.4,2.6,0.2c1.5-0.1,3.5-0.4,6.9-1.1h0.4c2.6-0.4,5.1-0.5,7.3-0.7c0.4,0,0.6,0,0.9-0.1
	c4.7-0.4,8-0.5,8-0.5S54.7,184.5,54.1,178.2z"/>
<path class="st1" d="M43.3,136.6c0.4-1.5,1.9-2.2,2.9-3.5c1-1.5,1.6-3.2,1.7-5v-0.1c-0.1,0.1-0.2,0.1-0.4,0.1
	c-0.1-0.7,0.1-1.5,0.4-2.2v-0.6c-1.2-0.2-2.6-0.7-3.5-1.1c-1.9-0.9-5.7-1.7-7.8-0.7c-1.6,0.9-1.1,3.3-1,4.9v1.2
	c-0.1,0.4-0.4,0.7-0.5,1c0.1,0.6,0.5,1.2,1,1.7c1.2,1.5,2.6,2.2,2.9,3.8C40.4,136.2,41.8,136.3,43.3,136.6z"/>
<path class="st1" d="M38.9,137.8h3.8c0.2-0.2,0.4-0.7,0.4-1.1v-0.2c-1.3-0.2-2.9-0.4-4.4-0.2C39,136.7,39,137.3,38.9,137.8z
	 M41.7,138.2h0.7c0.1,0,0.2-0.1,0.2-0.1l0.1-0.1h-3.6C40,137.9,40.9,138,41.7,138.2L41.7,138.2z"/>
<path class="st3" d="M47.9,125.5c0.1,0.8,0.1,1.7,0,2.6c0.9-0.5,1.5-1.5,1.8-2.4C49.1,125.6,48.5,125.6,47.9,125.5z"/>
<path class="st3" d="M47.9,125.5C47.9,125.5,47.8,125.5,47.9,125.5c-0.1,0.1-0.1,0.4-0.1,0.5c-0.1,0.7-0.5,1.5-0.4,2.2
	c0.1,0,0.2-0.1,0.4-0.1C47.9,127.2,48,126.2,47.9,125.5z"/>
<path class="st8" d="M34.9,125.9c0-0.6,0-1.3,0.4-1.8c0.5-1,1.6-1.6,2.7-1.9c2.7-0.9,5.8-0.6,8.1,0.9c0.6,0.4,1.2,0.9,1.6,1.6
	c0,0.1,0.1,0.2,0.1,0.4c-0.1-0.7-0.5-1.6-0.4-2.1c0.1-0.9,1.3-1,1.9-0.5c0.5,0.4,0.7,0.9,0.7,1.5s-0.1,1.1-0.2,1.7v0.1
	c0.4,0,0.7-0.1,1.1-0.2c1.7-0.7,3-3.8,3-5.6c0-0.9-0.4-1.6-1.1-2.2c-0.6-0.5-1.5-0.9-1.8-1.6c-0.4-0.6-0.4-1.2-0.6-1.8
	c-0.6-1-1.8-1.3-2.8-1.6c-2.7-0.9-4-1.8-6.8-0.7c-1.9,0.7-4.5,0.9-6.4,1.9c-0.8,0.5-1.5,1.2-1.9,2.1c-1.8,2.9-2.3,7.1-1.1,10
	c0.2,0.7,0.6,1.3,1,1.9c0.7,1.2,1.6,2.7,2.8,3.3c0-0.1,0.1-0.2,0.1-0.4C34.5,129.3,34.9,127.6,34.9,125.9L34.9,125.9z"/>
<path class="st3" d="M35.6,128.6c-0.1-1.6-0.6-4.1,1-4.9c2.1-1,5.8-0.1,7.8,0.7c1,0.4,2.2,0.9,3.5,1.1c0-0.1,0-0.4-0.1-0.5
	c0-0.1-0.1-0.2-0.1-0.4c-0.4-0.7-1-1.2-1.6-1.6c-2.4-1.6-5.5-1.7-8.2-0.9c-1.1,0.4-2.2,0.9-2.7,1.9c-0.2,0.6-0.2,1.2-0.4,1.8
	c-0.1,1.6-0.4,3.3,0.1,4.9c0.1-0.4,0.4-0.6,0.5-1C35.6,129.4,35.6,128.9,35.6,128.6z"/>
<path class="st3" d="M50,123.8c0-0.6-0.2-1.1-0.7-1.5c-0.6-0.5-1.7-0.2-1.9,0.5c-0.1,0.6,0.2,1.3,0.4,2.1c0.1,0.1,0.1,0.4,0.1,0.5
	c0.6,0.1,1.2,0.1,1.8,0.1v-0.1C49.9,124.9,50.1,124.4,50,123.8z"/>
<path class="st3" d="M47.8,125c0,0.1,0,0.4,0.1,0.5H48C47.9,125.3,47.8,125.2,47.8,125z"/>
<path class="st1" d="M382.3,144l7.2-1.7l6.8,1.3l-6.2,4.7L382.3,144L382.3,144z"/>
<path class="st3" d="M385.6,131.6c-1.2,1.8-0.6,4.3-0.1,6.3c0.2,0.9,0.6,2.1-0.2,2.7c-0.9,0.7-2.4,0-2.9-0.9
	c-0.4-0.6-0.4-1.3-0.4-2.1c0-3-0.1-7.4,1.1-10.3c1-2.3,5.2-5.6,7.7-3.2c0.5,0.5,0.6,1.1,0.7,1.7c0.1,0.4,0.1,0.7,0.1,1.1
	c-0.2,1.5-1.7,1.3-2.8,1.8C387.4,129.3,386.3,130.4,385.6,131.6L385.6,131.6z"/>
<path class="st1" d="M388.2,140.5c-1.9-0.9-3.2-2.8-3.5-4.7c-0.4-1.9,0-4,0.6-5.8c2.1-6.2,10.6-4,12.3,1.6
	C399.3,136.2,393.7,143,388.2,140.5z"/>
<path class="st3" d="M396.4,134.3c-0.1,0.7,0,1.7-0.1,2.6c-0.2,1.5-1.2,3.3-1.1,4.7c1.6,0.2,3.5-0.1,5-0.7c1.5-0.7,1.7-2.3,2.4-3.6
	c0.6-1.3,1.5-2.7,1.8-4c1.9-7.9-4.4-14.5-12.3-13.1c-3,0.5-5.1,3.5-4,6.3c1.3,3,5.7,3.3,7.7,5.8
	C396.1,132.6,396.4,133.4,396.4,134.3L396.4,134.3z"/>
<path class="st1" d="M388.2,140c-0.1,0.6-0.1,1.2-0.2,1.8c0,0.2-0.2,1-0.1,1.2c0.1,0.1,0.2,0.1,0.4,0.2c0.4,0.1,3.8,0.7,3.8,0.5
	c0.1-0.7,0.1-1.3,0.2-2.1c0-0.6,0.2-1.6,0.1-1.9c-0.7,0.2-1.3,0.4-2.1,0.4h-2.1L388.2,140L388.2,140z M363.3,189.6l-2.3-0.5
	l-2.3,3.3l1.3,2.4l2.7,0.4l1.1-3.3L363.3,189.6L363.3,189.6z"/>
<path class="st9" d="M385.3,147.8l-8.6,0.5l-5.5,23.4L361,188.5l2.8,3.3l13.6-13.6L385.3,147.8L385.3,147.8z"/>
<path class="st3" d="M381.8,258.3c0.4-0.6,1-1.1,1.6-1.1c0.7,0,1.3,0.2,1.7,0.9c0.2,0.4,0.4,0.7,0.5,1.2c0.7,2.2,1.8,7.4-1,8.9
	c-1.2,0.6-2.4-0.1-3-1.1C380.8,265.4,380.4,260.5,381.8,258.3z"/>
<path class="st1" d="M387,224.8l-0.4,13.9c0.1,6.2-1,12.3-0.9,18.5c0,1.5,0.4,2.9,0,4.3c-0.4,1.3-1.6,1.6-2.7,0.9
	c-1.6-1-1.2-3.2-1.5-4.7c-0.6-4.4-1.5-8.8-2.1-13c-0.4-2.2,0.5-5.1,0.4-7.3l-2.1-11.7L387,224.8L387,224.8z"/>
<path class="st3" d="M391.6,258.9c0.5-0.6,1.1-1,1.8-0.9c0.7,0.1,1.3,0.5,1.6,1.1c0.2,0.4,0.2,0.9,0.4,1.2c0.2,2.3,0.5,7.7-2.6,8.5
	c-1.3,0.4-2.4-0.5-2.8-1.6C389.3,265.6,389.9,260.9,391.6,258.9z"/>
<path class="st1" d="M389,224.8l0.9,13.9c0.1,6.2,1.3,12.3,1.5,18.5c0,1.5-0.2,2.9,0.1,4.3c0.4,1.3,1.6,1.6,2.7,0.9
	c1.6-1,1.2-3.2,1.3-4.7c0.5-4.4,1.2-8.8,1.7-13.1c0.2-2.2-0.6-5.1-0.6-7.3l1.7-11.7L389,224.8L389,224.8z"/>
<path class="st9" d="M395.9,142.4l-5.8,3l-6.6-2.4l-6.8,5.1c0,0,0.7,21.3,0.5,29.2c-0.2,7.9-0.7,14.4-1.5,25.8
	c-0.7,12.6,2.4,28,2.4,28l26.4-0.4c0,0,5.4-28.9,2.6-36.4c-2.8-7.5-1.1-15-1.2-21c-0.1-6.1-2.7-26.6-2.7-26.6L395.9,142.4
	L395.9,142.4z"/>
<path class="st1" d="M420.8,124.2l2.8,1l3.4-3.9l-1.2-3.3l-3.3-1l-1.8,4.1C420.7,121.1,420.8,124.2,420.8,124.2z"/>
<path class="st9" d="M397.6,155l18.6-6.1l9.4-24.8l-5.6-1.5l-10.9,19l-11.4,2.4L397.6,155L397.6,155z"/>
<path class="st0" d="M233.3,101.4l-89.6,62.1l1.2,1.7l89.6-62.1L233.3,101.4L233.3,101.4z"/>
<path class="st0" d="M141.4,43.6l-1.1,1.8l92.9,57.6l1.1-1.8C234.3,101.2,141.4,43.6,141.4,43.6z"/>
<path class="st0" d="M61.1,84.5l-0.2,2.1L233.8,103l0.2-2.1L61.1,84.5L61.1,84.5z"/>
<path class="st0" d="M314.1,23l-83.6,78.5l1.4,1.5l83.6-78.5L314.1,23z"/>
<path class="st6" d="M231.8,100.9l-1.1,1.7l110.6,72l1.1-1.7L231.8,100.9L231.8,100.9z"/>
<path class="st0" d="M414.9,92.8l-181.1,5.9l0.1,2.1L415,94.9L414.9,92.8z"/>
<path class="st2" d="M226.5,148.3c30.2,0,54.6-24.4,54.6-54.6S256.6,39,226.5,39s-54.6,24.5-54.6,54.6S196.3,148.3,226.5,148.3z"/>
<path class="st10" d="M138.9,63.7c14.2,0,25.7-11.5,25.7-25.7c0-14.2-11.5-25.7-25.7-25.7c-14.2,0-25.7,11.5-25.7,25.7
	S124.7,63.7,138.9,63.7z"/>
<path class="st7" d="M49,83.6c0-16.1,13-29.1,29.1-29.1c16.1,0,30.6,13,30.6,29.1c0,16.1-14.5,29.1-30.7,29.1
	C62,112.6,49,99.6,49,83.6z"/>
<path class="st11" d="M148.1,186.9c12.7,0,23-10.3,23-23c0-12.7-10.3-23-23-23c-12.7,0-23,10.3-23,23
	C125.2,176.6,135.4,186.9,148.1,186.9z"/>
<path class="st7" d="M314.2,50.8c14,0,25.4-11.4,25.4-25.4c0-14-11.4-25.4-25.4-25.4s-25.4,11.4-25.4,25.4
	C288.7,39.5,300.1,50.8,314.2,50.8z M341.9,198.6c15.2,0,27.6-12.4,27.6-27.6c0-15.2-12.4-27.6-27.6-27.6
	c-15.2,0-27.6,12.4-27.6,27.6C314.3,186.3,326.6,198.6,341.9,198.6z"/>
<path class="st11" d="M411,124.9c17.3,0,31.4-14.1,31.4-31.4s-14-31.4-31.4-31.4s-31.4,14.1-31.4,31.4S393.6,124.9,411,124.9z"/>
<path class="st12" d="M388.5,48.8c8.5,0,15.4-6.9,15.4-15.4c0-8.5-6.9-15.4-15.4-15.4S373,24.8,373,33.3
	C373,41.9,379.9,48.8,388.5,48.8z"/>
<path class="st12" d="M35.5,39.2C44,39.2,51,32.2,51,23.7C51,15.2,44,8.3,35.5,8.3c-8.5,0-15.4,6.9-15.4,15.4
	C20.1,32.2,27,39.2,35.5,39.2L35.5,39.2z M17,97.8c9.4,0,17-7.6,17-17s-7.6-17-17-17s-17,7.6-17,17S7.6,97.8,17,97.8z"/>
<path class="st9" d="M64.5,178.9c10.5,0,19-8.5,19-19s-8.5-19-19-19c-10.5,0-19,8.5-19,19S54,178.9,64.5,178.9L64.5,178.9z"/>
<path class="st1" d="M41.2,164.8l3-0.1l1.7-2.1l0.6,0.2l-0.1,0.7l1.8-1.3l1.9,0.2l1.2,2.2l-0.5,2.4l-2.2,1l-2.9-0.2l-4,0.4
	L41.2,164.8z"/>
<path class="st2" d="M42.8,163.5l-16.3,0.4l3.3-25.1l-11.1,10.9L17,173l6,3.2l22.3-7.1L42.8,163.5z"/>
<path class="st3" d="M284.7,192v6.7l-9,29.3l2.2,30.3l-5.6,1.1l-9-37.1l0.4-10.8l4.1-22.3L284.7,192L284.7,192z"/>
<path class="st3" d="M277.5,200.1l9,61.8h4.1l2.7-33.7l5.6-33.7L277.5,200.1z"/>
<path class="st7" d="M273,258.8l-4.3,4.6l1.2,2.3l8.9-4.3l-1.6-3.4L273,258.8L273,258.8z M286.7,260.9l-5.2,3.4l0.6,2.6l9.6-1.9
	l-0.7-3.6L286.7,260.9z"/>
<path class="st1" d="M284.7,124.8c2.6,2.7,7.1,2.8,9.1,5.7c1.3,1.9,1.3,4.7,0.4,6.9c-0.5,1-1.2,1.9-2.2,2.6
	c-0.6,0.4-1.3,0.6-2.1,0.7c-1,0.1-1.9,0.1-2.9-0.1c-0.1,0.9-0.2,1.7-0.2,2.6c-1.7-0.6-3.9-0.1-5.6-0.7c0.4-1,1.3-3.2,1.7-4.1
	c-0.4-0.4-0.7-0.7-1-1.2c-1.7-2.6-1.7-6.2-0.1-8.9C282.7,127,283.8,125.9,284.7,124.8L284.7,124.8z"/>
<path class="st3" d="M284.7,126.2l9.2,6.6l-4.3,7.9l4,0.2l8.3-11.6l-11.4-10.9l-7.8-1.6l-2.6,3.2l1.8,7.2L284.7,126.2L284.7,126.2z"
	/>
<path class="st1" d="M171.4,156.3l1.2-2.2l-2.7-3.5l-2.9,0.6l-1.3,2.7l1.8,1.2l-0.2,0.6l0.5,0.9L171.4,156.3L171.4,156.3z
	 M249.7,134l-1.7-4.5l1.8-0.7l1.9,2.8l0.6-0.9l1.1,4l-1.8,1.2L249.7,134L249.7,134z"/>
<path class="st9" d="M290.6,148.3l-19.8,1.9L254.5,133l-3.5,2.4l13,22.7l26.6,4.5V148.3z"/>
<path class="st9" d="M274.4,141.9l13.4-1.3c0,0,10.8,12.5,16.1,30.9c5.2,18.4-6.4,44-6.4,44s-36.1-7.4-42.1-8.5l11.7-36.6
	L274.4,141.9L274.4,141.9z"/>
</svg>
