<?xml version="1.0" encoding="utf-8"?>
<!-- Generator: Adobe Illustrator 25.1.0, SVG Export Plug-In . SVG Version: 6.00 Build 0)  -->
<svg version="1.1" id="Layer_1" xmlns="http://www.w3.org/2000/svg" xmlns:xlink="http://www.w3.org/1999/xlink" x="0px" y="0px"
	 viewBox="0 0 356 310" style="enable-background:new 0 0 356 310;" xml:space="preserve">
<style type="text/css">
	.st0{opacity:0.855;fill-rule:evenodd;clip-rule:evenodd;fill:#E41A3E;enable-background:new    ;}
	.st1{opacity:0.374;}
	.st2{opacity:0.374;fill-rule:evenodd;clip-rule:evenodd;fill:#E41A3E;enable-background:new    ;}
	.st3{opacity:0.374;fill:#78C272;filter:url(#Adobe_OpacityMaskFilter);enable-background:new    ;}
	.st4{mask:url(#a_1_);}
</style>
<path class="st0" d="M199.1,0l-2.3,0.8v1.5h1.6v5.9h-1.6v2h5.3v-2h-1.6V0H199.1z M220,12.7c0,0.2,0.1,0.3,0.2,0.3h0.7
	c0.2,0,0.2-0.1,0.2-0.3V7c0-0.2-0.1-0.3-0.2-0.3h-0.7c-0.2,0-0.2,0.1-0.2,0.3V12.7L220,12.7z M218,6.6c0-0.6,0.1-1,0.4-1.3
	c0.2-0.3,0.7-0.4,1.4-0.4h1.5c0.7,0,1.2,0.1,1.5,0.4c0.2,0.3,0.4,0.7,0.4,1.3v6.6c0,0.6-0.1,1-0.4,1.3c-0.2,0.3-0.7,0.4-1.5,0.4
	h-1.5c-0.7,0-1.2-0.1-1.4-0.4c-0.3-0.3-0.4-0.7-0.4-1.3V6.6z M236.9,13.3c0,0.2,0.1,0.3,0.2,0.3h0.7c0.2,0,0.2-0.1,0.2-0.3V7.7
	c0-0.2-0.1-0.3-0.2-0.3h-0.7c-0.2,0-0.2,0.1-0.2,0.3V13.3L236.9,13.3z M234.9,7.2c0-0.6,0.1-1,0.4-1.3c0.2-0.3,0.7-0.4,1.4-0.4h1.5
	c0.7,0,1.2,0.1,1.5,0.4c0.2,0.3,0.4,0.7,0.4,1.3v6.6c0,0.6-0.1,1-0.4,1.3c-0.2,0.3-0.7,0.4-1.5,0.4h-1.5c-0.7,0-1.2-0.1-1.4-0.4
	c-0.3-0.3-0.4-0.7-0.4-1.3V7.2L234.9,7.2z M252.1,13.3c0,0.2,0.1,0.3,0.2,0.3h0.7c0.2,0,0.2-0.1,0.2-0.3V7.7c0-0.2-0.1-0.3-0.2-0.3
	h-0.7c-0.2,0-0.2,0.1-0.2,0.3C252.1,7.7,252.1,13.3,252.1,13.3z M250.1,7.2c0-0.6,0.1-1,0.4-1.3c0.2-0.3,0.7-0.4,1.4-0.4h1.5
	c0.7,0,1.2,0.1,1.5,0.4c0.2,0.3,0.4,0.7,0.4,1.3v6.6c0,0.6-0.1,1-0.4,1.3c-0.2,0.3-0.7,0.4-1.5,0.4h-1.5c-0.7,0-1.2-0.1-1.4-0.4
	c-0.3-0.3-0.4-0.7-0.4-1.3V7.2z M266.3,13.3c0,0.2,0.1,0.3,0.2,0.3h0.7c0.2,0,0.2-0.1,0.2-0.3V7.7c0-0.2-0.1-0.3-0.2-0.3h-0.7
	c-0.2,0-0.2,0.1-0.2,0.3C266.3,7.7,266.3,13.3,266.3,13.3z M264.3,7.2c0-0.6,0.1-1,0.4-1.3c0.2-0.3,0.7-0.4,1.4-0.4h1.5
	c0.7,0,1.2,0.1,1.5,0.4c0.2,0.3,0.4,0.7,0.4,1.3v6.6c0,0.6-0.1,1-0.4,1.3c-0.2,0.3-0.7,0.4-1.5,0.4h-1.5c-0.7,0-1.2-0.1-1.4-0.4
	c-0.3-0.3-0.4-0.7-0.4-1.3V7.2z M281.4,5.5v8.1h1.6v1.9h-5.1v-1.9h1.6V7.7h-1.6V6.2l2.2-0.8H281.4L281.4,5.5z M292.9,13.3
	c0,0.2,0.1,0.3,0.2,0.3h0.7c0.2,0,0.2-0.1,0.2-0.3V7.7c0-0.2-0.1-0.3-0.2-0.3h-0.7c-0.2,0-0.2,0.1-0.2,0.3
	C292.9,7.7,292.9,13.3,292.9,13.3z M290.9,7.2c0-0.6,0.1-1,0.4-1.3c0.2-0.3,0.7-0.4,1.4-0.4h1.5c0.7,0,1.2,0.1,1.5,0.4
	c0.2,0.3,0.4,0.7,0.4,1.3v6.6c0,0.6-0.1,1-0.4,1.3c-0.2,0.3-0.7,0.4-1.5,0.4h-1.5c-0.7,0-1.2-0.1-1.4-0.4c-0.3-0.3-0.4-0.7-0.4-1.3
	V7.2z M305.7,13.3c0,0.2,0.1,0.3,0.2,0.3h0.7c0.2,0,0.2-0.1,0.2-0.3V7.7c0-0.2-0.1-0.3-0.2-0.3H306c-0.2,0-0.2,0.1-0.2,0.3
	C305.7,7.7,305.7,13.3,305.7,13.3z M303.8,7.2c0-0.6,0.1-1,0.4-1.3c0.2-0.3,0.7-0.4,1.4-0.4h1.5c0.7,0,1.2,0.1,1.5,0.4
	c0.2,0.3,0.4,0.7,0.4,1.3v6.6c0,0.6-0.1,1-0.4,1.3c-0.2,0.3-0.7,0.4-1.5,0.4h-1.5c-0.7,0-1.2-0.1-1.4-0.4c-0.3-0.3-0.4-0.7-0.4-1.3
	V7.2z M331.2,13.3c0,0.2,0.1,0.3,0.2,0.3h0.7c0.2,0,0.2-0.1,0.2-0.3V7.7c0-0.2-0.1-0.3-0.2-0.3h-0.7c-0.2,0-0.2,0.1-0.2,0.3
	C331.2,7.7,331.2,13.3,331.2,13.3z M329.2,7.2c0-0.6,0.1-1,0.4-1.3c0.2-0.3,0.7-0.4,1.4-0.4h1.5c0.7,0,1.2,0.1,1.5,0.4
	c0.2,0.3,0.4,0.7,0.4,1.3v6.6c0,0.6-0.1,1-0.4,1.3c-0.2,0.3-0.7,0.4-1.5,0.4H331c-0.7,0-1.2-0.1-1.4-0.4c-0.3-0.3-0.4-0.7-0.4-1.3
	V7.2z M345.5,5.5v8.1h1.6v1.9H342v-1.9h1.6V7.7H342V6.2l2.2-0.8H345.5L345.5,5.5z M184,11v8.1h1.6V21h-5.1v-1.9h1.6v-5.8h-1.6v-1.5
	l2.2-0.8H184z M212.1,29.4c0,0.2,0.1,0.3,0.2,0.3h0.7c0.2,0,0.2-0.1,0.2-0.3v-5.6c0-0.2-0.1-0.3-0.2-0.3h-0.7
	c-0.2,0-0.2,0.1-0.2,0.3V29.4L212.1,29.4z M210.1,23.2c0-0.6,0.1-1,0.4-1.3c0.2-0.3,0.7-0.4,1.4-0.4h1.5c0.7,0,1.2,0.1,1.5,0.4
	c0.2,0.3,0.4,0.7,0.4,1.3v6.6c0,0.6-0.1,1-0.4,1.3c-0.2,0.3-0.7,0.4-1.5,0.4h-1.5c-0.7,0-1.2-0.1-1.4-0.4c-0.3-0.3-0.4-0.7-0.4-1.3
	C210.1,29.8,210.1,23.2,210.1,23.2z M232.4,30.5c0,0.2,0.1,0.3,0.2,0.3h0.7c0.2,0,0.2-0.1,0.2-0.3v-5.6c0-0.2-0.1-0.3-0.2-0.3h-0.7
	c-0.2,0-0.2,0.1-0.2,0.3V30.5z M230.5,24.3c0-0.6,0.1-1,0.4-1.3c0.2-0.3,0.7-0.4,1.4-0.4h1.5c0.7,0,1.2,0.1,1.5,0.4
	c0.2,0.3,0.4,0.7,0.4,1.3V31c0,0.6-0.1,1-0.4,1.3c-0.2,0.3-0.7,0.4-1.5,0.4h-1.5c-0.7,0-1.2-0.1-1.4-0.4c-0.3-0.3-0.4-0.7-0.4-1.3
	V24.3z M249.6,30.5c0,0.2,0.1,0.3,0.2,0.3h0.7c0.2,0,0.2-0.1,0.2-0.3v-5.6c0-0.2-0.1-0.3-0.2-0.3h-0.7c-0.2,0-0.2,0.1-0.2,0.3
	C249.6,24.8,249.6,30.5,249.6,30.5z M247.6,24.4c0-0.6,0.1-1,0.4-1.3c0.2-0.3,0.7-0.4,1.4-0.4h1.5c0.7,0,1.2,0.1,1.5,0.4
	c0.2,0.3,0.4,0.7,0.4,1.3V31c0,0.6-0.1,1-0.4,1.3c-0.2,0.3-0.7,0.4-1.5,0.4h-1.5c-0.7,0-1.2-0.1-1.4-0.4c-0.3-0.3-0.4-0.7-0.4-1.3
	C247.6,31,247.6,24.4,247.6,24.4z M266.6,22.7v8.1h1.6v1.9h-5.1v-1.9h1.6v-5.8h-1.6v-1.5l2.2-0.8H266.6z M280.8,22.7v8.1h1.6v1.9
	h-5.1v-1.9h1.6v-5.8h-1.6v-1.5l2.2-0.8H280.8L280.8,22.7z M292.7,30.5c0,0.2,0.1,0.3,0.2,0.3h0.7c0.2,0,0.2-0.1,0.2-0.3v-5.6
	c0-0.2-0.1-0.3-0.2-0.3h-0.7c-0.2,0-0.2,0.1-0.2,0.3C292.7,24.8,292.7,30.5,292.7,30.5z M290.7,24.4c0-0.6,0.1-1,0.4-1.3
	c0.2-0.3,0.7-0.4,1.4-0.4h1.5c0.7,0,1.2,0.1,1.5,0.4c0.2,0.3,0.4,0.7,0.4,1.3V31c0,0.6-0.1,1-0.4,1.3c-0.2,0.3-0.7,0.4-1.5,0.4h-1.5
	c-0.7,0-1.2-0.1-1.4-0.4c-0.3-0.3-0.4-0.7-0.4-1.3C290.7,31,290.7,24.4,290.7,24.4z M305.7,30.5c0,0.2,0.1,0.3,0.2,0.3h0.7
	c0.2,0,0.2-0.1,0.2-0.3v-5.6c0-0.2-0.1-0.3-0.2-0.3h-0.7c-0.2,0-0.2,0.1-0.2,0.3C305.7,24.8,305.7,30.5,305.7,30.5z M303.7,24.4
	c0-0.6,0.1-1,0.4-1.3c0.2-0.3,0.7-0.4,1.4-0.4h1.5c0.7,0,1.2,0.1,1.5,0.4c0.2,0.3,0.4,0.7,0.4,1.3V31c0,0.6-0.1,1-0.4,1.3
	c-0.2,0.3-0.7,0.4-1.5,0.4h-1.5c-0.7,0-1.2-0.1-1.4-0.4c-0.3-0.3-0.4-0.7-0.4-1.3C303.7,31,303.7,24.4,303.7,24.4z M331.2,30.5
	c0,0.2,0.1,0.3,0.2,0.3h0.7c0.2,0,0.2-0.1,0.2-0.3v-5.6c0-0.2-0.1-0.3-0.2-0.3h-0.7c-0.2,0-0.2,0.1-0.2,0.3
	C331.2,24.8,331.2,30.5,331.2,30.5z M329.2,24.4c0-0.6,0.1-1,0.4-1.3c0.2-0.3,0.7-0.4,1.4-0.4h1.5c0.7,0,1.2,0.1,1.5,0.4
	c0.2,0.3,0.4,0.7,0.4,1.3V31c0,0.6-0.1,1-0.4,1.3c-0.2,0.3-0.7,0.4-1.5,0.4H331c-0.7,0-1.2-0.1-1.4-0.4c-0.3-0.3-0.4-0.7-0.4-1.3
	C329.2,31,329.2,24.4,329.2,24.4z M345.5,22.7v8.1h1.6v1.9H342v-1.9h1.6v-5.8H342v-1.5l2.2-0.8H345.5L345.5,22.7z M156.2,28.9
	c0,0.2,0.1,0.3,0.2,0.3h0.7c0.2,0,0.2-0.1,0.2-0.3v-5.6c0-0.2-0.1-0.3-0.2-0.3h-0.7c-0.2,0-0.2,0.1-0.2,0.3V28.9z M154.2,22.8
	c0-0.6,0.1-1,0.4-1.3c0.2-0.3,0.7-0.4,1.4-0.4h1.5c0.7,0,1.2,0.1,1.5,0.4c0.2,0.3,0.4,0.7,0.4,1.3v6.6c0,0.6-0.1,1-0.4,1.3
	c-0.2,0.3-0.7,0.4-1.5,0.4H156c-0.7,0-1.2-0.1-1.4-0.4c-0.3-0.3-0.4-0.7-0.4-1.3V22.8z M200.9,38v8.1h1.6V48h-5.1v-1.9h1.6v-5.8
	h-1.6v-1.5l2.2-0.8C199.5,38,200.9,38,200.9,38z M227.2,39.8v8.1h1.6v1.9h-5.1v-1.9h1.6v-5.8h-1.6v-1.5l2.2-0.8H227.2z M246,47.7
	c0,0.2,0.1,0.3,0.2,0.3h0.7c0.2,0,0.2-0.1,0.2-0.3V42c0-0.2-0.1-0.3-0.2-0.3h-0.7c-0.2,0-0.2,0.1-0.2,0.3V47.7z M244,41.5
	c0-0.6,0.1-1,0.4-1.3c0.2-0.3,0.7-0.4,1.4-0.4h1.5c0.7,0,1.2,0.1,1.5,0.4c0.2,0.3,0.4,0.7,0.4,1.3v6.6c0,0.6-0.1,1-0.4,1.3
	c-0.2,0.3-0.7,0.4-1.5,0.4h-1.5c-0.7,0-1.2-0.1-1.4-0.4c-0.3-0.3-0.4-0.7-0.4-1.3V41.5L244,41.5z M264.8,39.8v8.1h1.6v1.9h-5.1v-1.9
	h1.6v-5.8h-1.6v-1.5l2.2-0.8H264.8z M279.9,39.8v8.1h1.6v1.9h-5.1v-1.9h1.6v-5.8h-1.6v-1.5l2.2-0.8H279.9L279.9,39.8z M292.3,47.7
	c0,0.2,0.1,0.3,0.2,0.3h0.7c0.2,0,0.2-0.1,0.2-0.3V42c0-0.2-0.1-0.3-0.2-0.3h-0.7c-0.2,0-0.2,0.1-0.2,0.3V47.7z M290.3,41.5
	c0-0.6,0.1-1,0.4-1.3c0.2-0.3,0.7-0.4,1.4-0.4h1.5c0.7,0,1.2,0.1,1.5,0.4c0.2,0.3,0.4,0.7,0.4,1.3v6.6c0,0.6-0.1,1-0.4,1.3
	c-0.2,0.3-0.7,0.4-1.5,0.4h-1.5c-0.7,0-1.2-0.1-1.4-0.4c-0.3-0.3-0.4-0.7-0.4-1.3V41.5L290.3,41.5z M307.2,39.8v8.1h1.6v1.9h-5.1
	v-1.9h1.6v-5.8h-1.6v-1.5l2.2-0.8H307.2z M331.2,47.7c0,0.2,0.1,0.3,0.2,0.3h0.7c0.2,0,0.2-0.1,0.2-0.3V42c0-0.2-0.1-0.3-0.2-0.3
	h-0.7c-0.2,0-0.2,0.1-0.2,0.3V47.7z M329.2,41.5c0-0.6,0.1-1,0.4-1.3c0.2-0.3,0.7-0.4,1.4-0.4h1.5c0.7,0,1.2,0.1,1.5,0.4
	c0.2,0.3,0.4,0.7,0.4,1.3v6.6c0,0.6-0.1,1-0.4,1.3c-0.2,0.3-0.7,0.4-1.5,0.4H331c-0.7,0-1.2-0.1-1.4-0.4c-0.3-0.3-0.4-0.7-0.4-1.3
	V41.5L329.2,41.5z M343.9,47.7c0,0.2,0.1,0.3,0.2,0.3h0.7c0.2,0,0.2-0.1,0.2-0.3V42c0-0.2-0.1-0.3-0.2-0.3h-0.7
	c-0.2,0-0.2,0.1-0.2,0.3V47.7z M342,41.5c0-0.6,0.1-1,0.4-1.3c0.2-0.3,0.7-0.4,1.4-0.4h1.5c0.7,0,1.2,0.1,1.5,0.4
	c0.2,0.3,0.4,0.7,0.4,1.3v6.6c0,0.6-0.1,1-0.4,1.3c-0.2,0.3-0.7,0.4-1.5,0.4h-1.5c-0.7,0-1.2-0.1-1.4-0.4c-0.3-0.3-0.4-0.7-0.4-1.3
	V41.5L342,41.5z M130.6,53.1v8.1h1.6v1.9h-5.1v-1.9h1.6v-5.8h-1.6v-1.5l2.2-0.8C129.3,53.1,130.6,53.1,130.6,53.1z M180.2,54.6v8.1
	h1.6v1.9h-5.1v-1.9h1.6v-5.8h-1.6v-1.5l2.2-0.8C178.9,54.6,180.2,54.6,180.2,54.6z M217.3,57v8.1h1.6V67h-5.1v-1.9h1.6v-5.8h-1.6
	v-1.5l2.2-0.8C215.9,57,217.3,57,217.3,57z M241,64.8c0,0.2,0.1,0.3,0.2,0.3h0.7c0.2,0,0.2-0.1,0.2-0.3v-5.6c0-0.2-0.1-0.3-0.2-0.3
	h-0.7c-0.2,0-0.2,0.1-0.2,0.3V64.8z M239,58.7c0-0.6,0.1-1,0.4-1.3c0.2-0.3,0.7-0.4,1.4-0.4h1.5c0.7,0,1.2,0.1,1.5,0.4
	c0.2,0.3,0.4,0.7,0.4,1.3v6.6c0,0.6-0.1,1-0.4,1.3c-0.2,0.3-0.7,0.4-1.5,0.4h-1.5c-0.7,0-1.2-0.1-1.4-0.4c-0.3-0.3-0.4-0.7-0.4-1.3
	V58.7L239,58.7z M262.3,57v8.1h1.6V67h-5.1v-1.9h1.6v-5.8h-1.6v-1.5l2.2-0.8H262.3z M278.8,57v8.1h1.6V67h-5.1v-1.9h1.6v-5.8h-1.6
	v-1.5l2.2-0.8H278.8z M293.4,57v8.1h1.6V67h-5.1v-1.9h1.6v-5.8h-1.6v-1.5L292,57H293.4z M305.4,64.8c0,0.2,0.1,0.3,0.2,0.3h0.7
	c0.2,0,0.2-0.1,0.2-0.3v-5.6c0-0.2-0.1-0.3-0.2-0.3h-0.7c-0.2,0-0.2,0.1-0.2,0.3V64.8z M303.4,58.7c0-0.6,0.1-1,0.4-1.3
	c0.2-0.3,0.7-0.4,1.4-0.4h1.5c0.7,0,1.2,0.1,1.5,0.4c0.2,0.3,0.4,0.7,0.4,1.3v6.6c0,0.6-0.1,1-0.4,1.3c-0.2,0.3-0.7,0.4-1.5,0.4
	h-1.5c-0.7,0-1.2-0.1-1.4-0.4c-0.3-0.3-0.4-0.7-0.4-1.3V58.7L303.4,58.7z M332.8,57v8.1h1.6V67h-5.1v-1.9h1.6v-5.8h-1.6v-1.5
	l2.2-0.8H332.8z M343.9,64.8c0,0.2,0.1,0.3,0.2,0.3h0.7c0.2,0,0.2-0.1,0.2-0.3v-5.6c0-0.2-0.1-0.3-0.2-0.3h-0.7
	c-0.2,0-0.2,0.1-0.2,0.3V64.8z M342,58.7c0-0.6,0.1-1,0.4-1.3c0.2-0.3,0.7-0.4,1.4-0.4h1.5c0.7,0,1.2,0.1,1.5,0.4
	c0.2,0.3,0.4,0.7,0.4,1.3v6.6c0,0.6-0.1,1-0.4,1.3c-0.2,0.3-0.7,0.4-1.5,0.4h-1.5c-0.7,0-1.2-0.1-1.4-0.4c-0.3-0.3-0.4-0.7-0.4-1.3
	V58.7L342,58.7z M81.1,82c0,0.2,0.1,0.3,0.2,0.3H82c0.2,0,0.2-0.1,0.2-0.3v-5.6c0-0.2-0.1-0.3-0.2-0.3h-0.7c-0.2,0-0.2,0.1-0.2,0.3
	L81.1,82L81.1,82z M79.1,75.9c0-0.6,0.1-1,0.4-1.3c0.2-0.3,0.7-0.4,1.4-0.4h1.5c0.7,0,1.2,0.1,1.5,0.4s0.4,0.7,0.4,1.3v6.6
	c0,0.6-0.1,1-0.4,1.3c-0.2,0.3-0.7,0.4-1.5,0.4h-1.5c-0.7,0-1.2-0.1-1.4-0.4c-0.3-0.3-0.4-0.7-0.4-1.3V75.9z M144.9,81.1
	c0,0.2,0.1,0.3,0.2,0.3h0.7c0.2,0,0.2-0.1,0.2-0.3v-5.6c0-0.2-0.1-0.3-0.2-0.3h-0.7c-0.2,0-0.2,0.1-0.2,0.3V81.1z M143,75
	c0-0.6,0.1-1,0.4-1.3c0.2-0.3,0.7-0.4,1.4-0.4h1.5c0.7,0,1.2,0.1,1.5,0.4c0.2,0.3,0.4,0.7,0.4,1.3v6.6c0,0.6-0.1,1-0.4,1.3
	c-0.2,0.3-0.7,0.4-1.5,0.4h-1.5c-0.7,0-1.2-0.1-1.4-0.4c-0.3-0.3-0.4-0.7-0.4-1.3C143,81.6,143,75,143,75z M201.8,82
	c0,0.2,0.1,0.3,0.2,0.3h0.7c0.2,0,0.2-0.1,0.2-0.3v-5.6c0-0.2-0.1-0.3-0.2-0.3H202c-0.2,0-0.2,0.1-0.2,0.3V82z M199.8,75.9
	c0-0.6,0.1-1,0.4-1.3c0.2-0.3,0.7-0.4,1.4-0.4h1.5c0.7,0,1.2,0.1,1.5,0.4c0.2,0.3,0.4,0.7,0.4,1.3v6.6c0,0.6-0.1,1-0.4,1.3
	c-0.2,0.3-0.7,0.4-1.5,0.4h-1.5c-0.7,0-1.2-0.1-1.4-0.4c-0.3-0.3-0.4-0.7-0.4-1.3V75.9z M236.6,74.2v8.1h1.6v1.9H233v-1.9h1.6v-5.8
	H233V75l2.2-0.8H236.6L236.6,74.2z M259.5,74.2v8.1h1.6v1.9h-5.1v-1.9h1.6v-5.8h-1.6V75l2.2-0.8H259.5z M275.8,82
	c0,0.2,0.1,0.3,0.2,0.3h0.7c0.2,0,0.2-0.1,0.2-0.3v-5.6c0-0.2-0.1-0.3-0.2-0.3H276c-0.2,0-0.2,0.1-0.2,0.3V82z M273.8,75.9
	c0-0.6,0.1-1,0.4-1.3c0.2-0.3,0.7-0.4,1.4-0.4h1.5c0.7,0,1.2,0.1,1.5,0.4c0.2,0.3,0.4,0.7,0.4,1.3v6.6c0,0.6-0.1,1-0.4,1.3
	c-0.2,0.3-0.7,0.4-1.5,0.4h-1.5c-0.7,0-1.2-0.1-1.4-0.4c-0.3-0.3-0.4-0.7-0.4-1.3V75.9z M292.8,74.2v8.1h1.6v1.9h-5.1v-1.9h1.6v-5.8
	h-1.6V75l2.2-0.8H292.8z M306.8,74.2v8.1h1.6v1.9h-5.1v-1.9h1.6v-5.8h-1.6V75l2.2-0.8H306.8z M331.2,82c0,0.2,0.1,0.3,0.2,0.3h0.7
	c0.2,0,0.2-0.1,0.2-0.3v-5.6c0-0.2-0.1-0.3-0.2-0.3h-0.7c-0.2,0-0.2,0.1-0.2,0.3V82z M329.2,75.9c0-0.6,0.1-1,0.4-1.3
	c0.2-0.3,0.7-0.4,1.4-0.4h1.5c0.7,0,1.2,0.1,1.5,0.4c0.2,0.3,0.4,0.7,0.4,1.3v6.6c0,0.6-0.1,1-0.4,1.3c-0.2,0.3-0.7,0.4-1.5,0.4H331
	c-0.7,0-1.2-0.1-1.4-0.4c-0.3-0.3-0.4-0.7-0.4-1.3V75.9z M343.9,82c0,0.2,0.1,0.3,0.2,0.3h0.7c0.2,0,0.2-0.1,0.2-0.3v-5.6
	c0-0.2-0.1-0.3-0.2-0.3h-0.7c-0.2,0-0.2,0.1-0.2,0.3V82z M342,75.9c0-0.6,0.1-1,0.4-1.3c0.2-0.3,0.7-0.4,1.4-0.4h1.5
	c0.7,0,1.2,0.1,1.5,0.4c0.2,0.3,0.4,0.7,0.4,1.3v6.6c0,0.6-0.1,1-0.4,1.3c-0.2,0.3-0.7,0.4-1.5,0.4h-1.5c-0.7,0-1.2-0.1-1.4-0.4
	c-0.3-0.3-0.4-0.7-0.4-1.3V75.9z M50.5,99.2c0,0.2,0.1,0.3,0.2,0.3h0.7c0.2,0,0.2-0.1,0.2-0.3v-5.6c0-0.2-0.1-0.3-0.2-0.3h-0.7
	c-0.2,0-0.2,0.1-0.2,0.3V99.2z M48.5,93.1c0-0.6,0.1-1,0.4-1.3c0.2-0.3,0.7-0.4,1.4-0.4h1.5c0.7,0,1.2,0.1,1.5,0.4
	c0.2,0.3,0.4,0.7,0.4,1.3v6.6c0,0.6-0.1,1-0.4,1.3c-0.2,0.3-0.7,0.4-1.5,0.4h-1.5c-0.7,0-1.2-0.1-1.4-0.4c-0.3-0.3-0.4-0.7-0.4-1.3
	L48.5,93.1L48.5,93.1z M94.6,91.4v8.1h1.6v1.9H91v-1.9h1.6v-5.8H91v-1.5l2.2-0.8H94.6z M184,99.2c0,0.2,0.1,0.3,0.2,0.3h0.7
	c0.2,0,0.2-0.1,0.2-0.3v-5.6c0-0.2-0.1-0.3-0.2-0.3h-0.7c-0.2,0-0.2,0.1-0.2,0.3V99.2z M182,93.1c0-0.6,0.1-1,0.4-1.3
	c0.2-0.3,0.7-0.4,1.4-0.4h1.5c0.7,0,1.2,0.1,1.5,0.4c0.2,0.3,0.4,0.7,0.4,1.3v6.6c0,0.6-0.1,1-0.4,1.3c-0.2,0.3-0.7,0.4-1.5,0.4
	h-1.5c-0.7,0-1.2-0.1-1.4-0.4c-0.3-0.3-0.4-0.7-0.4-1.3V93.1z M230.1,91.4v8.1h1.6v1.9h-5.1v-1.9h1.6v-5.8h-1.6v-1.5l2.2-0.8H230.1z
	 M255,99.2c0,0.2,0.1,0.3,0.2,0.3h0.7c0.2,0,0.2-0.1,0.2-0.3v-5.6c0-0.2-0.1-0.3-0.2-0.3h-0.7c-0.2,0-0.2,0.1-0.2,0.3V99.2z
	 M253.1,93.1c0-0.6,0.1-1,0.4-1.3c0.2-0.3,0.7-0.4,1.4-0.4h1.5c0.7,0,1.2,0.1,1.5,0.4c0.2,0.3,0.4,0.7,0.4,1.3v6.6
	c0,0.6-0.1,1-0.4,1.3c-0.2,0.3-0.7,0.4-1.5,0.4h-1.5c-0.7,0-1.2-0.1-1.4-0.4c-0.3-0.3-0.4-0.7-0.4-1.3V93.1L253.1,93.1z M274.5,99.2
	c0,0.2,0.1,0.3,0.2,0.3h0.7c0.2,0,0.2-0.1,0.2-0.3v-5.6c0-0.2-0.1-0.3-0.2-0.3h-0.7c-0.2,0-0.2,0.1-0.2,0.3V99.2z M272.5,93.1
	c0-0.6,0.1-1,0.4-1.3c0.2-0.3,0.7-0.4,1.4-0.4h1.5c0.7,0,1.2,0.1,1.5,0.4c0.2,0.3,0.4,0.7,0.4,1.3v6.6c0,0.6-0.1,1-0.4,1.3
	c-0.2,0.3-0.7,0.4-1.5,0.4h-1.5c-0.7,0-1.2-0.1-1.4-0.4c-0.3-0.3-0.4-0.7-0.4-1.3V93.1L272.5,93.1z M292.2,91.4v8.1h1.6v1.9h-5.1
	v-1.9h1.6v-5.8h-1.6v-1.5l2.2-0.8H292.2z M306.5,91.4v8.1h1.6v1.9H303v-1.9h1.6v-5.8H303v-1.5l2.2-0.8H306.5z M332.8,91.4v8.1h1.6
	v1.9h-5.1v-1.9h1.6v-5.8h-1.6v-1.5l2.2-0.8H332.8z M345.5,91.4v8.1h1.6v1.9H342v-1.9h1.6v-5.8H342v-1.5l2.2-0.8H345.5L345.5,91.4z
	 M36.7,116.4c0,0.2,0.1,0.3,0.2,0.3h0.7c0.2,0,0.2-0.1,0.2-0.3v-5.6c0-0.2-0.1-0.3-0.2-0.3H37c-0.2,0-0.2,0.1-0.2,0.3V116.4z
	 M34.7,110.3c0-0.6,0.1-1,0.4-1.3c0.2-0.3,0.7-0.4,1.4-0.4h1.5c0.7,0,1.2,0.1,1.5,0.4c0.2,0.3,0.4,0.7,0.4,1.3v6.6
	c0,0.6-0.1,1-0.4,1.3c-0.2,0.3-0.7,0.4-1.5,0.4h-1.5c-0.7,0-1.2-0.1-1.4-0.4c-0.3-0.3-0.4-0.7-0.4-1.3V110.3z M62.6,108.6v8.1h1.6
	v1.9H59v-1.9h1.6v-5.8H59v-1.5l2.2-0.8C61.2,108.6,62.6,108.6,62.6,108.6z M165.6,116.4c0,0.2,0.1,0.3,0.2,0.3h0.7
	c0.2,0,0.2-0.1,0.2-0.3v-5.6c0-0.2-0.1-0.3-0.2-0.3h-0.7c-0.2,0-0.2,0.1-0.2,0.3V116.4z M163.6,110.3c0-0.6,0.1-1,0.4-1.3
	c0.2-0.3,0.7-0.4,1.4-0.4h1.5c0.7,0,1.2,0.1,1.5,0.4c0.2,0.3,0.4,0.7,0.4,1.3v6.6c0,0.6-0.1,1-0.4,1.3c-0.2,0.3-0.7,0.4-1.5,0.4
	h-1.5c-0.7,0-1.2-0.1-1.4-0.4c-0.3-0.3-0.4-0.7-0.4-1.3V110.3z M223.2,116.4c0,0.2,0.1,0.3,0.2,0.3h0.7c0.2,0,0.2-0.1,0.2-0.3v-5.6
	c0-0.2-0.1-0.3-0.2-0.3h-0.7c-0.2,0-0.2,0.1-0.2,0.3V116.4z M221.2,110.3c0-0.6,0.1-1,0.4-1.3c0.2-0.3,0.7-0.4,1.4-0.4h1.5
	c0.7,0,1.2,0.1,1.5,0.4c0.2,0.3,0.4,0.7,0.4,1.3v6.6c0,0.6-0.1,1-0.4,1.3c-0.2,0.3-0.7,0.4-1.5,0.4H223c-0.7,0-1.2-0.1-1.4-0.4
	c-0.3-0.3-0.4-0.7-0.4-1.3V110.3z M252.9,116.4c0,0.2,0.1,0.3,0.2,0.3h0.7c0.2,0,0.2-0.1,0.2-0.3v-5.6c0-0.2-0.1-0.3-0.2-0.3h-0.7
	c-0.2,0-0.2,0.1-0.2,0.3V116.4z M251,110.3c0-0.6,0.1-1,0.4-1.3c0.2-0.3,0.7-0.4,1.4-0.4h1.5c0.7,0,1.2,0.1,1.5,0.4
	c0.2,0.3,0.4,0.7,0.4,1.3v6.6c0,0.6-0.1,1-0.4,1.3c-0.2,0.3-0.7,0.4-1.5,0.4h-1.5c-0.7,0-1.2-0.1-1.4-0.4c-0.3-0.3-0.4-0.7-0.4-1.3
	V110.3z M275.2,108.6v8.1h1.6v1.9h-5.1v-1.9h1.6v-5.8h-1.6v-1.5l2.2-0.8H275.2z M291.8,108.6v8.1h1.6v1.9h-5.1v-1.9h1.6v-5.8h-1.6
	v-1.5l2.2-0.8H291.8z M304.8,116.4c0,0.2,0.1,0.3,0.2,0.3h0.7c0.2,0,0.2-0.1,0.2-0.3v-5.6c0-0.2-0.1-0.3-0.2-0.3H305
	c-0.2,0-0.2,0.1-0.2,0.3V116.4z M302.8,110.3c0-0.6,0.1-1,0.4-1.3c0.2-0.3,0.7-0.4,1.4-0.4h1.5c0.7,0,1.2,0.1,1.5,0.4
	c0.2,0.3,0.4,0.7,0.4,1.3v6.6c0,0.6-0.1,1-0.4,1.3c-0.2,0.3-0.7,0.4-1.5,0.4h-1.5c-0.7,0-1.2-0.1-1.4-0.4c-0.3-0.3-0.4-0.7-0.4-1.3
	V110.3z M331.2,116.4c0,0.2,0.1,0.3,0.2,0.3h0.7c0.2,0,0.2-0.1,0.2-0.3v-5.6c0-0.2-0.1-0.3-0.2-0.3h-0.7c-0.2,0-0.2,0.1-0.2,0.3
	V116.4z M329.2,110.3c0-0.6,0.1-1,0.4-1.3c0.2-0.3,0.7-0.4,1.4-0.4h1.5c0.7,0,1.2,0.1,1.5,0.4c0.2,0.3,0.4,0.7,0.4,1.3v6.6
	c0,0.6-0.1,1-0.4,1.3c-0.2,0.3-0.7,0.4-1.5,0.4H331c-0.7,0-1.2-0.1-1.4-0.4c-0.3-0.3-0.4-0.7-0.4-1.3V110.3z M345.5,108.6v8.1h1.6
	v1.9H342v-1.9h1.6v-5.8H342v-1.5l2.2-0.8H345.5L345.5,108.6z M31.9,133.6c0,0.2,0.1,0.3,0.2,0.3h0.7c0.2,0,0.2-0.1,0.2-0.3v-5.6
	c0-0.2-0.1-0.3-0.2-0.3h-0.7c-0.2,0-0.2,0.1-0.2,0.3V133.6z M29.9,127.4c0-0.6,0.1-1,0.4-1.3c0.2-0.3,0.7-0.4,1.4-0.4h1.5
	c0.7,0,1.2,0.1,1.5,0.4c0.2,0.3,0.4,0.7,0.4,1.3v6.6c0,0.6-0.1,1-0.4,1.3c-0.2,0.3-0.7,0.4-1.5,0.4h-1.5c-0.7,0-1.2-0.1-1.4-0.4
	c-0.3-0.3-0.4-0.7-0.4-1.3V127.4z M52.4,125.7v8.1H54v1.9h-5.1v-1.9h1.6V128h-1.6v-1.5l2.2-0.8H52.4L52.4,125.7z M158.6,125.7v8.1
	h1.6v1.9h-5.1v-1.9h1.6V128h-1.6v-1.5l2.2-0.8H158.6z M221.1,133.6c0,0.2,0.1,0.3,0.2,0.3h0.7c0.2,0,0.2-0.1,0.2-0.3v-5.6
	c0-0.2-0.1-0.3-0.2-0.3h-0.7c-0.2,0-0.2,0.1-0.2,0.3V133.6z M219.1,127.4c0-0.6,0.1-1,0.4-1.3c0.2-0.3,0.7-0.4,1.4-0.4h1.5
	c0.7,0,1.2,0.1,1.5,0.4c0.2,0.3,0.4,0.7,0.4,1.3v6.6c0,0.6-0.1,1-0.4,1.3c-0.2,0.3-0.7,0.4-1.5,0.4h-1.5c-0.7,0-1.2-0.1-1.4-0.4
	c-0.3-0.3-0.4-0.7-0.4-1.3V127.4z M252.2,133.6c0,0.2,0.1,0.3,0.2,0.3h0.7c0.2,0,0.2-0.1,0.2-0.3v-5.6c0-0.2-0.1-0.3-0.2-0.3h-0.7
	c-0.2,0-0.2,0.1-0.2,0.3V133.6z M250.2,127.4c0-0.6,0.1-1,0.4-1.3c0.2-0.3,0.7-0.4,1.4-0.4h1.5c0.7,0,1.2,0.1,1.5,0.4
	c0.2,0.3,0.4,0.7,0.4,1.3v6.6c0,0.6-0.1,1-0.4,1.3c-0.2,0.3-0.7,0.4-1.5,0.4H252c-0.7,0-1.2-0.1-1.4-0.4c-0.3-0.3-0.4-0.7-0.4-1.3
	V127.4z M274.9,125.7v8.1h1.6v1.9h-5.1v-1.9h1.6V128h-1.6v-1.5l2.2-0.8H274.9L274.9,125.7z M290.1,133.6c0,0.2,0.1,0.3,0.2,0.3h0.7
	c0.2,0,0.2-0.1,0.2-0.3v-5.6c0-0.2-0.1-0.3-0.2-0.3h-0.7c-0.2,0-0.2,0.1-0.2,0.3V133.6z M288.1,127.4c0-0.6,0.1-1,0.4-1.3
	c0.2-0.3,0.7-0.4,1.4-0.4h1.5c0.7,0,1.2,0.1,1.5,0.4c0.2,0.3,0.4,0.7,0.4,1.3v6.6c0,0.6-0.1,1-0.4,1.3c-0.2,0.3-0.7,0.4-1.5,0.4
	h-1.5c-0.7,0-1.2-0.1-1.4-0.4c-0.3-0.3-0.4-0.7-0.4-1.3V127.4z M306.3,125.7v8.1h1.6v1.9h-5.1v-1.9h1.6V128h-1.6v-1.5l2.2-0.8H306.3
	L306.3,125.7z M331.2,133.6c0,0.2,0.1,0.3,0.2,0.3h0.7c0.2,0,0.2-0.1,0.2-0.3v-5.6c0-0.2-0.1-0.3-0.2-0.3h-0.7
	c-0.2,0-0.2,0.1-0.2,0.3V133.6z M329.2,127.4c0-0.6,0.1-1,0.4-1.3c0.2-0.3,0.7-0.4,1.4-0.4h1.5c0.7,0,1.2,0.1,1.5,0.4
	c0.2,0.3,0.4,0.7,0.4,1.3v6.6c0,0.6-0.1,1-0.4,1.3c-0.2,0.3-0.7,0.4-1.5,0.4H331c-0.7,0-1.2-0.1-1.4-0.4c-0.3-0.3-0.4-0.7-0.4-1.3
	V127.4z M345.5,125.7v8.1h1.6v1.9H342v-1.9h1.6V128H342v-1.5l2.2-0.8H345.5L345.5,125.7z M38.4,142.9v8.1H40v1.9h-5.1V151h1.6v-5.8
	h-1.6v-1.5l2.2-0.8L38.4,142.9L38.4,142.9z M61,150.8c0,0.2,0.1,0.3,0.2,0.3h0.7c0.2,0,0.2-0.1,0.2-0.3v-5.6c0-0.2-0.1-0.3-0.2-0.3
	h-0.7c-0.2,0-0.2,0.1-0.2,0.3V150.8z M59,144.6c0-0.6,0.1-1,0.4-1.3c0.2-0.3,0.7-0.4,1.4-0.4h1.5c0.7,0,1.2,0.1,1.5,0.4
	c0.2,0.3,0.4,0.7,0.4,1.3v6.6c0,0.6-0.1,1-0.4,1.3c-0.2,0.3-0.7,0.4-1.5,0.4h-1.5c-0.7,0-1.2-0.1-1.4-0.4c-0.3-0.3-0.4-0.7-0.4-1.3
	V144.6z M167.5,142.9v8.1h1.6v1.9h-5.1V151h1.6v-5.8h-1.6v-1.5l2.2-0.8L167.5,142.9L167.5,142.9z M224.9,142.9v8.1h1.6v1.9h-5.1V151
	h1.6v-5.8h-1.6v-1.5l2.2-0.8L224.9,142.9L224.9,142.9z M254.6,142.9v8.1h1.6v1.9H251V151h1.6v-5.8H251v-1.5l2.2-0.8L254.6,142.9
	L254.6,142.9z M275.2,142.9v8.1h1.6v1.9h-5.1V151h1.6v-5.8h-1.6v-1.5l2.2-0.8L275.2,142.9L275.2,142.9z M291.8,142.9v8.1h1.6v1.9
	h-5.1V151h1.6v-5.8h-1.6v-1.5l2.2-0.8L291.8,142.9L291.8,142.9z M306.4,142.9v8.1h1.6v1.9h-5.1V151h1.6v-5.8h-1.6v-1.5l2.2-0.8
	L306.4,142.9L306.4,142.9z M331.2,150.8c0,0.2,0.1,0.3,0.2,0.3h0.7c0.2,0,0.2-0.1,0.2-0.3v-5.6c0-0.2-0.1-0.3-0.2-0.3h-0.7
	c-0.2,0-0.2,0.1-0.2,0.3V150.8z M329.2,144.6c0-0.6,0.1-1,0.4-1.3c0.2-0.3,0.7-0.4,1.4-0.4h1.5c0.7,0,1.2,0.1,1.5,0.4
	c0.2,0.3,0.4,0.7,0.4,1.3v6.6c0,0.6-0.1,1-0.4,1.3c-0.2,0.3-0.7,0.4-1.5,0.4H331c-0.7,0-1.2-0.1-1.4-0.4c-0.3-0.3-0.4-0.7-0.4-1.3
	V144.6z M343.9,150.8c0,0.2,0.1,0.3,0.2,0.3h0.7c0.2,0,0.2-0.1,0.2-0.3v-5.6c0-0.2-0.1-0.3-0.2-0.3h-0.7c-0.2,0-0.2,0.1-0.2,0.3
	V150.8z M342,144.6c0-0.6,0.1-1,0.4-1.3c0.2-0.3,0.7-0.4,1.4-0.4h1.5c0.7,0,1.2,0.1,1.5,0.4c0.2,0.3,0.4,0.7,0.4,1.3v6.6
	c0,0.6-0.1,1-0.4,1.3c-0.2,0.3-0.7,0.4-1.5,0.4h-1.5c-0.7,0-1.2-0.1-1.4-0.4c-0.3-0.3-0.4-0.7-0.4-1.3V144.6z M50.6,168
	c0,0.2,0.1,0.3,0.2,0.3h0.7c0.2,0,0.2-0.1,0.2-0.3v-5.6c0-0.2-0.1-0.3-0.2-0.3h-0.7c-0.2,0-0.2,0.1-0.2,0.3V168z M48.6,161.9
	c0-0.6,0.1-1,0.4-1.3c0.2-0.3,0.7-0.4,1.4-0.4h1.5c0.7,0,1.2,0.1,1.5,0.4c0.2,0.3,0.4,0.7,0.4,1.3v6.6c0,0.6-0.1,1-0.4,1.3
	c-0.2,0.3-0.7,0.4-1.5,0.4h-1.5c-0.7,0-1.2-0.1-1.4-0.4c-0.3-0.3-0.4-0.7-0.4-1.3V161.9z M93.2,161.2v8.1h1.6v1.9h-5.1v-1.9h1.6
	v-5.8h-1.6V162l2.2-0.8H93.2z M184.1,167.9c0,0.2,0.1,0.3,0.2,0.3h0.7c0.2,0,0.2-0.1,0.2-0.3v-5.6c0-0.2-0.1-0.3-0.2-0.3h-0.7
	c-0.2,0-0.2,0.1-0.2,0.3V167.9z M182.1,161.8c0-0.6,0.1-1,0.4-1.3c0.2-0.3,0.7-0.4,1.4-0.4h1.5c0.7,0,1.2,0.1,1.5,0.4
	c0.2,0.3,0.4,0.7,0.4,1.3v6.6c0,0.6-0.1,1-0.4,1.3c-0.2,0.3-0.7,0.4-1.5,0.4h-1.5c-0.7,0-1.2-0.1-1.4-0.4c-0.3-0.3-0.4-0.7-0.4-1.3
	V161.8z M228.5,167.9c0,0.2,0.1,0.3,0.2,0.3h0.7c0.2,0,0.2-0.1,0.2-0.3v-5.6c0-0.2-0.1-0.3-0.2-0.3h-0.7c-0.2,0-0.2,0.1-0.2,0.3
	V167.9z M226.5,161.8c0-0.6,0.1-1,0.4-1.3c0.2-0.3,0.7-0.4,1.4-0.4h1.5c0.7,0,1.2,0.1,1.5,0.4c0.2,0.3,0.4,0.7,0.4,1.3v6.6
	c0,0.6-0.1,1-0.4,1.3c-0.2,0.3-0.7,0.4-1.5,0.4h-1.5c-0.7,0-1.2-0.1-1.4-0.4c-0.3-0.3-0.4-0.7-0.4-1.3V161.8z M256.7,160.1v8.1h1.6
	v1.9h-5.1v-1.9h1.6v-5.8h-1.6v-1.5l2.2-0.8H256.7z M276.2,160.1v8.1h1.6v1.9h-5.1v-1.9h1.6v-5.8h-1.6v-1.5l2.2-0.8H276.2z
	 M292.2,160.1v8.1h1.6v1.9h-5.1v-1.9h1.6v-5.8h-1.6v-1.5l2.2-0.8H292.2L292.2,160.1z M304.9,167.9c0,0.2,0.1,0.3,0.2,0.3h0.7
	c0.2,0,0.2-0.1,0.2-0.3v-5.6c0-0.2-0.1-0.3-0.2-0.3h-0.7c-0.2,0-0.2,0.1-0.2,0.3V167.9z M302.9,161.8c0-0.6,0.1-1,0.4-1.3
	c0.2-0.3,0.7-0.4,1.4-0.4h1.5c0.7,0,1.2,0.1,1.5,0.4c0.2,0.3,0.4,0.7,0.4,1.3v6.6c0,0.6-0.1,1-0.4,1.3c-0.2,0.3-0.7,0.4-1.5,0.4
	h-1.5c-0.7,0-1.2-0.1-1.4-0.4c-0.3-0.3-0.4-0.7-0.4-1.3V161.8z M331.2,167.9c0,0.2,0.1,0.3,0.2,0.3h0.7c0.2,0,0.2-0.1,0.2-0.3v-5.6
	c0-0.2-0.1-0.3-0.2-0.3h-0.7c-0.2,0-0.2,0.1-0.2,0.3V167.9z M329.2,161.8c0-0.6,0.1-1,0.4-1.3c0.2-0.3,0.7-0.4,1.4-0.4h1.5
	c0.7,0,1.2,0.1,1.5,0.4c0.2,0.3,0.4,0.7,0.4,1.3v6.6c0,0.6-0.1,1-0.4,1.3c-0.2,0.3-0.7,0.4-1.5,0.4H331c-0.7,0-1.2-0.1-1.4-0.4
	c-0.3-0.3-0.4-0.7-0.4-1.3V161.8z M345.5,160.1v8.1h1.6v1.9H342v-1.9h1.6v-5.8H342v-1.5l2.2-0.8H345.5L345.5,160.1z M76.6,188.3
	c0,0.2,0.1,0.3,0.2,0.3h0.7c0.2,0,0.2-0.1,0.2-0.3v-5.6c0-0.2-0.1-0.3-0.2-0.3h-0.7c-0.2,0-0.2,0.1-0.2,0.3L76.6,188.3L76.6,188.3z
	 M74.6,182.2c0-0.6,0.1-1,0.4-1.3c0.2-0.3,0.7-0.4,1.4-0.4h1.5c0.7,0,1.2,0.1,1.5,0.4c0.2,0.3,0.4,0.7,0.4,1.3v6.6
	c0,0.6-0.1,1-0.4,1.3c-0.2,0.3-0.7,0.4-1.5,0.4h-1.5c-0.7,0-1.2-0.1-1.4-0.4c-0.3-0.3-0.4-0.7-0.4-1.3
	C74.6,188.8,74.6,182.2,74.6,182.2z M144,186.4c0,0.2,0.1,0.3,0.2,0.3h0.7c0.2,0,0.2-0.1,0.2-0.3v-5.6c0-0.2-0.1-0.3-0.2-0.3h-0.7
	c-0.2,0-0.2,0.1-0.2,0.3V186.4z M142,180.2c0-0.6,0.1-1,0.4-1.3c0.2-0.3,0.7-0.4,1.4-0.4h1.5c0.7,0,1.2,0.1,1.5,0.4
	c0.2,0.3,0.4,0.7,0.4,1.3v6.6c0,0.6-0.1,1-0.4,1.3c-0.2,0.3-0.7,0.4-1.5,0.4h-1.5c-0.7,0-1.2-0.1-1.4-0.4c-0.3-0.3-0.4-0.7-0.4-1.3
	V180.2z M203.6,177.3v8.1h1.6v1.9H200v-1.9h1.6v-5.8H200v-1.5l2.2-0.8L203.6,177.3L203.6,177.3z M235,185.1c0,0.2,0.1,0.3,0.2,0.3
	h0.7c0.2,0,0.2-0.1,0.2-0.3v-5.6c0-0.2-0.1-0.3-0.2-0.3h-0.7c-0.2,0-0.2,0.1-0.2,0.3V185.1z M233,179c0-0.6,0.1-1,0.4-1.3
	c0.2-0.3,0.7-0.4,1.4-0.4h1.5c0.7,0,1.2,0.1,1.5,0.4c0.2,0.3,0.4,0.7,0.4,1.3v6.6c0,0.6-0.1,1-0.4,1.3c-0.2,0.3-0.7,0.4-1.5,0.4
	h-1.5c-0.7,0-1.2-0.1-1.4-0.4c-0.3-0.3-0.4-0.7-0.4-1.3V179z M257.8,185.1c0,0.2,0.1,0.3,0.2,0.3h0.7c0.2,0,0.2-0.1,0.2-0.3v-5.6
	c0-0.2-0.1-0.3-0.2-0.3h-0.7c-0.2,0-0.2,0.1-0.2,0.3V185.1z M255.9,179c0-0.6,0.1-1,0.4-1.3c0.2-0.3,0.7-0.4,1.4-0.4h1.5
	c0.7,0,1.2,0.1,1.5,0.4c0.2,0.3,0.4,0.7,0.4,1.3v6.6c0,0.6-0.1,1-0.4,1.3c-0.2,0.3-0.7,0.4-1.5,0.4h-1.5c-0.7,0-1.2-0.1-1.4-0.4
	c-0.3-0.3-0.4-0.7-0.4-1.3V179z M277.4,177.3v8.1h1.6v1.9h-5.1v-1.9h1.6v-5.8h-1.6v-1.5l2.2-0.8L277.4,177.3L277.4,177.3z
	 M291.2,185.1c0,0.2,0.1,0.3,0.2,0.3h0.7c0.2,0,0.2-0.1,0.2-0.3v-5.6c0-0.2-0.1-0.3-0.2-0.3h-0.7c-0.2,0-0.2,0.1-0.2,0.3V185.1z
	 M289.2,179c0-0.6,0.1-1,0.4-1.3c0.2-0.3,0.7-0.4,1.4-0.4h1.5c0.7,0,1.2,0.1,1.5,0.4c0.2,0.3,0.4,0.7,0.4,1.3v6.6
	c0,0.6-0.1,1-0.4,1.3c-0.2,0.3-0.7,0.4-1.5,0.4H291c-0.7,0-1.2-0.1-1.4-0.4c-0.3-0.3-0.4-0.7-0.4-1.3V179z M305.1,185.1
	c0,0.2,0.1,0.3,0.2,0.3h0.7c0.2,0,0.2-0.1,0.2-0.3v-5.6c0-0.2-0.1-0.3-0.2-0.3h-0.7c-0.2,0-0.2,0.1-0.2,0.3V185.1z M303.2,179
	c0-0.6,0.1-1,0.4-1.3c0.2-0.3,0.7-0.4,1.4-0.4h1.5c0.7,0,1.2,0.1,1.5,0.4c0.2,0.3,0.4,0.7,0.4,1.3v6.6c0,0.6-0.1,1-0.4,1.3
	c-0.2,0.3-0.7,0.4-1.5,0.4H305c-0.7,0-1.2-0.1-1.4-0.4c-0.3-0.3-0.4-0.7-0.4-1.3V179z M331.2,185.1c0,0.2,0.1,0.3,0.2,0.3h0.7
	c0.2,0,0.2-0.1,0.2-0.3v-5.6c0-0.2-0.1-0.3-0.2-0.3h-0.7c-0.2,0-0.2,0.1-0.2,0.3V185.1z M329.2,179c0-0.6,0.1-1,0.4-1.3
	c0.2-0.3,0.7-0.4,1.4-0.4h1.5c0.7,0,1.2,0.1,1.5,0.4c0.2,0.3,0.4,0.7,0.4,1.3v6.6c0,0.6-0.1,1-0.4,1.3c-0.2,0.3-0.7,0.4-1.5,0.4H331
	c-0.7,0-1.2-0.1-1.4-0.4c-0.3-0.3-0.4-0.7-0.4-1.3V179z M343.9,185.1c0,0.2,0.1,0.3,0.2,0.3h0.7c0.2,0,0.2-0.1,0.2-0.3v-5.6
	c0-0.2-0.1-0.3-0.2-0.3h-0.7c-0.2,0-0.2,0.1-0.2,0.3V185.1z M342,179c0-0.6,0.1-1,0.4-1.3c0.2-0.3,0.7-0.4,1.4-0.4h1.5
	c0.7,0,1.2,0.1,1.5,0.4c0.2,0.3,0.4,0.7,0.4,1.3v6.6c0,0.6-0.1,1-0.4,1.3c-0.2,0.3-0.7,0.4-1.5,0.4h-1.5c-0.7,0-1.2-0.1-1.4-0.4
	c-0.3-0.3-0.4-0.7-0.4-1.3V179z M116.8,206v8.1h1.6v1.9h-5.1v-1.9h1.6v-5.8h-1.6v-1.5l2.2-0.8L116.8,206L116.8,206z M179.5,203.2
	c0,0.2,0.1,0.3,0.2,0.3h0.7c0.2,0,0.2-0.1,0.2-0.3v-5.6c0-0.2-0.1-0.3-0.2-0.3h-0.7c-0.2,0-0.2,0.1-0.2,0.3V203.2z M177.5,197
	c0-0.6,0.1-1,0.4-1.3c0.2-0.3,0.7-0.4,1.4-0.4h1.5c0.7,0,1.2,0.1,1.5,0.4c0.2,0.3,0.4,0.7,0.4,1.3v6.6c0,0.6-0.1,1-0.4,1.3
	c-0.2,0.3-0.7,0.4-1.5,0.4h-1.5c-0.7,0-1.2-0.1-1.4-0.4c-0.3-0.3-0.4-0.7-0.4-1.3V197z M215.7,202.3c0,0.2,0.1,0.3,0.2,0.3h0.7
	c0.2,0,0.2-0.1,0.2-0.3v-5.6c0-0.2-0.1-0.3-0.2-0.3H216c-0.2,0-0.2,0.1-0.2,0.3V202.3z M213.7,196.2c0-0.6,0.1-1,0.4-1.3
	c0.2-0.3,0.7-0.4,1.4-0.4h1.5c0.7,0,1.2,0.1,1.5,0.4c0.2,0.3,0.4,0.7,0.4,1.3v6.6c0,0.6-0.1,1-0.4,1.3c-0.2,0.3-0.7,0.4-1.5,0.4
	h-1.5c-0.7,0-1.2-0.1-1.4-0.4c-0.3-0.3-0.4-0.7-0.4-1.3V196.2z M242.7,194.5v8.1h1.6v1.9h-5.1v-1.9h1.6v-5.8h-1.6v-1.5l2.2-0.8
	H242.7z M262.3,194.5v8.1h1.6v1.9h-5.1v-1.9h1.6v-5.8h-1.6v-1.5l2.2-0.8H262.3z M278.8,194.5v8.1h1.6v1.9h-5.1v-1.9h1.6v-5.8h-1.6
	v-1.5l2.2-0.8H278.8z M293.4,194.5v8.1h1.6v1.9h-5.1v-1.9h1.6v-5.8h-1.6v-1.5l2.2-0.8H293.4z M307,194.5v8.1h1.6v1.9h-5.1v-1.9h1.6
	v-5.8h-1.6v-1.5l2.2-0.8H307z M331.2,202.3c0,0.2,0.1,0.3,0.2,0.3h0.7c0.2,0,0.2-0.1,0.2-0.3v-5.6c0-0.2-0.1-0.3-0.2-0.3h-0.7
	c-0.2,0-0.2,0.1-0.2,0.3V202.3z M329.2,196.2c0-0.6,0.1-1,0.4-1.3c0.2-0.3,0.7-0.4,1.4-0.4h1.5c0.7,0,1.2,0.1,1.5,0.4
	c0.2,0.3,0.4,0.7,0.4,1.3v6.6c0,0.6-0.1,1-0.4,1.3c-0.2,0.3-0.7,0.4-1.5,0.4H331c-0.7,0-1.2-0.1-1.4-0.4c-0.3-0.3-0.4-0.7-0.4-1.3
	V196.2z M343.9,202.3c0,0.2,0.1,0.3,0.2,0.3h0.7c0.2,0,0.2-0.1,0.2-0.3v-5.6c0-0.2-0.1-0.3-0.2-0.3h-0.7c-0.2,0-0.2,0.1-0.2,0.3
	V202.3z M342,196.2c0-0.6,0.1-1,0.4-1.3c0.2-0.3,0.7-0.4,1.4-0.4h1.5c0.7,0,1.2,0.1,1.5,0.4c0.2,0.3,0.4,0.7,0.4,1.3v6.6
	c0,0.6-0.1,1-0.4,1.3c-0.2,0.3-0.7,0.4-1.5,0.4h-1.5c-0.7,0-1.2-0.1-1.4-0.4c-0.3-0.3-0.4-0.7-0.4-1.3V196.2z M154.4,231.4v8.1h1.6
	v1.9h-5.1v-1.9h1.6v-5.8h-1.6v-1.5l2.2-0.8L154.4,231.4L154.4,231.4z M201.4,212.7v8.1h1.6v1.9h-5.1v-1.9h1.6v-5.8h-1.6v-1.5
	l2.2-0.8L201.4,212.7L201.4,212.7z M227.3,211.6v8.1h1.6v1.9h-5.1v-1.9h1.6v-5.8h-1.6v-1.5l2.2-0.8H227.3L227.3,211.6z M247.6,211.6
	v8.1h1.6v1.9h-5.1v-1.9h1.6v-5.8h-1.6v-1.5l2.2-0.8H247.6L247.6,211.6z M263.2,219.5c0,0.2,0.1,0.3,0.2,0.3h0.7
	c0.2,0,0.2-0.1,0.2-0.3v-5.6c0-0.2-0.1-0.3-0.2-0.3h-0.7c-0.2,0-0.2,0.1-0.2,0.3V219.5z M261.2,213.3c0-0.6,0.1-1,0.4-1.3
	c0.2-0.3,0.7-0.4,1.4-0.4h1.5c0.7,0,1.2,0.1,1.5,0.4c0.2,0.3,0.4,0.7,0.4,1.3v6.6c0,0.6-0.1,1-0.4,1.3c-0.2,0.3-0.7,0.4-1.5,0.4H263
	c-0.7,0-1.2-0.1-1.4-0.4c-0.3-0.3-0.4-0.7-0.4-1.3V213.3z M279.9,211.6v8.1h1.6v1.9h-5.1v-1.9h1.6v-5.8h-1.6v-1.5l2.2-0.8H279.9z
	 M293.9,211.6v8.1h1.6v1.9h-5.1v-1.9h1.6v-5.8h-1.6v-1.5l2.2-0.8H293.9L293.9,211.6z M307.2,211.6v8.1h1.6v1.9h-5.1v-1.9h1.6v-5.8
	h-1.6v-1.5l2.2-0.8H307.2L307.2,211.6z M332.8,211.6v8.1h1.6v1.9h-5.1v-1.9h1.6v-5.8h-1.6v-1.5l2.2-0.8H332.8z M345.5,211.6v8.1h1.6
	v1.9H342v-1.9h1.6v-5.8H342v-1.5l2.2-0.8H345.5L345.5,211.6z M171.7,259.9c0,0.2,0.1,0.3,0.2,0.3h0.7c0.2,0,0.2-0.1,0.2-0.3v-5.6
	c0-0.2-0.1-0.3-0.2-0.3h-0.7c-0.2,0-0.2,0.1-0.2,0.3V259.9z M169.7,253.8c0-0.6,0.1-1,0.4-1.3c0.2-0.3,0.7-0.4,1.4-0.4h1.5
	c0.7,0,1.2,0.1,1.5,0.4c0.2,0.3,0.4,0.7,0.4,1.3v6.6c0,0.6-0.1,1-0.4,1.3c-0.2,0.3-0.7,0.4-1.5,0.4h-1.5c-0.7,0-1.2-0.1-1.4-0.4
	c-0.3-0.3-0.4-0.7-0.4-1.3V253.8z M212.1,237.6c0,0.2,0.1,0.3,0.2,0.3h0.7c0.2,0,0.2-0.1,0.2-0.3V232c0-0.2-0.1-0.3-0.2-0.3h-0.7
	c-0.2,0-0.2,0.1-0.2,0.3V237.6z M210.1,231.5c0-0.6,0.1-1,0.4-1.3c0.2-0.3,0.7-0.4,1.4-0.4h1.5c0.7,0,1.2,0.1,1.5,0.4
	c0.2,0.3,0.4,0.7,0.4,1.3v6.6c0,0.6-0.1,1-0.4,1.3c-0.2,0.3-0.7,0.4-1.5,0.4h-1.5c-0.7,0-1.2-0.1-1.4-0.4c-0.3-0.3-0.4-0.7-0.4-1.3
	V231.5z M232.5,236.7c0,0.2,0.1,0.3,0.2,0.3h0.7c0.2,0,0.2-0.1,0.2-0.3V231c0-0.2-0.1-0.3-0.2-0.3h-0.7c-0.2,0-0.2,0.1-0.2,0.3
	V236.7z M230.5,230.5c0-0.6,0.1-1,0.4-1.3c0.2-0.3,0.7-0.4,1.4-0.4h1.5c0.7,0,1.2,0.1,1.5,0.4c0.2,0.3,0.4,0.7,0.4,1.3v6.6
	c0,0.6-0.1,1-0.4,1.3c-0.2,0.3-0.7,0.4-1.5,0.4h-1.5c-0.7,0-1.2-0.1-1.4-0.4c-0.3-0.3-0.4-0.7-0.4-1.3V230.5z M249.6,236.7
	c0,0.2,0.1,0.3,0.2,0.3h0.7c0.2,0,0.2-0.1,0.2-0.3V231c0-0.2-0.1-0.3-0.2-0.3h-0.7c-0.2,0-0.2,0.1-0.2,0.3V236.7z M247.7,230.5
	c0-0.6,0.1-1,0.4-1.3c0.2-0.3,0.7-0.4,1.4-0.4h1.5c0.7,0,1.2,0.1,1.5,0.4c0.2,0.3,0.4,0.7,0.4,1.3v6.6c0,0.6-0.1,1-0.4,1.3
	c-0.2,0.3-0.7,0.4-1.5,0.4h-1.5c-0.7,0-1.2-0.1-1.4-0.4c-0.3-0.3-0.4-0.7-0.4-1.3V230.5z M265,236.7c0,0.2,0.1,0.3,0.2,0.3h0.7
	c0.2,0,0.2-0.1,0.2-0.3V231c0-0.2-0.1-0.3-0.2-0.3h-0.7c-0.2,0-0.2,0.1-0.2,0.3V236.7z M263.1,230.5c0-0.6,0.1-1,0.4-1.3
	c0.2-0.3,0.7-0.4,1.4-0.4h1.5c0.7,0,1.2,0.1,1.5,0.4c0.2,0.3,0.4,0.7,0.4,1.3v6.6c0,0.6-0.1,1-0.4,1.3c-0.2,0.3-0.7,0.4-1.5,0.4
	h-1.5c-0.7,0-1.2-0.1-1.4-0.4c-0.3-0.3-0.4-0.7-0.4-1.3V230.5z M279.2,236.7c0,0.2,0.1,0.3,0.2,0.3h0.7c0.2,0,0.2-0.1,0.2-0.3V231
	c0-0.2-0.1-0.3-0.2-0.3h-0.7c-0.2,0-0.2,0.1-0.2,0.3V236.7z M277.3,230.5c0-0.6,0.1-1,0.4-1.3c0.2-0.3,0.7-0.4,1.4-0.4h1.5
	c0.7,0,1.2,0.1,1.5,0.4c0.2,0.3,0.4,0.7,0.4,1.3v6.6c0,0.6-0.1,1-0.4,1.3c-0.2,0.3-0.7,0.4-1.5,0.4h-1.5c-0.7,0-1.2-0.1-1.4-0.4
	c-0.3-0.3-0.4-0.7-0.4-1.3V230.5z M292.7,236.7c0,0.2,0.1,0.3,0.2,0.3h0.7c0.2,0,0.2-0.1,0.2-0.3V231c0-0.2-0.1-0.3-0.2-0.3h-0.7
	c-0.2,0-0.2,0.1-0.2,0.3V236.7z M290.7,230.5c0-0.6,0.1-1,0.4-1.3c0.2-0.3,0.7-0.4,1.4-0.4h1.5c0.7,0,1.2,0.1,1.5,0.4
	c0.2,0.3,0.4,0.7,0.4,1.3v6.6c0,0.6-0.1,1-0.4,1.3c-0.2,0.3-0.7,0.4-1.5,0.4h-1.5c-0.7,0-1.2-0.1-1.4-0.4c-0.3-0.3-0.4-0.7-0.4-1.3
	V230.5z M305.7,236.7c0,0.2,0.1,0.3,0.2,0.3h0.7c0.2,0,0.2-0.1,0.2-0.3V231c0-0.2-0.1-0.3-0.2-0.3h-0.7c-0.2,0-0.2,0.1-0.2,0.3
	V236.7z M303.7,230.5c0-0.6,0.1-1,0.4-1.3c0.2-0.3,0.7-0.4,1.4-0.4h1.5c0.7,0,1.2,0.1,1.5,0.4c0.2,0.3,0.4,0.7,0.4,1.3v6.6
	c0,0.6-0.1,1-0.4,1.3c-0.2,0.3-0.7,0.4-1.5,0.4h-1.5c-0.7,0-1.2-0.1-1.4-0.4c-0.3-0.3-0.4-0.7-0.4-1.3V230.5z M332.8,228.8v8.1h1.6
	v1.9h-5.1v-1.9h1.6v-5.8h-1.6v-1.5l2.2-0.8H332.8z M345.5,228.8v8.1h1.6v1.9H342v-1.9h1.6v-5.8H342v-1.5l2.2-0.8H345.5L345.5,228.8z
	 M192.6,260.1v8.1h1.6v1.9H189v-1.9h1.6v-5.8H189v-1.5l2.2-0.8H192.6L192.6,260.1z M219.7,254.7c0,0.2,0.1,0.3,0.2,0.3h0.7
	c0.2,0,0.2-0.1,0.2-0.3v-5.6c0-0.2-0.1-0.3-0.2-0.3H220c-0.2,0-0.2,0.1-0.2,0.3V254.7z M217.7,248.6c0-0.6,0.1-1,0.4-1.3
	c0.2-0.3,0.7-0.4,1.4-0.4h1.5c0.7,0,1.2,0.1,1.5,0.4c0.2,0.3,0.4,0.7,0.4,1.3v6.6c0,0.6-0.1,1-0.4,1.3c-0.2,0.3-0.7,0.4-1.5,0.4
	h-1.5c-0.7,0-1.2-0.1-1.4-0.4c-0.3-0.3-0.4-0.7-0.4-1.3V248.6z M236.9,290.6c0,0.2,0.1,0.3,0.2,0.3h0.7c0.2,0,0.2-0.1,0.2-0.3V285
	c0-0.2-0.1-0.3-0.2-0.3h-0.7c-0.2,0-0.2,0.1-0.2,0.3V290.6z M234.9,284.5c0-0.6,0.1-1,0.4-1.3c0.2-0.3,0.7-0.4,1.4-0.4h1.5
	c0.7,0,1.2,0.1,1.5,0.4c0.2,0.3,0.4,0.7,0.4,1.3v6.6c0,0.6-0.1,1-0.4,1.3c-0.2,0.3-0.7,0.4-1.5,0.4h-1.5c-0.7,0-1.2-0.1-1.4-0.4
	c-0.3-0.3-0.4-0.7-0.4-1.3V284.5z M253.7,246v8.1h1.6v1.9h-5.1v-1.9h1.6v-5.8h-1.6v-1.5l2.2-0.8L253.7,246L253.7,246z M266.3,253.8
	c0,0.2,0.1,0.3,0.2,0.3h0.7c0.2,0,0.2-0.1,0.2-0.3v-5.6c0-0.2-0.1-0.3-0.2-0.3h-0.7c-0.2,0-0.2,0.1-0.2,0.3V253.8z M264.3,247.7
	c0-0.6,0.1-1,0.4-1.3c0.2-0.3,0.7-0.4,1.4-0.4h1.5c0.7,0,1.2,0.1,1.5,0.4c0.2,0.3,0.4,0.7,0.4,1.3v6.6c0,0.6-0.1,1-0.4,1.3
	c-0.2,0.3-0.7,0.4-1.5,0.4h-1.5c-0.7,0-1.2-0.1-1.4-0.4c-0.3-0.3-0.4-0.7-0.4-1.3V247.7L264.3,247.7z M279.8,253.8
	c0,0.2,0.1,0.3,0.2,0.3h0.7c0.2,0,0.2-0.1,0.2-0.3v-5.6c0-0.2-0.1-0.3-0.2-0.3h-0.7c-0.2,0-0.2,0.1-0.2,0.3V253.8z M277.8,247.7
	c0-0.6,0.1-1,0.4-1.3c0.2-0.3,0.7-0.4,1.4-0.4h1.5c0.7,0,1.2,0.1,1.5,0.4c0.2,0.3,0.4,0.7,0.4,1.3v6.6c0,0.6-0.1,1-0.4,1.3
	c-0.2,0.3-0.7,0.4-1.5,0.4h-1.5c-0.7,0-1.2-0.1-1.4-0.4c-0.3-0.3-0.4-0.7-0.4-1.3V247.7L277.8,247.7z M292.9,290.6
	c0,0.2,0.1,0.3,0.2,0.3h0.7c0.2,0,0.2-0.1,0.2-0.3V285c0-0.2-0.1-0.3-0.2-0.3h-0.7c-0.2,0-0.2,0.1-0.2,0.3V290.6z M290.9,284.5
	c0-0.6,0.1-1,0.4-1.3c0.2-0.3,0.7-0.4,1.4-0.4h1.5c0.7,0,1.2,0.1,1.5,0.4c0.2,0.3,0.4,0.7,0.4,1.3v6.6c0,0.6-0.1,1-0.4,1.3
	c-0.2,0.3-0.7,0.4-1.5,0.4h-1.5c-0.7,0-1.2-0.1-1.4-0.4c-0.3-0.3-0.4-0.7-0.4-1.3V284.5z M307.4,246v8.1h1.6v1.9h-5.1v-1.9h1.6v-5.8
	h-1.6v-1.5l2.2-0.8L307.4,246L307.4,246z M331.2,253.8c0,0.2,0.1,0.3,0.2,0.3h0.7c0.2,0,0.2-0.1,0.2-0.3v-5.6c0-0.2-0.1-0.3-0.2-0.3
	h-0.7c-0.2,0-0.2,0.1-0.2,0.3V253.8z M329.2,247.7c0-0.6,0.1-1,0.4-1.3c0.2-0.3,0.7-0.4,1.4-0.4h1.5c0.7,0,1.2,0.1,1.5,0.4
	c0.2,0.3,0.4,0.7,0.4,1.3v6.6c0,0.6-0.1,1-0.4,1.3c-0.2,0.3-0.7,0.4-1.5,0.4H331c-0.7,0-1.2-0.1-1.4-0.4c-0.3-0.3-0.4-0.7-0.4-1.3
	V247.7L329.2,247.7z M343.9,253.8c0,0.2,0.1,0.3,0.2,0.3h0.7c0.2,0,0.2-0.1,0.2-0.3v-5.6c0-0.2-0.1-0.3-0.2-0.3h-0.7
	c-0.2,0-0.2,0.1-0.2,0.3V253.8z M342,247.7c0-0.6,0.1-1,0.4-1.3c0.2-0.3,0.7-0.4,1.4-0.4h1.5c0.7,0,1.2,0.1,1.5,0.4
	c0.2,0.3,0.4,0.7,0.4,1.3v6.6c0,0.6-0.1,1-0.4,1.3c-0.2,0.3-0.7,0.4-1.5,0.4h-1.5c-0.7,0-1.2-0.1-1.4-0.4c-0.3-0.3-0.4-0.7-0.4-1.3
	V247.7L342,247.7z M204.4,271.2v8.1h1.6v1.9h-5.1v-1.9h1.6v-5.8h-1.6V272l2.2-0.8L204.4,271.2L204.4,271.2z M226,263.8v8.1h1.6v1.9
	h-5.1v-1.9h1.6v-5.8h-1.6v-1.5l2.2-0.8H226z M239.7,271c0,0.2,0.1,0.3,0.2,0.3h0.7c0.2,0,0.2-0.1,0.2-0.3v-5.6
	c0-0.2-0.1-0.3-0.2-0.3h-0.7c-0.2,0-0.2,0.1-0.2,0.3V271z M237.7,264.9c0-0.6,0.1-1,0.4-1.3c0.2-0.3,0.7-0.4,1.4-0.4h1.5
	c0.7,0,1.2,0.1,1.5,0.4c0.2,0.3,0.4,0.7,0.4,1.3v6.6c0,0.6-0.1,1-0.4,1.3c-0.2,0.3-0.7,0.4-1.5,0.4h-1.5c-0.7,0-1.2-0.1-1.4-0.4
	c-0.3-0.3-0.4-0.7-0.4-1.3V264.9z M255.2,263.2v8.1h1.6v1.9h-5.1v-1.9h1.6v-5.8h-1.6V264l2.2-0.8L255.2,263.2L255.2,263.2z
	 M267.1,290.8c0,0.2,0.1,0.3,0.2,0.3h0.7c0.2,0,0.2-0.1,0.2-0.3v-5.6c0-0.2-0.1-0.3-0.2-0.3h-0.7c-0.2,0-0.2,0.1-0.2,0.3V290.8z
	 M265.1,284.7c0-0.6,0.1-1,0.4-1.3c0.2-0.3,0.7-0.4,1.4-0.4h1.5c0.7,0,1.2,0.1,1.5,0.4c0.2,0.3,0.4,0.7,0.4,1.3v6.6
	c0,0.6-0.1,1-0.4,1.3c-0.2,0.3-0.7,0.4-1.5,0.4h-1.5c-0.7,0-1.2-0.1-1.4-0.4c-0.3-0.3-0.4-0.7-0.4-1.3V284.7z M280.2,271
	c0,0.2,0.1,0.3,0.2,0.3h0.7c0.2,0,0.2-0.1,0.2-0.3v-5.6c0-0.2-0.1-0.3-0.2-0.3h-0.7c-0.2,0-0.2,0.1-0.2,0.3V271z M278.2,264.9
	c0-0.6,0.1-1,0.4-1.3c0.2-0.3,0.7-0.4,1.4-0.4h1.5c0.7,0,1.2,0.1,1.5,0.4c0.2,0.3,0.4,0.7,0.4,1.3v6.6c0,0.6-0.1,1-0.4,1.3
	c-0.2,0.3-0.7,0.4-1.5,0.4H280c-0.7,0-1.2-0.1-1.4-0.4c-0.3-0.3-0.4-0.7-0.4-1.3V264.9z M293,271c0,0.2,0.1,0.3,0.2,0.3h0.7
	c0.2,0,0.2-0.1,0.2-0.3v-5.6c0-0.2-0.1-0.3-0.2-0.3h-0.7c-0.2,0-0.2,0.1-0.2,0.3V271z M291,264.9c0-0.6,0.1-1,0.4-1.3
	c0.2-0.3,0.7-0.4,1.4-0.4h1.5c0.7,0,1.2,0.1,1.5,0.4c0.2,0.3,0.4,0.7,0.4,1.3v6.6c0,0.6-0.1,1-0.4,1.3c-0.2,0.3-0.7,0.4-1.5,0.4
	h-1.5c-0.7,0-1.2-0.1-1.4-0.4c-0.3-0.3-0.4-0.7-0.4-1.3V264.9z M305.8,271c0,0.2,0.1,0.3,0.2,0.3h0.7c0.2,0,0.2-0.1,0.2-0.3v-5.6
	c0-0.2-0.1-0.3-0.2-0.3H306c-0.2,0-0.2,0.1-0.2,0.3V271z M303.8,264.9c0-0.6,0.1-1,0.4-1.3c0.2-0.3,0.7-0.4,1.4-0.4h1.5
	c0.7,0,1.2,0.1,1.5,0.4c0.2,0.3,0.4,0.7,0.4,1.3v6.6c0,0.6-0.1,1-0.4,1.3c-0.2,0.3-0.7,0.4-1.5,0.4h-1.5c-0.7,0-1.2-0.1-1.4-0.4
	c-0.3-0.3-0.4-0.7-0.4-1.3V264.9z M332.8,285.8v8.1h1.6v1.9h-5.1v-1.9h1.6v-5.8h-1.6v-1.5l2.2-0.8L332.8,285.8L332.8,285.8z
	 M343.9,307.8c0,0.2,0.1,0.3,0.2,0.3h0.7c0.2,0,0.2-0.1,0.2-0.3v-5.6c0-0.2-0.1-0.3-0.2-0.3h-0.7c-0.2,0-0.2,0.1-0.2,0.3V307.8z
	 M342,301.7c0-0.6,0.1-1,0.4-1.3c0.2-0.3,0.7-0.4,1.4-0.4h1.5c0.7,0,1.2,0.1,1.5,0.4c0.2,0.3,0.4,0.7,0.4,1.3v6.6
	c0,0.6-0.1,1-0.4,1.3c-0.2,0.3-0.7,0.4-1.5,0.4h-1.5c-0.7,0-1.2-0.1-1.4-0.4c-0.3-0.3-0.4-0.7-0.4-1.3V301.7z"/>
<g class="st1">
	<path class="st2" d="M194.9,1.5v5.8h1.1v1.4h-3.7V7.3h1.1V3.1h-1.1V2l1.6-0.6L194.9,1.5L194.9,1.5z M227.3,12.5
		c0,0.2,0.1,0.2,0.2,0.2h0.7c0.1,0,0.2-0.1,0.2-0.2V7.2c0-0.2-0.1-0.2-0.2-0.2h-0.7c-0.1,0-0.2,0.1-0.2,0.2V12.5L227.3,12.5z
		 M225.4,6.7c0-0.6,0.1-1,0.3-1.2c0.2-0.3,0.7-0.4,1.4-0.4h1.4c0.7,0,1.1,0.1,1.4,0.4c0.2,0.3,0.4,0.7,0.4,1.2V13
		c0,0.5-0.1,1-0.4,1.2c-0.2,0.3-0.7,0.4-1.4,0.4h-1.4c-0.7,0-1.1-0.1-1.4-0.4c-0.2-0.3-0.3-0.7-0.3-1.2V6.7z M213.2,13.3
		c0,0.2,0.1,0.3,0.2,0.3h0.7c0.2,0,0.2-0.1,0.2-0.3V7.6c0-0.2-0.1-0.3-0.2-0.3h-0.7c-0.2,0-0.2,0.1-0.2,0.3V13.3z M211.2,7.1
		c0-0.6,0.1-1,0.4-1.3c0.2-0.3,0.7-0.4,1.5-0.4h1.5c0.7,0,1.2,0.1,1.5,0.4c0.2,0.3,0.4,0.7,0.4,1.3v6.7c0,0.6-0.1,1-0.4,1.3
		c-0.2,0.3-0.7,0.4-1.5,0.4H213c-0.7,0-1.2-0.1-1.5-0.4c-0.3-0.3-0.4-0.7-0.4-1.3C211.2,13.8,211.2,7.1,211.2,7.1z M233.3,13.3
		c0,0.2,0.1,0.3,0.2,0.3h0.7c0.2,0,0.2-0.1,0.2-0.3V7.7c0-0.2-0.1-0.3-0.2-0.3h-0.7c-0.2,0-0.2,0.1-0.2,0.3V13.3z M231.3,7.2
		c0-0.6,0.1-1,0.4-1.3c0.2-0.3,0.7-0.4,1.4-0.4h1.5c0.7,0,1.2,0.1,1.5,0.4c0.2,0.3,0.4,0.7,0.4,1.3v6.6c0,0.6-0.1,1-0.4,1.3
		c-0.2,0.3-0.7,0.4-1.5,0.4h-1.5c-0.7,0-1.2-0.1-1.4-0.4c-0.3-0.3-0.4-0.7-0.4-1.3V7.2z M262.8,13.4c0,0.2,0.1,0.3,0.2,0.3h0.7
		c0.2,0,0.2-0.1,0.2-0.3V7.6c0-0.2-0.1-0.3-0.2-0.3H263c-0.2,0-0.2,0.1-0.2,0.3V13.4z M260.7,7.1c0-0.6,0.1-1,0.4-1.3
		c0.2-0.3,0.8-0.4,1.5-0.4h1.6c0.8,0,1.3,0.1,1.5,0.4c0.3,0.3,0.4,0.7,0.4,1.3v6.9c0,0.6-0.1,1.1-0.4,1.3c-0.2,0.3-0.8,0.4-1.5,0.4
		h-1.6c-0.7,0-1.2-0.1-1.5-0.4c-0.3-0.3-0.4-0.7-0.4-1.3V7.1L260.7,7.1z M294.8,6.7v6h1.2v1.4h-3.8v-1.4h1.2V8.4h-1.2V7.3l1.6-0.6
		H294.8z M289.1,12.5c0,0.1,0.1,0.2,0.2,0.2h0.5c0.1,0,0.2-0.1,0.2-0.2v-4c0-0.1-0.1-0.2-0.2-0.2h-0.5c-0.1,0-0.2,0.1-0.2,0.2V12.5z
		 M287.7,8.2c0-0.4,0.1-0.7,0.3-0.9c0.2-0.2,0.5-0.3,1-0.3h1.1c0.5,0,0.9,0.1,1,0.3c0.2,0.2,0.3,0.5,0.3,0.9v4.7
		c0,0.4-0.1,0.7-0.3,0.9c-0.2,0.2-0.5,0.3-1,0.3h-1.1c-0.5,0-0.8-0.1-1-0.3c-0.2-0.2-0.3-0.5-0.3-0.9V8.2z M309.9,12.8
		c0,0.1,0.1,0.2,0.2,0.2h0.6c0.1,0,0.2-0.1,0.2-0.2V8.1c0-0.1-0.1-0.2-0.2-0.2h-0.6c-0.1,0-0.2,0.1-0.2,0.2
		C309.9,8.1,309.9,12.8,309.9,12.8z M308.3,7.7c0-0.5,0.1-0.8,0.3-1.1c0.2-0.2,0.6-0.3,1.2-0.3h1.2c0.6,0,1,0.1,1.2,0.3
		c0.2,0.2,0.3,0.6,0.3,1.1v5.5c0,0.5-0.1,0.8-0.3,1.1c-0.2,0.2-0.6,0.3-1.2,0.3h-1.2c-0.6,0-1-0.1-1.2-0.3c-0.2-0.2-0.3-0.6-0.3-1.1
		C308.3,13.2,308.3,7.7,308.3,7.7z"/>
	<path class="st2" d="M290.4,12.9c0,0.1,0.1,0.2,0.2,0.2h0.6c0.1,0,0.2-0.1,0.2-0.2V8.1c0-0.1-0.1-0.2-0.2-0.2h-0.6
		c-0.1,0-0.2,0.1-0.2,0.2V12.9L290.4,12.9z M288.7,7.7c0-0.5,0.1-0.9,0.3-1.1c0.2-0.2,0.6-0.3,1.2-0.3h1.3c0.6,0,1,0.1,1.2,0.3
		c0.2,0.2,0.3,0.6,0.3,1.1v5.5c0,0.5-0.1,0.9-0.3,1.1c-0.2,0.2-0.6,0.3-1.2,0.3h-1.3c-0.6,0-1-0.1-1.2-0.3c-0.2-0.2-0.3-0.6-0.3-1.1
		V7.7L288.7,7.7z M318.5,6.5V13h1.3v1.6h-4.1V13h1.3V8.3h-1.3V7.1l1.8-0.6H318.5z M343.1,6.6v6.2h1.2v1.5h-3.9v-1.5h1.2V8.4h-1.2
		V7.2l1.7-0.6H343.1L343.1,6.6z M136.4,10.8v8.5h1.7v2h-5.4v-2h1.6v-6.1h-1.6v-1.6l2.3-0.8H136.4z M196.8,28.7
		c0,0.1,0.1,0.2,0.2,0.2h0.5c0.1,0,0.2-0.1,0.2-0.2v-4.2c0-0.1-0.1-0.2-0.2-0.2H197c-0.1,0-0.2,0.1-0.2,0.2V28.7z M195.3,24.1
		c0-0.4,0.1-0.8,0.3-1c0.2-0.2,0.5-0.3,1.1-0.3h1.1c0.5,0,0.9,0.1,1.1,0.3c0.2,0.2,0.3,0.5,0.3,1V29c0,0.4-0.1,0.8-0.3,1
		c-0.2,0.2-0.5,0.3-1.1,0.3h-1.1c-0.5,0-0.9-0.1-1.1-0.3c-0.2-0.2-0.3-0.5-0.3-1V24.1L195.3,24.1z M227.8,29.8
		c0,0.1,0.1,0.2,0.2,0.2h0.5c0.1,0,0.2-0.1,0.2-0.2v-4.3c0-0.1-0.1-0.2-0.2-0.2h-0.5c-0.1,0-0.2,0.1-0.2,0.2V29.8z M226.2,25.1
		c0-0.4,0.1-0.8,0.3-1c0.2-0.2,0.6-0.3,1.1-0.3h1.1c0.6,0,0.9,0.1,1.1,0.3c0.2,0.2,0.3,0.5,0.3,1v5c0,0.4-0.1,0.8-0.3,1
		c-0.2,0.2-0.6,0.3-1.1,0.3h-1.1c-0.5,0-0.9-0.1-1.1-0.3c-0.2-0.2-0.3-0.5-0.3-1V25.1z M252.1,29.9c0,0.1,0.1,0.2,0.2,0.2h0.5
		c0.1,0,0.2-0.1,0.2-0.2v-4.4c0-0.1-0.1-0.2-0.2-0.2h-0.5c-0.1,0-0.2,0.1-0.2,0.2V29.9z M250.6,25.1c0-0.5,0.1-0.8,0.3-1
		c0.2-0.2,0.6-0.3,1.1-0.3h1.2c0.6,0,0.9,0.1,1.1,0.3c0.2,0.2,0.3,0.5,0.3,1v5.1c0,0.4-0.1,0.8-0.3,1c-0.2,0.2-0.6,0.3-1.1,0.3H252
		c-0.6,0-0.9-0.1-1.1-0.3c-0.2-0.2-0.3-0.6-0.3-1V25.1z M271.8,23.3v7.1h1.4v1.7h-4.5v-1.7h1.4v-5.1h-1.4V24l1.9-0.7L271.8,23.3
		L271.8,23.3z M233,23.7v6.4h1.2v1.5h-4v-1.5h1.2v-4.6h-1.2v-1.2l1.7-0.6L233,23.7L233,23.7z M298.9,29.8c0,0.1,0.1,0.2,0.2,0.2h0.5
		c0.1,0,0.2-0.1,0.2-0.2v-4.3c0-0.1-0.1-0.2-0.2-0.2h-0.5c-0.1,0-0.2,0.1-0.2,0.2V29.8z M297.4,25.2c0-0.4,0.1-0.8,0.3-1
		c0.2-0.2,0.5-0.3,1.1-0.3h1.1c0.5,0,0.9,0.1,1.1,0.3c0.2,0.2,0.3,0.5,0.3,1v5c0,0.4-0.1,0.8-0.3,1c-0.2,0.2-0.5,0.3-1.1,0.3h-1.1
		c-0.5,0-0.9-0.1-1.1-0.3c-0.2-0.2-0.3-0.5-0.3-1C297.4,30.2,297.4,25.2,297.4,25.2z M295,29.7c0,0.1,0.1,0.2,0.2,0.2h0.5
		c0.1,0,0.2-0.1,0.2-0.2v-4.2c0-0.1-0.1-0.2-0.2-0.2h-0.5c-0.1,0-0.2,0.1-0.2,0.2V29.7L295,29.7z M293.5,25.2c0-0.4,0.1-0.8,0.3-1
		c0.2-0.2,0.5-0.3,1.1-0.3h1.1c0.5,0,0.9,0.1,1.1,0.3c0.2,0.2,0.3,0.5,0.3,1v4.9c0,0.4-0.1,0.8-0.3,1c-0.2,0.2-0.5,0.3-1.1,0.3h-1.1
		c-0.5,0-0.9-0.1-1.1-0.3c-0.2-0.2-0.3-0.5-0.3-1V25.2L293.5,25.2z M278.9,29.8c0,0.1,0.1,0.2,0.2,0.2h0.5c0.1,0,0.2-0.1,0.2-0.2
		v-4.3c0-0.1-0.1-0.2-0.2-0.2H279c-0.1,0-0.2,0.1-0.2,0.2V29.8L278.9,29.8z M277.3,25.1c0-0.5,0.1-0.8,0.3-1
		c0.2-0.2,0.6-0.3,1.1-0.3h1.2c0.6,0,0.9,0.1,1.1,0.3c0.2,0.2,0.3,0.5,0.3,1v5.1c0,0.4-0.1,0.8-0.3,1c-0.2,0.2-0.6,0.3-1.1,0.3h-1.2
		c-0.5,0-0.9-0.1-1.1-0.3c-0.2-0.2-0.3-0.5-0.3-1V25.1L277.3,25.1z M353.7,24v5.9h1.1v1.4h-3.7v-1.4h1.1v-4.2h-1.1v-1.1l1.6-0.6
		H353.7z M308.4,23.7v6.3h1.2v1.5h-4v-1.5h1.2v-4.6h-1.2v-1.2l1.7-0.6H308.4z M125.1,28.3c0,0.1,0.1,0.2,0.2,0.2h0.5
		c0.1,0,0.2-0.1,0.2-0.2V24c0-0.1-0.1-0.2-0.2-0.2h-0.5c-0.1,0-0.2,0.1-0.2,0.2V28.3z M123.6,23.6c0-0.4,0.1-0.8,0.3-1
		c0.2-0.2,0.6-0.3,1.1-0.3h1.1c0.6,0,0.9,0.1,1.1,0.3c0.2,0.2,0.3,0.5,0.3,1v5.1c0,0.4-0.1,0.8-0.3,1c-0.2,0.2-0.6,0.3-1.1,0.3h-1.1
		c-0.5,0-0.9-0.1-1.1-0.3c-0.2-0.2-0.3-0.5-0.3-1V23.6z M154.2,39.4v5.9h1.2v1.4h-3.7v-1.4h1.1V41h-1.1v-1.1l1.6-0.6L154.2,39.4
		L154.2,39.4z M210,41.2V47h1.1v1.4h-3.7V47h1.1v-4.2h-1.1v-1.1l1.6-0.6L210,41.2L210,41.2z M241.2,47.6c0,0.2,0.1,0.2,0.2,0.2h0.7
		c0.1,0,0.2-0.1,0.2-0.2v-5.4c0-0.2-0.1-0.2-0.2-0.2h-0.7c-0.1,0-0.2,0.1-0.2,0.2V47.6z M239.3,41.7c0-0.6,0.1-1,0.4-1.2
		c0.2-0.3,0.7-0.4,1.4-0.4h1.4c0.7,0,1.2,0.1,1.4,0.4c0.2,0.3,0.4,0.7,0.4,1.2V48c0,0.5-0.1,1-0.4,1.2c-0.2,0.3-0.7,0.4-1.4,0.4H241
		c-0.7,0-1.2-0.1-1.4-0.4c-0.2-0.3-0.4-0.7-0.4-1.2V41.7z M268.2,39.9v8h1.6v1.9h-5.1v-1.9h1.6v-5.8h-1.6v-1.5l2.2-0.8H268.2z
		 M283.6,40.9v6.4h1.2v1.5h-4.1v-1.5h1.2v-4.6h-1.2v-1.2l1.7-0.6H283.6z M288.3,47c0,0.1,0.1,0.2,0.2,0.2h0.5c0.1,0,0.2-0.1,0.2-0.2
		v-4.2c0-0.1-0.1-0.2-0.2-0.2h-0.5c-0.1,0-0.2,0.1-0.2,0.2V47z M286.9,42.4c0-0.4,0.1-0.8,0.3-1c0.2-0.2,0.5-0.3,1.1-0.3h1.1
		c0.5,0,0.9,0.1,1.1,0.3c0.2,0.2,0.3,0.5,0.3,1v4.9c0,0.4-0.1,0.8-0.3,1c-0.2,0.2-0.5,0.3-1.1,0.3h-1.1c-0.5,0-0.9-0.1-1.1-0.3
		c-0.2-0.2-0.3-0.5-0.3-1V42.4z"/>
	<path class="st2" d="M267.9,40.9v6.3h1.2v1.5h-4v-1.5h1.2v-4.5h-1.2v-1.2l1.7-0.6H267.9z M281.7,47.2c0,0.1,0.1,0.2,0.2,0.2h0.6
		c0.1,0,0.2-0.1,0.2-0.2v-4.6c0-0.1-0.1-0.2-0.2-0.2h-0.6c-0.1,0-0.2,0.1-0.2,0.2C281.7,42.5,281.7,47.2,281.7,47.2z M280.1,42.1
		c0-0.5,0.1-0.8,0.3-1.1c0.2-0.2,0.6-0.3,1.2-0.3h1.2c0.6,0,1,0.1,1.2,0.3c0.2,0.2,0.3,0.6,0.3,1.1v5.4c0,0.5-0.1,0.8-0.3,1.1
		c-0.2,0.2-0.6,0.3-1.2,0.3h-1.2c-0.6,0-1-0.1-1.2-0.3c-0.2-0.2-0.3-0.6-0.3-1.1V42.1L280.1,42.1z M324.2,47.6
		c0,0.2,0.1,0.3,0.2,0.3h0.7c0.2,0,0.2-0.1,0.2-0.3v-5.5c0-0.2-0.1-0.3-0.2-0.3h-0.7c-0.1,0-0.2,0.1-0.2,0.3V47.6z M322.3,41.6
		c0-0.6,0.1-1,0.4-1.3c0.2-0.3,0.7-0.4,1.4-0.4h1.5c0.7,0,1.2,0.1,1.4,0.4c0.2,0.3,0.4,0.7,0.4,1.3v6.5c0,0.6-0.1,1-0.4,1.3
		c-0.2,0.3-0.7,0.4-1.4,0.4h-1.5c-0.7,0-1.2-0.1-1.4-0.4c-0.2-0.3-0.4-0.7-0.4-1.3V41.6z M306,40.7v6.8h1.3V49h-4.3v-1.6h1.3v-4.9
		h-1.3v-1.2l1.8-0.6H306L306,40.7z M348.1,40.2v7.5h1.5v1.8h-4.7v-1.8h1.4v-5.4h-1.4v-1.4l2-0.7L348.1,40.2L348.1,40.2z M98.7,53.5
		v7.4h1.4v1.8h-4.7v-1.8h1.4v-5.3h-1.4v-1.4l2-0.7L98.7,53.5L98.7,53.5z M152.1,55.5v6.7h1.3v1.6h-4.2v-1.6h1.3v-4.8h-1.3v-1.2
		l1.8-0.6L152.1,55.5L152.1,55.5z M195.7,57.7v7h1.4v1.7h-4.4v-1.7h1.4v-5h-1.4v-1.3l1.9-0.7H195.7z"/>
	<path class="st2" d="M198.2,64.3c0,0.1,0.1,0.2,0.2,0.2h0.6c0.1,0,0.2-0.1,0.2-0.2v-4.6c0-0.1-0.1-0.2-0.2-0.2h-0.6
		c-0.1,0-0.2,0.1-0.2,0.2V64.3L198.2,64.3z M196.6,59.3c0-0.5,0.1-0.8,0.3-1.1c0.2-0.2,0.6-0.3,1.2-0.3h1.2c0.6,0,1,0.1,1.2,0.3
		c0.2,0.2,0.3,0.6,0.3,1.1v5.4c0,0.5-0.1,0.8-0.3,1.1s-0.6,0.3-1.2,0.3H198c-0.6,0-1-0.1-1.2-0.3c-0.2-0.2-0.3-0.6-0.3-1.1V59.3z
		 M230.8,57.9v6.7h1.3v1.6h-4.2v-1.6h1.3v-4.8h-1.3v-1.2l1.8-0.6L230.8,57.9L230.8,57.9z"/>
	<path class="st2" d="M230.2,58.4v5.9h1.2v1.4h-3.7v-1.4h1.1V60h-1.1v-1.1l1.6-0.6L230.2,58.4L230.2,58.4z M249.9,58.5v5.7h1.1v1.4
		h-3.6v-1.4h1.1v-4.1h-1.1v-1l1.5-0.5L249.9,58.5L249.9,58.5z M310.8,64.6c0,0.2,0.1,0.2,0.2,0.2h0.6c0.1,0,0.2-0.1,0.2-0.2v-5.1
		c0-0.2-0.1-0.2-0.2-0.2H311c-0.1,0-0.2,0.1-0.2,0.2V64.6z M309,59c0-0.5,0.1-0.9,0.3-1.2c0.2-0.2,0.7-0.4,1.3-0.4h1.4
		c0.7,0,1.1,0.1,1.3,0.4c0.2,0.2,0.3,0.6,0.3,1.2v6c0,0.5-0.1,0.9-0.3,1.2c-0.2,0.2-0.7,0.4-1.3,0.4h-1.4c-0.6,0-1.1-0.1-1.3-0.4
		c-0.2-0.2-0.3-0.6-0.3-1.2V59L309,59z M344.5,57.2V65h1.5v1.9h-4.9V65h1.5v-5.6h-1.5V58l2.1-0.7H344.5z"/>
	<path class="st2" d="M309.9,64.8c0,0.2,0.1,0.3,0.2,0.3h0.7c0.1,0,0.2-0.1,0.2-0.3v-5.5c0-0.2-0.1-0.3-0.2-0.3h-0.7
		c-0.1,0-0.2,0.1-0.2,0.3V64.8z M308,58.8c0-0.6,0.1-1,0.4-1.3c0.2-0.3,0.7-0.4,1.4-0.4h1.5c0.7,0,1.2,0.1,1.4,0.4
		c0.2,0.3,0.4,0.7,0.4,1.3v6.4c0,0.6-0.1,1-0.4,1.3c-0.2,0.3-0.7,0.4-1.4,0.4h-1.5c-0.7,0-1.2-0.1-1.4-0.4c-0.2-0.3-0.4-0.7-0.4-1.3
		V58.8L308,58.8z M346.8,57.7v6.9h1.4v1.7h-4.4v-1.7h1.3v-5h-1.3v-1.3l1.9-0.7L346.8,57.7L346.8,57.7z M330.2,64.8
		c0,0.2,0.1,0.3,0.2,0.3h0.7c0.1,0,0.2-0.1,0.2-0.3v-5.5c0-0.2-0.1-0.3-0.2-0.3h-0.7c-0.1,0-0.2,0.1-0.2,0.3V64.8L330.2,64.8z
		 M328.2,58.8c0-0.6,0.1-1,0.4-1.3c0.2-0.3,0.7-0.4,1.4-0.4h1.5c0.7,0,1.2,0.1,1.4,0.4c0.2,0.3,0.4,0.7,0.4,1.3v6.5
		c0,0.6-0.1,1-0.4,1.3c-0.2,0.3-0.7,0.4-1.4,0.4H330c-0.7,0-1.2-0.1-1.4-0.4c-0.2-0.3-0.4-0.7-0.4-1.3V58.8L328.2,58.8z M72.1,81.4
		c0,0.1,0.1,0.2,0.2,0.2h0.6c0.1,0,0.2-0.1,0.2-0.2V77c0-0.1-0.1-0.2-0.2-0.2h-0.6c-0.1,0-0.2,0.1-0.2,0.2L72.1,81.4L72.1,81.4z
		 M70.5,76.6c0-0.5,0.1-0.8,0.3-1c0.2-0.2,0.6-0.3,1.1-0.3h1.2c0.6,0,1,0.1,1.1,0.3c0.2,0.2,0.3,0.6,0.3,1v5.2c0,0.5-0.1,0.8-0.3,1
		c-0.2,0.2-0.6,0.3-1.1,0.3H72c-0.6,0-0.9-0.1-1.1-0.3c-0.2-0.2-0.3-0.6-0.3-1V76.6z M98,80.8c0,0.2,0.1,0.2,0.2,0.2h0.6
		c0.1,0,0.2-0.1,0.2-0.2v-5.1c0-0.2-0.1-0.2-0.2-0.2h-0.6c-0.1,0-0.2,0.1-0.2,0.2V80.8z M96.2,75.4c0-0.5,0.1-0.9,0.3-1.2
		c0.2-0.2,0.7-0.4,1.3-0.4h1.3c0.6,0,1.1,0.1,1.3,0.4c0.2,0.2,0.3,0.6,0.3,1.2v5.9c0,0.5-0.1,0.9-0.3,1.2c-0.2,0.2-0.7,0.4-1.3,0.4
		h-1.3c-0.6,0-1.1-0.1-1.3-0.4c-0.2-0.2-0.3-0.6-0.3-1.2V75.4z M185.7,81.8c0,0.2,0.1,0.2,0.2,0.2h0.6c0.1,0,0.2-0.1,0.2-0.2v-5.2
		c0-0.2-0.1-0.2-0.2-0.2h-0.6c-0.1,0-0.2,0.1-0.2,0.2V81.8z M183.9,76.1c0-0.5,0.1-0.9,0.3-1.2c0.2-0.3,0.7-0.4,1.3-0.4h1.4
		c0.7,0,1.1,0.1,1.4,0.4c0.2,0.3,0.3,0.7,0.3,1.2v6.2c0,0.5-0.1,0.9-0.3,1.2c-0.2,0.3-0.7,0.4-1.4,0.4h-1.4c-0.7,0-1.1-0.1-1.3-0.4
		c-0.2-0.3-0.3-0.7-0.3-1.2V76.1z"/>
	<path class="st2" d="M192,74.5v7.6h1.5v1.8h-4.8v-1.8h1.5v-5.5h-1.5v-1.4l2.1-0.7H192z M252,75.3v6.3h1.2v1.5h-4v-1.5h1.2v-4.6
		h-1.2v-1.2l1.7-0.6H252z M270.1,82.1c0,0.2,0.1,0.3,0.2,0.3h0.7c0.2,0,0.2-0.1,0.2-0.3v-5.8c0-0.2-0.1-0.3-0.2-0.3h-0.7
		c-0.2,0-0.2,0.1-0.2,0.3V82.1L270.1,82.1z M268.1,75.8c0-0.6,0.1-1.1,0.4-1.3c0.2-0.3,0.8-0.4,1.5-0.4h1.6c0.8,0,1.3,0.1,1.5,0.4
		c0.2,0.3,0.4,0.7,0.4,1.3v6.8c0,0.6-0.1,1.1-0.4,1.3c-0.3,0.3-0.8,0.4-1.5,0.4h-1.6c-0.7,0-1.2-0.1-1.5-0.4
		c-0.3-0.3-0.4-0.7-0.4-1.3V75.8z"/>
	<path class="st2" d="M255.6,74v8.4h1.6v2H252v-2h1.6v-6H252v-1.5l2.3-0.8L255.6,74L255.6,74z M297.3,75.5v6h1.2v1.4h-3.8v-1.4h1.2
		v-4.3h-1.2v-1.1l1.6-0.6C296.3,75.5,297.3,75.5,297.3,75.5z M306.8,81.7c0,0.2,0.1,0.2,0.2,0.2h0.6c0.1,0,0.2-0.1,0.2-0.2v-4.9
		c0-0.2-0.1-0.2-0.2-0.2H307c-0.1,0-0.2,0.1-0.2,0.2V81.7z M305.1,76.3c0-0.5,0.1-0.9,0.3-1.1c0.2-0.2,0.6-0.4,1.2-0.4h1.3
		c0.6,0,1,0.1,1.3,0.4c0.2,0.2,0.3,0.6,0.3,1.1v5.7c0,0.5-0.1,0.9-0.3,1.1c-0.2,0.2-0.6,0.4-1.3,0.4h-1.3c-0.6,0-1-0.1-1.2-0.4
		c-0.2-0.2-0.3-0.6-0.3-1.1V76.3z M352.5,81.4c0,0.1,0.1,0.2,0.2,0.2h0.5c0.1,0,0.2-0.1,0.2-0.2V77c0-0.1-0.1-0.2-0.2-0.2h-0.5
		c-0.1,0-0.2,0.1-0.2,0.2V81.4L352.5,81.4z M351,76.7c0-0.4,0.1-0.8,0.3-1c0.2-0.2,0.6-0.3,1.1-0.3h1.2c0.6,0,0.9,0.1,1.1,0.3
		c0.2,0.2,0.3,0.5,0.3,1v5.1c0,0.4-0.1,0.8-0.3,1c-0.2,0.2-0.6,0.3-1.1,0.3h-1.2c-0.5,0-0.9-0.1-1.1-0.3c-0.2-0.2-0.3-0.5-0.3-1
		V76.7z M337.2,81.9c0,0.2,0.1,0.2,0.2,0.2h0.7c0.1,0,0.2-0.1,0.2-0.2v-5.4c0-0.2-0.1-0.2-0.2-0.2h-0.7c-0.1,0-0.2,0.1-0.2,0.2V81.9
		z M335.3,76.1c0-0.6,0.1-1,0.4-1.2c0.2-0.3,0.7-0.4,1.4-0.4h1.4c0.7,0,1.2,0.1,1.4,0.4c0.2,0.3,0.4,0.7,0.4,1.2v6.3
		c0,0.5-0.1,1-0.4,1.2s-0.7,0.4-1.4,0.4h-1.4c-0.7,0-1.1-0.1-1.4-0.4c-0.2-0.3-0.4-0.7-0.4-1.2V76.1z M27.5,98.7
		c0,0.1,0.1,0.2,0.2,0.2h0.6c0.1,0,0.2-0.1,0.2-0.2v-4.6c0-0.1-0.1-0.2-0.2-0.2h-0.6c-0.1,0-0.2,0.1-0.2,0.2V98.7L27.5,98.7z
		 M25.9,93.7c0-0.5,0.1-0.8,0.3-1.1c0.2-0.2,0.6-0.3,1.2-0.3h1.2c0.6,0,1,0.1,1.2,0.3c0.2,0.2,0.3,0.6,0.3,1.1v5.4
		c0,0.5-0.1,0.8-0.3,1.1c-0.2,0.2-0.6,0.3-1.2,0.3h-1.2c-0.6,0-1-0.1-1.2-0.3c-0.2-0.2-0.3-0.6-0.3-1.1V93.7z M61.3,92.8v5.8h1.1
		v1.4h-3.7v-1.4h1.1v-4.2h-1.1v-1.1l1.6-0.6L61.3,92.8L61.3,92.8z M140.4,99.1c0,0.2,0.1,0.2,0.2,0.2h0.7c0.1,0,0.2-0.1,0.2-0.2
		v-5.5c0-0.2-0.1-0.2-0.2-0.2h-0.7c-0.1,0-0.2,0.1-0.2,0.2V99.1z M138.5,93.2c0-0.6,0.1-1,0.4-1.2c0.2-0.3,0.7-0.4,1.4-0.4h1.5
		c0.7,0,1.2,0.1,1.4,0.4c0.2,0.3,0.4,0.7,0.4,1.2v6.4c0,0.6-0.1,1-0.4,1.2c-0.2,0.3-0.7,0.4-1.4,0.4h-1.5c-0.7,0-1.2-0.1-1.4-0.4
		c-0.2-0.3-0.4-0.7-0.4-1.2V93.2z M245.3,92.3v6.6h1.3v1.6h-4.2v-1.6h1.3v-4.8h-1.3v-1.2l1.8-0.6H245.3L245.3,92.3z M251,99.2
		c0,0.2,0.1,0.3,0.2,0.3h0.7c0.2,0,0.2-0.1,0.2-0.3v-5.6c0-0.2-0.1-0.3-0.2-0.3h-0.7c-0.1,0-0.2,0.1-0.2,0.3V99.2z M249,93.1
		c0-0.6,0.1-1,0.4-1.3c0.2-0.3,0.7-0.4,1.4-0.4h1.5c0.7,0,1.2,0.1,1.4,0.4c0.2,0.3,0.4,0.7,0.4,1.3v6.5c0,0.6-0.1,1-0.4,1.3
		c-0.2,0.3-0.7,0.4-1.4,0.4h-1.5c-0.7,0-1.2-0.1-1.4-0.4c-0.3-0.3-0.4-0.7-0.4-1.3C249,99.7,249,93.1,249,93.1z M284.9,98.6
		c0,0.1,0.1,0.2,0.2,0.2h0.6c0.1,0,0.2-0.1,0.2-0.2v-4.5c0-0.1-0.1-0.2-0.2-0.2h-0.6c-0.1,0-0.2,0.1-0.2,0.2V98.6z M283.3,93.8
		c0-0.5,0.1-0.8,0.3-1c0.2-0.2,0.6-0.3,1.1-0.3h1.2c0.6,0,1,0.1,1.2,0.3s0.3,0.6,0.3,1V99c0,0.5-0.1,0.8-0.3,1
		c-0.2,0.2-0.6,0.3-1.2,0.3h-1.2c-0.6,0-1-0.1-1.1-0.3c-0.2-0.2-0.3-0.6-0.3-1V93.8z"/>
	<path class="st2" d="M246.4,92.1V99h1.4v1.7h-4.4V99h1.3v-5h-1.3v-1.3l1.9-0.7L246.4,92.1L246.4,92.1z M316.1,91.6v7.8h1.5v1.9
		h-4.9v-1.9h1.5v-5.6h-1.5v-1.4l2.1-0.7L316.1,91.6L316.1,91.6z M294.9,92.7v6h1.2v1.4h-3.8v-1.4h1.2v-4.3h-1.2v-1.1l1.6-0.6
		L294.9,92.7L294.9,92.7z M310.6,92.4v6.4h1.2v1.5h-4.1v-1.5h1.2v-4.6h-1.2V93l1.7-0.6H310.6L310.6,92.4z"/>
	<path class="st2" d="M315,99.3c0,0.2,0.1,0.3,0.2,0.3h0.7c0.2,0,0.2-0.1,0.2-0.3v-5.8c0-0.2-0.1-0.3-0.2-0.3h-0.7
		c-0.2,0-0.2,0.1-0.2,0.3V99.3z M312.9,93c0-0.6,0.1-1,0.4-1.3c0.2-0.3,0.7-0.4,1.5-0.4h1.5c0.7,0,1.2,0.1,1.5,0.4
		c0.2,0.3,0.4,0.7,0.4,1.3v6.7c0,0.6-0.1,1-0.4,1.3c-0.2,0.3-0.7,0.4-1.5,0.4h-1.5c-0.7,0-1.2-0.1-1.5-0.4c-0.3-0.3-0.4-0.7-0.4-1.3
		V93z M339.1,91.7v7.5h1.5v1.8h-4.8v-1.8h1.5v-5.4h-1.5v-1.4l2-0.7L339.1,91.7L339.1,91.7z M343.9,92.6v6.2h1.2v1.5h-3.9v-1.5h1.2
		v-4.4h-1.2v-1.1l1.7-0.6L343.9,92.6L343.9,92.6z"/>
	<g class="st1">
		<defs>
			<filter id="Adobe_OpacityMaskFilter" filterUnits="userSpaceOnUse" x="0" y="108.5" width="5.2" height="10.1">
				<feColorMatrix  type="matrix" values="1 0 0 0 0  0 1 0 0 0  0 0 1 0 0  0 0 0 1 0"/>
			</filter>
		</defs>
		<mask maskUnits="userSpaceOnUse" x="0" y="108.5" width="5.2" height="10.1" id="a_1_">
			<path class="st3" d="M0,108.5h5.2v10.1H0V108.5z"/>
		</mask>
		<g class="st4">
			<path class="st2" d="M2,116.4c0,0.2,0.1,0.3,0.2,0.3h0.7c0.2,0,0.2-0.1,0.2-0.3v-5.7c0-0.2-0.1-0.3-0.2-0.3H2.2
				c-0.2,0-0.2,0.1-0.2,0.3V116.4z M0,110.2c0-0.6,0.1-1,0.4-1.3c0.2-0.3,0.7-0.4,1.5-0.4h1.5c0.7,0,1.2,0.1,1.5,0.4
				c0.2,0.3,0.4,0.7,0.4,1.3v6.7c0,0.6-0.1,1-0.4,1.3c-0.2,0.3-0.7,0.4-1.5,0.4H1.8c-0.7,0-1.2-0.1-1.5-0.4
				c-0.3-0.3-0.4-0.7-0.4-1.3C0,116.9,0,110.2,0,110.2z"/>
		</g>
	</g>
	<path class="st2" d="M54.1,108.8v7.8h1.5v1.9h-4.9v-1.9h1.5v-5.6h-1.5v-1.4l2.1-0.7C52.8,108.8,54.1,108.8,54.1,108.8z
		 M173.1,115.6c0,0.1,0.1,0.2,0.2,0.2h0.5c0.1,0,0.2-0.1,0.2-0.2v-4.1c0-0.1-0.1-0.2-0.2-0.2h-0.5c-0.1,0-0.2,0.1-0.2,0.2V115.6z
		 M171.6,111.2c0-0.4,0.1-0.7,0.3-0.9c0.2-0.2,0.5-0.3,1-0.3h1.1c0.5,0,0.9,0.1,1.1,0.3c0.2,0.2,0.3,0.5,0.3,0.9v4.8
		c0,0.4-0.1,0.7-0.3,0.9c-0.2,0.2-0.5,0.3-1.1,0.3H173c-0.5,0-0.9-0.1-1-0.3c-0.2-0.2-0.3-0.5-0.3-0.9V111.2z M230.6,115.9
		c0,0.1,0.1,0.2,0.2,0.2h0.6c0.1,0,0.2-0.1,0.2-0.2v-4.8c0-0.1-0.1-0.2-0.2-0.2h-0.6c-0.1,0-0.2,0.1-0.2,0.2V115.9z M228.9,110.8
		c0-0.5,0.1-0.9,0.3-1.1c0.2-0.2,0.6-0.3,1.2-0.3h1.3c0.6,0,1,0.1,1.2,0.3c0.2,0.2,0.3,0.6,0.3,1.1v5.6c0,0.5-0.1,0.9-0.3,1.1
		c-0.2,0.2-0.6,0.3-1.2,0.3h-1.3c-0.6,0-1-0.1-1.2-0.3c-0.2-0.2-0.3-0.6-0.3-1.1V110.8z M248.1,115.6c0,0.1,0.1,0.2,0.2,0.2h0.5
		c0.1,0,0.2-0.1,0.2-0.2v-4c0-0.1-0.1-0.2-0.2-0.2h-0.5c-0.1,0-0.2,0.1-0.2,0.2V115.6z M246.7,111.2c0-0.4,0.1-0.7,0.3-0.9
		c0.2-0.2,0.5-0.3,1-0.3h1.1c0.5,0,0.9,0.1,1,0.3c0.2,0.2,0.3,0.5,0.3,0.9v4.7c0,0.4-0.1,0.7-0.3,0.9c-0.2,0.2-0.5,0.3-1,0.3H248
		c-0.5,0-0.8-0.1-1-0.3c-0.2-0.2-0.3-0.5-0.3-0.9V111.2z M273.9,109.2v7h1.4v1.7h-4.5v-1.7h1.4v-5.1h-1.4v-1.3l1.9-0.7H273.9z
		 M297.9,108.6v8.1h1.6v1.9h-5.1v-1.9h1.6v-5.8h-1.6v-1.5l2.2-0.8H297.9L297.9,108.6z"/>
	<path class="st2" d="M292.9,115.8c0,0.1,0.1,0.2,0.2,0.2h0.5c0.1,0,0.2-0.1,0.2-0.2v-4.4c0-0.1-0.1-0.2-0.2-0.2h-0.5
		c-0.1,0-0.2,0.1-0.2,0.2V115.8z M291.4,111c0-0.5,0.1-0.8,0.3-1c0.2-0.2,0.6-0.3,1.1-0.3h1.2c0.6,0,0.9,0.1,1.1,0.3
		c0.2,0.2,0.3,0.5,0.3,1v5.2c0,0.4-0.1,0.8-0.3,1c-0.2,0.2-0.6,0.3-1.1,0.3h-1.2c-0.6,0-0.9-0.1-1.1-0.3c-0.2-0.2-0.3-0.6-0.3-1V111
		z M345.2,115.7c0,0.1,0.1,0.2,0.2,0.2h0.5c0.1,0,0.2-0.1,0.2-0.2v-4.2c0-0.1-0.1-0.2-0.2-0.2h-0.5c-0.1,0-0.2,0.1-0.2,0.2V115.7z
		 M343.7,111.1c0-0.4,0.1-0.8,0.3-1c0.2-0.2,0.5-0.3,1.1-0.3h1.1c0.5,0,0.9,0.1,1.1,0.3c0.2,0.2,0.3,0.5,0.3,1v4.9
		c0,0.4-0.1,0.8-0.3,1c-0.2,0.2-0.5,0.3-1.1,0.3h-1.1c-0.5,0-0.9-0.1-1.1-0.3c-0.2-0.2-0.3-0.5-0.3-1V111.1z M303,109.5v6.5h1.3v1.6
		h-4.1v-1.6h1.3v-4.7h-1.3v-1.2l1.8-0.6H303L303,109.5z"/>
	<path class="st2" d="M341.2,116c0,0.1,0.1,0.2,0.2,0.2h0.6c0.1,0,0.2-0.1,0.2-0.2v-4.8c0-0.1-0.1-0.2-0.2-0.2h-0.6
		c-0.1,0-0.2,0.1-0.2,0.2V116z M339.6,110.8c0-0.5,0.1-0.9,0.3-1.1c0.2-0.2,0.6-0.4,1.2-0.4h1.3c0.6,0,1,0.1,1.2,0.4
		c0.2,0.2,0.3,0.6,0.3,1.1v5.6c0,0.5-0.1,0.9-0.3,1.1c-0.2,0.2-0.6,0.4-1.2,0.4h-1.3c-0.6,0-1-0.1-1.2-0.4c-0.2-0.2-0.3-0.6-0.3-1.1
		V110.8z M332.6,115.7c0,0.1,0.1,0.2,0.2,0.2h0.5c0.1,0,0.2-0.1,0.2-0.2v-4.2c0-0.1-0.1-0.2-0.2-0.2h-0.5c-0.1,0-0.2,0.1-0.2,0.2
		V115.7z M331.1,111.1c0-0.4,0.1-0.8,0.3-1c0.2-0.2,0.5-0.3,1.1-0.3h1.1c0.5,0,0.9,0.1,1.1,0.3c0.2,0.2,0.3,0.5,0.3,1v5
		c0,0.4-0.1,0.8-0.3,1c-0.2,0.2-0.5,0.3-1.1,0.3h-1.1c-0.5,0-0.9-0.1-1.1-0.3c-0.2-0.2-0.3-0.5-0.3-1V111.1z M47.8,133.6
		c0,0.2,0.1,0.3,0.2,0.3h0.7c0.2,0,0.2-0.1,0.2-0.3v-5.7c0-0.2-0.1-0.3-0.2-0.3H48c-0.2,0-0.2,0.1-0.2,0.3V133.6z M45.7,127.4
		c0-0.6,0.1-1,0.4-1.3c0.2-0.3,0.7-0.4,1.5-0.4h1.5c0.7,0,1.2,0.1,1.5,0.4c0.2,0.3,0.4,0.7,0.4,1.3v6.7c0,0.6-0.1,1-0.4,1.3
		c-0.2,0.3-0.7,0.4-1.5,0.4h-1.5c-0.7,0-1.2-0.1-1.5-0.4c-0.3-0.3-0.4-0.7-0.4-1.3C45.7,134.1,45.7,127.4,45.7,127.4z M58.3,127.2
		v5.7h1.1v1.4h-3.6v-1.4h1.1v-4.1h-1.1v-1.1l1.6-0.5C57.4,127.2,58.3,127.2,58.3,127.2z M136.5,126.4v7h1.4v1.7h-4.4v-1.7h1.4v-5
		h-1.4v-1.3l1.9-0.7L136.5,126.4L136.5,126.4z M170.7,133.2c0,0.2,0.1,0.2,0.2,0.2h0.6c0.1,0,0.2-0.1,0.2-0.2v-5
		c0-0.1-0.1-0.2-0.2-0.2h-0.6c-0.1,0-0.2,0.1-0.2,0.2V133.2z M168.9,127.8c0-0.5,0.1-0.9,0.3-1.1c0.2-0.2,0.6-0.4,1.3-0.4h1.3
		c0.6,0,1.1,0.1,1.3,0.4c0.2,0.2,0.3,0.6,0.3,1.1v5.8c0,0.5-0.1,0.9-0.3,1.1c-0.2,0.2-0.6,0.4-1.3,0.4h-1.3c-0.6,0-1.1-0.1-1.3-0.4
		c-0.2-0.2-0.3-0.6-0.3-1.1V127.8z M208.6,133.3c0,0.2,0.1,0.2,0.2,0.2h0.6c0.1,0,0.2-0.1,0.2-0.2v-5.2c0-0.2-0.1-0.2-0.2-0.2h-0.6
		c-0.1,0-0.2,0.1-0.2,0.2V133.3z M206.8,127.7c0-0.5,0.1-0.9,0.3-1.2c0.2-0.2,0.7-0.4,1.3-0.4h1.4c0.7,0,1.1,0.1,1.3,0.4
		c0.2,0.2,0.3,0.6,0.3,1.2v6.1c0,0.5-0.1,0.9-0.3,1.2c-0.2,0.3-0.7,0.4-1.3,0.4h-1.4c-0.7,0-1.1-0.1-1.3-0.4
		c-0.2-0.2-0.3-0.7-0.3-1.2C206.8,133.8,206.8,127.7,206.8,127.7z M242.7,125.5v8.4h1.6v2H239v-2h1.6v-6.1H239v-1.6l2.3-0.8H242.7z
		 M263,133.3c0,0.2,0.1,0.2,0.2,0.2h0.6c0.1,0,0.2-0.1,0.2-0.2v-5.1c0-0.2-0.1-0.2-0.2-0.2h-0.6c-0.1,0-0.2,0.1-0.2,0.2V133.3z
		 M261.2,127.8c0-0.5,0.1-0.9,0.3-1.2c0.2-0.2,0.7-0.4,1.3-0.4h1.4c0.7,0,1.1,0.1,1.3,0.4c0.2,0.2,0.3,0.6,0.3,1.2v6
		c0,0.5-0.1,0.9-0.3,1.2c-0.2,0.2-0.7,0.4-1.3,0.4h-1.4c-0.6,0-1.1-0.1-1.3-0.4c-0.2-0.2-0.3-0.6-0.3-1.2V127.8z M296.1,127.1v5.8
		h1.1v1.4h-3.7V133h1.1v-4.2h-1.1v-1.1l1.6-0.6L296.1,127.1L296.1,127.1z M347,132.9c0,0.1,0.1,0.2,0.2,0.2h0.5
		c0.1,0,0.2-0.1,0.2-0.2v-4.4c0-0.1-0.1-0.2-0.2-0.2h-0.5c-0.1,0-0.2,0.1-0.2,0.2V132.9z M345.4,128.2c0-0.5,0.1-0.8,0.3-1
		c0.2-0.2,0.6-0.3,1.1-0.3h1.2c0.6,0,0.9,0.1,1.1,0.3c0.2,0.2,0.3,0.5,0.3,1v5.1c0,0.4-0.1,0.8-0.3,1c-0.2,0.2-0.6,0.3-1.1,0.3h-1.2
		c-0.6,0-0.9-0.1-1.1-0.3c-0.2-0.2-0.3-0.6-0.3-1V128.2z M318.8,126.3v7.1h1.4v1.7h-4.5v-1.7h1.4v-5.1h-1.4V127l1.9-0.7
		C317.6,126.3,318.8,126.3,318.8,126.3z M308.6,126.1v7.5h1.5v1.8h-4.7v-1.8h1.4v-5.4h-1.4v-1.4l2-0.7
		C307.3,126.1,308.6,126.1,308.6,126.1z M331.4,126.3v7.2h1.4v1.7h-4.6v-1.7h1.4v-5.2h-1.4V127l2-0.7H331.4L331.4,126.3z
		 M31.6,142.8v8.3h1.6v2h-5.2v-2h1.6v-6h-1.6v-1.5l2.2-0.8L31.6,142.8L31.6,142.8z M10.3,150.5c0,0.2,0.1,0.2,0.2,0.2h0.6
		c0.1,0,0.2-0.1,0.2-0.2v-5.2c0-0.2-0.1-0.2-0.2-0.2h-0.6c-0.1,0-0.2,0.1-0.2,0.2V150.5z M8.5,144.9c0-0.5,0.1-0.9,0.3-1.2
		c0.2-0.2,0.7-0.4,1.3-0.4h1.4c0.7,0,1.1,0.1,1.3,0.4c0.2,0.2,0.3,0.6,0.3,1.2v6c0,0.5-0.1,0.9-0.3,1.2c-0.2,0.2-0.7,0.4-1.3,0.4
		h-1.4c-0.6,0-1.1-0.1-1.3-0.4c-0.2-0.2-0.3-0.7-0.3-1.2V144.9z M152.1,143.2v7.7h1.5v1.8h-4.9v-1.8h1.5v-5.5h-1.5v-1.4l2.1-0.7
		L152.1,143.2L152.1,143.2z M190,143.3v7.5h1.5v1.8h-4.8v-1.8h1.5v-5.4h-1.5V144l2-0.7L190,143.3L190,143.3z M249.7,143.1v7.8h1.5
		v1.9h-5v-1.9h1.5v-5.6h-1.5v-1.4l2.1-0.7L249.7,143.1L249.7,143.1z M234.9,142.8v8.3h1.6v2h-5.3v-2h1.6v-6h-1.6v-1.5l2.3-0.8
		L234.9,142.8L234.9,142.8z M256.5,143.3v7.5h1.5v1.8h-4.8v-1.8h1.5v-5.4h-1.5V144l2-0.7H256.5z M271.9,143.9v6.6h1.3v1.6H269v-1.6
		h1.3v-4.7H269v-1.2l1.8-0.6H271.9z M296.1,150.7c0,0.2,0.1,0.3,0.2,0.3h0.7c0.1,0,0.2-0.1,0.2-0.3v-5.5c0-0.2-0.1-0.3-0.2-0.3h-0.7
		c-0.1,0-0.2,0.1-0.2,0.3V150.7z M294.1,144.7c0-0.6,0.1-1,0.4-1.3c0.2-0.3,0.7-0.4,1.4-0.4h1.5c0.7,0,1.2,0.1,1.4,0.4
		c0.2,0.3,0.4,0.7,0.4,1.3v6.4c0,0.6-0.1,1-0.4,1.3c-0.2,0.3-0.7,0.4-1.4,0.4h-1.5c-0.7,0-1.2-0.1-1.4-0.4c-0.2-0.3-0.4-0.7-0.4-1.3
		V144.7z M344.4,150.3c0,0.1,0.1,0.2,0.2,0.2h0.6c0.1,0,0.2-0.1,0.2-0.2v-4.6c0-0.1-0.1-0.2-0.2-0.2h-0.6c-0.1,0-0.2,0.1-0.2,0.2
		V150.3z M342.8,145.2c0-0.5,0.1-0.8,0.3-1.1c0.2-0.2,0.6-0.3,1.2-0.3h1.2c0.6,0,1,0.1,1.2,0.3c0.2,0.2,0.3,0.6,0.3,1.1v5.4
		c0,0.5-0.1,0.8-0.3,1.1c-0.2,0.2-0.6,0.3-1.2,0.3h-1.2c-0.6,0-1-0.1-1.2-0.3c-0.2-0.2-0.3-0.6-0.3-1.1V145.2z"/>
	<path class="st2" d="M345.2,150.3c0,0.1,0.1,0.2,0.2,0.2h0.6c0.1,0,0.2-0.1,0.2-0.2v-4.7c0-0.1-0.1-0.2-0.2-0.2h-0.6
		c-0.1,0-0.2,0.1-0.2,0.2V150.3z M343.5,145.2c0-0.5,0.1-0.8,0.3-1.1c0.2-0.2,0.6-0.3,1.2-0.3h1.2c0.6,0,1,0.1,1.2,0.3
		c0.2,0.2,0.3,0.6,0.3,1.1v5.5c0,0.5-0.1,0.8-0.3,1.1c-0.2,0.2-0.6,0.3-1.2,0.3H345c-0.6,0-1-0.1-1.2-0.3c-0.2-0.2-0.3-0.6-0.3-1.1
		V145.2z"/>
	<path class="st2" d="M340.9,150.9c0,0.2,0.1,0.3,0.2,0.3h0.7c0.2,0,0.2-0.1,0.2-0.3V145c0-0.2-0.1-0.3-0.2-0.3h-0.7
		c-0.2,0-0.2,0.1-0.2,0.3V150.9z M338.8,144.5c0-0.6,0.1-1.1,0.4-1.3c0.2-0.3,0.8-0.4,1.5-0.4h1.6c0.8,0,1.3,0.1,1.5,0.4
		c0.3,0.3,0.4,0.7,0.4,1.3v6.9c0,0.6-0.1,1.1-0.4,1.3s-0.8,0.4-1.5,0.4h-1.6c-0.7,0-1.2-0.1-1.5-0.4c-0.3-0.3-0.4-0.7-0.4-1.3V144.5
		z M23.7,167.4c0,0.1,0.1,0.2,0.2,0.2h0.6c0.1,0,0.2-0.1,0.2-0.2v-4.4c0-0.1-0.1-0.2-0.2-0.2h-0.6c-0.1,0-0.2,0.1-0.2,0.2V167.4z
		 M22.1,162.6c0-0.5,0.1-0.8,0.3-1c0.2-0.2,0.6-0.3,1.1-0.3h1.2c0.6,0,1,0.1,1.1,0.3c0.2,0.2,0.3,0.6,0.3,1v5.2c0,0.5-0.1,0.8-0.3,1
		c-0.2,0.2-0.6,0.3-1.1,0.3h-1.2c-0.6,0-0.9-0.1-1.1-0.3c-0.2-0.2-0.3-0.6-0.3-1V162.6z M44.5,162v6.9h1.3v1.6h-4.4v-1.6h1.3v-4.9
		h-1.3v-1.3l1.9-0.7C43.3,162,44.5,162,44.5,162z M178.9,168c0,0.2,0.1,0.3,0.2,0.3h0.7c0.2,0,0.2-0.1,0.2-0.3v-5.8
		c0-0.2-0.1-0.3-0.2-0.3h-0.7c-0.2,0-0.2,0.1-0.2,0.3V168z M176.9,161.7c0-0.6,0.1-1,0.4-1.3c0.2-0.3,0.7-0.4,1.5-0.4h1.5
		c0.7,0,1.2,0.1,1.5,0.4c0.2,0.3,0.4,0.7,0.4,1.3v6.8c0,0.6-0.1,1-0.4,1.3c-0.2,0.3-0.7,0.4-1.5,0.4h-1.5c-0.7,0-1.2-0.1-1.5-0.4
		c-0.3-0.3-0.4-0.7-0.4-1.3V161.7z M190.8,167.2c0,0.1,0.1,0.2,0.2,0.2h0.5c0.1,0,0.2-0.1,0.2-0.2V163c0-0.1-0.1-0.2-0.2-0.2H191
		c-0.1,0-0.2,0.1-0.2,0.2V167.2z M189.3,162.6c0-0.4,0.1-0.8,0.3-1c0.2-0.2,0.5-0.3,1.1-0.3h1.1c0.5,0,0.9,0.1,1.1,0.3
		c0.2,0.2,0.3,0.5,0.3,1v5c0,0.4-0.1,0.8-0.3,1c-0.2,0.2-0.5,0.3-1.1,0.3h-1.1c-0.5,0-0.9-0.1-1.1-0.3c-0.2-0.2-0.3-0.5-0.3-1V162.6
		z M207.4,161.2v6.3h1.2v1.5h-4v-1.5h1.2V163h-1.2v-1.2l1.7-0.6L207.4,161.2L207.4,161.2z M283.9,161.2v6.3h1.2v1.5h-4v-1.5h1.2V163
		h-1.2v-1.2l1.7-0.6H283.9z"/>
	<path class="st2" d="M285.3,159.9v8.4h1.6v2h-5.3v-2h1.6v-6.1h-1.6v-1.6l2.3-0.8H285.3z M290,167.7c0,0.2,0.1,0.2,0.2,0.2h0.6
		c0.1,0,0.2-0.1,0.2-0.2v-5.1c0-0.2-0.1-0.2-0.2-0.2h-0.6c-0.1,0-0.2,0.1-0.2,0.2V167.7z M288.2,162.1c0-0.5,0.1-0.9,0.3-1.2
		c0.2-0.2,0.7-0.4,1.3-0.4h1.4c0.7,0,1.1,0.1,1.3,0.4c0.2,0.2,0.3,0.6,0.3,1.2v6c0,0.5-0.1,0.9-0.3,1.2c-0.2,0.2-0.7,0.4-1.3,0.4
		h-1.4c-0.6,0-1.1-0.1-1.3-0.4c-0.2-0.2-0.3-0.7-0.3-1.2V162.1z"/>
	<path class="st2" d="M293.2,167.3c0,0.1,0.1,0.2,0.2,0.2h0.5c0.1,0,0.2-0.1,0.2-0.2V163c0-0.1-0.1-0.2-0.2-0.2h-0.5
		c-0.1,0-0.2,0.1-0.2,0.2V167.3z M291.7,162.6c0-0.4,0.1-0.8,0.3-1c0.2-0.2,0.6-0.3,1.1-0.3h1.2c0.6,0,0.9,0.1,1.1,0.3
		c0.2,0.2,0.3,0.5,0.3,1v5.1c0,0.4-0.1,0.8-0.3,1c-0.2,0.2-0.6,0.3-1.1,0.3h-1.2c-0.5,0-0.9-0.1-1.1-0.3c-0.2-0.2-0.3-0.5-0.3-1
		V162.6z M335.3,160v8.2h1.6v2h-5.2v-2h1.6v-5.9h-1.6v-1.5l2.2-0.8H335.3L335.3,160z M33.8,187.9c0,0.1,0.1,0.2,0.2,0.2h0.6
		c0.1,0,0.2-0.1,0.2-0.2v-4.8c0-0.1-0.1-0.2-0.2-0.2H34c-0.1,0-0.2,0.1-0.2,0.2V187.9z M32.1,182.7c0-0.5,0.1-0.9,0.3-1.1
		c0.2-0.2,0.6-0.4,1.2-0.4h1.3c0.6,0,1,0.1,1.2,0.4c0.2,0.2,0.3,0.6,0.3,1.1v5.6c0,0.5-0.1,0.9-0.3,1.1c-0.2,0.2-0.6,0.4-1.2,0.4
		h-1.3c-0.6,0-1-0.1-1.2-0.4c-0.2-0.2-0.3-0.6-0.3-1.1C32.1,188.3,32.1,182.7,32.1,182.7z M159.6,186c0,0.1,0.1,0.2,0.2,0.2h0.6
		c0.1,0,0.2-0.1,0.2-0.2v-4.9c0-0.1-0.1-0.2-0.2-0.2h-0.6c-0.1,0-0.2,0.1-0.2,0.2V186z M157.8,180.7c0-0.5,0.1-0.9,0.3-1.1
		c0.2-0.2,0.6-0.4,1.2-0.4h1.3c0.6,0,1,0.1,1.3,0.4c0.2,0.2,0.3,0.6,0.3,1.1v5.7c0,0.5-0.1,0.9-0.3,1.1c-0.2,0.2-0.6,0.4-1.3,0.4
		h-1.3c-0.6,0-1-0.1-1.2-0.4c-0.2-0.2-0.3-0.6-0.3-1.1V180.7z"/>
	<path class="st2" d="M160.7,177.2v8.2h1.6v2h-5.2v-2h1.6v-5.9h-1.6V178l2.2-0.8L160.7,177.2L160.7,177.2z M239.9,184.6
		c0,0.1,0.1,0.2,0.2,0.2h0.6c0.1,0,0.2-0.1,0.2-0.2V180c0-0.1-0.1-0.2-0.2-0.2h-0.6c-0.1,0-0.2,0.1-0.2,0.2V184.6z M238.3,179.6
		c0-0.5,0.1-0.8,0.3-1.1c0.2-0.2,0.6-0.3,1.2-0.3h1.2c0.6,0,1,0.1,1.2,0.3c0.2,0.2,0.3,0.6,0.3,1.1v5.5c0,0.5-0.1,0.8-0.3,1.1
		c-0.2,0.2-0.6,0.3-1.2,0.3h-1.2c-0.6,0-1-0.1-1.2-0.3c-0.2-0.2-0.3-0.6-0.3-1.1V179.6z M260.1,185.1c0,0.2,0.1,0.3,0.2,0.3h0.7
		c0.2,0,0.2-0.1,0.2-0.3v-5.5c0-0.2-0.1-0.3-0.2-0.3h-0.7c-0.1,0-0.2,0.1-0.2,0.3V185.1z M258.2,179.1c0-0.6,0.1-1,0.4-1.3
		c0.2-0.3,0.7-0.4,1.4-0.4h1.5c0.7,0,1.2,0.1,1.4,0.4c0.2,0.3,0.4,0.7,0.4,1.3v6.5c0,0.6-0.1,1-0.4,1.3c-0.2,0.3-0.7,0.4-1.4,0.4
		h-1.5c-0.7,0-1.2-0.1-1.4-0.4c-0.2-0.3-0.4-0.7-0.4-1.3V179.1z M233,178.3v6.4h1.3v1.5h-4.1v-1.5h1.2v-4.6h-1.2v-1.2l1.7-0.6H233z
		 M252.3,185c0,0.2,0.1,0.2,0.2,0.2h0.7c0.1,0,0.2-0.1,0.2-0.2v-5.4c0-0.2-0.1-0.2-0.2-0.2h-0.7c-0.1,0-0.2,0.1-0.2,0.2V185z
		 M250.4,179.2c0-0.6,0.1-1,0.4-1.2c0.2-0.3,0.7-0.4,1.4-0.4h1.4c0.7,0,1.1,0.1,1.4,0.4c0.2,0.3,0.4,0.7,0.4,1.2v6.3
		c0,0.5-0.1,1-0.4,1.2c-0.2,0.3-0.7,0.4-1.4,0.4h-1.4c-0.7,0-1.1-0.1-1.4-0.4c-0.2-0.3-0.4-0.7-0.4-1.2V179.2z M292,185
		c0,0.2,0.1,0.2,0.2,0.2h0.7c0.1,0,0.2-0.1,0.2-0.2v-5.5c0-0.2-0.1-0.2-0.2-0.2h-0.7c-0.1,0-0.2,0.1-0.2,0.2V185z M290.1,179.1
		c0-0.6,0.1-1,0.4-1.3c0.2-0.3,0.7-0.4,1.4-0.4h1.5c0.7,0,1.2,0.1,1.4,0.4c0.2,0.3,0.4,0.7,0.4,1.3v6.4c0,0.6-0.1,1-0.4,1.3
		c-0.2,0.3-0.7,0.4-1.4,0.4h-1.5c-0.7,0-1.2-0.1-1.4-0.4c-0.2-0.3-0.4-0.7-0.4-1.3V179.1z M325.3,184.5c0,0.1,0.1,0.2,0.2,0.2h0.5
		c0.1,0,0.2-0.1,0.2-0.2v-4.4c0-0.1-0.1-0.2-0.2-0.2h-0.5c-0.1,0-0.2,0.1-0.2,0.2V184.5z M323.7,179.7c0-0.5,0.1-0.8,0.3-1
		c0.2-0.2,0.6-0.3,1.1-0.3h1.2c0.6,0,0.9,0.1,1.1,0.3c0.2,0.2,0.3,0.5,0.3,1v5.1c0,0.4-0.1,0.8-0.3,1c-0.2,0.2-0.6,0.3-1.1,0.3h-1.2
		c-0.6,0-0.9-0.1-1.1-0.3c-0.2-0.2-0.3-0.6-0.3-1V179.7z"/>
	<path class="st2" d="M294.9,185.1c0,0.2,0.1,0.3,0.2,0.3h0.7c0.2,0,0.2-0.1,0.2-0.3v-5.6c0-0.2-0.1-0.3-0.2-0.3h-0.7
		c-0.1,0-0.2,0.1-0.2,0.3V185.1z M292.9,179c0-0.6,0.1-1,0.4-1.3c0.2-0.3,0.7-0.4,1.4-0.4h1.5c0.7,0,1.2,0.1,1.4,0.4
		c0.2,0.3,0.4,0.7,0.4,1.3v6.5c0,0.6-0.1,1-0.4,1.3c-0.2,0.3-0.7,0.4-1.4,0.4h-1.5c-0.7,0-1.2-0.1-1.4-0.4c-0.3-0.3-0.4-0.7-0.4-1.3
		V179z M329.4,184.4c0,0.1,0.1,0.2,0.2,0.2h0.5c0.1,0,0.2-0.1,0.2-0.2v-4.2c0-0.1-0.1-0.2-0.2-0.2h-0.5c-0.1,0-0.2,0.1-0.2,0.2
		V184.4z M327.9,179.8c0-0.4,0.1-0.8,0.3-1c0.2-0.2,0.5-0.3,1.1-0.3h1.1c0.5,0,0.9,0.1,1.1,0.3c0.2,0.2,0.3,0.5,0.3,1v4.9
		c0,0.4-0.1,0.8-0.3,1c-0.2,0.2-0.5,0.3-1.1,0.3h-1.1c-0.5,0-0.9-0.1-1.1-0.3c-0.2-0.2-0.3-0.5-0.3-1V179.8z M320.1,178.7v5.8h1.1
		v1.4h-3.7v-1.4h1.1v-4.2h-1.1v-1.1l1.6-0.6H320.1z M119.2,206.6v7.2h1.4v1.7h-4.6v-1.7h1.4v-5.2h-1.4v-1.3l1.9-0.7
		C118,206.6,119.2,206.6,119.2,206.6z M153,203c0,0.2,0.1,0.2,0.2,0.2h0.7c0.1,0,0.2-0.1,0.2-0.2v-5.4c0-0.2-0.1-0.2-0.2-0.2h-0.7
		c-0.1,0-0.2,0.1-0.2,0.2V203z M151.1,197.2c0-0.6,0.1-1,0.4-1.2c0.2-0.3,0.7-0.4,1.4-0.4h1.4c0.7,0,1.1,0.1,1.4,0.4
		c0.2,0.3,0.4,0.7,0.4,1.2v6.3c0,0.5-0.1,1-0.4,1.2c-0.2,0.3-0.7,0.4-1.4,0.4h-1.4c-0.7,0-1.1-0.1-1.4-0.4c-0.2-0.3-0.4-0.7-0.4-1.2
		V197.2z M215.7,201.9c0,0.1,0.1,0.2,0.2,0.2h0.6c0.1,0,0.2-0.1,0.2-0.2V197c0-0.1-0.1-0.2-0.2-0.2h-0.6c-0.1,0-0.2,0.1-0.2,0.2
		V201.9z M214,196.6c0-0.5,0.1-0.9,0.3-1.1c0.2-0.2,0.6-0.4,1.2-0.4h1.3c0.6,0,1.1,0.1,1.3,0.4c0.2,0.2,0.3,0.6,0.3,1.1v5.7
		c0,0.5-0.1,0.9-0.3,1.1s-0.6,0.4-1.3,0.4h-1.3c-0.6,0-1-0.1-1.2-0.4c-0.2-0.2-0.3-0.6-0.3-1.1V196.6z M236.9,194.7v7.6h1.5v1.8
		h-4.9v-1.8h1.5v-5.5h-1.5v-1.4l2.1-0.7L236.9,194.7L236.9,194.7z M228,194.6v7.8h1.5v1.9h-4.9v-1.9h1.5v-5.6h-1.5v-1.4l2.1-0.7H228
		z M244.9,194.4v8.2h1.6v2h-5.2v-2h1.6v-5.9h-1.6v-1.5l2.2-0.8L244.9,194.4L244.9,194.4z M295.4,194.8v7.6h1.5v1.8H292v-1.8h1.5
		v-5.5H292v-1.4l2.1-0.7H295.4z M319.5,195.9v5.7h1.1v1.4H317v-1.4h1.1v-4.1H317v-1l1.5-0.5L319.5,195.9L319.5,195.9z M327,201.8
		c0,0.1,0.1,0.2,0.2,0.2h0.6c0.1,0,0.2-0.1,0.2-0.2v-4.7c0-0.1-0.1-0.2-0.2-0.2h-0.6c-0.1,0-0.2,0.1-0.2,0.2V201.8z M325.3,196.7
		c0-0.5,0.1-0.8,0.3-1.1c0.2-0.2,0.6-0.3,1.2-0.3h1.2c0.6,0,1,0.1,1.2,0.3c0.2,0.2,0.3,0.6,0.3,1.1v5.5c0,0.5-0.1,0.8-0.3,1.1
		c-0.2,0.2-0.6,0.3-1.2,0.3h-1.2c-0.6,0-1-0.1-1.2-0.3c-0.2-0.2-0.3-0.6-0.3-1.1V196.7z"/>
	<path class="st2" d="M321.4,201.6c0,0.1,0.1,0.2,0.2,0.2h0.5c0.1,0,0.2-0.1,0.2-0.2v-4.2c0-0.1-0.1-0.2-0.2-0.2h-0.5
		c-0.1,0-0.2,0.1-0.2,0.2V201.6z M319.9,197c0-0.4,0.1-0.8,0.3-1c0.2-0.2,0.5-0.3,1.1-0.3h1.1c0.5,0,0.9,0.1,1.1,0.3
		c0.2,0.2,0.3,0.5,0.3,1v4.9c0,0.4-0.1,0.8-0.3,1c-0.2,0.2-0.5,0.3-1.1,0.3h-1.1c-0.5,0-0.9-0.1-1.1-0.3c-0.2-0.2-0.3-0.5-0.3-1V197
		z M348.7,194.3v8.4h1.6v2H345v-2h1.6v-6.1H345v-1.6l2.3-0.8H348.7z M160.2,231.8v7.6h1.5v1.8h-4.8v-1.8h1.5v-5.4h-1.5v-1.4l2-0.7
		L160.2,231.8L160.2,231.8z M198,212.5v8.4h1.6v2h-5.3v-2h1.6v-6.1h-1.6v-1.5l2.3-0.8H198z M234.8,211.5v8.4h1.6v2h-5.3v-2h1.6v-6
		h-1.6v-1.5l2.3-0.8H234.8L234.8,211.5z M218.4,212.3v7h1.4v1.7h-4.4v-1.7h1.4v-5h-1.4V213l1.9-0.7L218.4,212.3L218.4,212.3z
		 M243,218.8c0,0.1,0.1,0.2,0.2,0.2h0.5c0.1,0,0.2-0.1,0.2-0.2v-4.2c0-0.1-0.1-0.2-0.2-0.2h-0.5c-0.1,0-0.2,0.1-0.2,0.2V218.8z
		 M241.5,214.2c0-0.4,0.1-0.8,0.3-1c0.2-0.2,0.5-0.3,1.1-0.3h1.1c0.5,0,0.9,0.1,1.1,0.3c0.2,0.2,0.3,0.5,0.3,1v4.9
		c0,0.4-0.1,0.8-0.3,1c-0.2,0.2-0.5,0.3-1.1,0.3h-1.1c-0.5,0-0.9-0.1-1.1-0.3c-0.2-0.2-0.3-0.5-0.3-1V214.2z M274.1,212.7v6.4h1.3
		v1.5h-4.1v-1.5h1.2v-4.6h-1.2v-1.2l1.7-0.6L274.1,212.7L274.1,212.7z M279.4,211.8v7.9h1.5v1.9h-5v-1.9h1.5V214h-1.5v-1.4l2.1-0.8
		H279.4L279.4,211.8z M263.3,212.2v7.2h1.4v1.7h-4.6v-1.7h1.4v-5.2h-1.4v-1.3l1.9-0.7H263.3z M311.5,212.5v6.7h1.3v1.6h-4.2v-1.6
		h1.3v-4.8h-1.3v-1.2l1.8-0.6H311.5L311.5,212.5z M341.1,213v5.9h1.2v1.4h-3.8v-1.4h1.1v-4.3h-1.1v-1.1l1.6-0.6H341.1z M353.5,212.3
		v7.1h1.4v1.7h-4.5v-1.7h1.4v-5.1h-1.4V213l1.9-0.7L353.5,212.3L353.5,212.3z M323.2,219.1c0,0.1,0.1,0.2,0.2,0.2h0.6
		c0.1,0,0.2-0.1,0.2-0.2v-4.9c0-0.1-0.1-0.2-0.2-0.2h-0.6c-0.1,0-0.2,0.1-0.2,0.2V219.1z M321.4,213.8c0-0.5,0.1-0.9,0.3-1.1
		c0.2-0.2,0.6-0.4,1.3-0.4h1.3c0.6,0,1.1,0.1,1.3,0.4s0.3,0.6,0.3,1.1v5.8c0,0.5-0.1,0.9-0.3,1.1c-0.2,0.2-0.6,0.4-1.3,0.4H323
		c-0.6,0-1-0.1-1.3-0.4c-0.2-0.2-0.3-0.6-0.3-1.1V213.8z M142.6,259.3c0,0.1,0.1,0.2,0.2,0.2h0.5c0.1,0,0.2-0.1,0.2-0.2V255
		c0-0.1-0.1-0.2-0.2-0.2h-0.5c-0.1,0-0.2,0.1-0.2,0.2V259.3z M141.1,254.6c0-0.4,0.1-0.8,0.3-1c0.2-0.2,0.6-0.3,1.1-0.3h1.1
		c0.6,0,0.9,0.1,1.1,0.3c0.2,0.2,0.3,0.5,0.3,1v5c0,0.4-0.1,0.8-0.3,1c-0.2,0.2-0.6,0.3-1.1,0.3h-1.1c-0.5,0-0.9-0.1-1.1-0.3
		c-0.2-0.2-0.3-0.5-0.3-1V254.6z M210.9,237.5c0,0.2,0.1,0.2,0.2,0.2h0.7c0.1,0,0.2-0.1,0.2-0.2v-5.4c0-0.2-0.1-0.2-0.2-0.2h-0.7
		c-0.1,0-0.2,0.1-0.2,0.2V237.5z M209,231.7c0-0.6,0.1-1,0.4-1.2c0.2-0.3,0.7-0.4,1.4-0.4h1.4c0.7,0,1.2,0.1,1.4,0.4
		c0.2,0.3,0.4,0.7,0.4,1.2v6.3c0,0.5-0.1,1-0.4,1.2c-0.2,0.3-0.7,0.4-1.4,0.4h-1.4c-0.7,0-1.1-0.1-1.4-0.4c-0.2-0.3-0.4-0.7-0.4-1.2
		V231.7z M190.4,236.2c0,0.1,0.1,0.2,0.2,0.2h0.6c0.1,0,0.2-0.1,0.2-0.2v-4.8c0-0.1-0.1-0.2-0.2-0.2h-0.6c-0.1,0-0.2,0.1-0.2,0.2
		V236.2z M188.7,231c0-0.5,0.1-0.9,0.3-1.1c0.2-0.2,0.6-0.4,1.2-0.4h1.3c0.6,0,1,0.1,1.2,0.4c0.2,0.2,0.3,0.6,0.3,1.1v5.6
		c0,0.5-0.1,0.9-0.3,1.1c-0.2,0.2-0.6,0.4-1.2,0.4h-1.3c-0.6,0-1-0.1-1.2-0.4c-0.2-0.2-0.3-0.6-0.3-1.1V231z M251.7,236.5
		c0,0.2,0.1,0.2,0.2,0.2h0.7c0.1,0,0.2-0.1,0.2-0.2v-5.3c0-0.2-0.1-0.2-0.2-0.2h-0.7c-0.1,0-0.2,0.1-0.2,0.2V236.5z M249.8,230.7
		c0-0.6,0.1-1,0.3-1.2c0.2-0.3,0.7-0.4,1.4-0.4h1.4c0.7,0,1.1,0.1,1.4,0.4c0.2,0.3,0.3,0.7,0.3,1.2v6.2c0,0.5-0.1,1-0.3,1.2
		c-0.2,0.3-0.7,0.4-1.4,0.4h-1.4c-0.7,0-1.1-0.1-1.4-0.4c-0.2-0.3-0.3-0.7-0.3-1.2V230.7z M276,235.9c0,0.1,0.1,0.2,0.2,0.2h0.5
		c0.1,0,0.2-0.1,0.2-0.2v-4.2c0-0.1-0.1-0.2-0.2-0.2h-0.5c-0.1,0-0.2,0.1-0.2,0.2V235.9z M274.5,231.4c0-0.4,0.1-0.8,0.3-1
		c0.2-0.2,0.5-0.3,1.1-0.3h1.1c0.5,0,0.9,0.1,1.1,0.3c0.2,0.2,0.3,0.5,0.3,1v4.9c0,0.4-0.1,0.8-0.3,1c-0.2,0.2-0.5,0.3-1.1,0.3h-1.1
		c-0.5,0-0.9-0.1-1.1-0.3c-0.2-0.2-0.3-0.5-0.3-1V231.4z M231.6,236.5c0,0.2,0.1,0.2,0.2,0.2h0.7c0.1,0,0.2-0.1,0.2-0.2v-5.3
		c0-0.2-0.1-0.2-0.2-0.2h-0.7c-0.1,0-0.2,0.1-0.2,0.2V236.5z M229.7,230.7c0-0.6,0.1-1,0.3-1.2c0.2-0.3,0.7-0.4,1.4-0.4h1.4
		c0.7,0,1.1,0.1,1.4,0.4c0.2,0.3,0.4,0.7,0.4,1.2v6.3c0,0.5-0.1,1-0.4,1.2c-0.2,0.3-0.7,0.4-1.4,0.4h-1.4c-0.7,0-1.1-0.1-1.4-0.4
		c-0.2-0.3-0.3-0.7-0.3-1.2V230.7L229.7,230.7z M286.3,236.1c0,0.1,0.1,0.2,0.2,0.2h0.5c0.1,0,0.2-0.1,0.2-0.2v-4.4
		c0-0.1-0.1-0.2-0.2-0.2h-0.5c-0.1,0-0.2,0.1-0.2,0.2V236.1z M284.7,231.2c0-0.5,0.1-0.8,0.3-1c0.2-0.2,0.6-0.3,1.1-0.3h1.2
		c0.6,0,0.9,0.1,1.1,0.3c0.2,0.2,0.3,0.6,0.3,1v5.2c0,0.4-0.1,0.8-0.3,1c-0.2,0.2-0.6,0.3-1.1,0.3h-1.2c-0.6,0-0.9-0.1-1.1-0.3
		c-0.2-0.2-0.3-0.6-0.3-1V231.2z M309.2,236.4c0,0.2,0.1,0.2,0.2,0.2h0.6c0.1,0,0.2-0.1,0.2-0.2v-5.1c0-0.2-0.1-0.2-0.2-0.2h-0.6
		c-0.1,0-0.2,0.1-0.2,0.2V236.4z M307.4,230.9c0-0.5,0.1-0.9,0.3-1.2c0.2-0.2,0.7-0.4,1.3-0.4h1.4c0.7,0,1.1,0.1,1.3,0.4
		c0.2,0.2,0.3,0.6,0.3,1.2v6c0,0.5-0.1,0.9-0.3,1.2c-0.2,0.2-0.7,0.4-1.3,0.4H309c-0.6,0-1.1-0.1-1.3-0.4c-0.2-0.2-0.3-0.6-0.3-1.2
		V230.9z"/>
	<path class="st2" d="M287.4,229.7v6.6h1.3v1.6h-4.2v-1.6h1.3v-4.8h-1.3v-1.2l1.8-0.6H287.4z M345.6,230v6.2h1.2v1.5h-3.9v-1.5h1.2
		v-4.5h-1.2v-1.1l1.7-0.6H345.6L345.6,230z M354,230.2v5.8h1.1v1.4h-3.7V236h1.1v-4.2h-1.1v-1.1l1.6-0.6H354z M326.4,229.3v7.4h1.4
		v1.8h-4.7v-1.8h1.4v-5.3h-1.4V230l2-0.7L326.4,229.3L326.4,229.3z M192.6,261.3v6.1h1.2v1.5h-3.9v-1.5h1.2V263h-1.2v-1.1l1.7-0.6
		H192.6L192.6,261.3z M228.3,254c0,0.1,0.1,0.2,0.2,0.2h0.5c0.1,0,0.2-0.1,0.2-0.2v-4.1c0-0.1-0.1-0.2-0.2-0.2h-0.5
		c-0.1,0-0.2,0.1-0.2,0.2V254z M226.8,249.5c0-0.4,0.1-0.7,0.3-0.9c0.2-0.2,0.5-0.3,1.1-0.3h1.1c0.5,0,0.9,0.1,1.1,0.3
		c0.2,0.2,0.3,0.5,0.3,0.9v4.9c0,0.4-0.1,0.7-0.3,0.9c-0.2,0.2-0.5,0.3-1.1,0.3h-1.1c-0.5,0-0.9-0.1-1.1-0.3
		c-0.2-0.2-0.3-0.5-0.3-0.9V249.5z M219.6,253.2c0,0.1,0.1,0.2,0.2,0.2h0.5c0.1,0,0.2-0.1,0.2-0.2v-4.3c0-0.1-0.1-0.2-0.2-0.2h-0.5
		c-0.1,0-0.2,0.1-0.2,0.2V253.2z M218.1,248.5c0-0.4,0.1-0.8,0.3-1c0.2-0.2,0.6-0.3,1.1-0.3h1.1c0.6,0,0.9,0.1,1.1,0.3
		c0.2,0.2,0.3,0.5,0.3,1v5.1c0,0.4-0.1,0.8-0.3,1c-0.2,0.2-0.6,0.3-1.1,0.3h-1.1c-0.5,0-0.9-0.1-1.1-0.3c-0.2-0.2-0.3-0.5-0.3-1
		V248.5z M253.6,247.4v5.8h1.1v1.4h-3.7v-1.4h1.1V249h-1.1V248l1.6-0.6L253.6,247.4L253.6,247.4z"/>
	<path class="st2" d="M250.5,253.5c0,0.2,0.1,0.2,0.2,0.2h0.6c0.1,0,0.2-0.1,0.2-0.2v-5c0-0.2-0.1-0.2-0.2-0.2h-0.6
		c-0.1,0-0.2,0.1-0.2,0.2V253.5z M248.7,248.1c0-0.5,0.1-0.9,0.3-1.1c0.2-0.2,0.6-0.4,1.3-0.4h1.3c0.6,0,1.1,0.1,1.3,0.4
		c0.2,0.2,0.3,0.6,0.3,1.1v5.8c0,0.5-0.1,0.9-0.3,1.1c-0.2,0.2-0.6,0.4-1.3,0.4h-1.3c-0.6,0-1.1-0.1-1.3-0.4
		c-0.2-0.2-0.3-0.6-0.3-1.1V248.1z M291.3,253.6c0,0.2,0.1,0.2,0.2,0.2h0.6c0.1,0,0.2-0.1,0.2-0.2v-5.1c0-0.2-0.1-0.2-0.2-0.2h-0.6
		c-0.1,0-0.2,0.1-0.2,0.2V253.6z M289.5,248c0-0.5,0.1-0.9,0.3-1.2c0.2-0.2,0.7-0.4,1.3-0.4h1.4c0.7,0,1.1,0.1,1.3,0.4
		c0.2,0.2,0.3,0.6,0.3,1.2v6c0,0.5-0.1,0.9-0.3,1.2c-0.2,0.2-0.7,0.4-1.3,0.4h-1.4c-0.6,0-1.1-0.1-1.3-0.4c-0.2-0.2-0.3-0.6-0.3-1.2
		V248z M258.7,253.1c0,0.1,0.1,0.2,0.2,0.2h0.5c0.1,0,0.2-0.1,0.2-0.2v-4.2c0-0.1-0.1-0.2-0.2-0.2h-0.5c-0.1,0-0.2,0.1-0.2,0.2
		V253.1z M257.2,248.6c0-0.4,0.1-0.8,0.3-1c0.2-0.2,0.5-0.3,1.1-0.3h1.1c0.5,0,0.9,0.1,1.1,0.3c0.2,0.2,0.3,0.5,0.3,1v4.9
		c0,0.4-0.1,0.8-0.3,1c-0.2,0.2-0.5,0.3-1.1,0.3h-1.1c-0.5,0-0.9-0.1-1.1-0.3c-0.2-0.2-0.3-0.5-0.3-1V248.6z M274.4,247.2v6.1h1.2
		v1.5h-3.9v-1.5h1.2v-4.4h-1.2v-1.1l1.7-0.6L274.4,247.2L274.4,247.2z M325.6,253.4c0,0.1,0.1,0.2,0.2,0.2h0.6
		c0.1,0,0.2-0.1,0.2-0.2v-4.8c0-0.1-0.1-0.2-0.2-0.2h-0.6c-0.1,0-0.2,0.1-0.2,0.2V253.4z M323.9,248.2c0-0.5,0.1-0.9,0.3-1.1
		c0.2-0.2,0.6-0.4,1.2-0.4h1.3c0.6,0,1,0.1,1.2,0.4c0.2,0.2,0.3,0.6,0.3,1.1v5.6c0,0.5-0.1,0.9-0.3,1.1c-0.2,0.2-0.6,0.3-1.2,0.3
		h-1.3c-0.6,0-1-0.1-1.2-0.3c-0.2-0.2-0.3-0.6-0.3-1.1V248.2z M352.1,253.9c0,0.2,0.1,0.3,0.2,0.3h0.7c0.2,0,0.2-0.1,0.2-0.3v-5.7
		c0-0.2-0.1-0.3-0.2-0.3h-0.7c-0.2,0-0.2,0.1-0.2,0.3V253.9z M350.1,247.7c0-0.6,0.1-1,0.4-1.3c0.2-0.3,0.7-0.4,1.4-0.4h1.5
		c0.7,0,1.2,0.1,1.5,0.4c0.2,0.3,0.4,0.7,0.4,1.3v6.7c0,0.6-0.1,1-0.4,1.3c-0.2,0.3-0.7,0.4-1.5,0.4h-1.5c-0.7,0-1.2-0.1-1.4-0.4
		c-0.3-0.3-0.4-0.7-0.4-1.3V247.7z"/>
	<path class="st2" d="M351.4,253.7c0,0.2,0.1,0.2,0.2,0.2h0.7c0.1,0,0.2-0.1,0.2-0.2v-5.3c0-0.2-0.1-0.2-0.2-0.2h-0.7
		c-0.1,0-0.2,0.1-0.2,0.2V253.7z M349.6,247.9c0-0.6,0.1-1,0.3-1.2c0.2-0.3,0.7-0.4,1.4-0.4h1.4c0.7,0,1.1,0.1,1.4,0.4
		c0.2,0.3,0.3,0.7,0.3,1.2v6.2c0,0.5-0.1,1-0.3,1.2c-0.2,0.3-0.7,0.4-1.4,0.4h-1.4c-0.7,0-1.1-0.1-1.4-0.4c-0.2-0.3-0.3-0.7-0.3-1.2
		V247.9z"/>
	<path class="st2" d="M350.6,245.8v8.4h1.6v2h-5.3v-2h1.6v-6h-1.6v-1.5l2.3-0.8L350.6,245.8L350.6,245.8z M214.6,271.4v7.8h1.5v1.9
		h-5v-1.9h1.5v-5.6h-1.5v-1.4l2.1-0.7H214.6z"/>
	<path class="st2" d="M212.4,264.2v7.5h1.5v1.8h-4.7v-1.8h1.4v-5.4h-1.4v-1.4l2-0.7L212.4,264.2L212.4,264.2z M252.6,295.7
		c0,0.1,0.1,0.2,0.2,0.2h0.5c0.1,0,0.2-0.1,0.2-0.2v-4.1c0-0.1-0.1-0.2-0.2-0.2h-0.5c-0.1,0-0.2,0.1-0.2,0.2V295.7z M251.2,291.3
		c0-0.4,0.1-0.7,0.3-0.9c0.2-0.2,0.5-0.3,1-0.3h1.1c0.5,0,0.9,0.1,1,0.3c0.2,0.2,0.3,0.5,0.3,0.9v4.8c0,0.4-0.1,0.7-0.3,0.9
		c-0.2,0.2-0.5,0.3-1,0.3h-1.1c-0.5,0-0.9-0.1-1-0.3c-0.2-0.2-0.3-0.5-0.3-0.9V291.3z"/>
	<path class="st2" d="M211.9,263.4v7.8h1.5v1.9h-4.9v-1.9h1.5v-5.6h-1.5v-1.4l2.1-0.7L211.9,263.4L211.9,263.4z M248.6,271.1
		c0,0.2,0.1,0.3,0.2,0.3h0.7c0.2,0,0.2-0.1,0.2-0.3v-5.8c0-0.2-0.1-0.3-0.2-0.3h-0.7c-0.2,0-0.2,0.1-0.2,0.3V271.1z M246.5,264.8
		c0-0.6,0.1-1.1,0.4-1.3c0.2-0.3,0.8-0.4,1.5-0.4h1.6c0.8,0,1.3,0.1,1.5,0.4c0.2,0.3,0.4,0.7,0.4,1.3v6.9c0,0.6-0.1,1.1-0.4,1.3
		c-0.3,0.3-0.8,0.4-1.5,0.4h-1.6c-0.7,0-1.2-0.1-1.5-0.4c-0.3-0.3-0.4-0.7-0.4-1.3V264.8z M285.6,270.4c0,0.1,0.1,0.2,0.2,0.2h0.5
		c0.1,0,0.2-0.1,0.2-0.2V266c0-0.1-0.1-0.2-0.2-0.2h-0.5c-0.1,0-0.2,0.1-0.2,0.2V270.4z M284.1,265.7c0-0.4,0.1-0.8,0.3-1
		c0.2-0.2,0.6-0.3,1.1-0.3h1.1c0.6,0,0.9,0.1,1.1,0.3c0.2,0.2,0.3,0.5,0.3,1v5.1c0,0.4-0.1,0.8-0.3,1c-0.2,0.2-0.6,0.3-1.1,0.3h-1.1
		c-0.5,0-0.9-0.1-1.1-0.3c-0.2-0.2-0.3-0.5-0.3-1V265.7z M260.5,270.8c0,0.2,0.1,0.2,0.2,0.2h0.6c0.1,0,0.2-0.1,0.2-0.2v-5.2
		c0-0.2-0.1-0.2-0.2-0.2h-0.6c-0.1,0-0.2,0.1-0.2,0.2V270.8z M258.7,265.2c0-0.5,0.1-0.9,0.3-1.2c0.2-0.2,0.7-0.4,1.3-0.4h1.4
		c0.7,0,1.1,0.1,1.3,0.4c0.2,0.2,0.3,0.6,0.3,1.2v6c0,0.5-0.1,0.9-0.3,1.2c-0.2,0.2-0.7,0.4-1.3,0.4h-1.4c-0.6,0-1.1-0.1-1.3-0.4
		c-0.2-0.2-0.3-0.7-0.3-1.2V265.2z M311.6,270.3c0,0.1,0.1,0.2,0.2,0.2h0.5c0.1,0,0.2-0.1,0.2-0.2v-4.2c0-0.1-0.1-0.2-0.2-0.2h-0.5
		c-0.1,0-0.2,0.1-0.2,0.2V270.3z M310.2,265.8c0-0.4,0.1-0.8,0.3-1c0.2-0.2,0.5-0.3,1.1-0.3h1.1c0.5,0,0.9,0.1,1.1,0.3
		c0.2,0.2,0.3,0.5,0.3,1v4.9c0,0.4-0.1,0.8-0.3,1c-0.2,0.2-0.5,0.3-1.1,0.3h-1.1c-0.5,0-0.9-0.1-1.1-0.3c-0.2-0.2-0.3-0.5-0.3-1
		V265.8z M344.9,263.1v8.2h1.6v2h-5.2v-2h1.6v-5.9h-1.6v-1.5l2.2-0.8H344.9L344.9,263.1z M292,270.7c0,0.2,0.1,0.2,0.2,0.2h0.6
		c0.1,0,0.2-0.1,0.2-0.2v-4.9c0-0.1-0.1-0.2-0.2-0.2h-0.6c-0.1,0-0.2,0.1-0.2,0.2V270.7z M290.3,265.3c0-0.5,0.1-0.9,0.3-1.1
		c0.2-0.2,0.6-0.4,1.3-0.4h1.3c0.6,0,1.1,0.1,1.3,0.4c0.2,0.2,0.3,0.6,0.3,1.1v5.8c0,0.5-0.1,0.9-0.3,1.1c-0.2,0.2-0.6,0.4-1.3,0.4
		h-1.3c-0.6,0-1-0.1-1.3-0.4c-0.2-0.2-0.3-0.6-0.3-1.1V265.3z"/>
	<path class="st2" d="M315.1,263v8.5h1.7v2h-5.4v-2h1.6v-6.1h-1.6v-1.6l2.3-0.8H315.1z M340.8,264v6.8h1.3v1.6h-4.3v-1.6h1.3v-4.9
		h-1.3v-1.2l1.8-0.6H340.8z"/>
	<path class="st2" d="M340.7,264.6v5.9h1.1v1.4h-3.7v-1.4h1.1v-4.2h-1.1v-1.1l1.6-0.6L340.7,264.6L340.7,264.6z"/>
</g>
</svg>
